<?xml version="1.0" encoding="utf-8"?>
<!-- Generator: Adobe Illustrator 23.1.1, SVG Export Plug-In . SVG Version: 6.00 Build 0)  -->
<svg version="1.1" id="圖層_1" xmlns="http://www.w3.org/2000/svg" xmlns:xlink="http://www.w3.org/1999/xlink" x="0px" y="0px"
	 viewBox="0 0 913 16" style="enable-background:new 0 0 913 16;" xml:space="preserve">
<style type="text/css">
	.st0{fill:#FFFFFF;}
	.st1{fill:none;stroke:#FFFFFF;stroke-width:0.5;stroke-miterlimit:10;}
</style>
<g>
	<g>
		<path class="st0" d="M2.3,8.9v2c0,1.9,0.1,3.4,0.2,4.6l0,0.1c-0.3,0-0.7-0.1-1.2-0.1c-0.5,0-0.9,0-1.2,0.1l0-0.1
			c0.1-1,0.2-2.6,0.2-4.6V5.2c0-2-0.1-3.5-0.2-4.6l0-0.1c0.3,0,0.7,0,1.2,0c0.2,0,0.8,0,1.6,0c0.8,0,1.3,0,1.5,0c0.6,0,1.1,0,1.5,0
			c0.4,0,0.9,0.1,1.4,0.3c0.5,0.2,1,0.4,1.3,0.7c0.8,0.8,1.2,1.7,1.2,2.8c0,0.9-0.2,1.6-0.6,2.2c-0.4,0.6-1,1.1-1.6,1.4
			C7.3,8.3,6.8,8.5,6.2,8.6c0.4,0.5,1.2,1.6,2.4,3.4c1.2,1.8,2.1,2.9,2.5,3.4l0,0.1c-0.3,0-0.8-0.1-1.4-0.1c-0.6,0-1.1,0-1.4,0.1
			c-0.1-0.4-0.4-1-0.8-1.8c-0.4-0.8-0.9-1.6-1.3-2.3l-0.4-0.7L5.3,10C5.2,9.8,5.1,9.6,4.9,9.4C4.7,9.2,4.6,9,4.4,8.8
			C3.8,8.8,3.1,8.9,2.3,8.9z M4.4,1.5c-0.5,0-0.9,0-1.2,0c-0.3,0-0.5,0-0.6,0.1C2.5,1.7,2.4,1.8,2.4,1.9c0,0.1,0,0.3,0,0.5V8h1.3
			c0.5,0,0.9,0,1.3-0.1C5.3,7.8,5.7,7.7,6,7.5c0.4-0.2,0.6-0.4,0.9-0.6c0.2-0.3,0.4-0.6,0.6-1C7.6,5.5,7.7,5,7.7,4.5
			c0-0.5-0.1-0.9-0.2-1.3C7.4,2.9,7.2,2.6,7,2.4C6.8,2.2,6.5,2,6.2,1.9C5.9,1.7,5.6,1.6,5.3,1.6C5,1.6,4.8,1.5,4.4,1.5z"/>
		<path class="st0" d="M31.5,7.9c0,1.5-0.3,2.8-0.9,4C30,13.1,29.1,14,28,14.6c-1.1,0.7-2.4,1-3.8,1c-1.3,0-2.5-0.3-3.6-0.9
			s-2-1.4-2.6-2.6c-0.7-1.1-1-2.4-1-3.9c0-1.5,0.3-2.8,0.9-4c0.6-1.2,1.5-2.2,2.6-2.9c1.1-0.7,2.3-1,3.7-1c1.4,0,2.6,0.3,3.7,0.9
			c1.1,0.6,2,1.5,2.6,2.6C31.2,5.1,31.5,6.4,31.5,7.9z M23.9,1.4c-0.5,0-0.9,0.1-1.3,0.2c-0.4,0.1-0.8,0.4-1.2,0.7
			c-0.4,0.3-0.7,0.7-1,1.2C20,4,19.8,4.7,19.6,5.4c-0.2,0.8-0.3,1.6-0.3,2.5c0,1.1,0.1,2,0.4,2.9c0.3,0.9,0.7,1.6,1.2,2.1
			s1.1,1,1.7,1.3c0.6,0.3,1.3,0.4,2,0.4c1.3,0,2.4-0.6,3.2-1.7c0.8-1.1,1.2-2.6,1.2-4.6c0-2.3-0.5-4-1.4-5.2
			C26.8,2,25.5,1.4,23.9,1.4z"/>
		<path class="st0" d="M43.7,8.9c0,3.5,0.1,5.7,0.2,6.6c-0.3,0-0.7-0.1-1.1-0.1c-0.5,0-0.9,0-1.1,0.1c0.1-1.2,0.2-3.3,0.2-6.3
			l-2.7-4.4l-2.6-4.2c0.4,0,0.8,0.1,1.3,0.1c0.5,0,0.9,0,1.3-0.1l1.2,2.1l1.6,2.7l1.3,2.2c1.7-2.6,3-5,4-7c0.3,0,0.6,0.1,1,0.1
			c0.3,0,0.7,0,1-0.1l-1.8,2.7l-1.6,2.4l-1,1.6C44.2,7.9,43.9,8.5,43.7,8.9z"/>
		<path class="st0" d="M56.2,10.2c-0.9,2.3-1.6,4-1.9,5.3c-0.2,0-0.5-0.1-1-0.1c-0.3,0-0.6,0-0.8,0.1l6.7-15.1h0.6L62,5.8l2.5,6.1
			c0.7,1.7,1.2,2.9,1.6,3.6c-0.3,0-0.7-0.1-1.4-0.1c-0.5,0-0.9,0-1.1,0.1c-0.3-1.2-0.9-3-1.8-5.3c-0.9,0-1.7,0-2.7,0
			C58,10.2,57.1,10.2,56.2,10.2z M61.4,9.1c-0.7-1.9-1.5-3.8-2.3-5.6h0l-2.4,5.6c0.1,0,0.5,0,1.1,0c0.6,0,1,0,1.3,0
			C59.9,9.1,60.6,9.1,61.4,9.1z"/>
		<path class="st0" d="M74.9,5.2v5.6c0,1.7,0.1,2.7,0.2,3.2c0.9,0,1.9,0,3-0.1c1.1-0.1,1.9-0.2,2.5-0.2l0.9-0.1l0,0.1
			c0,0.2,0,0.5,0,0.8c0,0.2,0,0.6,0,1l0,0.1c-0.4,0-0.8-0.1-1.4-0.1h-6.2c-0.2,0-0.4,0-0.6,0c-0.2,0-0.3,0-0.4,0l-0.1,0l0-0.1
			c0.1-1,0.2-2.6,0.2-4.6V5.2c0-2-0.1-3.5-0.2-4.6l0-0.1c0.3,0,0.7,0.1,1.2,0.1c0.5,0,0.9,0,1.2-0.1l0,0.1C75,1.7,74.9,3.3,74.9,5.2
			z"/>
		<path class="st0" d="M104.7,0.4c0.5,0,1,0,1.6,0.1c0.5,0.1,1,0.2,1.4,0.3c0.4,0.1,0.7,0.2,1.1,0.3c0.3,0.1,0.6,0.2,0.7,0.3
			l0.2,0.1l0,0.1l-0.1,0.6l-0.1,0.5c0,0.1,0,0.2-0.1,0.4c0,0.2-0.1,0.3-0.1,0.5c0,0.2,0,0.4-0.1,0.6L109,4c-0.9-1.7-2.4-2.6-4.6-2.6
			c-0.4,0-0.8,0.1-1.2,0.2c-0.4,0.1-0.8,0.4-1.3,0.7c-0.4,0.3-0.8,0.7-1.2,1.2c-0.3,0.5-0.6,1.1-0.8,1.8c-0.2,0.7-0.3,1.5-0.3,2.4
			c0,0.7,0.1,1.3,0.2,2c0.1,0.6,0.3,1.2,0.6,1.8c0.3,0.6,0.6,1.1,1,1.5c0.4,0.4,0.9,0.8,1.5,1c0.6,0.2,1.2,0.4,1.9,0.4
			c1.1,0,1.9-0.2,2.6-0.5c0.7-0.3,1.4-1,2.2-1.8l0.5,0.4c-1.6,2.1-3.4,3.1-5.6,3.1c-1,0-1.8-0.1-2.6-0.4c-0.8-0.3-1.5-0.7-2.1-1.1
			c-0.6-0.5-1.1-1-1.5-1.7c-0.4-0.6-0.7-1.3-0.9-2c-0.2-0.7-0.3-1.4-0.3-2.2c0-1.1,0.2-2.1,0.6-3.1c0.4-1,1-1.8,1.7-2.5
			c0.7-0.7,1.5-1.2,2.4-1.6C102.8,0.6,103.7,0.4,104.7,0.4z"/>
		<path class="st0" d="M119.6,10.2c-0.9,2.3-1.6,4-1.9,5.3c-0.2,0-0.5-0.1-1-0.1c-0.3,0-0.6,0-0.8,0.1l6.7-15.1h0.6l2.2,5.4l2.5,6.1
			c0.7,1.7,1.2,2.9,1.6,3.6c-0.3,0-0.7-0.1-1.4-0.1c-0.5,0-0.9,0-1.1,0.1c-0.3-1.2-0.9-3-1.8-5.3c-0.9,0-1.7,0-2.7,0
			C121.5,10.2,120.5,10.2,119.6,10.2z M124.8,9.1c-0.7-1.9-1.5-3.8-2.3-5.6h0l-2.4,5.6c0.1,0,0.5,0,1.1,0c0.6,0,1,0,1.3,0
			C123.3,9.1,124.1,9.1,124.8,9.1z"/>
		<path class="st0" d="M139.5,14.6c0.7,0,1.3-0.2,1.9-0.7c0.5-0.5,0.8-1.1,0.8-1.9c0-0.5-0.1-0.9-0.2-1.2c-0.1-0.4-0.3-0.7-0.6-0.9
			c-0.3-0.3-0.5-0.5-0.8-0.6c-0.3-0.2-0.6-0.3-1.1-0.5c-0.5-0.2-0.8-0.4-1.1-0.5c-0.3-0.2-0.7-0.4-1-0.6c-0.4-0.3-0.7-0.5-0.9-0.8
			c-0.2-0.3-0.4-0.6-0.6-1c-0.2-0.4-0.2-0.8-0.2-1.3c0-0.8,0.2-1.5,0.7-2.2c0.5-0.6,1.1-1.1,1.8-1.4c0.6-0.3,1.3-0.4,2-0.4
			c0.5,0,1,0,1.4,0.1c0.4,0.1,0.8,0.2,1,0.3c0.3,0.1,0.5,0.2,0.7,0.3c0.2,0.1,0.3,0.2,0.4,0.3l0.1,0.1l0,0.1c-0.3,1-0.5,1.7-0.5,2.3
			l-0.2,0c-0.3-0.7-0.8-1.3-1.3-1.7c-0.6-0.4-1.2-0.7-1.8-0.7c-0.6,0-1,0.1-1.4,0.3c-0.3,0.2-0.5,0.4-0.7,0.8
			c-0.2,0.4-0.3,0.8-0.3,1.2c0,0.4,0.1,0.7,0.2,1c0.1,0.3,0.3,0.6,0.4,0.7c0.2,0.2,0.4,0.4,0.7,0.6c0.3,0.2,0.5,0.3,0.7,0.4
			c0.2,0.1,0.4,0.2,0.7,0.3c0.4,0.2,0.8,0.3,1.1,0.5c0.3,0.2,0.7,0.4,1.1,0.7c0.4,0.3,0.7,0.6,1,0.9c0.3,0.3,0.5,0.7,0.6,1.1
			c0.2,0.4,0.3,0.9,0.3,1.4c0,1.3-0.5,2.4-1.4,3.2c-0.9,0.8-2.1,1.2-3.6,1.2c-0.5,0-1,0-1.4-0.1c-0.5-0.1-0.9-0.2-1.2-0.3
			c-0.3-0.1-0.6-0.2-0.8-0.3c-0.2-0.1-0.4-0.2-0.5-0.2l-0.2-0.1l0-0.1c0-0.1,0.1-0.2,0.1-0.5l0.2-0.6c0-0.1,0.1-0.3,0.1-0.6
			c0-0.2,0.1-0.4,0.1-0.6l0.2,0c0.3,0.7,0.9,1.3,1.6,1.7C138.2,14.4,138.9,14.6,139.5,14.6z"/>
		<path class="st0" d="M154.8,5.3c0-1.8-0.1-2.9-0.2-3.3c-0.9,0-1.7,0-2.5,0c-0.8,0-1.3,0-1.6,0.1L150,2.3l0-0.1c0-0.4,0-0.9,0-1.5
			l0-0.1c0.4,0,0.8,0.1,1.4,0.1h8.8c0.5,0,1,0,1.4-0.1l0,0.1c0,0.6,0,1.1,0,1.5l0,0.1C160.5,2.1,159,2,157,2
			c-0.1,0.4-0.2,1.5-0.2,3.3v5.6c0,1.9,0.1,3.4,0.2,4.6l-0.1,0.1c-0.3,0-0.7-0.1-1.2-0.1c-0.5,0-0.9,0-1.2,0.1l-0.1-0.1
			c0.2-1.1,0.2-2.6,0.2-4.5V5.3z"/>
		<path class="st0" d="M171,5.2v5.6c0,1.7,0.1,2.7,0.2,3.2c0.9,0,1.9,0,3-0.1c1.1-0.1,1.9-0.2,2.5-0.2l0.9-0.1l0,0.1
			c0,0.2,0,0.5,0,0.8c0,0.2,0,0.6,0,1l0,0.1c-0.4,0-0.8-0.1-1.4-0.1H170c-0.2,0-0.4,0-0.6,0c-0.2,0-0.3,0-0.4,0l-0.1,0l0-0.1
			c0.1-1,0.2-2.6,0.2-4.6V5.2c0-2-0.1-3.5-0.2-4.6l0-0.1c0.3,0,0.7,0.1,1.2,0.1c0.5,0,0.9,0,1.2-0.1l0,0.1
			C171.1,1.7,171,3.3,171,5.2z"/>
		<path class="st0" d="M186.8,10.8c0,1.7,0.1,2.8,0.2,3.2c0.9,0,1.9,0,3,0c1.1,0,1.9,0,2.5-0.1l0.9-0.1l0,0.1c0,0.2,0,0.5,0,0.8
			c0,0,0,0.3,0,0.7l0,0.1c-0.4,0-0.8,0-1.4,0h-6.2c-0.2,0-0.5,0-0.7,0c-0.2,0-0.3,0-0.4,0l-0.1,0l0-0.1c0.1-1,0.2-2.6,0.2-4.6V5.2
			c0-2-0.1-3.5-0.2-4.6l0-0.1c0.3,0,0.6,0.1,1.2,0.1h6c0.5,0,1,0,1.4-0.1l0,0.1c0,0.4,0,0.7,0,0.9c0,0.2,0,0.4,0,0.6l0,0.1
			C191.1,2.1,189,2,187,2c-0.1,0.4-0.2,1.5-0.2,3.3V7c1.6,0,3.3-0.1,5.1-0.2l0.1,0.1c0,0.2-0.1,0.4-0.1,0.7c0,0.3,0,0.5,0.1,0.7
			l-0.1,0.1c-1.5-0.1-3.2-0.2-5.1-0.2V10.8z"/>
	</g>
	<line class="st1" x1="218.9" y1="8.6" x2="912.9" y2="8.6"/>
</g>
</svg>
