<svg id="mob2-1_icon" xmlns="http://www.w3.org/2000/svg" width="245.221" height="13.385" viewBox="0 0 245.221 13.385">
  <g id="Group_32" data-name="Group 32" transform="translate(0)">
    <g id="Group_28" data-name="Group 28">
      <path id="Path_179" data-name="Path 179" d="M1252.4,1684.362v1.7l3.269.13v-2.12Z" transform="translate(-1246 -1679.286)" fill="#fff"/>
      <path id="Path_180" data-name="Path 180" d="M1260.612,1682.069c0-1.536-2.979-2.783-6.653-2.783s-6.654,1.247-6.654,2.783,2.979,2.784,6.654,2.784S1260.612,1683.607,1260.612,1682.069Z" transform="translate(-1246 -1679.286)" fill="#0097e0"/>
      <path id="Path_181" data-name="Path 181" d="M1261.918,1688.639c0-1.8-3.563-3.265-7.959-3.265s-7.959,1.462-7.959,3.265,3.563,3.266,7.959,3.266S1261.918,1690.443,1261.918,1688.639Z" transform="translate(-1246 -1679.286)" fill="#009044"/>
      <path id="Path_182" data-name="Path 182" d="M1250.507,1682.069h3.022v.4h-.445a.421.421,0,0,0-.283.082.277.277,0,0,0-.093.219v2.081h2.488v-1.973a.417.417,0,0,0-.1-.318.486.486,0,0,0-.333-.091h-.379v-.4h3.025v.4h-.4a.5.5,0,0,0-.331.086.337.337,0,0,0-.1.266v4.795a.413.413,0,0,0,.1.306.385.385,0,0,0,.28.1h.454v.4h-3.025v-.4h.458a.374.374,0,0,0,.271-.082.378.378,0,0,0,.082-.274v-2.284h-2.488v2.284a.39.39,0,0,0,.08.27.281.281,0,0,0,.216.086h.525v.4h-3.022v-.4h.486a.317.317,0,0,0,.244-.084.394.394,0,0,0,.078-.272v-4.785a.411.411,0,0,0-.1-.316.474.474,0,0,0-.326-.093h-.38Z" transform="translate(-1246 -1679.286)" fill="#fff"/>
    </g>
    <g id="Group_30" data-name="Group 30" transform="translate(83.204)">
      <path id="Path_183" data-name="Path 183" d="M1336.372,1688.8a1.94,1.94,0,0,1,.009.743c-.078.381-1.005,1.107-1.005,1.107l-.119,1.019,1.588.338,2.411-.667-.518-1.356-.882-.455a2.481,2.481,0,0,1,.086-.9,10.2,10.2,0,0,1,2-1.244l2.122-1.632-.3-1.433-1.684-.989-1.418-1.249-2.418-.9-2.048,1.234-1.825,2.7,3.242,3.272Z" transform="translate(-1329.204 -1679.286)" fill="#fff"/>
      <g id="Group_29" data-name="Group 29">
        <path id="Path_184" data-name="Path 184" d="M1343.875,1683.123a17.72,17.72,0,0,1-3.469-.564c-2.459-.8-2.511-1.207-4.556-2.241a6.2,6.2,0,0,0-2.839-1.032,3.721,3.721,0,0,0-3.806,3.69s-.2,5.612,7.131,5.83l.036,0a2.268,2.268,0,0,0-.322-.84.853.853,0,0,0,1.087-.5.953.953,0,0,0,1,.1c.526-.28,1.128-.658,1.128-.658a4.989,4.989,0,0,0-1.32,1.731c1.854-.267,4.882-.923,6.722-2.473a1.87,1.87,0,0,0,.788-1.41A1.6,1.6,0,0,0,1343.875,1683.123Zm-9.607,3.276a3.321,3.321,0,0,1-1.024-1.388,3.19,3.19,0,0,1,1.5.811,3.318,3.318,0,0,1,1.024,1.388A3.187,3.187,0,0,1,1334.268,1686.4Zm1.631-.279a2.744,2.744,0,0,1-.88-1.127,2.835,2.835,0,0,1-.336-1.406,2.744,2.744,0,0,1,.88,1.127A2.832,2.832,0,0,1,1335.9,1686.12Zm1.243,1.128a5.768,5.768,0,0,1-1.114-2.744,5.853,5.853,0,0,1,.114-2.974,5.771,5.771,0,0,1,1.114,2.744A5.849,5.849,0,0,1,1337.142,1687.248Zm.7-3.674a2.8,2.8,0,0,1,.6-1.31,2.847,2.847,0,0,1-.006,1.448,2.782,2.782,0,0,1-.6,1.309A2.85,2.85,0,0,1,1337.838,1683.574Zm1.355,1.977a3.63,3.63,0,0,1-1.257,1.674,3.752,3.752,0,0,1,.347-2.087,3.632,3.632,0,0,1,1.257-1.674A3.759,3.759,0,0,1,1339.193,1685.551Zm1.436.7a1.935,1.935,0,0,1-1.2.54,2.044,2.044,0,0,1,.72-1.126,1.937,1.937,0,0,1,1.2-.54A2.049,2.049,0,0,1,1340.629,1686.248Z" transform="translate(-1329.204 -1679.286)" fill="#0097e0"/>
        <path id="Path_185" data-name="Path 185" d="M1337.856,1689.533a1.756,1.756,0,0,0,.756,1.2s-1-.354-1.284.28c0,0-.77-.451-1.88.512a4.219,4.219,0,0,0,.933-1.977c-2.58.125-4.546.771-4.546,1.55,0,.869,2.443,1.574,5.455,1.574s5.455-.705,5.455-1.574C1342.745,1690.284,1340.6,1689.615,1337.856,1689.533Z" transform="translate(-1329.204 -1679.286)" fill="#a0c406"/>
      </g>
    </g>
    <g id="Group_31" data-name="Group 31" transform="translate(18.291 0.36)">
      <path id="Path_186" data-name="Path 186" d="M1275.923,1689.111h-3.135c1.171.559,2.43,1.2,3.185,1.625l-1.826,1.287a29.069,29.069,0,0,0-3.423-1.976l1.045-.936h-3.626l1.3.949a.346.346,0,0,1-.252.078,17.9,17.9,0,0,1-3.45,1.9,13.418,13.418,0,0,0-1.447-1.326,14.663,14.663,0,0,0,3.1-1.6H1264.3v-1.729h.994l-.163-7.072,1.107.182a11.553,11.553,0,0,0,1.058-.793l.44.546h4.734v7.137h.956c.025-.312.038-.637.05-.975h-.743v-1.482h.806l.025-.819h-.831v-1.482h.857l.012-.832h-.893v-1.508h2.492c-.025,2.288-.113,5.057-.239,7.1h.957Zm-9.1-2.7.013.975h.894v-5.915c-.315.156-.68.312-1.02.455l.013.7h.755v1.482h-.718l.025.819h.693v1.482Zm4.356-4.771h-2.2v5.746h2.2Zm-.265.507v1.131H1269.2v-1.131Zm-.013,1.573v2.912h-1.7v-2.912Zm-.7,1.872v-.832h-.315v.832Z" transform="translate(-1264.291 -1679.646)" fill="#fff"/>
      <path id="Path_187" data-name="Path 187" d="M1283.6,1680.778h4.519v3.068h-1.825v-1.5h-7.251v1.5H1277.3v-3.068h4.406v-1.105l2.266.13c-.013.143-.114.234-.378.273Zm-5.5,11.258v-4.719h9.227v4.719h-1.812v-.247h-5.691v.247Zm1.045-5.018v-2.834h7.075v2.834Zm.339-4.368h6.409v1.235h-6.409Zm2.254,6.006h-1.914v.338h1.914Zm-1.914,1.794h1.914v-.351h-1.914Zm.983-5.07v.442h3.637v-.442Zm4.708,3.614v-.338h-1.99v.338Zm-1.99,1.456h1.99v-.351h-1.99Z" transform="translate(-1264.291 -1679.646)" fill="#fff"/>
      <path id="Path_188" data-name="Path 188" d="M1299.533,1680.894a.326.326,0,0,1-.239.079.572.572,0,0,1-.15-.013c-.265.234-.68.559-1.058.832a5.563,5.563,0,0,0,.479.481,9.884,9.884,0,0,0,1.207-1.209l1.449,1.131a.315.315,0,0,1-.24.078.594.594,0,0,1-.151-.013,12.3,12.3,0,0,1-1.107.858,7.768,7.768,0,0,0,1.674.715,6.481,6.481,0,0,0-1.1,1.469,9.129,9.129,0,0,1-1.083-.481v.663c0,.3,0,.338.113.338.177,0,.2,0,.227-.013.113-.039.138-.312.151-.676a4.2,4.2,0,0,0,1.259.676c-.114.715-.2,1.339-1.372,1.339h-.656c-1.246,0-1.246-1.04-1.246-1.664v-.52h-.868a3.149,3.149,0,0,1-1.284,2.405h3.323l.265-.039.981.325a.469.469,0,0,1-.113.2,5.815,5.815,0,0,1-1.233,2.21,8.814,8.814,0,0,0,2.026.468,6.887,6.887,0,0,0-1.045,1.508,7.08,7.08,0,0,1-2.366-.9,8.935,8.935,0,0,1-2.379.884,5.678,5.678,0,0,0-.769-1.352,8.029,8.029,0,0,0,1.9-.546,5.9,5.9,0,0,1-.894-1.261l.944-.26H1294.9v-1.235h.529a6.554,6.554,0,0,0-.97-1.014v.988h-1.6v-.26h-.919l-.1.7h1.385l.365-.026.919.13a3.119,3.119,0,0,1-.051.468c-.227,3.588-.478,3.692-3.336,3.64a3.725,3.725,0,0,0-.516-1.573c.567.052,1.146.065,1.411.065.5,0,.628-.078.754-1.365h-1.158l-.062.338-1.449-.234c.2-.936.429-2.366.554-3.51h2.2v-.728h-1.46a11.269,11.269,0,0,1-1.107.572,6.818,6.818,0,0,0-1.032-1.391,7.739,7.739,0,0,0,1.8-.949c-.314-.221-.717-.455-1.032-.637l1.007-.975h-.718v-1.456h3.362l.29-.065,1.182.546a.529.529,0,0,1-.188.221,7.675,7.675,0,0,1-1.75,2.73h1.246v2.626a1.92,1.92,0,0,0,.919-1.794v-.858h2.128a9.507,9.507,0,0,1-2.191-3.458l1.46-.417a6.991,6.991,0,0,0,.479.976,8.894,8.894,0,0,0,.831-.9Zm-8.459.716a8.489,8.489,0,0,1,1.12.6,4.953,4.953,0,0,0,.466-.6Zm5.615,6.994a3.562,3.562,0,0,0,.692.7,3.491,3.491,0,0,0,.592-.7Z" transform="translate(-1264.291 -1679.646)" fill="#fff"/>
      <path id="Path_189" data-name="Path 189" d="M1313.63,1689.189h-3.349a15.4,15.4,0,0,0,3.626,1.248,8.007,8.007,0,0,0-1.133,1.508,13.91,13.91,0,0,1-4.028-1.924v2h-1.825v-1.937a14.421,14.421,0,0,1-4,1.9,8.36,8.36,0,0,0-1.158-1.547,15.808,15.808,0,0,0,3.752-1.248h-3.387v-1.482h4.8v-.442h-3.387v-3.042q-.282.273-.6.546a5.859,5.859,0,0,0-1.184-1.378,10.862,10.862,0,0,0,3.047-3.731l2.077.4a.336.336,0,0,1-.352.221c-.139.247-.278.494-.441.741h1.334a10.591,10.591,0,0,0,.567-1.34l2.19.43c-.037.117-.15.169-.365.182-.113.234-.264.481-.415.728h3.4v1.443h-3.7v.325h3.1v1.2h-3.1v.338h3.1v1.2h-3.1v.338h4.166v1.4h-4.192a.557.557,0,0,1-.314.13v.312h4.884Zm-6.294-6.4v-.325h-2.077v.325Zm0,1.534v-.338h-2.077v.338Zm-2.077,1.2v.338h2.077v-.338Z" transform="translate(-1264.291 -1679.646)" fill="#fff"/>
      <path id="Path_190" data-name="Path 190" d="M1314.987,1680.076h10.99v11.96H1324.2v-.416h-7.528v.416h-1.687Zm1.687,10.01h7.528v-8.476h-7.528Zm5.828-2.99c-.037.065-.113.1-.264.13v.26h1.561v.962h-1.561c0,1.053,0,1.521-1.863,1.482a6.033,6.033,0,0,0-.517-1.079c.278.013.63.013.731.013.164,0,.164-.039.164-.416h-1.485a5.108,5.108,0,0,1,.553.832l-1.209.6a5.77,5.77,0,0,0-.716-1.157l.578-.273H1317v-.962h3.752v-.338c-1.284.039-2.481.065-3.361.078a.217.217,0,0,1-.189.169l-.3-1.092c.756,0,1.712.013,2.757.013v-.273H1317.5v-2.626h2.152v-.26H1317v-.962h2.656v-.442l1.8.1c-.013.13-.1.208-.328.247v.091h2.669v.962h-2.669v.26h2.153v2.574a5.734,5.734,0,0,1,.819.845l-1.021.6a2.956,2.956,0,0,0-.276-.338Zm-3.625-2.99v.286h.78v-.286Zm0,1.248h.78v-.3h-.78Zm2.971-1.248h-.718v.286h.718Zm0,1.248v-.3h-.718v.3Zm0,.689h-.718v.273l.907-.013c-.089-.078-.177-.156-.265-.221Z" transform="translate(-1264.291 -1679.646)" fill="#fff"/>
      <path id="Path_191" data-name="Path 191" d="M1349.073,1683.235a7.561,7.561,0,0,1,1.99,1.105l-1.071,1.521a7.861,7.861,0,0,0-1.926-1.235Zm-.919,7.722a40.783,40.783,0,0,0,1.586-4.212l1.486.975c-.416,1.391-.881,2.769-1.285,3.783a.465.465,0,0,1,.126.3.323.323,0,0,1-.049.195Zm2.228-8.5a8.122,8.122,0,0,0-1.951-1.287l1.02-1.378a7.778,7.778,0,0,1,2.014,1.157Zm4.935,2.548h-2.2v7.033h-1.624v-11.882h3.827Zm-1.461-3.484h-.742v.416h.742Zm-.742,2.119h.742v-.468h-.742Zm6.533-3.484v10.036c0,1.469-.478,1.846-2.291,1.846a5.494,5.494,0,0,0-.339-1.43h-3.676v-1.352h1.46v-.481h-1.095v-1.326h1.095v-.468h-1.284v-1.339h4.079v1.339h-1.335v.468h1.134v1.326h-1.134v.481h1.511v1.118c.125,0,.226,0,.226-.208V1685h-2.3v-4.849Zm-1.649,1.365h-.78v.416h.78Zm-.78,2.119h.78v-.468h-.78Z" transform="translate(-1264.291 -1679.646)" fill="#fff"/>
      <path id="Path_192" data-name="Path 192" d="M1372.284,1681.142a.4.4,0,0,1-.2.182,6.922,6.922,0,0,1-1.712,2.054,12.733,12.733,0,0,0,2.53.65,6.125,6.125,0,0,0-1.019,1.456,8.334,8.334,0,0,1-.818-.2v.91h-4.18l.919.286a.274.274,0,0,1-.3.143l-.088.221h.6v-.6l2.051.117c-.012.13-.113.221-.352.26v.221h2.278v1.326h-2.278v.338h1.838v1.3h-1.838v.351h2.806v1.456H1365.1v-1.456h2.921v-.351h-1.738v-1.131l-.2.208a6.54,6.54,0,0,0-.868-.7,1.84,1.84,0,0,1-2.128,1.131,4.7,4.7,0,0,0-.289-1.4v4.134h-1.586v-11.8h2.819l.265-.052,1.133.585a.491.491,0,0,1-.1.234c-.252,1.092-.641,2.548-.969,3.588a3.982,3.982,0,0,1,.995,2.509c0,.182-.013.364-.026.52a5.35,5.35,0,0,0,.844-1.651l.592.182v-.832c-.328.1-.668.208-1.008.3a6.618,6.618,0,0,0-.868-1.43,12.058,12.058,0,0,0,2.556-.819c-.165-.143-.316-.286-.466-.442a8.972,8.972,0,0,1-.831.611,4.931,4.931,0,0,0-1.133-1.222,6.276,6.276,0,0,0,2.593-2.679l1.925.339a.294.294,0,0,1-.327.208c-.075.143-.15.273-.239.416h1.889l.264-.065Zm-9.492.78v5.85c.151.013.289.013.4.013.352,0,.516-.156.516-.858a3.628,3.628,0,0,0-.881-2.132c.2-.793.428-1.95.6-2.873Zm5.225,6.253h-1.348a3.205,3.205,0,0,1-.251.338h1.6Zm1.9-3.276a7.087,7.087,0,0,1-1.045-.507q-.49.273-1.019.507Zm-1.888-2.951a5.1,5.1,0,0,0,.8.65,5.989,5.989,0,0,0,.807-.65Z" transform="translate(-1264.291 -1679.646)" fill="#fff"/>
      <path id="Path_193" data-name="Path 193" d="M1376.435,1683.976l1.007.286a.742.742,0,0,1-.1.3,19.719,19.719,0,0,1-.793,4.368,7.385,7.385,0,0,0,4.368,1.014c.893,0,3.374,0,4.443-.052a6.711,6.711,0,0,0-.692,1.846h-3.8a8.5,8.5,0,0,1-5.035-1.17,5.2,5.2,0,0,1-1.271,1.534,6.779,6.779,0,0,0-1.372-1.261,4.552,4.552,0,0,0,1.346-1.586,9.14,9.14,0,0,1-1.2-2.535l1.422-.507a7.083,7.083,0,0,0,.478,1.157,15.21,15.21,0,0,0,.3-1.716h-.5l-.126.3-1.649-.429c.491-1.1,1.045-2.418,1.485-3.536h-1.434v-1.638h2.416l.34-.039,1.02.351a3.1,3.1,0,0,1-.139.3c-.3.806-.755,1.924-1.221,3.055h.4Zm3.475-1.742v-.3h-2.064v-1.4h2.064v-.871l2.14.117c-.013.143-.114.234-.365.273v.481h2.429v1.7h1.058v1.43h-1.058v1.7h-2.429v.3h2.63V1687h-2.63v.312h3.2v1.469h-3.2v.936h-1.775v-.936h-2.845v-1.469h2.845V1687h-2.291v-1.339h2.291v-.3h-2.1v-1.4h2.1v-.3h-3.021v-1.43Zm2.405-.3h-.63v.3h.63Zm0,2.028v-.3h-.63v.3Z" transform="translate(-1264.291 -1679.646)" fill="#fff"/>
      <path id="Path_194" data-name="Path 194" d="M1390.909,1681.844v1.469h-5.048v-1.469Zm5.351,3.38,1.158.455a.574.574,0,0,1-.151.234,8.675,8.675,0,0,1-1.763,3.523,9.014,9.014,0,0,0,2.417.962,7.412,7.412,0,0,0-1.183,1.625,8.765,8.765,0,0,1-2.643-1.326,9.8,9.8,0,0,1-2.757,1.326,7.446,7.446,0,0,0-.906-1.586v.949h-2.468v.455h-1.536v-4.511h4v3.016a7.861,7.861,0,0,0,2.278-.936,9.668,9.668,0,0,1-1.271-1.924l1.573-.52h-1.939v-1.69h.517a6.879,6.879,0,0,0-1.147-.988v.819h-3.964v-1.4h3.964v.468a2.889,2.889,0,0,0,1.122-2.587v-1.547h4.4v2.769c0,.39.012.429.113.429h.139c.126,0,.176-.169.2-1.235a4.387,4.387,0,0,0,1.473.663c-.152,1.677-.567,2.158-1.486,2.158h-.668c-1.145,0-1.485-.481-1.485-1.989V1681.7h-.969a4.545,4.545,0,0,1-1.359,3.575h4.015Zm-5.817.273v1.4h-3.964v-1.4Zm-.011-5.434v1.4h-3.915v-1.4Zm-1.562,9.841v-1.1h-.906v1.1Zm4.193-2.938a5.563,5.563,0,0,0,.994,1.339,5.793,5.793,0,0,0,.919-1.339Z" transform="translate(-1264.291 -1679.646)" fill="#fff"/>
      <path id="Path_195" data-name="Path 195" d="M1404.113,1679.751a8.736,8.736,0,0,0,0,12.22v.065h-1.359a9.315,9.315,0,0,1,0-12.351h1.359Z" transform="translate(-1264.291 -1679.646)" fill="#fff"/>
      <path id="Path_196" data-name="Path 196" d="M1415.463,1685.464l1.143.465a.519.519,0,0,1-.158.225,8.389,8.389,0,0,1-1.641,3.253,9.9,9.9,0,0,0,2.371,1.042,7.971,7.971,0,0,0-1.192,1.583,10.131,10.131,0,0,1-2.517-1.344,9.659,9.659,0,0,1-2.542,1.331,6.568,6.568,0,0,0-.779-1.331c-.133,1.218-1.106,1.306-2.25,1.306a6.038,6.038,0,0,0-.462-1.758c.183.012.378.012.548.012.511,0,.572,0,.572-.213v-2.273h-.888a13.878,13.878,0,0,1-.852,4.257,6.175,6.175,0,0,0-1.422-.829,17.1,17.1,0,0,0,.778-6.09v-4.609h4.013v3.73a2.985,2.985,0,0,0,.791-2.311v-1.494h4.378v2.813c0,.389.012.426.1.426h.109c.122,0,.159-.188.2-1.305a4.044,4.044,0,0,0,1.423.64c-.146,1.708-.535,2.185-1.435,2.185h-.62c-1.1,0-1.423-.452-1.423-1.921V1682.1h-1.034a4.483,4.483,0,0,1-1.313,3.429h3.818Zm-7.71-.528c0,.528,0,.779-.012,1.1h.815v-1.1Zm.8-2.762h-.8v1.08h.8Zm2.59,3.353a8.249,8.249,0,0,0-.961-.842v5.689a7.768,7.768,0,0,0,1.921-.9,10.6,10.6,0,0,1-1.289-1.733l1.374-.527h-1.6v-1.683Zm1.326,1.683a6.644,6.644,0,0,0,.936,1.13,5.814,5.814,0,0,0,.778-1.13Z" transform="translate(-1264.291 -1679.646)" fill="#fff"/>
      <path id="Path_197" data-name="Path 197" d="M1428.989,1687.574v1.419h-2.421a14.7,14.7,0,0,1,2.371,1.657l-1.471,1.055a15.173,15.173,0,0,0-2.626-1.959l1.082-.753h-1.606v1.318c0,1.243-.328,1.7-2.517,1.7a6.7,6.7,0,0,0-.523-1.608c.219.013.487.025.7.025.547,0,.547-.012.547-.176v-1.255h-1.945l1.423.59a.326.326,0,0,1-.353.125,11.569,11.569,0,0,1-2.7,2.01,11.23,11.23,0,0,0-1.241-1.181,7.575,7.575,0,0,0,2.286-1.544h-2.128v-1.419Zm-7.723-5.237v-.49h-3.32v-1.419H1428.9v1.419h-3.465v.49h2.638v3.277h-9.3v-3.277Zm6.263,4.935h-8.221v-1.356h8.221Zm-7.127-3.654v.728h.864v-.728Zm3.381-1.281v-.49h-.9v.49Zm-.9,1.281v.728h.9v-.728Zm3.441,0h-.887v.728h.887Z" transform="translate(-1264.291 -1679.646)" fill="#fff"/>
      <path id="Path_198" data-name="Path 198" d="M1431.595,1685.929a11.9,11.9,0,0,1-1.035,1.268,17.642,17.642,0,0,0-.912-1.9,14.666,14.666,0,0,0,2.944-5.211l2.043.728a.344.344,0,0,1-.389.164c-.305.766-.657,1.532-1.046,2.285l.547.151c-.024.125-.134.226-.364.264v8.313h-1.788Zm9.79-.829-3.26.314c.305,2.6.876,4.671,1.435,4.684.231,0,.378-.666.438-2.122a4.453,4.453,0,0,0,1.459,1.117c-.279,2.386-.826,2.9-2.018,2.9h-.049c-1.776-.013-2.688-2.876-3.089-6.392l-2.371.226-.17-1.758,2.371-.226c-.085-1.218-.122-2.474-.122-3.68l2.3.126c-.012.163-.134.251-.413.289-.025,1,0,2.059.072,3.089l3.247-.3Zm-1.679-4.973a10.476,10.476,0,0,1,1.679,2.16l-1.447.929a10.377,10.377,0,0,0-1.582-2.248Z" transform="translate(-1264.291 -1679.646)" fill="#fff"/>
      <path id="Path_199" data-name="Path 199" d="M1445.461,1686.87l.888.113c-.012.126-.024.314-.048.465-.22,4.5-.4,4.609-3.1,4.546a3.62,3.62,0,0,0-.474-1.557c.5.05.973.05,1.2.05a.55.55,0,0,0,.425-.138,4.655,4.655,0,0,0,.341-1.972h-.742c-.036.2-.085.4-.134.578l-1.568-.264c.183-.653.377-1.519.535-2.361h-.815v-1.557h4.767v1.557h-2.359l-.109.565h.851Zm.912-6.417v3.906h-3.9v-3.906Zm-1.629,2.462v-1.03H1444v1.03Zm7.382,7.246c0,.226,0,.351.109.351.159,0,.17,0,.195-.037.085-.063.1-.277.122-1.219a3.818,3.818,0,0,0,1.106.628c-.049,1.042-.1,2.01-1.289,2.01h-.608c-1.2,0-1.2-1.068-1.2-1.733v-2.587a.445.445,0,0,1-.231.112c-.109,1.432-.3,3.14-1.509,4.283a4.355,4.355,0,0,0-.984-1.193,5.619,5.619,0,0,1-.633,1.243,6.653,6.653,0,0,0-1.313-.979c1.01-1.507,1.094-3.692,1.094-5.3v-3.29h2.262v-2.4l2.043.113c-.012.138-.109.214-.352.264v.214h2.25v1.418h-2.25v.39h2.675a20.451,20.451,0,0,1-.316,2.763l-1.314-.314c.013-.276.038-.641.049-1.03h-.876a.453.453,0,0,1-.291.138v.264l.839-.075.146,1.167-.985.088c0,.264.048.289.291.289h.658c.207,0,.267-.088.3-.515a3.989,3.989,0,0,0,1.278.477c-.147.98-.524,1.269-1.4,1.269H1450.9c-1.215,0-1.532-.339-1.569-1.394l-.644.063-.134-1.08h-.012l.012,1.18a15.258,15.258,0,0,1-.705,4.986,5.025,5.025,0,0,0,.961-3.429l1.751.164v-.277l1.909.113c-.012.126-.1.2-.34.252Zm-2.8-6.292h-.778v.59l.778-.063Z" transform="translate(-1264.291 -1679.646)" fill="#fff"/>
      <path id="Path_200" data-name="Path 200" d="M1458.321,1691.429V1682.7h-.028l-1.833.968-.545-1.834,2.729-1.388h2.085v10.982Z" transform="translate(-1264.291 -1679.646)" fill="#fff"/>
      <path id="Path_201" data-name="Path 201" d="M1465.245,1685.693a2.811,2.811,0,0,1-1.441-2.37c0-1.864,1.511-3.035,3.427-3.035,2.127,0,3.219,1.344,3.219,2.789a2.835,2.835,0,0,1-1.483,2.413v.029a3.024,3.024,0,0,1,1.819,2.76c0,2.052-1.539,3.309-3.708,3.309-2.337,0-3.582-1.4-3.582-3.049a3.144,3.144,0,0,1,1.749-2.818Zm3.092,2.774a1.991,1.991,0,0,0-1.371-1.879,1.837,1.837,0,0,0-1.022,1.734c0,.81.449,1.576,1.2,1.576A1.275,1.275,0,0,0,1468.337,1688.467Zm-2.225-5.26a1.745,1.745,0,0,0,1.2,1.561,1.648,1.648,0,0,0,.869-1.46c0-.664-.266-1.358-1.022-1.358C1466.309,1681.95,1466.112,1682.687,1466.112,1683.207Z" transform="translate(-1264.291 -1679.646)" fill="#fff"/>
      <path id="Path_202" data-name="Path 202" d="M1471.65,1685.967c0-3.092,1.106-5.679,3.653-5.679,2.742,0,3.568,2.876,3.568,5.607,0,3.584-1.344,5.693-3.61,5.693C1472.547,1691.588,1471.65,1688.727,1471.65,1685.967Zm4.758-.029c0-2.355-.349-3.627-1.119-3.627-.728,0-1.176,1.127-1.176,3.627s.407,3.627,1.176,3.627C1475.877,1689.565,1476.408,1688.929,1476.408,1685.938Z" transform="translate(-1264.291 -1679.646)" fill="#fff"/>
      <path id="Path_203" data-name="Path 203" d="M1481.5,1685.693a2.808,2.808,0,0,1-1.441-2.37c0-1.864,1.51-3.035,3.427-3.035,2.127,0,3.219,1.344,3.219,2.789a2.834,2.834,0,0,1-1.483,2.413v.029a3.026,3.026,0,0,1,1.819,2.76c0,2.052-1.539,3.309-3.708,3.309-2.337,0-3.582-1.4-3.582-3.049a3.144,3.144,0,0,1,1.749-2.818Zm3.092,2.774a1.991,1.991,0,0,0-1.371-1.879,1.837,1.837,0,0,0-1.022,1.734c0,.81.449,1.576,1.2,1.576A1.275,1.275,0,0,0,1484.591,1688.467Zm-2.225-5.26a1.743,1.743,0,0,0,1.2,1.561,1.648,1.648,0,0,0,.869-1.46c0-.664-.266-1.358-1.022-1.358C1482.563,1681.95,1482.366,1682.687,1482.366,1683.207Z" transform="translate(-1264.291 -1679.646)" fill="#fff"/>
      <path id="Path_204" data-name="Path 204" d="M1487.52,1691.971a8.734,8.734,0,0,0,0-12.22v-.066h1.359a9.312,9.312,0,0,1,0,12.351h-1.359Z" transform="translate(-1264.291 -1679.646)" fill="#fff"/>
    </g>
  </g>
</svg>
