<svg xmlns="http://www.w3.org/2000/svg" width="576.038" height="65.278" viewBox="0 0 576.038 65.278">
  <g id="mob_title_en_9" transform="translate(-87.885 -1044.596)">
    <path id="Path_1636" data-name="Path 1636" d="M114.373,1046.044c13.2,0,20.225,6.307,20.225,15.17,0,6.476-4.231,12.527-14.725,14.657,12.609,1.79,17.856,7.926,17.856,15.6,0,8.521-6.854,17.044-24.541,17.044h-25.3v-3.239l8.632-.937c.168-8.267.168-16.618.168-24.97v-4.516c0-8.267,0-16.448-.168-24.629l-8.632-.938v-3.238Zm-9.056,3.665c-.169,8.011-.169,16.276-.169,24.543h4.909c11.171,0,16.248-4.005,16.248-12.7,0-8.352-4.74-11.846-14.471-11.846Zm6.094,55.052c11.593,0,17.517-4.687,17.517-13.209,0-8.948-5.585-13.465-18.449-13.465h-5.331c0,9.715,0,18.237.169,26.674Z" fill="#fff"/>
    <path id="Path_1637" data-name="Path 1637" d="M193.5,1091.893l-.508,16.618H145.262v-3.239l8.632-.937c.169-8.182.169-16.362.169-24.714v-4.6c0-8.352,0-16.619-.169-24.8l-8.632-.938v-3.238h45.951l.508,16.448h-4.57l-2.454-12.357h-22c-.169,8.095-.169,16.277-.169,24.714h13.963l1.355-9.2h3.807v21.987h-3.807l-1.27-9.033H162.525c0,9.2,0,17.554.169,25.821h23.781l2.454-12.527Z" fill="#fff"/>
    <path id="Path_1638" data-name="Path 1638" d="M225.485,1073.23c12.355,4.942,16.925,10.141,16.925,18.918,0,11.08-8.97,17.726-21.833,17.726a35,35,0,0,1-18.025-4.942l.592-13.124h4.739l2.37,11.674a18.714,18.714,0,0,0,9.731,2.3c8.971,0,14.81-4.09,14.81-11.675,0-6.05-3.385-8.948-11.679-12.271l-3.469-1.449c-9.647-3.92-15.995-9.289-15.995-18.663,0-10.824,8.971-17.129,20.65-17.129a24.906,24.906,0,0,1,15.232,4.942l-.593,12.187h-4.823l-2.37-11.165a14.157,14.157,0,0,0-7.531-1.874c-7.447,0-12.948,3.749-12.948,10.909,0,5.965,3.808,9.544,10.494,12.186Z" fill="#fff"/>
    <path id="Path_1639" data-name="Path 1639" d="M279.221,1050.135c-.169,8.181-.169,16.533-.169,24.885v4.6c0,8.181,0,16.447.169,24.629l9.562,1.022v3.239H260.857v-3.239l9.563-1.022c.169-8.1.169-16.277.169-24.629v-4.6c0-8.352,0-16.7-.169-24.885H255.864l-2.538,12.527h-4.655l.762-16.618h50.86l.592,16.618H296.4l-2.624-12.527Z" fill="#fff"/>
    <path id="Path_1640" data-name="Path 1640" d="M382.294,1091.637l-.169,13.72a37.769,37.769,0,0,1-18.533,4.517c-18.7,0-31.481-13.209-31.481-32.639,0-19.09,13.37-32.639,31.481-32.639a34.489,34.489,0,0,1,17.686,4.6l.169,13.721H376.37l-2.285-11.931a20.68,20.68,0,0,0-9.478-2.3c-12.778,0-22.933,9.971-22.933,28.549,0,18.663,9.308,28.548,22.6,28.548a24.335,24.335,0,0,0,10.663-2.3l2.285-11.845Z" fill="#fff"/>
    <path id="Path_1641" data-name="Path 1641" d="M448.385,1105.272v3.239H423.166v-3.239l9.14-1.108L426.89,1087.8h-21.5l-5.331,16.277,9.054,1.193v3.239H388.47v-3.239l7.532-1.193,19.718-58.461h5.416l19.97,58.8Zm-22.68-21.134-9.647-28.975-9.478,28.975Z" fill="#fff"/>
    <path id="Path_1642" data-name="Path 1642" d="M477.749,1073.23c12.355,4.942,16.925,10.141,16.925,18.918,0,11.08-8.971,17.726-21.833,17.726a35,35,0,0,1-18.026-4.942l.592-13.124h4.74l2.37,11.674a18.715,18.715,0,0,0,9.731,2.3c8.971,0,14.81-4.09,14.81-11.675,0-6.05-3.385-8.948-11.679-12.271l-3.47-1.449c-9.646-3.92-15.994-9.289-15.994-18.663,0-10.824,8.971-17.129,20.65-17.129a24.91,24.91,0,0,1,15.232,4.942l-.593,12.187h-4.823l-2.37-11.165a14.161,14.161,0,0,0-7.532-1.874c-7.447,0-12.948,3.749-12.948,10.909,0,5.965,3.809,9.544,10.494,12.186Z" fill="#fff"/>
    <path id="Path_1643" data-name="Path 1643" d="M531.485,1050.135c-.169,8.181-.169,16.533-.169,24.885v4.6c0,8.181,0,16.447.169,24.629l9.564,1.022v3.239H513.122v-3.239l9.563-1.022c.169-8.1.169-16.277.169-24.629v-4.6c0-8.352,0-16.7-.169-24.885H508.129l-2.538,12.527h-4.656l.762-16.618h50.861l.591,16.618h-4.484l-2.624-12.527Z" fill="#fff"/>
    <path id="Path_1644" data-name="Path 1644" d="M607.394,1090.955l-.677,17.556H560.765v-3.239l8.632-.937c.168-8.267.168-16.533.168-24.458v-4.857c0-8.352,0-16.7-.168-24.8l-8.632-.938v-3.238h26.149v3.238l-8.717.938c-.169,8.181-.169,16.448-.169,24.714v6.221c0,7.074,0,15.169.169,23.351h21.326l3.046-13.551Z" fill="#fff"/>
    <path id="Path_1645" data-name="Path 1645" d="M663.923,1091.893l-.508,16.618H615.686v-3.239l8.632-.937c.169-8.182.169-16.362.169-24.714v-4.6c0-8.352,0-16.619-.169-24.8l-8.632-.938v-3.238h45.953l.507,16.448h-4.57l-2.454-12.357h-22c-.169,8.095-.169,16.277-.169,24.714h13.963l1.355-9.2h3.807v21.987h-3.807L647,1078.6H632.95c0,9.2,0,17.554.169,25.821H656.9l2.455-12.527Z" fill="#fff"/>
  </g>
</svg>
