<svg xmlns="http://www.w3.org/2000/svg" xmlns:xlink="http://www.w3.org/1999/xlink" width="498.043" height="191.91" viewBox="0 0 498.043 191.91">
  <defs>
    <filter id="Path_879" x="4.524" y="58.822" width="69.704" height="75.19" filterUnits="userSpaceOnUse">
      <feOffset input="SourceAlpha"/>
      <feGaussianBlur stdDeviation="5" result="blur"/>
      <feFlood flood-opacity="0.702"/>
      <feComposite operator="in" in2="blur"/>
      <feComposite in="SourceGraphic"/>
    </filter>
    <filter id="Path_880" x="46.924" y="59.736" width="75.624" height="74.276" filterUnits="userSpaceOnUse">
      <feOffset input="SourceAlpha"/>
      <feGaussianBlur stdDeviation="5" result="blur-2"/>
      <feFlood flood-opacity="0.702"/>
      <feComposite operator="in" in2="blur-2"/>
      <feComposite in="SourceGraphic"/>
    </filter>
    <filter id="Path_881" x="93.706" y="59.495" width="76.059" height="74.42" filterUnits="userSpaceOnUse">
      <feOffset input="SourceAlpha"/>
      <feGaussianBlur stdDeviation="5" result="blur-3"/>
      <feFlood flood-opacity="0.702"/>
      <feComposite operator="in" in2="blur-3"/>
      <feComposite in="SourceGraphic"/>
    </filter>
    <filter id="Path_882" x="140.677" y="58.917" width="75.529" height="73.699" filterUnits="userSpaceOnUse">
      <feOffset input="SourceAlpha"/>
      <feGaussianBlur stdDeviation="5" result="blur-4"/>
      <feFlood flood-opacity="0.702"/>
      <feComposite operator="in" in2="blur-4"/>
      <feComposite in="SourceGraphic"/>
    </filter>
    <filter id="Path_883" x="187.843" y="59.302" width="75.865" height="74.806" filterUnits="userSpaceOnUse">
      <feOffset input="SourceAlpha"/>
      <feGaussianBlur stdDeviation="5" result="blur-5"/>
      <feFlood flood-opacity="0.702"/>
      <feComposite operator="in" in2="blur-5"/>
      <feComposite in="SourceGraphic"/>
    </filter>
    <filter id="Path_884" x="234.639" y="58.966" width="75.512" height="75.094" filterUnits="userSpaceOnUse">
      <feOffset input="SourceAlpha"/>
      <feGaussianBlur stdDeviation="5" result="blur-6"/>
      <feFlood flood-opacity="0.702"/>
      <feComposite operator="in" in2="blur-6"/>
      <feComposite in="SourceGraphic"/>
    </filter>
    <filter id="Path_885" x="281.644" y="58.869" width="74.95" height="75.239" filterUnits="userSpaceOnUse">
      <feOffset input="SourceAlpha"/>
      <feGaussianBlur stdDeviation="5" result="blur-7"/>
      <feFlood flood-opacity="0.702"/>
      <feComposite operator="in" in2="blur-7"/>
      <feComposite in="SourceGraphic"/>
    </filter>
    <filter id="Path_886" x="328.377" y="58.917" width="75.48" height="75.191" filterUnits="userSpaceOnUse">
      <feOffset input="SourceAlpha"/>
      <feGaussianBlur stdDeviation="5" result="blur-8"/>
      <feFlood flood-opacity="0.702"/>
      <feComposite operator="in" in2="blur-8"/>
      <feComposite in="SourceGraphic"/>
    </filter>
    <filter id="Path_887" x="376.12" y="58.773" width="74.228" height="75.335" filterUnits="userSpaceOnUse">
      <feOffset input="SourceAlpha"/>
      <feGaussianBlur stdDeviation="5" result="blur-9"/>
      <feFlood flood-opacity="0.702"/>
      <feComposite operator="in" in2="blur-9"/>
      <feComposite in="SourceGraphic"/>
    </filter>
    <filter id="Path_888" x="421.552" y="58.822" width="76.491" height="75.238" filterUnits="userSpaceOnUse">
      <feOffset input="SourceAlpha"/>
      <feGaussianBlur stdDeviation="5" result="blur-10"/>
      <feFlood flood-opacity="0.702"/>
      <feComposite operator="in" in2="blur-10"/>
      <feComposite in="SourceGraphic"/>
    </filter>
    <filter id="Path_889" x="0" y="116.43" width="75.527" height="75.431" filterUnits="userSpaceOnUse">
      <feOffset input="SourceAlpha"/>
      <feGaussianBlur stdDeviation="5" result="blur-11"/>
      <feFlood flood-opacity="0.702"/>
      <feComposite operator="in" in2="blur-11"/>
      <feComposite in="SourceGraphic"/>
    </filter>
    <filter id="Path_890" x="47.357" y="116.67" width="75.384" height="75.143" filterUnits="userSpaceOnUse">
      <feOffset input="SourceAlpha"/>
      <feGaussianBlur stdDeviation="5" result="blur-12"/>
      <feFlood flood-opacity="0.702"/>
      <feComposite operator="in" in2="blur-12"/>
      <feComposite in="SourceGraphic"/>
    </filter>
    <filter id="Path_891" x="93.946" y="116.43" width="76.49" height="75.48" filterUnits="userSpaceOnUse">
      <feOffset input="SourceAlpha"/>
      <feGaussianBlur stdDeviation="5" result="blur-13"/>
      <feFlood flood-opacity="0.702"/>
      <feComposite operator="in" in2="blur-13"/>
      <feComposite in="SourceGraphic"/>
    </filter>
    <filter id="Path_892" x="140.822" y="116.622" width="75.527" height="75.194" filterUnits="userSpaceOnUse">
      <feOffset input="SourceAlpha"/>
      <feGaussianBlur stdDeviation="5" result="blur-14"/>
      <feFlood flood-opacity="0.702"/>
      <feComposite operator="in" in2="blur-14"/>
      <feComposite in="SourceGraphic"/>
    </filter>
    <filter id="Path_893" x="187.988" y="117.392" width="75.335" height="74.373" filterUnits="userSpaceOnUse">
      <feOffset input="SourceAlpha"/>
      <feGaussianBlur stdDeviation="5" result="blur-15"/>
      <feFlood flood-opacity="0.702"/>
      <feComposite operator="in" in2="blur-15"/>
      <feComposite in="SourceGraphic"/>
    </filter>
    <filter id="Path_894" x="237.078" y="116.67" width="73.314" height="74.758" filterUnits="userSpaceOnUse">
      <feOffset input="SourceAlpha"/>
      <feGaussianBlur stdDeviation="5" result="blur-16"/>
      <feFlood flood-opacity="0.702"/>
      <feComposite operator="in" in2="blur-16"/>
      <feComposite in="SourceGraphic"/>
    </filter>
    <filter id="Path_895" x="281.452" y="116.574" width="75.431" height="75.287" filterUnits="userSpaceOnUse">
      <feOffset input="SourceAlpha"/>
      <feGaussianBlur stdDeviation="5" result="blur-17"/>
      <feFlood flood-opacity="0.702"/>
      <feComposite operator="in" in2="blur-17"/>
      <feComposite in="SourceGraphic"/>
    </filter>
    <filter id="Path_896" x="328.088" y="116.622" width="75.769" height="75.191" filterUnits="userSpaceOnUse">
      <feOffset input="SourceAlpha"/>
      <feGaussianBlur stdDeviation="5" result="blur-18"/>
      <feFlood flood-opacity="0.702"/>
      <feComposite operator="in" in2="blur-18"/>
      <feComposite in="SourceGraphic"/>
    </filter>
    <filter id="Path_897" x="375.013" y="116.67" width="75.414" height="73.651" filterUnits="userSpaceOnUse">
      <feOffset input="SourceAlpha"/>
      <feGaussianBlur stdDeviation="5" result="blur-19"/>
      <feFlood flood-opacity="0.702"/>
      <feComposite operator="in" in2="blur-19"/>
      <feComposite in="SourceGraphic"/>
    </filter>
    <filter id="Path_898" x="421.937" y="116.911" width="75.864" height="74.95" filterUnits="userSpaceOnUse">
      <feOffset input="SourceAlpha"/>
      <feGaussianBlur stdDeviation="5" result="blur-20"/>
      <feFlood flood-opacity="0.702"/>
      <feComposite operator="in" in2="blur-20"/>
      <feComposite in="SourceGraphic"/>
    </filter>
  </defs>
  <g id="mob_title_6" transform="translate(-132.542 -84.91)">
    <g id="Group_121" data-name="Group 121" transform="translate(-845.853 -6728.12)">
      <path id="Path_859" data-name="Path 859" d="M1129.53,6813.777c6.806,0,10.427,3.251,10.427,7.82,0,3.339-2.182,6.458-7.591,7.556,6.5.922,9.2,4.085,9.2,8.039,0,4.393-3.533,8.786-12.65,8.786h-13.044v-1.669l4.45-.483c.087-4.261.087-8.567.087-12.872v-2.328c0-4.262,0-8.479-.087-12.7l-4.45-.483v-1.67Zm-4.667,1.89c-.088,4.129-.088,8.39-.088,12.651h2.531c5.759,0,8.376-2.065,8.376-6.545,0-4.306-2.444-6.106-7.46-6.106Zm3.141,28.378c5.976,0,9.03-2.416,9.03-6.809,0-4.613-2.88-6.941-9.511-6.941h-2.748c0,5.008,0,9.4.088,13.75Z" fill="#fff"/>
      <path id="Path_860" data-name="Path 860" d="M1170.322,6837.412l-.262,8.566h-24.6v-1.669l4.449-.483c.088-4.218.088-8.435.088-12.74v-2.373c0-4.3,0-8.566-.088-12.783l-4.449-.483v-1.67h23.689l.261,8.479h-2.355l-1.266-6.37h-11.343c-.087,4.173-.087,8.39-.087,12.74h7.2l.7-4.745h1.963v11.334h-1.963l-.654-4.656h-7.243c0,4.744,0,9.049.087,13.31H1166.7l1.266-6.457Z" fill="#fff"/>
      <path id="Path_861" data-name="Path 861" d="M1186.814,6827.791c6.369,2.548,8.724,5.228,8.724,9.753,0,5.71-4.624,9.137-11.255,9.137a18.033,18.033,0,0,1-9.292-2.548l.305-6.765h2.443l1.222,6.018a9.647,9.647,0,0,0,5.017,1.186c4.624,0,7.634-2.108,7.634-6.018,0-3.119-1.745-4.613-6.02-6.326l-1.789-.747c-4.973-2.021-8.245-4.788-8.245-9.621,0-5.579,4.625-8.83,10.644-8.83a12.835,12.835,0,0,1,7.853,2.549l-.306,6.281h-2.486l-1.222-5.754a7.293,7.293,0,0,0-3.882-.967c-3.84,0-6.675,1.933-6.675,5.623,0,3.075,1.963,4.92,5.41,6.282Z" fill="#fff"/>
      <path id="Path_862" data-name="Path 862" d="M1214.515,6815.886c-.087,4.217-.087,8.522-.087,12.827v2.373c0,4.217,0,8.479.087,12.7l4.929.527v1.669h-14.4v-1.669l4.929-.527c.087-4.174.087-8.391.087-12.7v-2.373c0-4.3,0-8.61-.087-12.827h-7.5l-1.309,6.458h-2.4l.392-8.567h26.219l.3,8.567h-2.312l-1.352-6.458Z" fill="#fff"/>
      <path id="Path_863" data-name="Path 863" d="M1265.645,6836.928l-.349,9.05h-23.689v-1.669l4.45-.483c.088-4.261.088-8.523.088-12.608v-2.5c0-4.3,0-8.61-.088-12.783l-4.45-.483v-1.67h13.481v1.67l-4.494.483c-.087,4.217-.087,8.478-.087,12.739v3.208c0,3.646,0,7.819.087,12.036h10.994l1.57-6.985Z" fill="#fff"/>
      <path id="Path_864" data-name="Path 864" d="M1278.909,6815.93c-.087,4.173-.087,8.478-.087,12.783v2.373c0,4.217,0,8.479.087,12.7l4.45.527v1.669h-13.436v-1.669l4.449-.483c.088-4.218.088-8.435.088-12.74v-2.373c0-4.3,0-8.566-.088-12.783l-4.449-.483v-1.67h13.436v1.67Z" fill="#fff"/>
      <path id="Path_865" data-name="Path 865" d="M1297.45,6815.886c-.087,4.173-.087,8.39-.087,12.74h7.547l.612-4.745h2.006v11.685h-2.006l-.612-5.007h-7.547c0,4.7,0,9.006.087,13.223l4.537.527v1.669h-13.523v-1.669l4.449-.483c.088-4.218.088-8.435.088-12.74v-2.373c0-4.3,0-8.566-.088-12.783l-4.449-.483v-1.67h23.731l.262,8.479H1310.1l-1.265-6.37Z" fill="#fff"/>
      <path id="Path_866" data-name="Path 866" d="M1341.381,6837.412l-.262,8.566h-24.6v-1.669l4.449-.483c.088-4.218.088-8.435.088-12.74v-2.373c0-4.3,0-8.566-.088-12.783l-4.449-.483v-1.67H1340.2l.262,8.479h-2.356l-1.265-6.37H1325.5c-.087,4.173-.087,8.39-.087,12.74h7.2l.7-4.745h1.963v11.334h-1.963l-.654-4.656h-7.242c0,4.744,0,9.049.087,13.31h12.259l1.265-6.457Z" fill="#fff"/>
    </g>
    <g id="Group_126" data-name="Group 126" transform="translate(-845.853 -6728.12)">
      <g id="Group_125" data-name="Group 125">
        <g id="Group_124" data-name="Group 124">
          <g transform="matrix(1, 0, 0, 1, 978.4, 6813.03)" filter="url(#Path_879)">
            <path id="Path_879-2" data-name="Path 879" d="M1037.623,6902.54a3.925,3.925,0,0,1-2.021.963v22.427c0,3.513-.77,5.534-6.594,6.063-.144-1.636-.288-2.791-.914-3.56-.577-.771-1.444-1.4-3.465-1.685v-.289a7.13,7.13,0,0,1-1.732.241h-.867v-2.455h-11.069v2.5c0,.385-2.069,1.2-3.706,1.2h-.866V6913.8l5.823.529c-.048.529-.337.866-1.251,1.011v7.508h2.888V6911.4h-9.482l-.385-1.4h6.979a4,4,0,0,1-1.251-.77,10.035,10.035,0,0,0-1.926-5.967l.434-.289c7.6,1.684,6.834,6.208,4.38,7.026h5.389a69.673,69.673,0,0,0,1.974-7.171l6.737,1.974c-.24.529-.818.914-1.877.866a39.315,39.315,0,0,1-5.246,4.331h3.417l2.311-2.791s2.646,1.973,4.235,3.417c-.1.529-.578.77-1.252.77H1019v11.454h3.032V6913.8l5.968.529c-.1.529-.386.866-1.3,1.011V6925.5c0,.145-.384.434-1.01.626,1.2.1,2.935.193,3.609.193.77,0,.963-.289.963-.915v-22.811h-27.239v27.624c0,.626-2.119,1.829-4.332,1.829h-.77v-33.111l.529.241v-10.3l7.219.626c-.1.674-.482,1.155-1.78,1.348v4.957h9.72v-8.951l7.316.625c-.1.673-.482,1.155-1.78,1.347v6.979H1029.2v-6.931l7.364.626c-.1.674-.482,1.155-1.782,1.348v6.689c0,.193-1.106.577-2.551.819Zm-7.845-1.3,2.454-2.887a10.056,10.056,0,0,1-2.069.192h-.962V6897.2h-25.314v1.059c0,.337-2.407,1.059-4.572,1.059h-.482l4.62,1.925Z" transform="translate(-978.4 -6813.03)" fill="#fff"/>
          </g>
          <g transform="matrix(1, 0, 0, 1, 978.4, 6813.03)" filter="url(#Path_880)">
            <path id="Path_880-2" data-name="Path 880" d="M1079.639,6887.766s3.9,2.983,6.3,5c-.1.529-.673.77-1.4.77h-21.608a49.6,49.6,0,0,1-7.508,13.908l2.166.866h17.422l2.743-3.127,5.726,4.475a4.746,4.746,0,0,1-2.165,1.107v19.491c-.1.385-2.936,1.492-4.861,1.492h-.914v-4.428H1057.02v3.08c0,.385-1.734,1.637-4.622,1.637h-1.058v-19.828a48.21,48.21,0,0,1-10.588,8.277l-.433-.432a54.678,54.678,0,0,0,15.5-26.518h-14.052l-.385-1.4h34.747Zm-22.619,21.9v16.267h18.528v-16.267Z" transform="translate(-978.4 -6813.03)" fill="#fff"/>
          </g>
          <g transform="matrix(1, 0, 0, 1, 978.4, 6813.03)" filter="url(#Path_881)">
            <path id="Path_881-2" data-name="Path 881" d="M1131.954,6925.978c1.3,3.032,1.588,4.764.674,5.39-2.455,1.685-5.92-.866-7.412-3.08a32.658,32.658,0,0,1-3.128-5.872,36.236,36.236,0,0,1-13.042,9.192l-.434-.721a36.518,36.518,0,0,0,12.033-12.513c-1.83-5.968-2.6-12.705-2.936-19.973h-9.77v7.412h3.369l2.5-2.455,4.524,3.707a2.832,2.832,0,0,1-1.829.866c-.192,9.336-.481,13.571-2.358,15.159a6.914,6.914,0,0,1-4.283,1.2,4.569,4.569,0,0,0-.626-2.694,5.678,5.678,0,0,0-2.935-1.637v-.433a22.214,22.214,0,0,1-10.492,12.416l-.481-.481c4.716-4.957,6.5-10.828,7.122-16.747-2.551,2.069-6.256,4.908-11.213,8.277a2.09,2.09,0,0,1-1.2,1.4l-2.935-6.4c1.154-.241,3.031-.77,5.294-1.4v-14.63h-4.284l-.385-1.348h4.669v-12.8l7.074.626c-.1.673-.482,1.155-1.781,1.347v10.733l2.262-3.754s1.491,1.54,2.839,3.08v-4.957l5.968,2.165h8.855q-.144-4.62-.144-9.529l6.978.722a1.026,1.026,0,0,1-.337.77c7.845.144,7.748,4.62,5.39,5.775,1.06.818,2.455,1.974,3.466,2.888-.145.481-.626.721-1.3.721h-8.951a83.041,83.041,0,0,0,1.251,12.85,70.521,70.521,0,0,0,2.551-8.759l6.4,2.166c-.24.625-.722.914-1.973.866a54.074,54.074,0,0,1-5.246,11.984,23.939,23.939,0,0,0,3.08,5.823c.53.818.771.77,1.252-.1.625-1.2,1.684-3.512,2.454-5.534l.53.1ZM1097.688,6915c1.588-.482,3.224-.962,4.909-1.492.144-2.021.192-3.994.192-5.967v-5.583h-5.1Zm10.251-7.8v.337a37.123,37.123,0,0,1-1.588,11.79c1.251.1,2.935.193,3.561.193a.843.843,0,0,0,.77-.337c.673-.866.915-4.427,1.059-11.983Zm19.106-12.417a1.61,1.61,0,0,1-.577-.289,12.386,12.386,0,0,0-2.985-5.053c-.24.048-.481.1-.769.145-.049,2.454-.1,4.957-.049,7.459h2.6Z" transform="translate(-978.4 -6813.03)" fill="#fff"/>
          </g>
          <g transform="matrix(1, 0, 0, 1, 978.4, 6813.03)" filter="url(#Path_882)">
            <path id="Path_882-2" data-name="Path 882" d="M1140.185,6900.952a39.045,39.045,0,0,1-5.582,3.9l-.531-.482a49.4,49.4,0,0,0,9.577-17.422l6.883,2.888c-.192.577-.866.963-1.926.866a38.6,38.6,0,0,1-3.8,5.535l2.166.77c-.193.434-.626.722-1.54.914v17.663c-.048.385-2.214,1.4-4.236,1.4h-1.01Zm33.88,24.352s3.465,2.695,5.536,4.572c-.145.529-.626.77-1.348.77h-43.362l-.433-1.4h19.587v-6.689h-13.86l-.385-1.3h14.245v-5.535l7.508.626c-.1.673-.433,1.155-1.733,1.347v3.562h6.882l2.984-3.851s3.418,2.6,5.39,4.38c-.1.529-.626.77-1.3.77H1159.82v6.689h11.165Zm-17.421-24.929c0,.337-1.636,1.491-4.379,1.491h-.915v-14l5.967,2.31h10.83l2.454-2.743,5.294,3.994a2.864,2.864,0,0,1-1.877.963v7.266c-.048.289-2.791,1.2-4.476,1.2h-.915v-1.3h-3.417v3.994h6.642l2.647-3.32s2.936,2.261,4.812,3.9c-.1.529-.626.769-1.3.769h-11.55c3.128,2.7,8.277,4.573,12.945,5.247l-.048.529c-1.924.529-3.272,2.166-3.8,4.812a20.736,20.736,0,0,1-10.348-10.106v9.143c-.048.29-1.636,1.541-4.283,1.541h-.914v-7.941a34.995,34.995,0,0,1-13.09,7.46l-.434-.626a28.678,28.678,0,0,0,9.914-10.059H1147.6l-.385-1.347h12.8v-3.994h-3.369Zm0-8.855v6.689h11.983v-6.689Z" transform="translate(-978.4 -6813.03)" fill="#fff"/>
          </g>
          <g transform="matrix(1, 0, 0, 1, 978.4, 6813.03)" filter="url(#Path_883)">
            <path id="Path_883-2" data-name="Path 883" d="M1197.6,6923.187v7.748c0,.241-1.637,1.107-4.428,1.107h-.962v-8.855h-10.588l-.386-1.348h10.974v-4.86h-2.647v.866c0,.385-1.588,1.491-4.187,1.491h-.915v-15.978l5.775,2.214h9.722l2.5-2.646,5.15,3.9a3.376,3.376,0,0,1-1.829.915v9.192c-.048.433-2.647,1.492-4.38,1.492h-.962v-1.443H1197.6v4.86h4.283l2.791-3.465s3.224,2.406,5.15,4.042a1.213,1.213,0,0,1-1.3.771Zm-1.107-22.138a68.42,68.42,0,0,0,1.491-6.931h-9.336c7.893,3.322,2.791,9.337-.529,5.823a11.673,11.673,0,0,0-1.06-5.823h-4.283l-.384-1.347h9.818v-5.439l7.122.578c-.1.674-.481,1.107-1.732,1.348v3.513h3.032l2.791-3.465s3.177,2.358,5.149,4.043c-.144.529-.674.769-1.347.769h-6.738l4.139.914c-.145.578-.722,1.011-1.732,1.011a46.706,46.706,0,0,1-5.15,5.006h4.476l2.791-3.321s1.54,1.155,3.08,2.406a45.715,45.715,0,0,0,10.106-12.465l6.594,4.235c-.337.482-.771.626-1.877.385a50.578,50.578,0,0,1-14.149,8.423c.433.337.818.674,1.155.962-.048.529-.529.77-1.251.77h-26.855l-.384-1.4Zm-6.93,5.871v3.657h10.876v-3.657Zm0,8.663h10.876v-3.658h-10.876Zm37.538,1.4c-.337.577-.867.769-2.021.577-5.775,7.652-12.946,11.983-21.994,14.582l-.24-.674a38.713,38.713,0,0,0,16.988-18.191Zm-19.684-2.7c4.669-3.561,8.326-8.518,11.214-14.534l6.978,3.946c-.337.53-.818.722-1.877.53a40.691,40.691,0,0,1-15.978,10.684Z" transform="translate(-978.4 -6813.03)" fill="#fff"/>
          </g>
          <g transform="matrix(1, 0, 0, 1, 978.4, 6813.03)" filter="url(#Path_884)">
            <path id="Path_884-2" data-name="Path 884" d="M1232.783,6922.176c4.236,13.186-7.989,10.972-3.9,5.727,1.637-.866,2.984-2.792,3.321-5.727Zm35.566-35.18s3.224,2.647,5.2,4.427c-.1.529-.625.77-1.348.77h-7.026a46.747,46.747,0,0,1-4.139,5.39h4.476l2.358-2.5,4.668,3.609a3.4,3.4,0,0,1-1.636.819v21.175c-.048.337-2.406,1.347-4.138,1.347h-.819v-1.491h-7.315v.577c0,.24-.481.626-1.2.963l5.2,2.694c-.24.386-.769.53-1.588.337-2.454,2.792-7.6,5.679-12.223,6.979l-.386-.626a27.687,27.687,0,0,0,7.989-9,7.712,7.712,0,0,1-1.877.24h-.769v-27.287l5.052,2.165h.626c.145-1.588.24-3.754.24-5.39h-7.363a4.058,4.058,0,0,1-1.3.53v9.866a7.926,7.926,0,0,1-3.224,1.106l.914.241c-.145.578-.674.962-1.636,1.01a38.387,38.387,0,0,1-3.947,4c3.321,2.407.578,6.016-2.021,3.947a7.907,7.907,0,0,0-.915-2.792,2.07,2.07,0,0,1-1.443.385,64.678,64.678,0,0,1-5.534,6.353q1.876-.072,3.9-.144a11.339,11.339,0,0,0-.817-2.551l.529-.193a8.969,8.969,0,0,1,3.657,2.647h2.262c1.2-2.647,2.648-6.3,3.609-9.047l5.247,1.877a1.7,1.7,0,0,1-1.781.817,62.77,62.77,0,0,1-5.39,6.3c1.251-.048,2.647-.1,4.043-.145a11.631,11.631,0,0,0-1.108-2.694l.578-.289c8.374,3.273,4.042,9.385.962,6.353a8.735,8.735,0,0,0-.144-2.214c-1.347.721-3.273,1.588-5.727,2.695a1.605,1.605,0,0,1-1.251,1.059l-.77-1.781a2.115,2.115,0,0,1-3.706.433,9.358,9.358,0,0,0-.048-2.31c-1.348.818-3.417,1.973-5.968,3.321a1.542,1.542,0,0,1-1.3.963l-1.829-4.957c.771,0,1.877-.049,3.225-.049.577-1.059,1.155-2.262,1.732-3.561a2.311,2.311,0,0,1-2.983-.289,7.331,7.331,0,0,0-2.022-4.957l.482-.337a13.867,13.867,0,0,1,2.646.722c.385-1.348.866-3.031,1.251-4.572a7.334,7.334,0,0,1-1.443.144h-.722v-15.545l5.1,2.022h9.963l2.357-2.551,3.9,2.936-.047-.144h13.86Zm-22.476,16.17v-1.251H1235.19v.674a.439.439,0,0,1-.145.24l3.272.914c-.192.578-.673.915-1.684.963a46.213,46.213,0,0,1-4.331,4.38,3.242,3.242,0,0,1,1.732,2.262c.53-1.252,1.06-2.5,1.445-3.61l4.331,1.685a8.154,8.154,0,0,0-1.3-1.733l.53-.289a11.85,11.85,0,0,1,2.839.819c.481-1.781,1.107-4.043,1.444-5.728Zm-10.683-11.214v3.706h10.683v-3.706Zm0,5.054v3.561h10.683v-3.561Zm1.155,25.122c2.358,1.732,3.754,3.85,3.609,6.112-.241,2.887-4.524,3.465-4.38.1a12.811,12.811,0,0,0,.145-6.063Zm4.764-.337c2.647,1.251,4.331,2.936,4.572,4.957.241,2.695-3.705,3.8-4.139.577a10.648,10.648,0,0,0-.962-5.294Zm4.764-.722c3.321.77,5.68,2.262,6.257,4.284.818,2.838-3.417,4.715-4.428,1.3a8.66,8.66,0,0,0-2.214-5.245Zm12.754-22.186v5.726h7.315v-5.726Zm0,12.946h7.315v-5.823h-7.315Zm7.315,7.315v-5.968h-7.315v5.968Zm-2.5,2.839c14.052,2.6,10.491,12.513,5.341,9.385-.866-3.08-3.56-6.738-5.774-9.048Z" transform="translate(-978.4 -6813.03)" fill="#fff"/>
          </g>
          <g transform="matrix(1, 0, 0, 1, 978.4, 6813.03)" filter="url(#Path_885)">
            <path id="Path_885-2" data-name="Path 885" d="M1315.032,6888.44s3.08,2.454,4.957,4.186c-.144.53-.626.771-1.3.771h-10.781v2.6c0,.434-1.973,1.059-4.571,1.059h-.915V6893.4h-10.2v2.791c0,.481-2.022,1.107-4.476,1.107h-.915v-3.9h-11.454l-.337-1.348h11.791v-5.15l7.075.626c-.049.625-.433,1.107-1.684,1.3v3.225h10.2v-5.15l7.171.626c-.048.674-.482,1.107-1.685,1.3v3.225h4.332Zm-1.3,16.458s3.129,2.311,5.1,4c-.144.53-.625.77-1.3.77h-40.859l-.434-1.348h18.24v-3.561h-12.657l-.385-1.4h13.042v-3.224H1280l-.385-1.4h14.871v-3.512l6.93.625c-.048.529-.385.915-1.347,1.107v1.78h7.844l2.6-3.128s2.983,2.165,4.812,3.754c-.144.53-.626.77-1.3.77h-13.957v3.224h6.641l2.455-2.935s2.791,2.069,4.524,3.561c-.145.53-.578.77-1.251.77h-12.369v3.561h10.876Zm-5.149,4.91,5.535,4.09a3.158,3.158,0,0,1-1.973,1.011v11.069c0,3.513-.915,5.583-7.508,6.16-.193-1.636-.482-2.888-1.3-3.657-.866-.771-2.069-1.4-4.813-1.83v-.673s5.582.385,7.027.385c.817,0,1.058-.289,1.058-.963v-3.85h-18.143v8.76c0,.529-2.455,1.78-4.717,1.78h-.818v-21.8l5.872,2.31h17.325Zm-20.116,10.4h6.111v-6.209h-6.111Zm18.143,0v-6.209h-6.545v6.209Z" transform="translate(-978.4 -6813.03)" fill="#fff"/>
          </g>
          <g transform="matrix(1, 0, 0, 1, 978.4, 6813.03)" filter="url(#Path_886)">
            <path id="Path_886-2" data-name="Path 886" d="M1347.183,6916.786c3.706,6.256,11.5,8.662,20.069,9.625l-.049.529c-2.214.626-3.609,2.5-4.235,5.2-8.47-2.551-13.908-6.593-16.7-15.352h-.722c-2.214,6.978-8.23,12.609-23.2,15.3l-.241-.626c11.358-3.513,16.122-8.662,17.951-14.678h-17.9l-.385-1.4h7.508v-13.572l5.824,2.262h5.966v-6.834l7.268.626c-.1.674-.482,1.108-1.685,1.3v4.908h6.353l2.455-3.128,5.823,4.043c-.337.482-.866.77-2.166.962v9.433h.24l2.792-3.9s3.128,2.695,4.957,4.524c-.144.529-.626.77-1.3.77Zm-24.978-22.331-.337-1.4h11.888v-6.113l7.122.626c-.048.626-.385,1.107-1.636,1.3v4.188h9.818v-6.113l7.267.626c-.049.626-.433,1.107-1.684,1.3v4.188h4.09l2.888-3.9s3.32,2.648,5.245,4.525c-.144.529-.625.769-1.347.769h-10.876v3.754c0,.481-2.166,1.251-4.668,1.251h-.915v-5h-9.818v3.994c0,.482-2.214,1.252-4.572,1.252h-.914v-5.246Zm18.24,20.935a29.71,29.71,0,0,0,.625-6.593v-3.369h-6.4v9.962Zm6.208-6.545a32.1,32.1,0,0,1-.721,6.545h7.6v-9.962h-6.882Z" transform="translate(-978.4 -6813.03)" fill="#fff"/>
          </g>
          <g transform="matrix(1, 0, 0, 1, 978.4, 6813.03)" filter="url(#Path_887)">
            <path id="Path_887-2" data-name="Path 887" d="M1413.743,6905.861c-.386.482-.963.625-2.07.241a56.95,56.95,0,0,1-7.459,7.941v11.935c0,3.658-.963,5.63-7.6,6.16-.192-1.588-.48-2.743-1.346-3.513a8.889,8.889,0,0,0-4.669-1.685v-.625s5.631.385,6.738.385c.866,0,1.107-.385,1.107-1.107v-6.979a78.223,78.223,0,0,1-28.635,12.369l-.289-.722a82.135,82.135,0,0,0,26.228-15.208c-5.534,1.733-12.753,3.706-22.185,6.112a2.166,2.166,0,0,1-1.3,1.059l-2.454-6.064c1.732-.1,4.331-.337,7.459-.674v-24.5l6.064,2.407h4.091c.288-1.83.674-4.668.914-6.594l8.326,1.252c-.192.817-.866,1.2-1.926,1.3-1.106,1.155-2.838,2.839-4.089,4.043h7.266l2.647-3.081,5.679,4.379a3.571,3.571,0,0,1-2.021,1.011v10.54a45.717,45.717,0,0,0,3.513-5.054Zm-30.705-11.117v5.245h15.4v-5.245Zm0,12.031h15.4v-5.438h-15.4Zm0,8.038c4.525-.482,9.674-1.107,14.968-1.781l.433-.433v-4.428h-15.4Z" transform="translate(-978.4 -6813.03)" fill="#fff"/>
          </g>
          <g transform="matrix(1, 0, 0, 1, 978.4, 6813.03)" filter="url(#Path_888)">
            <path id="Path_888-2" data-name="Path 888" d="M1428.423,6901.192c-.145.434-.529.771-1.444.915v28.3c-.1.482-2.407,1.685-4.669,1.685h-1.01v-25.555a37.094,37.094,0,0,1-5.776,5.582l-.577-.385c3.947-6.015,7.893-15.5,9.818-24.88l7.749,2.357a1.7,1.7,0,0,1-1.877,1.011,62.384,62.384,0,0,1-4.814,10.011Zm24.159-11.068c-.529.674-2.214,1.107-4.091,1.251,2.117,4.668,7.123,8.856,12.947,10.925l-.049.577a8.085,8.085,0,0,0-4.861,5.294l.289.241a3.148,3.148,0,0,1-1.973.866c-.337,12.946-1.155,18.577-3.513,20.646-1.54,1.347-3.466,1.926-6.16,1.926.048-1.637-.145-2.985-.818-3.706a7.722,7.722,0,0,0-4.091-1.829l.048-.674c1.684.144,4.475.337,5.486.337a1.855,1.855,0,0,0,1.492-.482c1.251-1.154,1.829-6.737,2.166-17.133h-5.92c-1.3,10.3-5.342,18.722-15.689,23.679l-.337-.529c7.075-6.065,9.385-14.294,9.866-23.15h-5.439l-.432-1.347h17.47l2.887-2.839,2.984,2.551a30.336,30.336,0,0,1-7.556-15.545h-8.471l-.432-1.348h7.7l1.732-2.839Zm-24.978,18.047a40.209,40.209,0,0,0,8.327-15.785l7.411,2.646c-.241.578-.866.963-1.974.915a30.228,30.228,0,0,1-13.282,12.705Z" transform="translate(-978.4 -6813.03)" fill="#fff"/>
          </g>
          <g transform="matrix(1, 0, 0, 1, 978.4, 6813.03)" filter="url(#Path_889)">
            <path id="Path_889-2" data-name="Path 889" d="M1016.158,6973.239l5.246,3.9a3.01,3.01,0,0,1-1.877,1.01v9.673c-.048.289-2.743,1.2-4.427,1.2h-.867v-2.935h-8.566v2.166c0,.337-1.54,1.443-4.139,1.443h-.866v-8.422a20.443,20.443,0,0,1-6.352,7.123l-.482-.481c4.428-6.594,4.813-14.823,4.813-21.465v-7.314a38.485,38.485,0,0,1-4.861,2.935l-.385-.433a45.548,45.548,0,0,0,10.829-17.181l7.8,1.588c-.193.577-.625.866-1.877,1.058,16.459,2.985,10.732,12.8,6.352,9.53a18.658,18.658,0,0,0-6.834-9.048,43.608,43.608,0,0,1-6.4,7.748h5.775l2.406-3.08s2.791,2.118,4.476,3.658c-.145.529-.626.77-1.3.77h-11.839l-.192-.722c-.914.818-1.877,1.637-2.84,2.358l4.813,1.781h8.759l2.454-2.7,5.247,3.9a3.718,3.718,0,0,1-1.974,1.058v9.578c-.048.289-2.694,1.251-4.379,1.251h-.866v-1.444h-10.348c-.1.963-.24,1.926-.432,2.936l3.272,1.252h7.459Zm-2.357-2.84v-3.753h-10.059q0,1.732-.144,3.753Zm-10.059-8.951v3.851H1013.8v-3.851Zm10.491,23.245v-7.411h-8.566v7.411Zm13.861-6.737c0,.529-2.117,1.491-3.947,1.491h-.914v-30.8l6.5.627c-.1.625-.481,1.058-1.636,1.25Zm10.828-31.811c-.144.721-.625,1.2-1.78,1.347v35.95c0,3.754-.771,5.872-6.787,6.449a6.727,6.727,0,0,0-1.106-3.8c-.77-.818-1.781-1.443-4.091-1.78v-.674s4.765.288,5.776.288c.769,0,1.01-.24,1.01-.866v-37.635Z" transform="translate(-978.4 -6813.03)" fill="#fff"/>
          </g>
          <g transform="matrix(1, 0, 0, 1, 978.4, 6813.03)" filter="url(#Path_890)">
            <path id="Path_890-2" data-name="Path 890" d="M1052.4,6979.736c3.322,3.37,6.5,3.8,15.257,3.8,5.294,0,12.609,0,18.481-.192v.577c-2.166.53-3.417,2.214-3.706,4.765H1067.7c-9.048,0-12.657-1.4-15.882-8.182a89.83,89.83,0,0,1-7.218,8.134,1.127,1.127,0,0,1-.771,1.2l-3.08-6.3c1.637-.529,3.995-1.4,6.353-2.358v-14.1h-5.967l-.289-1.4h5.486l2.7-3.562,5.871,4.668a4.235,4.235,0,0,1-2.5.963Zm-9.095-33.591c14.294,2.454,9.626,13.042,4.283,9.24a19.564,19.564,0,0,0-4.668-8.952Zm23.678,8.085h-5.823a22.348,22.348,0,0,1-5.631,5.63l-.626-.384a45.992,45.992,0,0,0,3.995-14.15l7.315,2.262c-.192.577-.818.963-1.877.963a32.558,32.558,0,0,1-2.262,4.283h4.909V6944.7l7.412.626c-.1.674-.482,1.155-1.781,1.348v6.16h3.8l2.936-3.8s3.32,2.6,5.341,4.427c-.144.529-.625.771-1.347.771h-10.732v6.881h5l3.032-3.946s3.321,2.695,5.39,4.525c-.144.529-.626.769-1.348.769h-30.8l-.385-1.348h13.475Zm9.144,27.191V6978.2h-12.513v1.925c0,.482-2.406,1.685-4.716,1.685h-.77v-17.325l5.775,2.309h11.743l2.6-2.791,5.293,3.994a3.089,3.089,0,0,1-1.876,1.011v10.925c-.049.385-2.744,1.492-4.572,1.492Zm0-4.62v-8.711h-12.513v8.711Z" transform="translate(-978.4 -6813.03)" fill="#fff"/>
          </g>
          <g transform="matrix(1, 0, 0, 1, 978.4, 6813.03)" filter="url(#Path_891)">
            <path id="Path_891-2" data-name="Path 891" d="M1129.98,6972.373s2.5,2.358,3.851,3.946c-.145.53-.578.771-1.252.771h-44.8l-.433-1.348h5.1l-.626-28.443,5.054,1.492a48.226,48.226,0,0,0,3.609-4.331l3.995,4.139v-3.465l6.064.577c-.049.529-.386.914-1.4,1.059v4.043h2.839l2.262-3.033s2.5,2.07,4.043,3.61c-.1.529-.577.77-1.251.77h-7.893v5.968h2.407l2.213-2.214,4.187,3.273a2.686,2.686,0,0,1-1.444.721v15.834h6.017l.192-7.412h-4.38l-.433-1.348h4.813l.192-7.843h-4.235l-.433-1.4h4.716l.145-7.7h-4.62l-.434-1.347h4.62l2.263-2.887,5.2,4.283c-.337.432-.77.625-1.829.769l-.529,24.882h.1Zm-42.013,16.988c5.582-2.983,11.165-8.181,13.619-12.031l7.219,3.176c-.288.626-1.107.963-2.647.77-3.9,3.417-10.732,6.787-17.951,8.664Zm9.673-13.619h6.834v-12.561l5.534.529c-.048.529-.385.866-1.2,1.06v10.972h3.129v-16.266h-2.792v.866c0,.385-2.118,1.2-3.8,1.2h-.866V6949.32a1.928,1.928,0,0,1-1.059-.24,59.488,59.488,0,0,1-6.4,1.733l.192,6.929h1.154l1.877-2.694s2.071,1.925,3.274,3.32a1.1,1.1,0,0,1-1.2.771h-5.1l.192,7.843h1.2l1.924-2.838s2.166,2.021,3.37,3.417c-.1.529-.53.769-1.2.769h-5.246Zm15.592,3.031c26.23,2.744,16.8,14.92,11.84,9.867-1.925-2.84-5.535-6.594-12.08-9.241Z" transform="translate(-978.4 -6813.03)" fill="#fff"/>
          </g>
          <g transform="matrix(1, 0, 0, 1, 978.4, 6813.03)" filter="url(#Path_892)">
            <path id="Path_892-2" data-name="Path 892" d="M1177.964,6965.106c-.24.433-.722.673-1.829.385a65.169,65.169,0,0,1-10.251,5.245,34.44,34.44,0,0,0,13.86,10.54l-.143.53c-2.408.24-4.332,1.877-5.343,4.524-7.845-5.631-12.561-13.428-14.63-26.807h-.385a30.346,30.346,0,0,1-5.679,3.947c9.529,7.171,9.962,20.068,6.545,24.3-1.252,1.541-3.658,2.118-7.075,2.07a5.286,5.286,0,0,0-1.154-3.513,9.679,9.679,0,0,0-4.043-1.781l-.048-.577c2.021.192,5.2.384,6.353.384.673,0,1.155-.1,1.4-.529.722-1.058,1.155-3.224,1.155-5.871a67.61,67.61,0,0,1-22.138,8.085l-.337-.674c8.278-2.743,16.844-8.134,21.609-13.908-.1-.434-.241-.915-.337-1.348a72.9,72.9,0,0,1-19.443,7.748l-.289-.626c6.4-2.743,13.523-7.844,17.374-12.368q-.288-.434-.578-.866a68.447,68.447,0,0,1-16.122,5.727l-.288-.625a52.419,52.419,0,0,0,15.207-9.578h-9.144l-.385-1.347h23l2.985-3.706s1.106.818,2.406,1.829c.529-1.2,1.058-2.6,1.443-3.8H1142.4c.29,3.465-1.01,5.871-2.695,6.882a3.034,3.034,0,0,1-4.62-1.106c-.577-1.782.434-3.129,1.974-3.9a7.789,7.789,0,0,0,3.512-6.642h.674a17.967,17.967,0,0,1,1.011,3.417h11.791v-6.5l7.6.577c-.1.674-.481,1.156-1.781,1.4v4.524h11.7l2.886-2.887,4.957,4.764a2.878,2.878,0,0,1-1.877.578,37.452,37.452,0,0,1-6.063,3.706c.577.481,1.155,1.01,1.684,1.443-.1.529-.626.77-1.3.77h-11.358a31.4,31.4,0,0,0,4.428,9.866,53.913,53.913,0,0,0,6.785-8.662Z" transform="translate(-978.4 -6813.03)" fill="#fff"/>
          </g>
          <g transform="matrix(1, 0, 0, 1, 978.4, 6813.03)" filter="url(#Path_893)">
            <path id="Path_893-2" data-name="Path 893" d="M1206.505,6946.192c-.1.722-.529,1.2-1.78,1.348,1.01,18.528,5.534,29.742,21.993,35.806l-.1.577c-2.888.53-4.717,2.5-5.343,5.631-12.127-6.448-15.737-17.758-16.94-33.111-.866,12.369-4.331,24.689-22.427,33.352l-.529-.674c17.614-12.849,17.133-28.394,17.182-43.7Z" transform="translate(-978.4 -6813.03)" fill="#fff"/>
          </g>
          <g transform="matrix(1, 0, 0, 1, 978.4, 6813.03)" filter="url(#Path_894)">
            <path id="Path_894-2" data-name="Path 894" d="M1248.713,6955.24a3.941,3.941,0,0,1-1.973,1.011v27.624c-.049.385-2.6,1.54-4.427,1.54h-.867v-3.8h-5.872v3.417c0,.626-2.069,1.877-4.283,1.877h-.818v-35.18l5.294,2.31h.048c.337-2.406.818-6.449,1.059-9.192l7.845,1.829c-.193.818-.866,1.154-1.974,1.154-1.4,1.781-3.561,4.428-5.149,6.209h3.369l2.6-2.84Zm-13.139.145v11.405h5.872v-11.405Zm5.872,24.881V6968.09h-5.872v12.176Zm32.341-24.978a3.691,3.691,0,0,1-2.214.866c-.674,18.77-2.021,27.913-4.957,30.849-1.877,1.829-4.091,2.455-7.363,2.455,0-1.685-.241-2.888-1.06-3.658a10.6,10.6,0,0,0-5.052-2.117v-.626c2.358.193,5.775.433,7.074.433a2.45,2.45,0,0,0,1.974-.721c2.117-1.782,3.32-11.6,3.946-27.529h-10.877a31.6,31.6,0,0,1-7.941,8.711l-.577-.386a59.386,59.386,0,0,0,6.545-18.865l7.556,2.262a1.769,1.769,0,0,1-1.925.963,48.053,48.053,0,0,1-2.792,5.92h9.529l3.032-3.177Zm-21.7,6.594c13.86,4.523,8.325,14.726,3.417,10.251-.145-3.466-1.974-7.268-3.851-9.914Z" transform="translate(-978.4 -6813.03)" fill="#fff"/>
          </g>
          <g transform="matrix(1, 0, 0, 1, 978.4, 6813.03)" filter="url(#Path_895)">
            <path id="Path_895-2" data-name="Path 895" d="M1314.6,6971.94s3.513,2.839,5.679,4.764c-.1.529-.674.771-1.347.771h-18.673v5.678c0,4-1.011,6.113-7.989,6.738-.193-1.781-.482-3.08-1.348-3.9s-2.069-1.444-4.909-1.926v-.625s6.16.385,7.267.385c.722,0,.963-.192.963-.818v-5.534h-19.011l-.384-1.4h19.395v-4.62l6.353.529c2.261-1.01,4.62-2.118,6.545-3.176h-28.3l-.434-1.348h30.367l3.274-2.888,5.053,4.765c-.433.433-.963.529-2.07.578a101.471,101.471,0,0,1-14.774,3.513v2.647h11.213Zm-38.982-21.175h18.625V6944.6l7.748.578c-.049.673-.433,1.155-1.732,1.347v4.236h10.491l3.128-4.284s3.514,2.888,5.631,4.861c-.145.529-.625.77-1.348.77H1276Zm29.983,14.677v-1.828h-16.364v.962c0,.482-2.6,1.685-4.908,1.685h-.77v-12.994l6.015,2.262h15.545l2.6-2.839,5.679,4.138a3.72,3.72,0,0,1-1.973,1.059v6.3c-.048.337-2.984,1.251-4.813,1.251Zm0-3.175v-5.342h-16.364v5.342Z" transform="translate(-978.4 -6813.03)" fill="#fff"/>
          </g>
          <g transform="matrix(1, 0, 0, 1, 978.4, 6813.03)" filter="url(#Path_896)">
            <path id="Path_896-2" data-name="Path 896" d="M1337.269,6954.951a3.506,3.506,0,0,1-1.011,0c-1.154,1.445-2.887,3.514-4.764,5.583,9.336,4.668,4.476,11.935.962,8.23a14.311,14.311,0,0,0-.192-3.177c-1.588,1.011-3.8,2.358-6.738,4.043a1.616,1.616,0,0,1-1.2,1.155l-2.84-5.535c1.059-.048,2.744-.192,4.717-.337,1.973-4.042,4.62-10.01,5.919-13.282l5.15,2.309v-5.389l4.572,1.925c.144-1.637.24-4.091.289-5.824l6.4.867q-.216,1.155-1.732,1.3c-.866,1.01-2.214,2.5-3.273,3.658h2.839l2.214-2.311,4.477,3.466a11.215,11.215,0,0,1,2.117.577c.674-2.406,1.54-5.679,1.973-7.46l6.112,2.84c-.192.481-.626.722-1.78.626-1.108,1.155-3.273,3.031-5.054,4.62,4.475,2.647.915,7.314-2.358,4.668a9.048,9.048,0,0,0-2.118-5.2c-.144.048-.289.095-.481.144v15.015c-.048.289-2.31,1.252-3.9,1.252h-.769v-1.829h-5.1v1.155c0,.433-1.924,1.443-3.754,1.443h-.673Zm11.406,20.069c4.331,3.706,11.935,6.209,18.577,7.026l-.049.578c-2.165.577-3.8,2.5-4.428,5.294a26.693,26.693,0,0,1-15.448-12.9h-.048V6988.4c0,.433-2.6,1.444-4.957,1.444h-1.058V6978.87c-4.862,4.187-11.7,7.411-19.4,9.529l-.337-.626a42.183,42.183,0,0,0,15.5-12.753H1322.3l-.434-1.347h19.4v-4.717l7.8.674c-.1.626-.482,1.155-1.781,1.348v2.695h10.636l3.177-4.043s3.56,2.743,5.726,4.62c-.1.529-.626.77-1.347.77Zm-13.813-27.865c-.144.481-.625.818-1.828.722-1.059,1.251-2.984,3.225-4.62,5,3.513,2.84.144,7.026-3.032,4.428a10.123,10.123,0,0,0-2.888-6.113l.433-.289a15.873,15.873,0,0,1,3.947,1.06c.673-2.5,1.347-5.487,1.732-7.22Zm-7.266,17.615c1.4-.1,2.887-.289,4.379-.434a16.386,16.386,0,0,0-1.059-3.177C1329.761,6962.411,1328.606,6963.662,1327.6,6964.77Zm14.1-12.9v5.968h5.1v-5.968Zm5.1,13.62v-6.257h-5.1v6.257Zm19.828-11.021c-.192.433-.722.722-1.877.578-1.2,1.443-3.032,3.561-5.005,5.679l.433-.193c10.828,3.8,5.92,11.695,2.021,8.037a13.034,13.034,0,0,0-.577-3.465q-2.166,1.515-6.064,3.9a1.705,1.705,0,0,1-1.2,1.107l-2.791-5.2c.721-.048,1.828-.143,3.08-.24,2.117-4.043,4.86-9.817,6.255-13.042Zm-6.931,6.3c-1.154,1.3-2.357,2.551-3.512,3.707,1.588-.145,3.32-.337,5.052-.53A17.654,17.654,0,0,0,1359.695,6960.774Z" transform="translate(-978.4 -6813.03)" fill="#fff"/>
          </g>
          <g transform="matrix(1, 0, 0, 1, 978.4, 6813.03)" filter="url(#Path_897)">
            <path id="Path_897-2" data-name="Path 897" d="M1378.755,6959.187c-.289,4.957-2.022,11.309-9.962,15.3l-.385-.48c4.427-5.054,4.861-11.406,4.861-16.8v-8.085l6.4,2.262h11.791c-.481-2.165-.866-4.379-1.2-6.69l7.315.529c-.048.626-.433,1.156-1.492,1.348.241,1.637.481,3.225.866,4.813h8.567l2.7-3.8s2.984,2.647,4.765,4.428c-.1.529-.577.769-1.251.769h-14.487a28.462,28.462,0,0,0,3.273,8.037,30.436,30.436,0,0,0,4.043-7.074l6.352,2.984c-.192.481-.721.625-1.684.481a31.067,31.067,0,0,1-5.92,6.978,15.05,15.05,0,0,0,4.717,2.936c.914.337,1.3.337,1.684-.288a35.326,35.326,0,0,0,2.31-5.1l.433.1-.481,6.209c1.925,1.828,2.118,2.6,1.637,3.609-1.3,2.359-5.006,1.4-7.653.145a22.28,22.28,0,0,1-6.689-4.477,38.31,38.31,0,0,1-10.4,4.957l-.337-.625a38.783,38.783,0,0,0,8.615-6.786,33.669,33.669,0,0,1-5.342-12.08H1378.8v5.054h5.968l2.6-2.454,4.717,3.8a2.929,2.929,0,0,1-1.78.818c-.434,6.16-1.06,9.24-2.937,10.588a7.654,7.654,0,0,1-4.427,1.106,4.455,4.455,0,0,0-.722-2.887,5.8,5.8,0,0,0-3.225-1.636v-.626c1.4.1,3.417.24,4.091.24a.991.991,0,0,0,.818-.288c.578-.674.963-3.032,1.251-7.315Zm30.945,24.3s2.6,2.454,4.043,4.091c-.144.529-.578.77-1.252.77H1369.13l-.385-1.4h6.064V6971.8l5.775,2.262h20.694l2.407-3.033,5.774,4c-.288.481-.914.77-2.117.962v10.973h.192Zm-29.6,3.465h3.849v-11.5H1380.1Zm8.951-11.5v11.5h3.85v-11.5Zm8.952-29.934c10.828-1.107,7.844,7.315,3.32,4.957a8.8,8.8,0,0,0-3.657-4.573Zm0,29.934v11.5h3.8v-11.5Z" transform="translate(-978.4 -6813.03)" fill="#fff"/>
          </g>
          <g transform="matrix(1, 0, 0, 1, 978.4, 6813.03)" filter="url(#Path_898)">
            <path id="Path_898-2" data-name="Path 898" d="M1456,6954.422s3.273,2.743,5.2,4.62c-.1.529-.625.771-1.3.771h-7.652v15.448c0,.529-2.454,1.684-4.668,1.684h-1.011v-3.706h-6.545v3.128c0,.53-2.407,1.685-4.524,1.685h-1.011v-18.239h-6.3v24.254h22.09l3.321-4.427s3.657,2.984,5.823,5.053c-.144.53-.674.77-1.348.77h-29.886v2.455c0,.577-2.454,1.973-4.621,1.973H1422.5v-30.078h-6.737l-.434-1.4h7.171v-12.464l7.46.722c-.145.674-.482,1.2-1.781,1.4v10.347h6.3v-13.475l7.316.674c-.1.674-.434,1.2-1.781,1.4v11.4h6.545v-12.85l7.459.674c-.095.674-.481,1.2-1.78,1.4v10.78h.77Zm-9.433,5.391h-6.545v12.031h6.545Z" transform="translate(-978.4 -6813.03)" fill="#fff"/>
          </g>
        </g>
      </g>
    </g>
  </g>
</svg>
