<svg id="mob_title_2" xmlns="http://www.w3.org/2000/svg" width="448.627" height="47.556" viewBox="0 0 448.627 47.556">
  <g id="Group_24" data-name="Group 24" transform="translate(0 0)">
    <path id="Path_161" data-name="Path 161" d="M1012.39,2395.69c-.4.453-.958.655-2.169.756-1.816,9.683-6.3,19.214-15.734,25.064l-.505-.454a46.169,46.169,0,0,0,10.289-25.971h-8.725l-.454-1.412h8.624l3.127-3.228Zm29.551-1.11c-.352.454-.806.706-2.016.454a83.762,83.762,0,0,1-9.885,4.64c3.026,7.01,7.363,12.557,12.507,15.633l-.151.5a6.933,6.933,0,0,0-4.792,5.042,28.687,28.687,0,0,1-6.3-9.027,1.358,1.358,0,0,1-1.361.656h-8.776v6c0,4.035-.958,6.253-8.119,6.909-.2-1.815-.453-3.126-1.311-3.933-.959-.858-2.269-1.513-5.194-1.967v-.656s6.253.353,7.514.353c.908,0,1.16-.252,1.16-.908v-5.8h-9.431l-.4-1.412h9.834v-5.951h-5.951l-.4-1.412h6.355v-5.446h-4.589l-.4-1.412h4.993v-8.775l4.791.453a48.316,48.316,0,0,0,6.152-5.7h-23.7l-.454-1.463h24.812l3.278-3.178,5.547,4.842a3.023,3.023,0,0,1-2.118.6,76.883,76.883,0,0,1-11.2,5.093l.656.051c-.151.706-.605,1.16-1.816,1.311v6.758h.2l2.37-3.127s1.715,1.513,3.228,2.874c-.4-2.471-.756-5.093-1.059-7.816l.706-.2a55.5,55.5,0,0,0,2.975,9.935,64.078,64.078,0,0,0,5.951-8.724Zm-20.777,9.128h.908l2.421-3.227s2.421,2.017,4.034,3.53c-.5-1.816-.908-3.783-1.311-5.85a2.562,2.562,0,0,1-.656.1h-5.4Zm5.194,3.682s2.875,2.319,4.791,4.084a51.425,51.425,0,0,1-2.47-6.808,1.318,1.318,0,0,1-1.16.454h-6.355v5.951h2.521Z" transform="translate(-993.982 -2377.938)" fill="#bf956d"/>
    <path id="Path_162" data-name="Path 162" d="M1061.313,2384.747s2.925,2.371,4.741,4.035c-.152.554-.657.756-1.363.756h-18.81l-.4-1.361h13.212Zm-2.068,6.607s2.824,2.32,4.488,3.933c-.1.555-.6.807-1.26.807H1048.2l-.4-1.412h8.876Zm-2.571,9.884,2.571-3.278s2.824,2.32,4.488,3.934c-.1.5-.6.756-1.26.756H1048.2l-.4-1.412Zm8.27,8.069a2.959,2.959,0,0,1-1.866.958v11.8c-.051.4-2.572,1.563-4.388,1.563h-.857V2420.4h-4.841v3.278c0,.5-2.269,1.664-4.438,1.664h-.756v-19.517l5.4,2.219h4.136l2.471-2.622Zm-16.591-26.123-.4-1.412h8.523l2.622-3.48s2.925,2.421,4.69,4.085a1.146,1.146,0,0,1-1.261.807Zm9.48,35.8v-9.48h-4.841v9.48Zm23.147-27.181v-5.548h-5.849v3.984c0,.151-.2.353-.555.555l6.556,1.614c-.2.655-.807,1.109-2.017,1.109-.454,1.614-.959,3.127-1.463,4.589h7.212l3.026-4.084s3.328,2.773,5.345,4.69c-.1.554-.6.806-1.361.806H1077.1a45.776,45.776,0,0,1-3.43,6.859l2.017.756h8.271l2.673-2.925,5.648,4.287a3.755,3.755,0,0,1-2.118,1.059v13.768c-.051.4-2.773,1.613-4.74,1.613h-.958v-4.034h-9.431v2.875c0,.4-1.664,1.613-4.387,1.613h-1.009v-13.767a33.263,33.263,0,0,1-5.749,4.841l-.606-.5a47.383,47.383,0,0,0,8.221-16.441h-8.019l-.4-1.412h8.825a56.992,56.992,0,0,0,1.412-6.757,9.588,9.588,0,0,1-2.672.454h-.807v-5.548h-5.548l-.4-1.412h5.951v-6.4l6.908.6c-.1.6-.453,1.059-1.613,1.21v4.589h5.849v-6.4l6.91.6c-.1.6-.455,1.059-1.664,1.21v4.589h.605l2.37-3.681s2.774,2.572,4.286,4.286c-.1.555-.605.807-1.26.807h-6v3.984c0,.5-2.421,1.564-4.438,1.564Zm-5.95,16.793v10.842h9.431V2408.6Z" transform="translate(-993.982 -2377.939)" fill="#bf956d"/>
    <path id="Path_163" data-name="Path 163" d="M1115.986,2399.725c-.353.5-.757.706-1.866.807-2.319,8.372-7.362,16.138-17.348,20.576l-.4-.606c6.656-4.992,10.287-12.758,11.851-20.676h-10.238l-.454-1.463h10.389l2.926-2.975Zm26.022-5.5c-.3.5-.807.757-1.966.5a73.877,73.877,0,0,1-12.356,7.665c4.287,6.808,10.59,10.338,16.693,12.456l-.2.554c-2.421.555-4.186,2.673-4.892,5.547-7.867-5.244-13.112-12-15.683-26.072v23.4c0,4.035-1.009,6.406-8.12,7.011-.2-1.917-.5-3.329-1.362-4.237-.907-.908-2.168-1.614-4.992-2.017v-.706s6.052.353,7.262.353c.908,0,1.16-.353,1.16-1.11V2391.2H1105.5l-.454-1.411h12l2.673-3.026,5.8,4.337a3.409,3.409,0,0,1-1.916,1.008v.151a33.056,33.056,0,0,0,3.428,9.078,72.289,72.289,0,0,0,8.221-11.6Zm-30.51-16.087c20.223-.807,17.147,11.347,11.347,8.976-1.664-2.219-5.951-5.9-11.5-8.371Z" transform="translate(-993.982 -2377.939)" fill="#bf956d"/>
    <path id="Path_164" data-name="Path 164" d="M1161.632,2380.31c-.252.605-.858,1.008-2.018,1.008a51.086,51.086,0,0,1-6.2,7.161c4.136,3.228.706,7.664-2.521,5.094a14.248,14.248,0,0,0-3.177-6.96l.454-.3a17.384,17.384,0,0,1,3.883,1.312c.757-2.724,1.563-6.405,2.219-9.683Zm32.174,20.323c-.05.3-1.866.959-3.429,1.21l2.925,2.169a3.006,3.006,0,0,1-1.664.857v12.305c-.051.4-2.824,1.462-4.691,1.462h-.5c14.675,1.816,6.253,9.33,2.32,5.6a16.9,16.9,0,0,0-7.817-5.345l.252-.606c1.766.051,3.379.153,4.742.3v-1.664h-11.953v.908c0,.5-2.471,1.765-4.791,1.765h-.806v-17.651a3.513,3.513,0,0,1-1.009.15c.1,2.623-2.37,4.136-4.59,2.068a12.989,12.989,0,0,0-.5-3.328l-2.067.707v22.34c0,.353-1.664,1.513-4.287,1.513h-.958V2409.61a1.858,1.858,0,0,1-.555.1c-1.312,4.69-3.277,8.927-5.95,11.751l-.757-.4a55.449,55.449,0,0,0,2.219-13.819l5.043,1.009v-4.942l-3.883,1.312a1.781,1.781,0,0,1-1.362,1.059l-1.966-5.5c1.159,0,2.823-.1,4.891-.152a159.462,159.462,0,0,0,6.909-15.834l7.01,2.471c-.253.605-.857,1.008-2.017.857a110.086,110.086,0,0,1-10.188,12.407c2.27-.1,4.842-.2,7.515-.353a22.071,22.071,0,0,0-1.664-3.934l.554-.252a13.542,13.542,0,0,1,5.295,3.631V2388.73l5.295,2.118h16.844l2.27-2.37,4.891,3.529a3.008,3.008,0,0,1-1.563.807Zm-32.628,6.1c10.137,5.4,5.094,13.161,1.361,9.329a25.361,25.361,0,0,0-1.967-9.078Zm2.37,18a37.522,37.522,0,0,0,11.6-7.513l5.547,3.883c-.353.453-.806.654-1.916.353-3.48,1.866-9.381,3.428-14.776,3.933Zm1.866-42.411h11.7v-4.136l7.313.606c-.05.655-.4,1.108-1.564,1.31v2.219h4.439l2.874-3.53s3.227,2.42,5.194,4.135c-.151.555-.655.807-1.361.807h-4.791c.806.6,3.127,2.42,4.69,3.781-.1.556-.656.807-1.362.807H1168.49l-.4-1.412h9.026v-3.176h-11.3Zm23.2,18.155v-.606h-17.548v.757c0,.152-.253.4-.707.6l3.883,1.513h11.246l2.572-2.673Zm-9.732-8.221c-.454,2.573-2.068,4.438-7.716,5.6l-.1-.1v.656h17.548V2396.7a15.366,15.366,0,0,1-2.974.2h-1.766c-2.571,0-2.925-.807-2.925-2.874v-1.767Zm-7.816,0v4.69c2.924-1.31,3.58-2.824,3.782-4.69Zm14.877,14.677v-2.775h-11.953v2.775Zm-11.953,4.236h11.953V2408.4h-11.953Zm11.953,4.337v-2.875h-11.953v2.875Zm-3.078-31.771v3.176h3.379l2.573-3.176Zm1.715,8.521v1.211c0,.454.1.6.555.6h1.815a2.749,2.749,0,0,0,.657-.049,2.785,2.785,0,0,0,.857-.153h.15v-1.614Z" transform="translate(-993.982 -2377.939)" fill="#bf956d"/>
    <path id="Path_165" data-name="Path 165" d="M1221.55,2389.085a4.118,4.118,0,0,1-2.068,1.058v28.947c-.05.4-2.723,1.614-4.639,1.614h-.908v-3.984h-6.153v3.581c0,.655-2.168,1.968-4.488,1.968h-.858V2385.4l5.548,2.421h.05c.354-2.522.858-6.758,1.11-9.633l8.22,1.917c-.2.857-.908,1.21-2.067,1.21-1.463,1.866-3.732,4.64-5.4,6.506h3.531l2.723-2.977Zm-13.768.151v11.952h6.153v-11.952Zm6.153,26.072v-12.759h-6.153v12.759Zm33.889-26.173a3.861,3.861,0,0,1-2.32.907c-.706,19.668-2.118,29.25-5.194,32.325-1.967,1.917-4.287,2.573-7.716,2.573,0-1.765-.252-3.025-1.11-3.833-.958-.959-2.874-1.714-5.294-2.219v-.656c2.47.2,6.051.454,7.413.454a2.565,2.565,0,0,0,2.067-.757c2.22-1.865,3.48-12.153,4.136-28.845h-11.4a33.094,33.094,0,0,1-8.321,9.127l-.6-.4a62.269,62.269,0,0,0,6.859-19.769l7.917,2.37a1.852,1.852,0,0,1-2.017,1.009,50.363,50.363,0,0,1-2.925,6.2h9.986l3.177-3.328Zm-22.744,6.909c14.524,4.74,8.725,15.431,3.58,10.74-.151-3.63-2.067-7.615-4.034-10.387Z" transform="translate(-993.982 -2377.938)" fill="#bf956d"/>
    <path id="Path_166" data-name="Path 166" d="M1289.838,2416.518s4.085,3.178,6.606,5.3c-.151.554-.706.807-1.463.807h-45.538l-.4-1.414h18.76V2378.7l8.372.807c-.151.706-.505,1.21-1.866,1.412v16.894h8.27l3.631-4.641s4.034,3.077,6.455,5.246c-.151.555-.655.807-1.361.807h-16.995v21.987h11.85Z" transform="translate(-993.982 -2377.939)" fill="#bf956d"/>
    <path id="Path_167" data-name="Path 167" d="M1339.065,2381.52s3.933,2.975,6.354,5.094c-.151.555-.706.807-1.463.807h-18.608l1.109.1c-.1.656-.4,1.111-1.614,1.312v5.7h8.321l2.673-3.076,5.9,4.438a3.761,3.761,0,0,1-2.017,1.058v15.432c0,3.833-.907,6.1-7.565,6.657-.151-1.866-.352-3.177-1.058-4.085a6.064,6.064,0,0,0-3.985-1.865v-.655s4.337.252,5.5.252c.858,0,1.059-.3,1.059-.958v-15.785h-8.825v26.829c0,.6-2.774,1.967-5.043,1.967h-1.21v-28.8h-8.775v21.13c0,.606-2.572,1.968-5.093,1.968h-.858v-27.081l6.355,2.572h8.371v-7.111h-19.971l-.4-1.462h20.374v-7.968l8.068.6c-.1.705-.453,1.21-1.815,1.462v5.9h10.691Z" transform="translate(-993.982 -2377.939)" fill="#bf956d"/>
    <path id="Path_168" data-name="Path 168" d="M1362.873,2400.733l5.6,4.237a3.41,3.41,0,0,1-2.018,1.009v16.339c-.05.4-2.824,1.664-4.74,1.664h-.958V2419.8h-7.363v3.228c0,.555-2.42,1.866-4.741,1.866h-.857v-23.6l5.85,2.318h6.606Zm-2.118,17.6v-13.263h-7.363v13.263Zm.806-19.668c0,.555-2.572,1.866-5.042,1.866h-.909V2379.15l6.254,2.471h13.717l2.773-3.027,5.75,4.387a3.4,3.4,0,0,1-2.068,1.059v14.423c-.05.4-2.925,1.614-4.942,1.614h-1.008v-4.085h-14.525Zm0-15.583v11.5h14.525v-11.5Zm30.663,21.887a4.132,4.132,0,0,1-2.069,1.059v16.743c-.05.4-2.925,1.462-4.84,1.462h-.959V2419.8h-7.766v3.278c0,.555-2.37,1.866-4.74,1.866h-.858v-23.65l5.85,2.318h7.01l2.723-2.924Zm-7.868,13.364v-13.263h-7.766v13.263Z" transform="translate(-993.982 -2377.938)" fill="#bf956d"/>
    <path id="Path_169" data-name="Path 169" d="M1437.163,2407.542s3.48,2.975,5.446,5.043c-.151.555-.6.807-1.361.807h-9.178v10.691c0,.454-2.421,1.412-4.539,1.412h-1.009v-12.1H1413.26l-.405-1.463h13.667v-6.606c-2.168,2.371-5.546,4.539-10.892,6.2l-.4-.554c4.79-2.673,7.311-5.7,8.623-9.027h-2.825v1.412c0,.555-2.37,1.765-4.639,1.765h-.807v-10.035a2.561,2.561,0,0,1-.6.1h-12.406v7.26h3.531l2.521-2.772,5.244,4.084a3.581,3.581,0,0,1-2.067,1.008v18c-.051.454-2.421,1.815-4.337,1.815h-.857V2403.86h-4.035c-.151,8.725-1.714,15.936-7.161,21.383l-.656-.4c2.27-6.051,2.673-12.859,2.673-21.281V2379.6l6.909.655c-.1.706-.454,1.261-1.765,1.463v12h3.379v-15.129l6.758.6c-.051.656-.454,1.16-1.665,1.311v12.86l1.766-3.127s1.563,1.765,2.773,3.278v-11.3l5.749,2.219h2.219c.3-1.816.706-4.539.908-6.405l8.573,1.614c-.2.857-.908,1.261-2.068,1.311-1.21,1.009-3.076,2.37-4.589,3.48h7.666l2.571-2.673,5.295,3.934a3.229,3.229,0,0,1-1.916,1.008V2402.3c-.051.353-2.723,1.463-4.539,1.463h-.907v-1.815h-5.749a11.823,11.823,0,0,1-1.009,1.714l6.1.605c-.1.655-.5,1.109-1.816,1.311v6.354h2.017Zm-16.138-21.635v6.506h4.136v-6.506Zm3.329,14.625a24.711,24.711,0,0,0,.807-6.708h-4.136v6.708Zm10.187,0v-6.708h-4.186a20.771,20.771,0,0,1-.958,6.708Zm-4.186-14.625v6.506h4.186v-6.506Z" transform="translate(-993.982 -2377.938)" fill="#bf956d"/>
  </g>
</svg>
