<svg xmlns="http://www.w3.org/2000/svg" width="565.31" height="39.903" viewBox="0 0 565.31 39.903">
  <g id="mob_title_9" transform="translate(-936.122 -11182.453)">
    <g id="Group_158" data-name="Group 158">
      <path id="Path_1137" data-name="Path 1137" d="M970.215,11194.283s3.519,2.885,5.6,4.793c-.128.466-.594.678-1.23.678H958.512v20.4c0,.594-2.29,1.908-4.495,1.908h-.976v-22.3h-16.58l-.339-1.187h16.919v-15.859l7.294.721c-.085.722-.467,1.23-1.823,1.442v13.7h8.565Z" fill="#bf956d"/>
      <path id="Path_1138" data-name="Path 1138" d="M1018.766,11189.449a3.148,3.148,0,0,1-1.781.891v28.581c-.043.382-2.333,1.526-4.071,1.526h-.806v-3.773H987.175v2.332c0,.594-1.993,1.781-4.028,1.781h-.806v-34.561l5.216,2.121h24.128l2.375-2.629Zm-6.658,26.037v-25.951H1005.2v13.145c0,.552.085.721.679.721h1.018a6.993,6.993,0,0,0,1.06-.042.833.833,0,0,0,.721-.382,25.952,25.952,0,0,0,1.356-4.028h.467l.17,4.155a1.889,1.889,0,0,1,1.23,1.951c0,1.7-1.4,2.586-5.47,2.586h-1.993c-3.138,0-3.52-.932-3.52-3.73v-14.375h-3.6c-.212,9.074-1.018,16.029-9.923,20.693l-.212-.255v5.513Zm-24.933-25.951v19.8c5.385-5.259,5.428-11.746,5.47-19.8Z" fill="#bf956d"/>
      <path id="Path_1139" data-name="Path 1139" d="M1039.966,11206.326c-2.586,2.036-6.572,5.047-12.382,8.82a1.816,1.816,0,0,1-.975,1.23l-3.18-5.386c1.229-.339,3.264-.933,5.766-1.7v-18.828h-5.088l-.339-1.187h9.5l2.629-3.478s2.925,2.375,4.707,3.986c-.127.467-.594.678-1.23.678h-5v17.217c1.781-.594,3.6-1.187,5.47-1.823Zm-6.4,15.479c4.579-1.951,9.752-5.725,12.169-8.736l5.088,3.266c-.212.34-.72.424-1.4.17-3.308,2.544-9.966,5-15.563,5.853Zm25.357-39.182s3.053,2.375,4.919,4.028c-.085.466-.551.679-1.188.679H1053.2a43.121,43.121,0,0,1-4.028,4.579h5.852l2.29-2.417,4.537,3.477a2.421,2.421,0,0,1-1.485.764v18.658c-.042.3-2.417,1.271-4.113,1.271h-.848v-1.611h-9.668v.68c0,.508-2.078,1.61-4.2,1.61h-.72v-24.509l5.13,2.077h1.654c.085-1.272.17-3.053.255-4.579h-9.414l-.3-1.23h18.106Zm-13.188,10.474v5.046h9.668v-5.046Zm0,11.407h9.668v-5.131h-9.668Zm9.668,6.359v-5.173h-9.668v5.173Zm-4.07,2.757c14.587.382,12.509,10.517,7.208,8.312-1.483-2.842-4.834-6.064-7.5-7.973Z" fill="#bf956d"/>
      <path id="Path_1140" data-name="Path 1140" d="M1102.553,11214.341s3.138,2.841,4.962,4.665c-.128.467-.594.678-1.23.678H1067.7l-.34-1.187h9.033c1.144-4.41,2.544-10.558,3.816-16.58h-7.887l-.381-1.186h8.523c.89-4.156,1.653-8.186,2.247-11.492h-12.425l-.339-1.23h26.927l2.884-3.9s3.306,2.671,5.215,4.451c-.127.467-.593.68-1.23.68h-15.774c-.636,3.35-1.442,7.378-2.29,11.492h7.124l2.46-2.631,4.749,3.732a2.535,2.535,0,0,1-1.7.806v15.858h1.4Zm-17.131-12.425c-1.315,6.065-2.714,12.213-3.817,16.58h11.62v-16.58Z" fill="#bf956d"/>
      <path id="Path_1141" data-name="Path 1141" d="M1146.142,11215.953s3.01,2.459,4.792,4.154c-.127.467-.594.68-1.188.68h-37.867l-.339-1.187h17.6v-6.276h-11.153l-.338-1.146h11.491v-5.342h-7.081a25.214,25.214,0,0,1-8.821,6.826l-.466-.381a34.945,34.945,0,0,0,7.209-12.425,11.3,11.3,0,0,1-1.188.085h-.763v-17.725l5.555,2.162h15.689l2.418-2.629,5,3.816a2.73,2.73,0,0,1-1.7.891v11.7c-.043.34-2.672,1.23-4.368,1.23h-.933v-1.781h-16.41v.721c0,.212-.424.509-1.06.806l4.368,1.78c-.212.552-.721.807-1.654.68a30.708,30.708,0,0,1-1.951,3.011h6.149v-5.979l6.827.594c-.085.636-.382,1.061-1.526,1.229v4.156h6.36l2.672-3.478s2.968,2.375,4.664,4.028c-.127.466-.551.679-1.145.679h-12.551v5.342h6.148l2.587-3.52s2.926,2.375,4.622,4.03c-.128.466-.594.635-1.146.635h-12.211v6.276h9.032Zm-22.856-29.344v4.706h16.41v-4.706Zm16.41,10.77v-4.876h-16.41v4.876Z" fill="#bf956d"/>
      <path id="Path_1142" data-name="Path 1142" d="M1173.024,11186.1c-.211.552-.763.891-1.738.764-3.859,8.227-9.287,13.654-15.817,17.089l-.424-.382a48.568,48.568,0,0,0,11.152-20.1Zm5.513,19.761c17.81,7,13.611,19.888,7.718,15.308a25.569,25.569,0,0,0-2.333-6.4c-5.131,1.7-12.255,3.562-22.389,5.936a2.1,2.1,0,0,1-1.314.976l-2.545-6.53c1.823-.041,4.58-.17,7.93-.339a116.534,116.534,0,0,0,5.13-18.488l7,1.738c-.127.552-.593.976-1.654.976a87.008,87.008,0,0,1-8.735,15.646c4.622-.254,10.219-.635,15.986-1.06a46.956,46.956,0,0,0-5.215-7.5Zm.382-23.2c3.138,7.378,9.922,12.976,16.495,15.521l-.128.466a6.037,6.037,0,0,0-4.367,4.5c-6.234-4.07-10.262-10.855-12.509-20.27Z" fill="#bf956d"/>
      <path id="Path_1143" data-name="Path 1143" d="M1213.477,11188.051s2.544,1.992,4.07,3.393c-.085.466-.551.636-1.145.636h-17.385l-.34-1.146h12.595Zm-4.411,8.354,2.12-2.756s2.418,1.908,3.9,3.307c-.128.467-.552.679-1.146.679h-12.805l-.34-1.229Zm-7.929,6.7-.34-1.187h8.184l2.163-2.756s2.416,1.908,3.9,3.308c-.127.425-.509.636-1.1.636Zm13.357,16.2c-.043.339-2.248,1.271-3.774,1.271h-.763v-2.544h-4.665v2.714c0,.424-1.95,1.4-3.816,1.4h-.636v-16.411l4.579,1.866h4.113l2.12-2.29,4.411,3.35a2.716,2.716,0,0,1-1.569.849Zm-13.145-32.524-.339-1.187h7.929l2.247-2.884s2.46,1.994,3.987,3.393c-.085.467-.552.679-1.1.679Zm8.608,30.022v-7.973h-4.665v7.973Zm26.545-13.654c-.3.424-.721.594-1.739.678a28.663,28.663,0,0,1-5.894,9.669,36.871,36.871,0,0,0,10.347,3.9l-.043.466a5.8,5.8,0,0,0-4.367,4.409,26.857,26.857,0,0,1-9.033-5.979,35.034,35.034,0,0,1-12.848,5.979l-.254-.551a30.538,30.538,0,0,0,10.939-8.014,30.889,30.889,0,0,1-4.452-10.729h-2.926l-.381-1.145h13.272l2.8-2.714Zm-21.245-2.714c3.181-3.6,3.477-8.185,3.477-11.746v-5.173l5.3,1.908h3.18l2.248-2.418,4.07,3.352a2.368,2.368,0,0,1-1.314.635v6.529c0,.467.085.553.594.553h1.95c.34,0,.425-.043.678-.424a45.558,45.558,0,0,0,1.57-4.665h.466l.127,4.834a1.752,1.752,0,0,1,1.187,1.866c0,1.7-1.653,2.672-5.47,2.672h-2.078c-3.222,0-3.561-.891-3.561-3.732v-8.014h-4.41v2.077c0,3.393-.764,8.989-7.675,12.17Zm4.707,2.544a19.454,19.454,0,0,0,5.6,8.142,28.462,28.462,0,0,0,3.774-8.142Z" fill="#bf956d"/>
      <path id="Path_1144" data-name="Path 1144" d="M1281.109,11196.277a3.458,3.458,0,0,1-1.781.848v19.76c0,3.1-.679,4.877-5.809,5.344a5.814,5.814,0,0,0-.806-3.139,4.106,4.106,0,0,0-3.053-1.483v-.255a6.319,6.319,0,0,1-1.526.214h-.764v-2.164h-9.753v2.205c0,.339-1.823,1.06-3.264,1.06h-.764V11206.2l5.131.467c-.042.467-.3.764-1.1.891v6.615h2.544v-10.093h-8.353l-.339-1.229h6.148a3.54,3.54,0,0,1-1.1-.679,8.847,8.847,0,0,0-1.7-5.258l.382-.255c6.7,1.484,6.022,5.471,3.859,6.191h4.75a61.44,61.44,0,0,0,1.738-6.318l5.936,1.738c-.211.467-.72.807-1.654.764a34.621,34.621,0,0,1-4.621,3.816h3.01l2.036-2.459s2.332,1.738,3.731,3.01c-.085.467-.508.679-1.1.679H1264.7v10.093h2.672v-7.973l5.258.467c-.084.467-.339.764-1.145.891v8.947c0,.127-.338.381-.89.551,1.06.085,2.587.17,3.18.17.678,0,.848-.254.848-.806v-20.1h-24v24.34c0,.552-1.865,1.61-3.816,1.61h-.678V11193.1l.466.212v-9.074l6.361.551c-.085.594-.425,1.018-1.569,1.188v4.367h8.565v-7.887l6.446.551c-.085.594-.424,1.018-1.569,1.188v6.148h8.863v-6.105l6.487.551c-.084.594-.424,1.018-1.569,1.188v5.895a4.621,4.621,0,0,1-2.248.721Zm-6.912-1.146,2.162-2.544a8.851,8.851,0,0,1-1.823.17h-.847v-1.187h-22.3v.933c0,.3-2.12.933-4.029.933h-.423l4.07,1.7Z" fill="#bf956d"/>
      <path id="Path_1145" data-name="Path 1145" d="M1320.671,11183.259s3.434,2.629,5.555,4.41c-.085.466-.594.679-1.23.679h-19.04a43.712,43.712,0,0,1-6.615,12.254l1.908.764H1316.6l2.417-2.756,5.046,3.943a4.162,4.162,0,0,1-1.909.975v17.174c-.085.34-2.586,1.314-4.282,1.314h-.806v-3.9H1300.74v2.714c0,.339-1.526,1.44-4.07,1.44h-.934V11204.8a42.539,42.539,0,0,1-9.328,7.293l-.382-.382a48.186,48.186,0,0,0,13.655-23.364H1287.3l-.34-1.23h30.616Zm-19.931,19.294v14.332h16.326v-14.332Z" fill="#bf956d"/>
      <path id="Path_1146" data-name="Path 1146" d="M1330.379,11192.418c11.195.721,7.591,9.117,3.266,6.233a12.6,12.6,0,0,0-3.6-5.979Zm13.188-3.266c-1.824,5.471-4.962,15.605-5.555,18.022a19.339,19.339,0,0,0-.721,4.2c.085,2.205,1.823,3.69,1.7,7.378a3.394,3.394,0,0,1-3.561,3.519c-1.019,0-1.951-.593-2.29-2.162.762-4.367.55-8.226-.467-8.9a3.88,3.88,0,0,0-2.2-.678v-.807h1.951c.636,0,.806,0,1.314-.891.891-1.7.891-1.7,9.117-19.887Zm-9.838-5.936c11.619.339,8.566,9.031,3.944,6.529a16.012,16.012,0,0,0-4.24-6.232Zm18.786,17.472c-.3.465-.637.593-1.57.677-1.4,6.573-4.622,13.314-11.491,17.6l-.425-.467c4.284-4.537,6.362-11.363,7.124-17.681h-5.131l-.381-1.188h5.215l2.375-2.459Zm17.936-3.563c-.212.424-.636.637-1.611.467a56.568,56.568,0,0,1-8.227,5.725,23.507,23.507,0,0,0,10.3,10.9l-.212.424c-2.036.468-3.562,2.333-4.283,4.749-4.664-5-7.251-10.729-8.524-21.753v19.082c0,3.308-.805,5.131-6.572,5.641-.128-1.485-.382-2.63-1.145-3.309-.721-.721-1.7-1.272-3.986-1.653v-.552s4.834.3,5.809.3c.764,0,.934-.3.934-.891v-23.28h-7.93l-.339-1.145h7.845l2.247-2.629,4.876,3.689a3.166,3.166,0,0,1-1.739.933v.594a33.887,33.887,0,0,0,2.248,7.93,56.931,56.931,0,0,0,4.75-8.692Zm-21.669-14.332c13.486-1.527,12.934,8.057,7.718,6.784a26.845,26.845,0,0,0-8.015-6.36Z" fill="#bf956d"/>
      <path id="Path_1147" data-name="Path 1147" d="M1374.095,11192.715c11.2.721,7.59,9.117,3.265,6.233a12.263,12.263,0,0,0-3.6-5.937Zm13.06-2.883c-1.611,5.258-4.452,15.1-5,17.47a17.119,17.119,0,0,0-.593,4.071c.042,2.247,1.823,3.732,1.653,7.463a3.444,3.444,0,0,1-3.562,3.521c-.975,0-1.951-.638-2.29-2.206.764-4.367.636-8.227-.381-8.9a4.654,4.654,0,0,0-2.163-.68v-.8h1.909c.593,0,.805,0,1.229-.891.848-1.611.848-1.611,8.524-19.209Zm-9.753-6.531c11.577.34,8.567,9.033,3.9,6.531a15.7,15.7,0,0,0-4.24-6.234Zm34.73,32.27c1.569.552,2.078,1.146,2.078,2.078,0,2.333-2.248,3.35-11.916,3.35h-6.148c-5.216,0-7.082-.848-7.082-5.045v-15.775l-3.562,1.314-.806-1.06,4.368-1.611v-11.788l6.106.636c-.042.552-.466,1.018-1.485,1.188v8.226l4.029-1.483v-12.637l6.149.594c-.128.594-.466,1.018-1.569,1.188v9.159l3.858-1.441.382-.127,2.417-2.291,4.283,3.521a2.733,2.733,0,0,1-1.654.72c-.127,10.348-.466,13.443-2.2,14.969a6.9,6.9,0,0,1-4.453,1.4,6.249,6.249,0,0,0-.466-3.181,3.691,3.691,0,0,0-2.163-1.356v5.936c0,.467-1.993,1.4-3.731,1.4h-.849v-16.5l-4.029,1.485v16.07c0,1.272.594,1.653,2.884,1.653h6.064c2.333,0,4.2,0,5.131-.084a2.094,2.094,0,0,0,1.569-.679,33.291,33.291,0,0,0,2.2-5.853h.467Zm-9.838-20.311v10.262c.721.085,1.993.127,2.629.127.594,0,.849-.084,1.06-.34.678-.678.891-3.816.975-11.789Z" fill="#bf956d"/>
      <path id="Path_1148" data-name="Path 1148" d="M1456.909,11216.928c1.145,2.672,1.4,4.2.594,4.749-2.163,1.484-5.216-.763-6.53-2.714a28.73,28.73,0,0,1-2.757-5.173,31.942,31.942,0,0,1-11.491,8.1l-.382-.636a32.169,32.169,0,0,0,10.6-11.024,72.085,72.085,0,0,1-2.586-17.6h-8.608v6.53h2.969l2.2-2.162,3.985,3.265a2.492,2.492,0,0,1-1.611.764c-.169,8.226-.424,11.958-2.077,13.356a6.1,6.1,0,0,1-3.775,1.061,4.037,4.037,0,0,0-.551-2.375,5.007,5.007,0,0,0-2.586-1.441v-.381a19.582,19.582,0,0,1-9.244,10.939l-.424-.424c4.155-4.367,5.724-9.541,6.275-14.757-2.247,1.823-5.513,4.325-9.88,7.294a1.84,1.84,0,0,1-1.06,1.229l-2.587-5.64c1.018-.212,2.672-.679,4.665-1.23v-12.891h-3.775l-.338-1.187h4.113V11183.3l6.233.552c-.085.594-.424,1.018-1.569,1.187v9.457l1.993-3.307s1.314,1.355,2.5,2.713v-4.367l5.258,1.908h7.8q-.126-4.072-.126-8.4l6.148.636a.9.9,0,0,1-.3.679c6.912.127,6.827,4.07,4.749,5.088.933.722,2.163,1.74,3.053,2.545-.127.424-.551.636-1.145.636h-7.886a73.125,73.125,0,0,0,1.1,11.322,62.247,62.247,0,0,0,2.247-7.718l5.64,1.908c-.212.551-.636.806-1.738.764a47.745,47.745,0,0,1-4.622,10.559,21.045,21.045,0,0,0,2.713,5.131c.466.721.679.678,1.1-.085.551-1.06,1.484-3.1,2.162-4.876l.467.084Zm-30.192-9.668c1.4-.424,2.842-.848,4.325-1.314.128-1.781.17-3.52.17-5.257v-4.921h-4.495Zm9.032-6.869v.3a32.71,32.71,0,0,1-1.4,10.388c1.1.084,2.586.17,3.137.17a.746.746,0,0,0,.679-.3c.594-.764.806-3.9.933-10.559Zm16.835-10.941a1.422,1.422,0,0,1-.509-.254,10.9,10.9,0,0,0-2.63-4.452c-.212.042-.423.085-.677.127-.043,2.163-.085,4.368-.043,6.573h2.29Z" fill="#bf956d"/>
      <path id="Path_1149" data-name="Path 1149" d="M1466.7,11194.877a34.322,34.322,0,0,1-4.919,3.437l-.466-.425a43.564,43.564,0,0,0,8.439-15.351l6.063,2.544c-.17.509-.763.848-1.7.764a34.025,34.025,0,0,1-3.35,4.876l1.909.679c-.17.382-.552.637-1.358.806v15.563c-.042.339-1.95,1.229-3.731,1.229h-.891Zm29.853,21.457s3.053,2.375,4.877,4.028c-.127.467-.552.679-1.188.679h-38.206l-.382-1.23h17.259v-5.894H1466.7l-.339-1.146h12.552v-4.877l6.615.553c-.085.594-.382,1.018-1.527,1.188v3.137h6.064l2.629-3.392s3.011,2.29,4.749,3.858c-.085.467-.55.679-1.144.679H1484v5.894h9.838Zm-15.35-21.965c0,.3-1.442,1.314-3.859,1.314h-.806v-12.34l5.258,2.035h9.541l2.163-2.417,4.664,3.52a2.525,2.525,0,0,1-1.653.849v6.4c-.043.254-2.46,1.061-3.944,1.061h-.8v-1.145h-3.011v3.52h5.851l2.332-2.926s2.587,1.992,4.241,3.434c-.085.467-.551.68-1.145.68h-10.177c2.756,2.375,7.293,4.027,11.407,4.621l-.042.467c-1.7.467-2.884,1.908-3.351,4.24a18.261,18.261,0,0,1-9.116-8.9v8.057c-.043.254-1.443,1.356-3.774,1.356h-.806v-7a30.825,30.825,0,0,1-11.534,6.573l-.381-.552a25.278,25.278,0,0,0,8.734-8.861h-7.76l-.338-1.187h11.279v-3.52H1481.2Zm0-7.8v5.895h10.559v-5.895Z" fill="#bf956d"/>
    </g>
  </g>
</svg>
