<svg xmlns="http://www.w3.org/2000/svg" width="424.216" height="48.161" viewBox="0 0 424.216 48.161">
  <g id="mob_title_3" transform="translate(-1009.983 -3640.853)">
    <g id="Group_80" data-name="Group 80">
      <path id="Path_428" data-name="Path 428" d="M1053.505,3653.965a3.591,3.591,0,0,1-2.069,1.109v16.592c-.049.4-3.176,1.513-5.244,1.513h-1.059v-4.237h-11.347v17.651c0,.656-2.722,2.169-5.143,2.169h-1.161v-19.82h-11.246v2.976c0,.6-2.773,2.017-5.345,2.017h-.908v-24l6.707,2.622h10.792v-11.044l8.17.756c-.1.706-.505,1.26-1.866,1.463v8.825h10.894l2.823-3.127Zm-26.023,13.515v-13.464h-11.246v13.464Zm17.651,0v-13.464h-11.347v13.464Z" fill="#bf956d"/>
      <path id="Path_429" data-name="Path 429" d="M1072.927,3679.028c2.47-.554,5.094-1.109,7.665-1.713l.2.554c-4.136,2.219-10.086,5.3-18.609,9.077a2.24,2.24,0,0,1-1.311,1.312l-2.521-6.254c.755-.1,1.714-.3,2.874-.5v-18l5.547.5c-.05.454-.353.857-1.16.959v15.684l2.169-.454v-21.484h-1.362v.706c0,.354-1.613,1.463-4.186,1.463h-.907v-18l5.749,2.27h5.295l2.471-2.673,5.144,3.933a3.537,3.537,0,0,1-1.917.958v11.549c-.1.353-2.622,1.261-4.286,1.261h-.857v6.758h.655l2.522-3.934s2.875,2.723,4.488,4.538c-.152.555-.656.808-1.362.808h-6.3Zm-6.506-21.785h6.455v-10.691h-6.455Zm37.117-7.564c-.353.554-.908.706-2.067.806a36.269,36.269,0,0,1-6.557,9.884,39.757,39.757,0,0,0,12.255,4.439l-.1.5c-2.37.857-3.581,2.521-3.984,5.345-1.16-.454-2.269-.907-3.278-1.412l3.278,2.471a2.911,2.911,0,0,1-1.866.908V3687.3c0,.3-1.865,1.261-4.841,1.261h-1.06v-3.581h-8.925v2.421c0,.4-1.715,1.362-4.589,1.362h-.958v-18.911a47.712,47.712,0,0,1-4.943,1.714l-.4-.656a40.531,40.531,0,0,0,13.868-10.691,34.148,34.148,0,0,1-3.328-6.153,30.481,30.481,0,0,1-7.817,6.455l-.555-.454c3.682-4.337,7.01-11.245,8.573-18.709l7.464,2.421a1.738,1.738,0,0,1-2.018,1.008c-.5,1.16-1.007,2.27-1.563,3.329h5.245l3.127-2.975Zm-5.951,18.3a26.49,26.49,0,0,1-5.749-4.689,39.177,39.177,0,0,1-9.329,5.85l4.437,1.664h8.17Zm-2.27,15.583v-11.295h-8.925v11.295Zm-6.05-33.99a26.57,26.57,0,0,1-2.321,3.379,22.613,22.613,0,0,0,4.287,4.791,34.785,34.785,0,0,0,4.186-8.17Z" fill="#bf956d"/>
      <path id="Path_430" data-name="Path 430" d="M1132.592,3662.992c-1.967,1.21-4.488,2.774-7.665,4.538v19.265c0,.6-2.321,1.967-4.388,1.967h-1.059v-18.256c-1.412.757-2.875,1.513-4.488,2.32a2.341,2.341,0,0,1-1.311,1.362l-2.774-6.809c1.765-.3,4.841-.958,8.573-1.815v-10.136H1116.4a27.272,27.272,0,0,1-4.337,7.967l-.756-.353a73.929,73.929,0,0,0,2.371-17.9l5.8,1.26v-4.993l7.262.757c-.1.706-.454,1.21-1.815,1.412v10.389h.2l2.824-4.337s3.178,3.025,4.943,4.992c-.152.555-.656.808-1.362.808h-6.606v8.875c2.42-.6,4.992-1.21,7.513-1.865Zm-13.112-9.027v-6.355a2.424,2.424,0,0,1-.908.152,58.739,58.739,0,0,1-1.664,6.2Zm11.145-4.892h8.927v-7.615l7.614.655c-.1.706-.5,1.211-1.865,1.412v5.548h3.58l2.925-4.185s3.278,2.874,5.194,4.84c-.151.555-.706.807-1.412.807H1145.3v7.818h5.194l3.076-4.439s3.48,3.026,5.447,5.094c-.152.555-.707.807-1.413.807h-29.35l-.4-1.462h11.7v-7.818h-8.524Zm23.854,13.566s3.026,2.773,4.69,4.639c-.151.555-.656.807-1.362.807H1151.3V3681.9c0,3.984-.958,6.253-8.019,6.859-.252-1.765-.554-3.127-1.512-3.985-1.009-.856-2.321-1.512-5.346-1.967v-.706s6.758.455,7.968.455c.857,0,1.16-.3,1.16-.958v-13.516h-16.995l-.4-1.462h17.4v-6.405l7.564.656c-.151.756-.6,1.159-1.815,1.311v4.438h.6Zm-23.3,6.506c14.121,2.672,9.228,12.859,3.933,8.976a22.665,22.665,0,0,0-4.337-8.674Z" fill="#bf956d"/>
      <path id="Path_431" data-name="Path 431" d="M1205.066,3679.533s3.632,2.824,5.9,4.74c-.152.555-.706.807-1.412.807h-37.268v2.068c0,.454-1.815,1.866-4.74,1.866h-1.06V3642.77l6.455,2.722h26.729l3.227-4.034s3.581,2.724,5.8,4.64c-.151.554-.706.806-1.412.806h-35v36.764h29.5Zm-21.381.807v-2.724H1179.9v2.371c0,.453-2.118,1.462-4.185,1.462h-.657V3664.2l4.994,2.018h3.176l2.27-2.321,4.74,3.48a2.991,2.991,0,0,1-1.664.857v10.792c-.051.354-2.471,1.312-4.085,1.312Zm0-4.135v-8.573H1179.9v8.573Zm10.237-15.432h-7.968v1.563c0,.505-2.521,1.715-4.791,1.715h-.757v-15.532l5.749,2.269h7.262l2.572-2.774,5.4,4.085a3.048,3.048,0,0,1-1.816.857v8.927c-.05.352-2.925,1.361-4.69,1.361h-.958Zm0-1.412v-7.111h-7.968v7.111Zm6.2,20.777v-2.522h-4.186v1.564c0,.505-2.118,1.563-4.135,1.563h-.706V3664.2l5.043,2.018h3.53l2.319-2.421,4.791,3.631a3,3,0,0,1-1.664.806v10.54c-.051.4-2.572,1.362-4.135,1.362Zm0-3.933v-8.573h-4.186v8.573Z" fill="#bf956d"/>
      <path id="Path_432" data-name="Path 432" d="M1247.033,3662.286c0,2.571-1.009,4.438-2.421,5.3-1.311.807-3.53.454-4.085-1.16-.5-1.513.454-2.773,1.867-3.429,1.412-.757,3.176-2.673,3.227-4.59h.756a11.794,11.794,0,0,1,.555,2.421h1.008v-14.07l6.153,2.32h1.967c.1-1.008.151-2.169.151-3.178h-10.792l-.252-.907a4.848,4.848,0,0,1-.908.051,76.967,76.967,0,0,1-4.841,10.69l2.471.909a1.854,1.854,0,0,1-1.563.958v29.653c-.051.353-2.371,1.513-4.438,1.513h-.958v-26.275a41.858,41.858,0,0,1-5.144,5.548l-.6-.4c3.58-6.405,7.261-16.643,9.128-26.225l8.018,2.623a1.021,1.021,0,0,1-.2.4h21.685l3.126-3.581s3.481,2.42,5.7,4.236c-.152.555-.657.806-1.412.806h-13.163c-1.109,1.06-2.42,2.27-3.581,3.178h5.9l2.673-2.773,5.245,4.034a2.744,2.744,0,0,1-1.766.907v9.33l2.522-2.521,4.842,4.689c-.4.405-.909.5-1.918.556-1.209.705-2.974,1.765-4.538,2.571,5.5,2.824,2.825,8.119-.706,5.951-.656-2.471-3.076-5.4-5.144-7.009l.4-.4a16.853,16.853,0,0,1,3.732.756c.252-.857.554-1.916.756-2.874Zm24.509,14.726c-.4.5-.857.655-2.067.655a21.356,21.356,0,0,1-4.741,4.539,84.77,84.77,0,0,0,13.011.555v.554c-2.017.858-3.026,2.623-3.227,5.3-6.658-.554-11.2-1.715-14.676-3.731-4.892,2.118-10.993,3.277-18.154,3.934l-.2-.757a44.746,44.746,0,0,0,15.281-5.447,25.245,25.245,0,0,1-3.379-3.882,35.065,35.065,0,0,1-11.095,6.1l-.453-.555a30.478,30.478,0,0,0,10.59-12.355l.706.151c-.907-.554-1.11-1.512-1.11-3.076V3663.7l5.749.555a9.826,9.826,0,0,0-1.361-1.211l.454-.4c9.481.1,7.06,7.111,3.278,5.144a9.785,9.785,0,0,0-2.219-3.379c-.1.555-.606.908-1.361,1.008v2.875c0,.5.1.655,1.16.655h5.446a1.472,1.472,0,0,0,.958-.352,14.432,14.432,0,0,0,1.462-2.875h.556l.15,2.875c1.211.454,1.513.907,1.513,1.664,0,1.815-1.714,2.37-7.715,2.37h-4.187l4.085.807c-.2.656-.756.958-2.268,1.009-.253.3-.556.655-.808.958h6.455l3.178-2.875Zm-21.433-12.861c1.11,4.085-.151,7.01-1.815,8.17-1.109.757-3.076.706-3.682-.706a2.489,2.489,0,0,1,1.463-3.025c1.361-.757,3.126-2.673,3.228-4.488Zm3.329-13.616v2.421h11.447v-2.421Zm11.447,3.884h-11.447v2.471h11.447Zm-11.447,6.4h11.447v-2.47h-11.447Zm2.017,16.037a13.745,13.745,0,0,1-1.261,1.16,15.017,15.017,0,0,0,4.992,2.824,19.3,19.3,0,0,0,3.883-3.984Z" fill="#bf956d"/>
      <path id="Path_433" data-name="Path 433" d="M1323.9,3646.5s3.026,2.32,4.942,4.034c-.1.555-.655.808-1.361.808h-6.153v6.253a5.51,5.51,0,0,1-2.975,1.059l4.437,3.328a3.36,3.36,0,0,1-1.815.958v16.289c-.051.353-3.026,1.463-4.943,1.463h-1.007v-2.118h-18.156v1.362c0,.554-2.521,1.866-4.942,1.866h-.857v-23.6l6.2,2.471h17.247l1.815-1.916h-.5v-7.413h-3.681c-.5,2.974-2.522,6.5-9.38,8.522l-.354-.655a10.438,10.438,0,0,0,4.691-8.523,1.282,1.282,0,0,1-1.312.656H1300.7v6.4c-.05.252-1.614,1.16-4.338,1.16h-.958v-7.564h-3.832c-.353,3.328-2.017,7.564-8.876,9.985l-.4-.656c3.883-3.328,4.236-7.565,4.236-10.993v-6.052l5.7,1.664a76.913,76.913,0,0,0,8.623-3.934l4.59,4.69q-.909.681-2.875-.152a108.787,108.787,0,0,1-10.893,1.009v2.976h8.119l2.622-3.177s2.875,2.168,4.691,3.782a11.512,11.512,0,0,0,.05-1.311v-5.6l5.3,1.463a85.191,85.191,0,0,0,9.077-3.682l4.64,4.741c-.6.5-1.664.454-2.874-.152-2.824.4-7.01.757-10.943.958v2.976h8.774Zm-40.6,41.555c6.353-1.866,13.414-5.6,16.742-8.574l6.2,4.54c-.5.5-1.463.655-2.975.251-4.69,2.169-12.557,3.934-19.769,4.489Zm13.565-25.972v3.984h18.156v-3.984Zm0,5.4v4.085h18.156v-4.085Zm18.156,9.733v-4.186h-18.156v4.186Zm-7.212,3.732c28.241.252,17.7,10.792,12.355,6.808a35.141,35.141,0,0,0-12.507-6.152Z" fill="#bf956d"/>
      <path id="Path_434" data-name="Path 434" d="M1374.836,3646.955s3.934,2.925,6.4,4.992c-.151.555-.756.808-1.462.808h-18.71a52.6,52.6,0,0,1-6.1,6h11.6l2.875-3.228,5.9,4.589a3.758,3.758,0,0,1-2.117,1.06v25.467c-.051.4-3.027,1.664-5.145,1.664h-1.009v-3.48h-18.911v1.664c0,.706-2.521,2.118-5.194,2.118h-.958v-32.476l6.555,2.622h4.489c.1-1.715.2-4.034.3-6h-18.912l-.4-1.412h26.728a64.5,64.5,0,0,0,3.227-9.885l8.221,1.967c-.2.6-.757,1.059-1.917,1.009a65.9,65.9,0,0,1-7.917,6.909h8.876Zm-30.057-5.346c14.071,2.27,8.927,12.608,3.581,8.725a20.88,20.88,0,0,0-3.984-8.473Zm3.379,18.559v6.556h18.911v-6.556Zm0,14.775h18.911v-6.756h-18.911Zm18.911,8.422v-6.959h-18.911v6.959Z" fill="#bf956d"/>
      <path id="Path_435" data-name="Path 435" d="M1415.035,3676.205c-.453.555-1.31.756-2.874.453a37.15,37.15,0,0,1-11.448,4.136c2.875,1.361,6.657,1.613,13.213,1.613,5.9,0,13.868-.05,20.273-.252v.655c-2.269.5-3.581,2.22-3.884,4.792h-16.288c-9.884,0-13.869-1.412-17.4-8.574a99.52,99.52,0,0,1-6.758,8.473,1.087,1.087,0,0,1-.757,1.21l-3.127-6.3c1.514-.554,3.682-1.462,5.851-2.47v-15.029h-5.447l-.3-1.412h4.941l2.824-3.731,5.9,4.84a3.846,3.846,0,0,1-2.571,1.009v12.608a12.546,12.546,0,0,0,2.42,1.967,28.957,28.957,0,0,0,8.673-8.17Zm-27.585-33.234c14.625,3.076,9.431,13.969,4.034,9.784a19.729,19.729,0,0,0-4.488-9.482Zm40.243,23.9s3.379,2.522,5.447,4.337c-.152.555-.656.807-1.362.807H1398.9l-.4-1.462h8.221v-5.548h-5.9l-.4-1.462h6.3v-4.842l6.757.6c-.1.606-.4.959-1.362,1.161v3.076h5.6v-4.842l6.858.6c-.049.606-.4.959-1.361,1.161v3.076h.757l2.673-3.278s2.974,2.269,4.891,3.933c-.151.555-.656.807-1.361.807h-6.96v5.548h1.513Zm-27.232-21.181-.454-1.412h8.018l2.219-2.37,4.842,3.53a2.724,2.724,0,0,1-1.715.858v4.034c0,.454-2.471,1.412-4.085,1.412h-.857v-1.16h-3.48v3.025c0,.5.1.657,1.06.657h4.941a1.256,1.256,0,0,0,.959-.354,11.64,11.64,0,0,0,1.513-2.824h.555l.151,2.824c1.261.555,1.563,1.009,1.563,1.815,0,1.867-1.815,2.522-7.615,2.522H1404.6c-3.884,0-4.439-.907-4.439-3.832v-7.413l5.447,2.168h2.824v-3.48Zm11.649,24.863h5.6v-5.548h-5.6Zm4.237-24.863-.4-1.412h8.422l2.27-2.421,4.841,3.631a3,3,0,0,1-1.665.808v4.034c-.05.4-2.47,1.412-4.134,1.412h-.858v-1.16h-3.278v3.025c0,.5.1.657,1.059.657h5.093a1.081,1.081,0,0,0,.909-.354,10.355,10.355,0,0,0,1.512-2.925h.606l.15,2.925c1.211.555,1.514,1.06,1.514,1.866,0,1.867-1.816,2.522-7.666,2.522h-3.53c-3.984,0-4.539-.907-4.539-3.883v-7.464l5.5,2.219h2.672v-3.48Zm1.008,27.535c22.039,1.714,11.75,11.5,7.514,7.06a19.77,19.77,0,0,0-7.765-6.455Z" fill="#bf956d"/>
    </g>
  </g>
</svg>
