<?xml version="1.0" encoding="utf-8"?>
<!-- Generator: Adobe Illustrator 23.1.1, SVG Export Plug-In . SVG Version: 6.00 Build 0)  -->
<svg version="1.1" id="圖層_1" xmlns="http://www.w3.org/2000/svg" xmlns:xlink="http://www.w3.org/1999/xlink" x="0px" y="0px"
	 viewBox="0 0 60 483" style="enable-background:new 0 0 60 483;" xml:space="preserve">
<style type="text/css">
	.st0{fill:#FFFFFF;}
</style>
<g>
	<path class="st0" d="M12.4,25.9L23.9,31c-0.3,0.9-1.1,1.3-2.3,1.3C16.6,44,10,52.4,1.9,57.5L1.4,57c2.7-4,5.1-8.9,7-14.7
		C10.3,36.6,11.7,31.1,12.4,25.9z M26.1,10.8l11.1,1.1c-0.1,1.1-0.8,1.7-2.2,1.9v47.3c0,1.8-0.1,3.3-0.4,4.5
		c-0.3,1.2-0.8,2.2-1.6,3.3c-0.8,1-2,1.8-3.6,2.4c-1.6,0.6-3.7,1-6.2,1.2c-0.3-3.4-1-5.7-2.2-7c-1.6-1.7-4-2.8-7.2-3.5v-0.8
		c6.1,0.3,9.7,0.5,11,0.5c0.9,0,1.4-0.4,1.4-1.2V10.8z M39.5,27c8.1,3.7,13.6,8.5,16.5,14.4c1.8,3.9,2.3,7.3,1.2,10.3
		c-0.8,2.2-2.2,3.4-4,3.4c-1.4,0-2.8-0.7-4.2-2c-1.2-8.2-4.6-16.8-10-25.7L39.5,27z"/>
	<path class="st0" d="M14.3,88.8l11.4,4.9c-0.3,0.9-1.2,1.4-2.5,1.2c-5,10.4-11.9,18.3-20.9,23.7l-0.5-0.5c2.5-3.6,4.9-8,7.2-13.3
		C11.3,99.6,13.1,94.2,14.3,88.8z M34.3,120.2l0.5-0.4c8.4,2.9,14,7.1,17,12.7c1.9,3.6,2.3,6.8,1.3,9.7c-0.8,2.2-2.1,3.4-4,3.5
		c-1.5,0.1-3-0.5-4.5-1.9c-0.5-3.3-1.5-6.8-2.9-10.5c-5.9,2.7-15.8,6.2-29.7,10.6c-0.5,0.8-1.1,1.3-2,1.5l-4.3-12.2
		c1.8,0,5.7-0.3,11.6-0.6c2.9-9.5,5-18.9,6.3-28.1l11.5,3.1c-0.2,1-1,1.5-2.3,1.5c-3.4,8.3-7.6,16.1-12.5,23.3
		c9.2-0.6,16-1.1,20.4-1.4C38.8,127.1,36.6,123.4,34.3,120.2z M36.6,82.9l6.4,4.8c-0.8,1-2.6,1.6-5.5,1.8c1.6,4.1,4.4,7.9,8.2,11.3
		c3.9,3.4,8.3,5.9,13.2,7.5l-0.1,0.8c-1.7,0.6-3.1,1.8-4.4,3.4c-1.3,1.6-2.2,3.4-2.7,5.3c-8.1-6.5-13.4-16.1-15.8-28.7H22.4
		l-0.5-1.9h12.4L36.6,82.9z"/>
	<path class="st0" d="M44.3,214.6l4.9-6.8c3.6,3.1,6.5,5.6,8.7,7.7c-0.2,0.7-0.7,1-1.7,1H2.4l-0.5-1.9h23v-20.2H8.9l-0.5-1.9H25
		v-16.8H6.3l-0.5-1.8h36.6l4.7-6.7c3.5,3,6.4,5.5,8.5,7.5c-0.2,0.7-0.7,1-1.7,1H34.4v16.8h6.2l4.6-6.4c3.5,2.9,6.2,5.3,8.3,7.3
		c-0.1,0.7-0.7,1-1.7,1H34.4v20.2H44.3z M19.2,158.1l0.3-0.4c7.2,0,12.1,1.8,14.6,5.4c1.5,2.2,1.8,4.3,0.9,6.5c-0.8,1.9-2.1,2.9-4,3
		c-1.1,0-2.3-0.3-3.4-1c-0.8-2.4-1.9-4.8-3.5-7.3C22.6,161.9,21,159.8,19.2,158.1z"/>
	<path class="st0" d="M51.6,238.5l7.2,7.3c-0.5,0.6-1.4,1.1-2.8,1.4c-0.4,13.7-1.1,23.7-2,29.9c-0.9,6.2-2.3,10.3-4.2,12.3
		c-1.2,1.3-2.6,2.2-4.1,2.7c-1.5,0.5-3.5,0.7-5.9,0.7c0-2.9-0.5-4.9-1.4-5.9c-1.1-1.4-3.2-2.5-6.4-3.4v-0.8c4.4,0.4,7.3,0.6,8.7,0.6
		c1,0,1.8-0.3,2.4-1c2.3-2.2,3.8-14.4,4.6-36.9H36.5c-2.9,4.5-6.3,8.2-10.3,11l-0.2-0.2v28.2c0,0.2-0.4,0.5-1.1,0.9
		c-0.7,0.4-1.6,0.7-2.7,1.1c-1.1,0.3-2,0.5-2.9,0.5H18v-5.4h-5.4v4.6c0,0.6-0.7,1.2-2.1,1.9c-1.4,0.7-2.9,1.1-4.4,1.1H4.9v-48.9
		l6.9,3.2c0.4-4.7,0.6-8.8,0.8-12.4l11.4,3c-0.2,1.1-1.1,1.6-2.5,1.6c-2.9,3.5-5.3,6.2-7.2,8.2h3.2l3.6-4.5l7.3,6.3
		c-0.4,0.6-1.2,1.1-2.4,1.4v8c3.4-7.4,5.7-15.5,6.8-24.4l11,3.6c-0.3,0.9-1.1,1.4-2.4,1.4c-1.1,2.8-2.3,5.4-3.8,7.9h9.5L51.6,238.5z
		 M18,245.8h-5.4v15.5H18V245.8z M12.6,279.7H18v-16.6h-5.4V279.7z M31,254.4l0.5-0.3c5.7,1.8,9.1,4.4,10.4,8.1
		c0.8,2.4,0.6,4.4-0.8,6.2c-1.2,1.6-2.8,2.1-4.6,1.4c-0.8-0.3-1.7-0.9-2.5-1.7C34.2,263.4,33.2,258.9,31,254.4z"/>
	<path class="st0" d="M58.4,345.3l-1.4,11.9c1.7,5,2,7.9,0.7,8.8c-1.7,1.2-3.6,1.1-5.6-0.1c-2-1.2-3.6-2.8-4.6-4.6
		c-1.3-2.7-2.4-5-3.1-7c-4.2,4.9-9.5,8.9-16,11.9l-0.5-0.9c6.2-4.8,11-10.6,14.5-17.4c-1.1-4.1-2-9-2.5-14.6
		c-0.4,0.3-0.9,0.4-1.4,0.5c-0.1,7-0.4,12-0.8,15c-0.4,3-1.2,5-2.4,6.2c-1.3,1.1-3.3,1.7-5.8,1.7c0-2.1-0.3-3.5-0.8-4.5
		c-0.7-1.1-1.6-1.9-2.8-2.5c-2.4,7.3-7,13-13.7,17l-0.5-0.5c4.6-5.8,7.4-13.5,8.3-23.2c-3.5,3.5-7.8,7.4-13,11.7
		c-0.3,1-0.8,1.7-1.7,2l-4-10.6c1.2-0.3,3.2-0.8,6-1.6v-19.6H2.5L2,323.1h5.1v-17.6l10.2,1c-0.1,1-0.8,1.7-2.2,1.9v13.3l2.3-4.6
		c0.9,1.1,1.8,2.3,2.8,3.6v-5.4l9,3.5h9.8c-0.1-4.4-0.2-8.9-0.2-13.5l9.9,1.1c0,0.3-0.1,0.6-0.4,1c4.6,0,7.4,1.1,8.4,3.4
		c0.6,1.5,0.4,2.8-0.7,4c-0.5,0.5-1,0.9-1.7,1.1c1.2,1,2.6,2.2,4,3.7c-0.2,0.7-0.7,1-1.6,1H46.4c0.1,5.5,0.4,10.3,0.9,14.3
		c0.9-3.1,1.6-6,2.1-8.6l9,3.5c-0.3,0.8-1.1,1.2-2.4,1.2c-1.8,6-3.9,11.2-6.2,15.4c0.8,2.6,1.8,4.9,3.1,6.9c0.3,0.6,0.6,0.8,0.8,0.8
		c0.2,0,0.5-0.3,0.8-0.9c1.2-2.4,2.3-5,3.4-7.9L58.4,345.3z M15.1,324.9v17.3c0.6-0.2,1.5-0.5,2.7-0.8c1.2-0.3,1.9-0.6,2.2-0.6
		c0.2-2.5,0.2-5.2,0.2-8.2v-7.6H15.1z M27.9,332.4v0.1c0,6.6-0.7,12-2,16.3c1.7,0.1,2.8,0.1,3.2,0.1c0.4,0,0.7-0.1,0.9-0.4
		c0.7-1.1,1.2-6.4,1.3-16.1H27.9z M34.3,326.7l5.3,4.8c-0.3-3.8-0.5-7.5-0.6-10.9h-11v10h2.8L34.3,326.7z M50.3,315.1l-0.1-0.1
		c-0.3-2.1-1.3-4.5-2.9-7c0,0-0.3,0.1-0.8,0.2c-0.1,4.6-0.1,8.1-0.1,10.5h1.4L50.3,315.1z"/>
	<path class="st0" d="M8.6,419.6v-21.5c-2.1,1.8-4.3,3.3-6.5,4.5l-0.6-0.6c2.2-2.8,4.3-6.4,6.4-10.7s3.8-8.7,5-13.3l9.9,4.7
		c-0.3,0.9-1.2,1.3-2.5,1.2c-1.4,2.5-3,4.9-4.7,7.1l2.8,1.2c-0.3,0.6-0.9,1.1-1.8,1.3v23.9c0,0.2-0.4,0.5-1,0.8
		c-0.6,0.3-1.4,0.7-2.5,0.9c-1,0.3-2,0.4-3,0.4H8.6z M46.2,436.7l4.2-6.1c3.2,2.7,5.7,5,7.6,6.8c-0.2,0.7-0.7,1-1.7,1h-54l-0.5-1.8
		h23.5v-9.3H8.9l-0.5-1.8h16.9v-7.8l10.9,0.9c-0.1,1-0.8,1.7-2.1,1.9v5h6.8l4.2-5.9c3.1,2.7,5.5,4.9,7.4,6.7c-0.2,0.7-0.7,1-1.7,1
		H34.2v9.3H46.2z M30.8,395.9v1c0,0.2-0.2,0.5-0.7,0.8c-0.5,0.3-1.3,0.7-2.3,1c-1.1,0.3-2.2,0.5-3.4,0.5h-1.5v-20.1l8.8,3.6h10.9
		l3.6-4.3l7.5,6.3c-0.5,0.7-1.3,1.1-2.4,1.4v9.7c0,0.1-0.4,0.3-1.2,0.6c-0.7,0.3-1.6,0.5-2.7,0.8s-2,0.4-2.8,0.4h-1.4v-1.7h-2.3v5.2
		h6.6l3.6-5c2.7,2.2,4.8,4.1,6.5,5.7c-0.2,0.7-0.7,1.1-1.6,1.1H42.4c1.8,1.5,4.1,2.8,6.8,3.9c2.8,1,5.6,1.7,8.4,2.1l-0.1,0.7
		c-2.9,0.9-4.7,3.7-5.5,8.3c-5.1-2.8-8.8-7.3-11.2-13.6v11.4c0,0.2-0.3,0.4-0.8,0.8c-0.5,0.4-1.2,0.7-2.3,1.1
		c-1,0.3-2.2,0.5-3.4,0.5h-1.4v-9.4c-3.9,3.8-9,6.8-15.3,9.2l-0.5-0.8c4.6-3.4,8.2-8.1,10.9-14.1h-9.6L18,401h15v-5.2H30.8z
		 M43.2,384.6H30.8v9.4h12.4V384.6z"/>
	<path class="st0" d="M55.6,469.5c-1.6,1.8-3.6,2.7-6,2.7c-2.3,0-4.3-0.9-6-2.7c-1.6-1.8-2.5-4.1-2.5-6.7c0-2.6,0.8-4.8,2.5-6.7
		s3.6-2.7,6-2.7c2.3,0,4.3,0.9,6,2.7s2.4,4.1,2.4,6.7C58,465.4,57.2,467.6,55.6,469.5z M49.6,455.9c-1.7,0-3.2,0.7-4.4,2
		c-1.2,1.4-1.8,3-1.8,4.9c0,1.9,0.6,3.5,1.8,4.9c1.2,1.4,2.7,2,4.4,2c1.7,0,3.1-0.7,4.3-2s1.8-3,1.8-4.9c0-1.9-0.6-3.5-1.8-4.9
		S51.3,455.9,49.6,455.9z"/>
</g>
</svg>
