<svg xmlns="http://www.w3.org/2000/svg" width="552.627" height="47.707" viewBox="0 0 552.627 47.707">
  <g id="mob_title_4" transform="translate(-1830.22 -4768.648)">
    <g id="Group_251" data-name="Group 251">
      <path id="Path_1585" data-name="Path 1585" d="M1871.068,4772.431s3.934,2.975,6.355,5.093c-.152.555-.706.807-1.463.807h-18.608l1.109.1c-.1.655-.4,1.109-1.614,1.311v5.7h8.321l2.673-3.076,5.9,4.438a3.755,3.755,0,0,1-2.017,1.059v15.432c0,3.832-.908,6.1-7.565,6.657-.151-1.867-.352-3.178-1.058-4.085a6.059,6.059,0,0,0-3.985-1.866v-.656s4.337.252,5.5.252c.858,0,1.06-.3,1.06-.958v-15.784h-8.826v26.829c0,.6-2.774,1.966-5.043,1.966h-1.21v-28.795h-8.776v21.13c0,.6-2.571,1.967-5.092,1.967h-.858V4782.87l6.355,2.571h8.371v-7.11h-19.971l-.4-1.463h20.374V4768.9l8.068.6c-.1.706-.453,1.211-1.815,1.463v5.9h10.691Z" fill="#bf956d"/>
      <path id="Path_1586" data-name="Path 1586" d="M1907.283,4781.458c-.252.5-.706.857-1.916.857a58.84,58.84,0,0,1-4.437,6.657l2.622.958c-.152.454-.656.807-1.564.958v23.854c-.1.353-2.37,1.462-4.488,1.462h-1.059v-22.139a39.074,39.074,0,0,1-4.993,4.186c-.806,6.253-3.025,12.708-8.774,17.549l-.555-.352c3.934-7.969,4.135-17.954,4.135-26.829v-15.23l6.606,2.37h11.246V4768.9l7.565.6c-.051.706-.454,1.211-1.816,1.412v4.842h10.59l3.127-4.236s3.531,2.874,5.6,4.841c-.151.555-.706.807-1.412.807h-35.806v11.448a79.641,79.641,0,0,1-.352,8.27,65.948,65.948,0,0,0,8.069-18.558Zm17.9,2.218s2.924,2.926,4.538,4.892c-.152.555-.656.807-1.362.807h-5.9V4809.4c0,3.984-.907,6.2-7.514,6.808-.151-1.765-.454-3.127-1.261-3.984-.908-.908-2.068-1.513-4.69-1.967v-.706s5.648.4,6.758.4c.857,0,1.109-.253,1.109-.958v-19.618h-12.153l-.4-1.462h12.557v-8.775l7.363.655c-.1.707-.555,1.16-1.765,1.362v6.758h.1ZM1905.72,4792c12.759,4.992,6.96,14.675,2.32,10.136a22.975,22.975,0,0,0-2.824-9.884Z" fill="#bf956d"/>
      <path id="Path_1587" data-name="Path 1587" d="M1982.181,4776.868c0,.4-2.068,1.11-4.741,1.11h-.959v-2.925h-8.673v2.017c0,.353-1.261.807-3.026,1.009-.151.454-.554.807-1.412.958v1.412h1.967l2.168-2.522s2.472,1.816,4.035,3.177c-.1.555-.6.808-1.311.808h-1.059c.555.4,2.723,2.017,4.135,3.227-.152.555-.606.807-1.312.807h-1.008l.152,1.362c1.008.4,1.31.756,1.31,1.361,0,1.311-1.109,1.866-4.791,1.916.4.3,2.623,1.917,4.085,3.127-.151.555-.6.807-1.31.807h-7.061v2.017c2.522-.2,5.194-.453,7.867-.706l.051.807c-4.085,1.21-9.784,2.723-17.8,4.69a1.9,1.9,0,0,1-1.31,1.11l-1.967-4.993c1.765-.05,4.64-.252,8.119-.5v-2.42h-6.152l-.4-1.462h6.556v-3.43l4.589.4c-.6-.5-.756-1.312-.756-2.522v-1.563h-2.269c-1.715,3.933-5.7,5.95-10.44,6.959l-.3-.706a9.822,9.822,0,0,0,5.749-6.253h-5.143l-.4-1.412h8.976v-2.622h-6.707l-.4-1.463h7.11v-3.177l3.883.353v-2.572H1949.2l-.353-1.463h13.364V4768.8l7.363.656c-.051.656-.454,1.16-1.765,1.311v2.824h8.673V4768.8l7.515.606c-.051.706-.454,1.21-1.815,1.361v2.824h5.749l2.924-3.58s3.077,2.421,4.993,4.236c-.1.555-.656.807-1.362.807h-12.3Zm7.715,24.611s3.329,2.42,5.4,4.084c-.15.555-.655.807-1.361.807h-23.148c-2.017,1.412-4.286,2.875-6.455,4.085,4.74-.051,10.288-.151,16.138-.3-1.059-.807-2.219-1.613-3.429-2.37l.252-.605c18.457.454,14.625,11.3,9.229,8.775a29.08,29.08,0,0,0-4.388-4.489c-6.052,1.11-14.171,2.32-25.417,3.783a2.15,2.15,0,0,1-1.412,1.008l-2.572-5.8c1.967.05,4.792.05,8.22,0a44.711,44.711,0,0,0,2.118-4.085h-12.961l-.4-1.362h37.218Zm-6.959-4.59s3.329,2.37,5.345,4.085c-.1.555-.655.807-1.361.807h-27.535l-.4-1.463h21.03Zm-19.567-14.977v2.622h3.429l2.118-2.622Zm4.186,8.673h-2.168a4.675,4.675,0,0,1-.858-.05,1.431,1.431,0,0,1-1.16.655v1.867h2.118Zm1.16-3.025a1.616,1.616,0,0,0,.706-.152,6.057,6.057,0,0,0,.958-1.462h-4.337v1.009c0,.5.051.6.555.6h2.118Zm25.87,7.967c1.06,1.261,1.412,2.32.959,3.43-1.009,1.967-3.581,1.664-5.3.6-4.286-2.623-5.144-8.523-5.3-15.684h-2.723a21.092,21.092,0,0,1-.959,5.144c6.355,3.53,3.228,8.674-.3,6.606a13.677,13.677,0,0,0-1.765-2.471c-1.815,2.471-4.841,4.69-9.733,6.455l-.5-.706c4.185-2.572,6.253-5.547,7.261-8.926a35.415,35.415,0,0,0-3.58-2.824l.353-.656a32.468,32.468,0,0,1,3.833.757,23.813,23.813,0,0,0,.353-3.379h-4.438l-.454-1.412h4.942c.051-1.412.051-2.925.051-4.488l6.808.6c-.1.656-.555,1.16-1.614,1.311q-.075,1.285-.151,2.572h2.118l2.571-2.622,4.893,3.732a3.031,3.031,0,0,1-1.766.756c-.2,4.186.4,8.977,2.068,10.237.353.2.555.1.757-.353a32.443,32.443,0,0,0,1.361-3.681l.555.05Z" fill="#bf956d"/>
      <path id="Path_1588" data-name="Path 1588" d="M2036.4,4781.559a44.3,44.3,0,0,1-11.346,20.776c5.7,3.934,12.507,6.506,19.819,8.221l-.1.6a7.541,7.541,0,0,0-6.3,5.194,44.65,44.65,0,0,1-17.348-10.489c-5.849,4.589-13.414,8.119-23.1,10.338l-.3-.555c8.724-3.278,15.532-7.715,20.525-13.011-4.186-5.346-7.161-12.2-8.826-21.079h-10.792l-.4-1.362H2018.3V4769.1l7.968.656c-.1.706-.5,1.21-1.866,1.412v9.027h10.338l3.581-4.791s3.984,3.227,6.3,5.345c-.151.555-.656.808-1.412.808Zm-26.072,0a36.466,36.466,0,0,0,10.843,17.7,41.222,41.222,0,0,0,7.867-17.7Z" fill="#bf956d"/>
      <path id="Path_1589" data-name="Path 1589" d="M2102.773,4801.327c-.353.5-.908.655-2.219.706a30.249,30.249,0,0,1-6.908,6.2,75.651,75.651,0,0,0,17.75,1.967v.655c-2.319.757-3.681,2.673-4.185,5.5-7.161-.958-13.264-2.572-18.1-5.547-6.606,3.127-14.776,4.892-24,5.5l-.252-.757c7.967-1.462,15.229-3.832,20.878-7.261a21.94,21.94,0,0,1-4.54-5.649,47.363,47.363,0,0,1-15.33,7.565l-.4-.656a44.886,44.886,0,0,0,15.381-14.12c-1.361-.555-1.664-1.614-1.664-3.581v-7.01l6.253.555c-.05.6-.555,1.059-1.462,1.211v4.336c0,.5.1.656,1.513.656h7.362a1.485,1.485,0,0,0,1.109-.4,17.043,17.043,0,0,0,1.615-3.429h.554l.152,3.429c1.361.5,1.714,1.06,1.714,1.867,0,2.017-1.917,2.773-9.078,2.773h-3.933l3.127,1.513c-.2.454-.756.656-1.715.5a22.491,22.491,0,0,1-1.513,1.665h9.431l3.479-2.976Zm-30.258-18.407c0,3.127-1.362,5.245-3.077,6.152-1.563.858-3.782.454-4.336-1.311-.5-1.664.554-2.925,2.067-3.631a6.486,6.486,0,0,0,3.732-5.6h.756a15.106,15.106,0,0,1,.757,2.975h5.194a3.709,3.709,0,0,1-1.512-.807,10.241,10.241,0,0,0-2.069-5.648l.253-.2c-1.917,0-3.884,0-5.749-.05l-.1-.908c11.3-.857,25.669-3.177,33.335-5.245l4.791,5.043c-.606.4-1.665.4-3.127-.252-1.816.2-3.783.4-5.9.555l6.758,2.572c-.252.555-.857.908-1.967.756a41.9,41.9,0,0,1-6.254,4.186h7.364l2.925-2.875,5.042,4.791c-.4.4-.907.505-1.966.555a35.234,35.234,0,0,1-6.455,3.429c6.152,3.48,2.824,9.582-1.362,6.859-.757-3.026-3.328-6.405-5.648-8.473l.4-.353a22.129,22.129,0,0,1,5.548,1.413c.555-1.16,1.159-2.673,1.613-3.934Zm3.933,2.471c1.615,5.144-.4,8.523-2.824,9.632-1.664.757-3.832.252-4.286-1.462-.4-1.614.605-2.824,2.067-3.48,1.916-.6,4.136-2.471,4.287-4.74Zm11.095-3.883a3.585,3.585,0,0,1-1.967-.958,11.844,11.844,0,0,0-1.715-5.85c-2.874.1-5.8.151-8.673.151,7.514,1.513,6.505,5.951,3.833,6.657Zm-4.236,19.416c-.4.353-.858.756-1.311,1.109a20.341,20.341,0,0,0,6.5,4.438,25.173,25.173,0,0,0,5.548-5.547Zm1.16-17.2c11.8-.656,8.724,8.321,3.933,5.8a12.147,12.147,0,0,0-4.286-5.4Zm9.531-2.219a44.373,44.373,0,0,0,3.228-7.514c-3.58.3-7.464.5-11.549.655,6.859,2.018,5.345,6.506,2.572,6.859Z" fill="#bf956d"/>
      <path id="Path_1590" data-name="Path 1590" d="M2115.388,4815.548c6.4-2.067,13.514-6.051,16.893-9.178l6.506,4.539c-.454.554-1.463.756-3.026.353-4.74,2.32-12.759,4.286-20.172,4.942Zm7.463-32.023a9.429,9.429,0,0,1-2.975.555h-.808v-14.625l6.154,2.421h25.669l2.622-2.774,5.4,4.035a2.764,2.764,0,0,1-1.815.958v8.119c-.05.353-2.925,1.311-4.69,1.311H2151.4v-1.866h-26.678v.706c0,.2-.454.555-1.11.858l5.447,2.218h17.8l2.724-2.924,5.547,4.235a3.358,3.358,0,0,1-1.815.959v18.054c-.05.4-2.975,1.513-4.942,1.513h-1.009v-1.715H2128.7v1.009c0,.554-2.521,1.916-4.942,1.916h-.908Zm1.866-10.237v6.959h5.143v-6.959Zm3.984,13.566v4.74h18.659v-4.74Zm18.659,10.993v-4.841H2128.7v4.841Zm0,6.355v-4.943H2128.7v4.943Zm-12.052-30.914v6.959h5.244v-6.959Zm4.84,34.595c28.191.5,17.55,11.6,12.155,7.312a30.109,30.109,0,0,0-12.306-6.656Zm5.952-34.595v6.959h5.295v-6.959Z" fill="#bf956d"/>
      <path id="Path_1591" data-name="Path 1591" d="M2217.971,4809.951l3.731-4.741s4.136,3.177,6.708,5.346c-.151.554-.706.807-1.463.807h-45.791l-.4-1.412Zm-2.471-34.9,3.631-4.589s4.085,3.126,6.556,5.244c-.152.555-.757.807-1.463.807H2183.88l-.4-1.462Zm-3.833,16.592,3.53-4.388s3.984,2.975,6.405,5.043c-.152.555-.706.807-1.463.807h-32.88l-.4-1.462Z" fill="#bf956d"/>
      <path id="Path_1592" data-name="Path 1592" d="M2257.716,4785.593c1.764,9.329,7.615,18.609,21.735,24.307l-.1.555c-3.077.555-4.893,2.42-5.448,5.85-11.75-7.161-15.532-19.416-16.893-29.5-1.513,12-6.556,22.29-24.863,29.5l-.454-.757c14.02-8.472,17.953-18.457,19.063-29.955h-18.205l-.4-1.463h18.71c.353-4.74.3-9.783.3-15.028l8.473.807c-.152.757-.606,1.261-1.816,1.463-.1,4.387-.151,8.673-.5,12.758h11.346l3.732-4.589s4.085,3.076,6.606,5.245c-.151.555-.706.807-1.462.807Z" fill="#bf956d"/>
      <path id="Path_1593" data-name="Path 1593" d="M2324.795,4771.22s3.883,2.925,6.253,4.942c-.1.555-.655.807-1.411.807h-15.785l6.707,1.463c-.2.6-.756,1.059-1.866,1.059a65.953,65.953,0,0,1-5.345,4.791h8.32l2.724-3.026,5.648,4.387a3.711,3.711,0,0,1-2.068,1.059v22.9c0,3.832-.857,6.1-7.363,6.656-.151-1.765-.353-3.126-1.059-3.933a6.038,6.038,0,0,0-4.084-1.917v-.6a9.917,9.917,0,0,1-3.127.656h-.908v-2.824h-8.119v2.017c0,.454-2.27,1.614-4.438,1.614h-.757v-16.088l5.4,2.169h7.464l2.419-2.521,4.892,3.731a2.826,2.826,0,0,1-1.613.858v9.783c0,.1-.4.3-.958.5,1.009.1,4.386.353,5.446.353.807,0,1.009-.353,1.009-1.008v-23.349h-8.321v3.832c0,1.009.05,1.059.706,1.059h3.278a.96.96,0,0,0,.857-.353,16.537,16.537,0,0,0,1.059-2.874h.6l.1,2.723c1.412.706,1.513.857,1.513,1.614,0,1.765-1.16,2.975-4.337,2.975h-3.883c-4.085,0-4.791-1.008-4.791-5.295v-3.681h-3.43c-1.361,5.849-5.4,9.279-12.153,11.245l-.2-.706a13.012,13.012,0,0,0,6.859-10.539h-7.212v28.543c0,.656-2.421,2.017-4.791,2.017h-.958v-34.545l6.2,2.573h6.2a6.684,6.684,0,0,1-.756-.505,15.291,15.291,0,0,0-2.472-6.606l.3-.2H2284.3l-.4-1.412h20.324v-6.505l7.867.605c-.1.706-.454,1.21-1.816,1.412v4.488h11.044Zm-13.768,13.062c.606-2.219,1.261-5.144,1.615-7.313H2297.26c7.817,1.463,7.716,5.9,5.4,7.313Zm.4,21.937v-7.413h-8.119v7.413Z" fill="#bf956d"/>
      <path id="Path_1594" data-name="Path 1594" d="M2382.847,4773.691a4.327,4.327,0,0,1-2.118,1.059v39.286c-.051.453-2.624,1.815-4.741,1.815h-.857v-3.177h-31.166v1.513c0,.756-2.219,2.118-4.59,2.118h-.958v-46.447l6,2.522h30.208l2.773-3.127Zm-7.716,37.571v-37.47h-31.166v37.47Zm-8.221-21.231a24.581,24.581,0,0,0,7.767,4.337l-.051.5c-1.765.4-2.925,1.816-3.53,3.934a23.8,23.8,0,0,1-4.034-3.43,4.153,4.153,0,0,1-1.009.252c-.05,3.531-.4,5.094-1.816,5.951a7.838,7.838,0,0,1-3.933.858,3.548,3.548,0,0,0-.6-2.421,4.322,4.322,0,0,0-2.32-1.009v-.756c.958.05,2.521.1,3.227.1.555,0,.858-.051,1.009-.2.3-.3.4-1.211.5-3.026h-6.1v8.372c0,.655.2.857,1.664.857h4.286c1.665,0,3.127-.051,3.732-.1.5-.05.807-.1,1.059-.454a17.587,17.587,0,0,0,1.715-4.034h.554l.152,4.135c1.361.5,1.715,1.059,1.715,1.866,0,1.967-1.917,2.925-9.331,2.925h-4.941c-4.338,0-5.144-.857-5.144-4.035v-9.43a33.05,33.05,0,0,1-6.708,4.488l-.5-.554a28.68,28.68,0,0,0,7.665-9.128h-6.809l-.4-1.463h7.918a34.306,34.306,0,0,0,1.563-3.732h-3.884l-.4-1.462h4.741a44.156,44.156,0,0,0,1.714-8.12l6.859,1.413c-.151.706-.807,1.109-1.967,1.16a33.525,33.525,0,0,1-1.714,5.547h3.025l2.27-2.623s2.168,1.614,3.782,3.026a16.581,16.581,0,0,0-3.934-7.06l.5-.3c10.793,2.218,7.616,9.884,3.682,7.564l.051.05c-.1.555-.606.807-1.312.807h-4.992a16.481,16.481,0,0,0,2.723,3.732h2.118l2.37-2.824s2.673,1.967,4.438,3.48c-.151.554-.656.807-1.362.807Zm-11.347-11.851a1.635,1.635,0,0,1-1.916.857,22.572,22.572,0,0,1-7.211,6.707l-.707-.555a29.369,29.369,0,0,0,4.439-9.178Zm9.28,14.372a24.7,24.7,0,0,1-1.412-2.521h-7.364a32.706,32.706,0,0,1-2.016,2.622l2.673,1.059h4.942l2.117-2.017Zm-5.9-7.716a36.987,36.987,0,0,1-1.916,3.732h5.749a26.921,26.921,0,0,1-1.26-3.732Z" fill="#bf956d"/>
    </g>
  </g>
</svg>
