<?xml version="1.0" encoding="utf-8"?>
<!-- Generator: Adobe Illustrator 23.1.1, SVG Export Plug-In . SVG Version: 6.00 Build 0)  -->
<svg version="1.1" id="圖層_1" xmlns="http://www.w3.org/2000/svg" xmlns:xlink="http://www.w3.org/1999/xlink" x="0px" y="0px"
	 viewBox="0 0 30 30" style="enable-background:new 0 0 30 30;" xml:space="preserve">
<style type="text/css">
	.st0{fill:#FFFFFF;}
</style>
<path class="st0" d="M0.3,15C0.3,6.8,7,0.2,15.1,0.3C23.2,0.3,29.7,7,29.7,15c0,8.1-6.7,14.7-14.8,14.7S0.3,23,0.3,15z M15,23.7
	c0.1,0,0.1,0,0.2,0c2.2-5.1,4.4-10.2,6.7-15.6c-5.3,2.3-10.4,4.5-15.6,6.7c0,0.1,0,0.1,0.1,0.2c2.9,0,5.7,0,8.6,0
	C15,18,15,20.9,15,23.7z"/>
</svg>
