<svg xmlns="http://www.w3.org/2000/svg" width="576.096" height="40.158" viewBox="0 0 576.096 40.158">
  <g id="mob_subtitle_10" transform="translate(-89.33 -995.657)">
    <g id="Group_263" data-name="Group 263">
      <path id="Path_1646" data-name="Path 1646" d="M125.924,1006.343a3.015,3.015,0,0,1-1.739.933v13.952c-.042.338-2.671,1.271-4.41,1.271h-.89v-3.561h-9.541v14.84c0,.552-2.289,1.825-4.324,1.825h-.977v-16.665H94.588v2.5c0,.508-2.332,1.7-4.5,1.7H89.33v-20.185l5.639,2.205h9.074v-9.287l6.869.637c-.084.593-.424,1.059-1.568,1.229v7.421h9.16l2.373-2.63Zm-21.881,11.365v-11.322H94.588v11.322Zm14.842,0v-11.322h-9.541v11.322Z" fill="#fff"/>
      <path id="Path_1647" data-name="Path 1647" d="M154.289,1027.418c2.078-.467,4.283-.933,6.445-1.441l.17.465c-3.478,1.867-8.48,4.453-15.648,7.633a1.878,1.878,0,0,1-1.1,1.1l-2.121-5.258c.637-.085,1.444-.255,2.418-.424v-15.139l4.664.424c-.043.382-.3.722-.974.806v13.188l1.822-.381v-18.065h-1.145v.594c0,.3-1.357,1.229-3.519,1.229h-.764V997.015l4.834,1.908h4.453l2.078-2.248,4.325,3.307a2.966,2.966,0,0,1-1.612.806v9.711c-.084.3-2.205,1.06-3.6,1.06h-.721v5.682h.551l2.121-3.307s2.416,2.29,3.773,3.816c-.127.467-.55.679-1.144.679h-5.3Zm-5.471-18.318h5.428v-8.991h-5.428Zm31.209-6.361c-.3.466-.761.593-1.738.678a30.469,30.469,0,0,1-5.512,8.312,33.452,33.452,0,0,0,10.305,3.731l-.086.424c-1.992.721-3.01,2.12-3.349,4.5-.975-.382-1.909-.764-2.756-1.188l2.756,2.079a2.456,2.456,0,0,1-1.569.763v12.339c0,.255-1.57,1.061-4.072,1.061h-.889v-3.011h-7.506v2.035c0,.34-1.441,1.146-3.859,1.146h-.807v-15.9a39.9,39.9,0,0,1-4.154,1.443l-.34-.552a34.1,34.1,0,0,0,11.662-8.989,28.629,28.629,0,0,1-2.8-5.174,25.661,25.661,0,0,1-6.573,5.427l-.467-.38a37.1,37.1,0,0,0,7.209-15.733l6.276,2.035a1.463,1.463,0,0,1-1.7.849c-.424.975-.848,1.908-1.315,2.8h4.41l2.629-2.5Zm-5,15.393a22.31,22.31,0,0,1-4.835-3.944,32.886,32.886,0,0,1-7.844,4.918l3.732,1.4h6.869Zm-1.908,13.1v-9.5h-7.506v9.5Zm-5.09-28.58a22.265,22.265,0,0,1-1.949,2.841,18.961,18.961,0,0,0,3.6,4.028,29.19,29.19,0,0,0,3.519-6.869Z" fill="#fff"/>
      <path id="Path_1648" data-name="Path 1648" d="M232.988,998.753s3.307,2.5,5.342,4.283c-.127.466-.594.678-1.228.678H221.453l.934.085c-.086.552-.34.932-1.358,1.1v4.792h7l2.248-2.587,4.961,3.732a3.165,3.165,0,0,1-1.695.891V1024.7c0,3.223-.764,5.131-6.361,5.6a6.414,6.414,0,0,0-.891-3.435,5.092,5.092,0,0,0-3.349-1.569v-.551s3.646.212,4.622.212c.721,0,.889-.255.889-.806v-13.272h-7.42v22.559c0,.508-2.332,1.653-4.24,1.653h-1.017v-24.212h-7.379v17.766c0,.509-2.163,1.655-4.284,1.655h-.72V1007.53l5.343,2.163h7.04v-5.979H198.979l-.338-1.23h17.131v-6.7l6.785.509c-.086.594-.383,1.018-1.528,1.23v4.961h8.991Z" fill="#fff"/>
      <path id="Path_1649" data-name="Path 1649" d="M290.781,1006.853c-.8,6.572-2.5,12.381-5.894,17.172a28.366,28.366,0,0,0,9.838,7.082l-.127.424a5.293,5.293,0,0,0-4.41,4.072,24.961,24.961,0,0,1-7.887-8.439c-3.563,3.6-8.4,6.487-15.053,8.481l-.3-.467c6.319-3.138,10.643-7.081,13.484-11.746a53.72,53.72,0,0,1-3.308-12.17,25.478,25.478,0,0,1-4.664,5.089l-.508-.339c.424-.806.848-1.7,1.229-2.63h-5.045v11.7c2.5-.594,5.171-1.23,7.8-1.866l.128.509c-3.945,2.163-9.838,5.088-18.488,8.778a1.851,1.851,0,0,1-1.1,1.144l-2.629-5.512c.677-.127,1.568-.3,2.629-.509v-20.312l5.343.467c-.086.466-.382.806-1.23.975v18.022l2.883-.637v-24.678h-8.395l-.34-1.23h13.909l2.587-3.392s2.926,2.332,4.706,3.943c-.127.467-.551.679-1.145.679h-6.656v10.685h.634l2.332-3.476s1.485,1.356,2.885,2.714a66.1,66.1,0,0,0,3.6-15.521l7.039,1.611c-.17.552-.678.934-1.7.976a47.451,47.451,0,0,1-2.588,7.166H287.3l2.629-3.434s2.925,2.375,4.75,3.986c-.127.466-.594.679-1.231.679Zm-11.025,0a34.459,34.459,0,0,1-1.865,3.264,35.577,35.577,0,0,0,4.2,10.135,40.386,40.386,0,0,0,3.18-13.4Z" fill="#fff"/>
      <path id="Path_1650" data-name="Path 1650" d="M328.18,1013.934c-1.655,1.017-3.776,2.332-6.448,3.816v16.2c0,.509-1.949,1.655-3.687,1.655h-.891v-15.351c-1.187.636-2.418,1.271-3.775,1.95a1.956,1.956,0,0,1-1.1,1.146l-2.332-5.725c1.485-.255,4.071-.806,7.209-1.527v-8.523h-2.588a22.923,22.923,0,0,1-3.646,6.7l-.637-.3a62.219,62.219,0,0,0,1.994-15.053l4.877,1.059v-4.2l6.106.637c-.084.594-.381,1.018-1.528,1.187v8.735h.17l2.375-3.647s2.672,2.544,4.157,4.2c-.127.466-.551.678-1.145.678h-5.557v7.463c2.038-.509,4.2-1.017,6.319-1.569Zm-11.026-7.591V1001a2.051,2.051,0,0,1-.763.128,49.334,49.334,0,0,1-1.4,5.215Zm9.371-4.113h7.506v-6.4l6.4.551c-.084.594-.424,1.017-1.569,1.187v4.665h3.01l2.459-3.519s2.758,2.417,4.369,4.07c-.129.467-.594.679-1.187.679h-8.651v6.572h4.367l2.586-3.731s2.926,2.544,4.58,4.283c-.126.466-.593.678-1.187.678h-24.68l-.338-1.23h9.838v-6.572h-7.168Zm20.057,11.407s2.545,2.332,3.943,3.9c-.127.466-.55.679-1.144.679H343.91v11.618c0,3.35-.8,5.258-6.742,5.768-.211-1.485-.467-2.63-1.271-3.351-.848-.721-1.952-1.272-4.495-1.653v-.594s5.682.382,6.7.382c.72,0,.974-.255.974-.806v-11.364H324.787l-.34-1.231h14.629V1011.6l6.362.55c-.128.637-.51.976-1.528,1.1v3.731h.51Zm-19.59,5.469c11.873,2.249,7.76,10.814,3.307,7.549a19.074,19.074,0,0,0-3.647-7.294Z" fill="#fff"/>
      <path id="Path_1651" data-name="Path 1651" d="M401.152,1027.842s3.053,2.375,4.961,3.986c-.127.467-.593.679-1.185.679H373.59v1.738c0,.382-1.525,1.57-3.986,1.57h-.891V996.93l5.428,2.29h22.474l2.715-3.393s3.01,2.29,4.875,3.9c-.127.465-.594.677-1.185.677H373.59v30.913H398.4Zm-17.978.678v-2.29h-3.182v1.994c0,.381-1.779,1.229-3.519,1.229h-.551v-14.5l4.2,1.7h2.67l1.908-1.95,3.986,2.926a2.511,2.511,0,0,1-1.4.721v9.074c-.043.3-2.078,1.1-3.435,1.1Zm0-3.477v-7.208h-3.182v7.208Zm8.607-12.976h-6.7v1.315c0,.425-2.121,1.442-4.029,1.442h-.635v-13.06l4.834,1.908h6.1l2.163-2.332,4.537,3.434a2.553,2.553,0,0,1-1.526.721V1013c-.043.3-2.459,1.144-3.943,1.144h-.807Zm0-1.186v-5.98h-6.7v5.98Zm5.217,17.47v-2.121h-3.519v1.315c0,.425-1.782,1.314-3.479,1.314h-.594v-13.908l4.241,1.7h2.968l1.951-2.035,4.028,3.053a2.512,2.512,0,0,1-1.4.679v8.862c-.043.339-2.162,1.145-3.476,1.145Zm0-3.308v-7.208h-3.519v7.208Z" fill="#fff"/>
      <path id="Path_1652" data-name="Path 1652" d="M494.563,1002.7a18.4,18.4,0,0,1-4.875,7.972,24.272,24.272,0,0,0,8.48,2.8l-.086.467c-1.7.635-2.543,1.95-2.8,4.028a16.106,16.106,0,0,1-8.14-5.216,29.378,29.378,0,0,1-9.161,4.071l-.253-.551a23.348,23.348,0,0,0,7.886-5.767,28.036,28.036,0,0,1-2.629-6.7,21.772,21.772,0,0,1-2.882,2.12,26.619,26.619,0,0,1,2.035,1.781c-.084.467-.467.679-1.018.679h-4.24c-.127,1.229-.254,2.289-.424,3.18h.043l1.7-2.332s1.993,1.611,3.18,2.84c-.084.467-.508.679-1.1.679H476.2a6.75,6.75,0,0,1-1.314,2.926l3.984,2.29c-.168.339-.635.382-1.314.212-1.1.552-2.84,1.272-4.537,1.908,1.527,1.866.3,4.24-2.206,3.732a24.574,24.574,0,0,0-7-5.173l.3-.424c3.436-.509,5.809-.128,7.336.636.424-.636.848-1.273,1.231-1.909a14.456,14.456,0,0,1-2.5.212,2.362,2.362,0,0,0-.553-1.823,4.267,4.267,0,0,0-2.373-1.018l.041-.636c.976.085,2.588.17,3.308.17a1.6,1.6,0,0,0,1.188-.339,1.985,1.985,0,0,0,.508-.764H463.99c-.127.679-.3,1.358-.424,1.951-.976.466-1.951.593-3.9.084.467-1.908.934-4.2,1.4-6.4H458.35l-.338-1.188h3.263c.3-1.484.553-2.883.764-4.113a19.888,19.888,0,0,1-3.18,1.781l-.466-.466a25.266,25.266,0,0,0,4.58-8.736l5.6,1.823c-.17.509-.679.891-1.654.849q-.51.636-1.018,1.272h8.184l2.2-2.841s2.5,1.993,3.986,3.392c-.126.467-.509.679-1.1.679H464.754c-.34.339-.68.636-1.018.933l2.84,1.1h6.572l1.952-1.951,3.689,3.011a2.413,2.413,0,0,1-1.654.679c-.043.932-.084,1.781-.17,2.586h.127l1.824-2.247.637.509a27.269,27.269,0,0,0,3.476-9.584l5.641,1.823c-.213.509-.723.849-1.654.806a25.556,25.556,0,0,1-1.909,2.969h6.233l2.291-3.011s2.629,2.078,4.24,3.562c-.086.466-.551.678-1.144.678Zm-36.043,31.8a38.74,38.74,0,0,0,10.771-6.955l4.537,3.35c-.256.382-.68.551-1.527.254a44.194,44.194,0,0,1-13.442,3.9Zm26.841-13.315c12.807-.212,11.577,8.565,7.039,6.912a13.966,13.966,0,0,0-2.375-2.841c-2.84.339-6.148.721-9.965,1.1v8.311c0,.17-1.525.934-4.027.934h-.89v-8.779c-3.774.34-8.057.764-12.807,1.188a1.8,1.8,0,0,1-1.188.847l-2.289-4.579c3.137.085,8.311.042,14.586,0a68.643,68.643,0,0,0,9.034-7.8l4.791,2.756c-.254.424-.637.594-1.612.424a60.225,60.225,0,0,1-8.861,4.579c3.687,0,7.717-.084,11.873-.127a22.54,22.54,0,0,0-3.648-2.5Zm-20.523-12.806c-.17,1.06-.381,2.162-.594,3.18h2.375c.17-.933.381-2.036.551-3.18Zm.764-4.283c-.127.89-.34,1.951-.551,3.095h2.289c.17-1.1.34-2.163.467-3.095Zm7.039,7.463a20.847,20.847,0,0,0,.507-3.18h-2.585c-.17,1.144-.381,2.247-.551,3.18Zm-1.4-7.463c-.127.932-.3,2.035-.465,3.095h2.5c.084-.932.168-1.951.211-3.095Zm10.815,24.424c15.349-1.017,13.738,8.015,9.371,6.616a25.874,25.874,0,0,0-9.5-6.064Zm1.992-25.824a6.941,6.941,0,0,1-.508.552,14,14,0,0,0,3.434,5.343,17.215,17.215,0,0,0,2.459-5.9Z" fill="#fff"/>
      <path id="Path_1653" data-name="Path 1653" d="M545.359,1014.994v5.979h.977l2.332-2.926s2.543,2.035,4.154,3.476c-.127.467-.55.679-1.144.679H536.031v5.131h9.455l2.631-3.223s2.967,2.2,4.791,3.732c-.127.467-.593.678-1.187.678h-15.69v5.852c0,.255-1.484,1.231-4.029,1.231h-.891v-7.083H515l-.338-1.187h16.451V1022.2H516.143l-.338-1.229h6.148v-5.979h-7.719l-.337-1.187h8.056V1008h-5.344l-.337-1.187h28.791l2.417-2.884s2.672,1.951,4.325,3.392c-.084.467-.551.679-1.145.679h-5.3v5.81h1.528l2.5-3.1s2.8,2.12,4.537,3.6c-.086.466-.551.679-1.145.679Zm-31.082-13.018-.3-1.188h10.983v-5l6.318.552c-.084.551-.381.975-1.484,1.1v3.349h7.633v-5l6.4.509c-.043.594-.383,1.018-1.484,1.146v3.349h4.24l2.5-3.349s2.84,2.29,4.494,3.858c-.127.467-.551.679-1.145.679H542.35v2.84c0,.382-1.866,1.018-4.114,1.018h-.806v-3.858H529.8v3.01c0,.382-1.865,1.061-4.027,1.061h-.807v-4.071Zm12.424,11.831h4.41V1008H526.7Zm4.41,7.166v-5.979H526.7v5.979Zm4.92-12.976v5.81h4.494V1008Zm4.494,7h-4.494v5.979h4.494Z" fill="#fff"/>
      <path id="Path_1654" data-name="Path 1654" d="M580.68,1012.449c9.752,3.054,5.724,9.923,2.246,6.912a16.861,16.861,0,0,0-2.246-5.936v20.735c0,.467-2.035,1.443-3.86,1.443h-.974v-17.344a35.415,35.415,0,0,1-6.192,7.378l-.55-.466c3.136-4.834,5.13-11.364,6.189-17.641h-4.875l-.34-1.229h5.768V995.869l6.4.637c-.127.636-.424,1.059-1.568,1.229v8.566h.508l2.162-3.265s2.418,2.289,3.732,3.817c-.084.465-.508.677-1.1.677h-5.3Zm29.047,6.573c-.3.509-.85.636-1.909.509a42.526,42.526,0,0,1-5.683,6.658c11.2,3.137,7.633,11.7,3.012,8.692a20.093,20.093,0,0,0-4.241-7.633c-5,4.241-10.812,6.785-17.767,8.438l-.254-.593c8.82-3.859,15.859-9.2,20.734-19.209Zm-25.1,6.785a41.078,41.078,0,0,0,16.494-18.234l5.9,3.1c-.3.51-.764.679-1.739.51a41,41,0,0,1-20.31,15.222Zm20.693-26.078s2.883,2.374,4.622,4.028c-.128.466-.551.678-1.145.678H595.225l4.664,1.7c-.213.509-.764.849-1.7.764a31.186,31.186,0,0,1-5.554,4.622c3.689,2.925,1.314,7.124-1.992,5.3a21.283,21.283,0,0,0-5.682-7.506l.338-.3a16.883,16.883,0,0,1,5.894,1.526,56.074,56.074,0,0,0,2.205-6.106h-7.929l-.34-1.187H594.5v-7.082l6.234.509c-.084.552-.381.933-1.357,1.1v5.471h3.393Z" fill="#fff"/>
      <path id="Path_1655" data-name="Path 1655" d="M631.647,1008.93c3.138,7.59,1.4,12.678-.891,15.053-1.527,1.739-3.9,1.739-4.961.17-.891-1.357-.3-2.842.89-3.9,2.333-1.654,4.581-6.107,4.411-11.279ZM643.139,1006c-.086.552-.467.976-1.485,1.144v20.694c0,.975.467,1.272,2.205,1.272h4.791c1.739,0,3.18,0,3.9-.085a1.482,1.482,0,0,0,1.357-.72,38.925,38.925,0,0,0,2.248-6.531h.467l.127,6.827c1.525.594,1.951,1.188,1.951,2.163,0,2.333-2.121,3.392-10.517,3.392H643.01c-4.791,0-6.317-.89-6.317-4.834v-23.958Zm3.816.552c-1.146-2.545-4.369-6.574-9.668-9.457l.168-.509C656.793,997.735,652.254,1009.65,646.955,1006.556Zm12.848,16.41c.084-3.9-.891-9.923-4.75-14.078l.34-.34C671.889,1015.884,664.043,1028.647,659.8,1022.966Z" fill="#fff"/>
    </g>
  </g>
</svg>
