<svg xmlns="http://www.w3.org/2000/svg" width="577.523" height="53.011" viewBox="0 0 577.523 53.011">
  <g id="mob_houseintro" transform="translate(-88.051 -1069.904)">
    <g id="Group_9" data-name="Group 9" transform="translate(88.051 1069.904)">
      <path id="Path_31" data-name="Path 31" d="M965.811,1374.751H933.787v-6.161l5.688-6.094c9.681-10.021,15.369-16.588,15.369-23.495,0-4.468-2.371-8.192-7.99-8.192-3.724,0-7.176,1.963-9.546,3.724l-2.777-7.177a24.464,24.464,0,0,1,14.354-4.6c10.969,0,15.98,6.974,15.98,15.3,0,9.072-6.161,16.52-13.609,24.035l-4.266,4.2v.135h18.823Z" transform="translate(-933.787 -1322.752)" fill="#ff0"/>
      <path id="Path_32" data-name="Path 32" d="M1020.175,1356.018H997.194c-.167,1.06-.335,2.12-.558,3.124h12.941l1.393-.112,3.794.559a9.2,9.2,0,0,1-.279,1.729c-1.172,14.558-2.175,14.558-14.057,14.335a13.312,13.312,0,0,0-1.728-5.578c2.343.223,4.629.279,5.634.279a2.362,2.362,0,0,0,1.84-.558c.614-.558,1.06-2.119,1.45-5.522H995.018c-2.063,4.8-6.024,8.757-14.446,11.378a17.364,17.364,0,0,0-3.626-5.243c10.375-2.733,12.662-7.642,13.61-14.391h-9.593c-.837,6.749-2.789,13.89-7.252,19.021a26.765,26.765,0,0,0-5.745-3.738c6.3-7.028,6.916-17.236,6.916-24.71v-12.551h40.329v13.444h-13.22a1.937,1.937,0,0,1-1.4.669v2.789h19.579Zm-.335-30.4v5.969H969.807v-5.969Zm-25.882,21.866H981.465c0,1.116-.056,2.286-.112,3.458h12.606Zm14.67-8.535H981.465v3.514h27.164Z" transform="translate(-933.801 -1322.753)" fill="#ff0"/>
      <path id="Path_33" data-name="Path 33" d="M1044.8,1347.194a12.913,12.913,0,0,1,10.426,12.864c0,8.532-6.838,15.438-18.754,15.438-5.416,0-10.291-1.421-12.865-3.115l2.235-7.583a20.736,20.736,0,0,0,9.953,2.776c6.161,0,9.208-3.792,9.208-7.99,0-5.755-5.011-8.463-10.495-8.463h-3.453v-7.042h3.25c3.994,0,9.139-2.234,9.139-7.177,0-3.588-2.369-6.229-7.108-6.229a18.127,18.127,0,0,0-8.938,2.776l-2.1-7.177c2.64-1.76,7.854-3.521,13.339-3.521,9.817,0,14.962,5.756,14.962,12.526,0,5.281-3.182,9.682-8.8,11.781Z" transform="translate(-933.823 -1322.752)" fill="#ff0"/>
      <path id="Path_34" data-name="Path 34" d="M1080.492,1352.475a12.337,12.337,0,0,1-9.614,4c-7.922,0-14.151-6.027-14.151-15.573s6.635-18.146,17.061-18.146c11.172,0,16.927,9.343,16.927,21.6,0,17.739-9.207,32.026-29.791,31.078v-7.854a26.364,26.364,0,0,0,4.943-.2c8.464-.881,13.339-7.041,14.828-14.828Zm-13.812-12.458c0,6.026,2.843,9.682,6.905,9.682a7.438,7.438,0,0,0,6.432-3.859,7.859,7.859,0,0,0,.541-3.724c0-6.838-2.3-12.255-7.108-12.255C1069.388,1329.861,1066.68,1334.194,1066.68,1340.017Z" transform="translate(-933.836 -1322.752)" fill="#ff0"/>
    </g>
    <g id="Group_10" data-name="Group 10" transform="translate(501.023 1070.092)">
      <path id="Path_35" data-name="Path 35" d="M1358.413,1359.642c-.223.558-.725.67-1.339.614-1.226,4.406-3.29,9.371-5.856,12.494a38.293,38.293,0,0,0-4.294-4.183c2.008-2.565,3.513-6.86,4.349-10.933Zm17.46-29.618v6.191h-28.281v-6.191h10.933V1323l8.312.39c-.056.614-.447.893-1.506,1.115v5.523Zm15.953,38.041c0,1.673.055,2.12.948,2.12,1.562,0,1.785,0,2.063-.224.67-.669.67-5.075.67-7.864a15.564,15.564,0,0,0,4.742,2.565c-.167,7.419-.615,10.989-6.024,10.989h-3.292a5.932,5.932,0,0,1-3.9-1.451c-1.061-.947-1.451-2.231-1.451-6.3v-10.431c-1.729,6.693-4.8,13.164-10.152,18.3a26.47,26.47,0,0,0-5.69-3.961,27.336,27.336,0,0,0,4.741-5.522l-4.462,2.4a49.49,49.49,0,0,0-4.852-8.646v8.925c0,5.411-1.952,6.693-9.427,6.693a21.87,21.87,0,0,0-1.952-6.135c1.729.056,3.515.056,4.071.056.615-.056.782-.223.782-.726v-12.885h-7.81V1339h21.922v16.956h-7.586v4.016l5.187-2.51a45.689,45.689,0,0,1,4.853,7.642c4.182-6.861,5.467-14.893,5.857-21.809h-5.913v-6.359h6.079V1323l8.032.39c-.055.558-.5.893-1.505,1.061v12.494h12.16v6.359h-12.327c0,.836-.056,1.618-.112,2.454,2.119.167,3.96.223,5.8.335-.056.557-.446.892-1.449,1Zm-34.807-23.371v5.633h9.092v-5.633Zm37.093-20.472a30.031,30.031,0,0,1,5.8,8.925l-5.579,2.733a31.829,31.829,0,0,0-5.411-9.316Z" transform="translate(-1346.924 -1322.94)" fill="#ff0"/>
      <path id="Path_36" data-name="Path 36" d="M1423.755,1346.479a32.961,32.961,0,0,0,6.47,10.375,31.154,31.154,0,0,0,6.582-10.71l8.088,2.622a1.624,1.624,0,0,1-1.673.725,41.053,41.053,0,0,1-7.808,11.881c5.466,3.9,12.494,6.583,21.2,7.921a28.592,28.592,0,0,0-4.351,6.359c-9.258-1.784-16.511-4.908-22.255-9.538-5.969,4.407-13.332,7.531-22.033,9.594a39.92,39.92,0,0,0-3.9-6.079c8.311-1.618,15.451-4.3,21.085-8.312a47.043,47.043,0,0,1-7.809-12.941Zm2.733-6.693a1.458,1.458,0,0,1-1.617.5,67.179,67.179,0,0,1-15.005,12.606,39.09,39.09,0,0,0-5.132-4.908,44.494,44.494,0,0,0,14.057-11.49Zm23.372,12.718c-2.845-3.626-9.26-8.869-14.335-12.55l5.355-3.906h-35.531v-6.525H1426.6v-6.582l8.368.446c-.056.558-.447.893-1.45,1.061v5.076h21.475v6.525h-13.777c4.909,3.292,11.434,8.256,14.614,11.826Z" transform="translate(-1346.947 -1322.94)" fill="#ff0"/>
      <path id="Path_37" data-name="Path 37" d="M1494.172,1368.568h17.347v5.3H1470.8v-5.3h16.9v-3.291h-12.494v-5.187H1487.7V1357.3c-4.573.167-8.758.334-12.048.39a1.192,1.192,0,0,1-.949.837l-2.063-6.08,6.023-.056c.948-1.394,1.952-3.012,2.846-4.63h-8.646c-.391,9.148-1.9,20.36-6.693,27.89a25.248,25.248,0,0,0-5.969-3.458c5.578-8.647,6.024-21.364,6.024-30.289v-16.287h42.113v14.391h-35.364v2.454h37.651v5.3h-9.258a60.66,60.66,0,0,1,9.091,7.81l-5.578,3.458c-.558-.669-1.283-1.505-2.12-2.342l-7.921.335a1.955,1.955,0,0,1-.669.167v2.9h12.718v5.187h-12.718Zm7.418-37.539h-28.615v3.571h28.615Zm-4.573,16.733h-8.089c-.836,1.4-1.952,3.013-3.067,4.518,3.737-.055,7.7-.167,11.713-.223-1.172-.948-2.343-1.84-3.4-2.621Z" transform="translate(-1346.969 -1322.941)" fill="#ff0"/>
    </g>
    <g id="Group_11" data-name="Group 11" transform="translate(250.596 1071.064)">
      <path id="Path_38" data-name="Path 38" d="M1114.817,1325.6h5.49v2.592h-5.49v.975h-3v-.975h-6.13v.975h-3v-.975h-5.311V1325.6h5.311v-1.692l3.668.179c-.026.257-.206.411-.666.488v1.026h6.13v-1.692l3.7.179c-.026.257-.232.411-.693.488Zm4.36,12.956v6.8c0,2.334-.9,2.745-4.232,2.745a10.594,10.594,0,0,0-.591-1.975l-1.436.385a8.555,8.555,0,0,0-.256-1.207c-3.388.283-6.8.488-9.082.616a.486.486,0,0,1-.435.411l-.95-3.028c1.36-.025,3.131-.051,5.08-.1v-2.1h-5.7v7.03h-2.925v-9.57h8.62v-.872h-6.619V1329.5H1117.2v8.184h-7v.872Zm-15.623-7.054v1.154h3.719v-1.154Zm0,4.181h3.719v-1.155h-3.719Zm10.646-3.028v-1.154h-4v1.154Zm0,3.028v-1.155h-4v1.155Zm-2.359,7.363c-.206-.436-.412-.873-.617-1.258l2.258-.564a16.059,16.059,0,0,1,1.847,4.438c.821,0,.847-.052.847-.36V1341.1H1110.2v2Z" transform="translate(-1096.397 -1323.912)" fill="#ff0"/>
      <path id="Path_39" data-name="Path 39" d="M1104.708,1365.746v4.079c1.848.616,3.747.616,8.262.616,2.847,0,6.619-.051,8.235-.129a10.655,10.655,0,0,0-1.182,3.054h-10c-4.874,0-7.953-.642-9.979-3.643a16.7,16.7,0,0,1-1.258,4.592,17.343,17.343,0,0,0-2.385-1.231c1.178-2.437,1.435-6.952,1.512-11.391l3.309.41c-.051.257-.231.385-.59.411-.026.821-.051,1.667-.1,2.514a8.981,8.981,0,0,0,1.334,2.771v-7.465h-4.977v-2.746h4.925v-2.463h-4.182v-2.668h4.182v-2.642l3.566.179c-.025.257-.231.411-.668.463v2h3.464v2.668h-3.464v2.463h4.106v2.746h-4.106v2.745h3.642v2.668Zm11.7-8v-4.232h-7.26v-2.746h10.21v10.468h-2.95v-.821h-3.642v4.9c0,.924.179,1.026,1.205,1.026h2.976c.924,0,1.077-.462,1.206-3.335a9.25,9.25,0,0,0,2.667,1.155c-.333,3.9-1.1,4.925-3.616,4.925h-3.644c-2.874,0-3.746-.821-3.746-3.746v-7.594Z" transform="translate(-1096.397 -1323.922)" fill="#ff0"/>
    </g>
    <g id="Group_12" data-name="Group 12" transform="translate(297.385 1069.904)">
      <path id="Path_40" data-name="Path 40" d="M1164.4,1347.194a12.913,12.913,0,0,1,10.427,12.864c0,8.532-6.838,15.438-18.754,15.438-5.417,0-10.292-1.421-12.864-3.115l2.235-7.583a20.733,20.733,0,0,0,9.952,2.776c6.162,0,9.207-3.792,9.207-7.99,0-5.755-5.009-8.463-10.494-8.463h-3.453v-7.042h3.25c4,0,9.141-2.234,9.141-7.177,0-3.588-2.37-6.229-7.109-6.229a18.124,18.124,0,0,0-8.938,2.776l-2.1-7.177c2.641-1.76,7.854-3.521,13.338-3.521,9.819,0,14.964,5.756,14.964,12.526,0,5.281-3.183,9.682-8.8,11.781Z" transform="translate(-1143.204 -1322.752)" fill="#ff0"/>
      <path id="Path_41" data-name="Path 41" d="M1229.93,1356.018h-22.981c-.167,1.06-.334,2.12-.558,3.124h12.942l1.393-.112,3.794.559a9.373,9.373,0,0,1-.279,1.729c-1.172,14.558-2.176,14.558-14.056,14.335a13.3,13.3,0,0,0-1.729-5.578c2.342.223,4.63.279,5.634.279a2.362,2.362,0,0,0,1.84-.558c.615-.558,1.061-2.119,1.452-5.522h-12.607c-2.063,4.8-6.024,8.757-14.447,11.378a17.329,17.329,0,0,0-3.626-5.243c10.375-2.733,12.662-7.642,13.61-14.391h-9.594c-.837,6.749-2.789,13.89-7.251,19.021a26.79,26.79,0,0,0-5.745-3.738c6.3-7.028,6.916-17.236,6.916-24.71v-12.551h40.328v13.444h-13.22a1.935,1.935,0,0,1-1.394.669v2.789h19.578Zm-.335-30.4v5.969h-50.033v-5.969Zm-25.881,21.866H1191.22c0,1.116-.056,2.286-.113,3.458h12.607Zm14.669-8.535H1191.22v3.514h27.163Z" transform="translate(-1143.218 -1322.753)" fill="#ff0"/>
      <path id="Path_42" data-name="Path 42" d="M1263.967,1323.5v8.261h-17.4l-1.354,10.02a18.8,18.8,0,0,1,2.844-.2c8.936,0,17.332,5.011,17.332,16.047,0,9.817-7.515,17.875-19.567,17.875a27.6,27.6,0,0,1-12.187-2.641l1.964-7.583a22,22,0,0,0,9.681,2.37c5.214,0,10.021-3.318,10.021-9.208,0-6.161-4.536-9.614-13.2-9.614a46.243,46.243,0,0,0-5.756.338l3.115-25.661Z" transform="translate(-1143.24 -1322.752)" fill="#ff0"/>
      <path id="Path_43" data-name="Path 43" d="M1290.249,1352.475a12.34,12.34,0,0,1-9.614,4c-7.922,0-14.152-6.027-14.152-15.573s6.635-18.146,17.062-18.146c11.171,0,16.926,9.343,16.926,21.6,0,17.739-9.208,32.026-29.79,31.078v-7.854a26.354,26.354,0,0,0,4.942-.2c8.464-.881,13.339-7.041,14.828-14.828Zm-13.813-12.458c0,6.026,2.844,9.682,6.906,9.682a7.437,7.437,0,0,0,6.431-3.859,7.857,7.857,0,0,0,.542-3.724c0-6.838-2.3-12.255-7.109-12.255C1279.144,1329.861,1276.436,1334.194,1276.436,1340.017Z" transform="translate(-1143.253 -1322.752)" fill="#ff0"/>
    </g>
    <g id="Group_13" data-name="Group 13" transform="translate(462.385 1071.064)">
      <path id="Path_44" data-name="Path 44" d="M1326.689,1325.6h5.492v2.592h-5.492v.975h-3v-.975h-6.131v.975h-3v-.975h-5.311V1325.6h5.311v-1.692l3.67.179c-.027.257-.206.411-.668.488v1.026h6.131v-1.692l3.695.179c-.026.257-.232.411-.694.488Zm4.362,12.956v6.8c0,2.334-.9,2.745-4.233,2.745a10.594,10.594,0,0,0-.591-1.975l-1.435.385a8.707,8.707,0,0,0-.257-1.207c-3.387.283-6.8.488-9.083.616a.486.486,0,0,1-.436.411l-.95-3.028c1.361-.025,3.13-.051,5.08-.1v-2.1h-5.7v7.03h-2.925v-9.57h8.621v-.872h-6.619V1329.5h16.548v8.184h-7v.872Zm-15.624-7.054v1.154h3.719v-1.154Zm0,4.181h3.719v-1.155h-3.719Zm10.647-3.028v-1.154h-4v1.154Zm0,3.028v-1.155h-4v1.155Zm-2.36,7.363c-.2-.436-.411-.873-.616-1.258l2.257-.564a16.025,16.025,0,0,1,1.847,4.438c.821,0,.847-.052.847-.36V1341.1h-5.978v2Z" transform="translate(-1308.27 -1323.912)" fill="#ff0"/>
      <path id="Path_45" data-name="Path 45" d="M1316.582,1365.746v4.079c1.848.616,3.746.616,8.261.616,2.847,0,6.619-.051,8.235-.129a10.634,10.634,0,0,0-1.18,3.054h-10.006c-4.874,0-7.953-.642-9.98-3.643a16.676,16.676,0,0,1-1.256,4.592,17.332,17.332,0,0,0-2.385-1.231c1.179-2.437,1.435-6.952,1.512-11.391l3.31.41c-.051.257-.231.385-.59.411-.025.821-.052,1.667-.1,2.514a9.023,9.023,0,0,0,1.333,2.771v-7.465h-4.976v-2.746h4.926v-2.463H1309.5v-2.668h4.182v-2.642l3.565.179c-.025.257-.231.411-.667.463v2h3.464v2.668h-3.464v2.463h4.1v2.746h-4.1v2.745h3.643v2.668Zm11.7-8v-4.232h-7.261v-2.746h10.211v10.468h-2.95v-.821h-3.643v4.9c0,.924.179,1.026,1.205,1.026h2.976c.923,0,1.077-.462,1.205-3.335a9.269,9.269,0,0,0,2.668,1.155c-.333,3.9-1.1,4.925-3.617,4.925h-3.643c-2.874,0-3.746-.821-3.746-3.746v-7.594Z" transform="translate(-1308.27 -1323.922)" fill="#ff0"/>
    </g>
  </g>
</svg>
