<?xml version="1.0" encoding="utf-8"?>
<!-- Generator: Adobe Illustrator 23.1.1, SVG Export Plug-In . SVG Version: 6.00 Build 0)  -->
<svg version="1.1" id="圖層_1" xmlns="http://www.w3.org/2000/svg" xmlns:xlink="http://www.w3.org/1999/xlink" x="0px" y="0px"
	 viewBox="0 0 30 30" style="enable-background:new 0 0 30 30;" xml:space="preserve">
<style type="text/css">
	.st0{fill:#FFFFFF;}
</style>
<path class="st0" d="M11,6.9c0.2,0.7,0,1.4-0.4,2.1c-0.1,0.2-0.3,0.4-0.4,0.5c-1.4,1.5-1.4,2-0.2,3.7c1.9,2.6,4.2,4.8,6.8,6.7
	c0.3,0.2,0.6,0.4,1,0.6c1.1,0.5,1.5,0.5,2.4-0.5c1.5-1.6,2.6-1.8,4.5-0.5c0.8,0.5,1.6,1.2,2.2,1.9c1,1,1,2.2,0.2,3.3
	c-0.6,0.8-1.3,1.6-2.1,2.2c-0.6,0.4-1.5,0.5-2.3,0.5c-2.3-0.1-4.5-1.1-6.4-2.3c-5.4-3.3-9.8-7.6-12.5-13.4c-0.8-1.5-1.1-3-1.3-4.5
	c-0.2-1,0.2-2,1-2.7C4,4,4.5,3.5,5.1,3c1-0.7,2-0.7,3,0C9.4,4,10.4,5.3,11,6.9z"/>
</svg>
