<svg xmlns="http://www.w3.org/2000/svg" width="449.947" height="67.138" viewBox="0 0 449.947 67.138">
  <g id="mob_title_en_10" transform="translate(-980.004 -12979.57)">
    <path id="Path_1245" data-name="Path 1245" d="M1007.251,12981.061c13.58,0,20.806,6.486,20.806,15.6,0,6.661-4.354,12.884-15.148,15.075,12.971,1.841,18.368,8.151,18.368,16.039,0,8.765-7.05,17.529-25.245,17.529H980v-3.331l8.879-.964c.174-8.5.174-17.091.174-25.681v-4.645c0-8.5,0-16.916-.174-25.329l-8.879-.965v-3.331Zm-9.315,3.77c-.174,8.238-.174,16.74-.174,25.242h5.048c11.493,0,16.715-4.12,16.715-13.06,0-8.59-4.875-12.183-14.886-12.183Zm6.268,56.619c11.926,0,18.02-4.82,18.02-13.585,0-9.2-5.745-13.849-18.978-13.849h-5.484c0,9.992,0,18.758.174,27.434Z" fill="#fff"/>
    <path id="Path_1246" data-name="Path 1246" d="M1088.642,13028.215l-.523,17.091h-49.1v-3.331l8.879-.964c.175-8.414.175-16.828.175-25.417v-4.733c0-8.589,0-17.091-.175-25.5l-8.879-.965v-3.331h47.269l.523,16.916h-4.7l-2.525-12.709h-22.633c-.174,8.326-.174,16.74-.174,25.418h14.364l1.392-9.466h3.918v22.612h-3.918l-1.306-9.29h-14.45c0,9.466,0,18.055.174,26.557h24.461l2.525-12.884Z" fill="#fff"/>
    <path id="Path_1247" data-name="Path 1247" d="M1121.543,13009.02c12.71,5.084,17.41,10.431,17.41,19.458,0,11.394-9.226,18.23-22.459,18.23a36.006,36.006,0,0,1-18.542-5.083l.609-13.5h4.875l2.438,12.008a19.266,19.266,0,0,0,10.011,2.366c9.227,0,15.234-4.207,15.234-12.008,0-6.224-3.482-9.2-12.014-12.621l-3.568-1.489c-9.924-4.032-16.453-9.554-16.453-19.194,0-11.132,9.227-17.618,21.24-17.618a25.625,25.625,0,0,1,15.67,5.084l-.609,12.534h-4.963l-2.438-11.482a14.561,14.561,0,0,0-7.747-1.929c-7.661,0-13.319,3.857-13.319,11.219,0,6.136,3.918,9.817,10.8,12.534Z" fill="#fff"/>
    <path id="Path_1248" data-name="Path 1248" d="M1176.818,12985.268c-.173,8.414-.173,17-.173,25.593v4.733c0,8.414,0,16.916.173,25.33l9.837,1.051v3.331h-28.727v-3.331l9.837-1.051c.175-8.327.175-16.741.175-25.33v-4.733c0-8.589,0-17.179-.175-25.593h-14.973l-2.611,12.885h-4.788l.783-17.092h52.318l.61,17.092h-4.615l-2.7-12.885Z" fill="#fff"/>
    <path id="Path_1249" data-name="Path 1249" d="M1278.838,13027.25l-.7,18.056h-47.269v-3.331l8.879-.964c.175-8.5.175-17,.175-25.154v-5c0-8.589,0-17.179-.175-25.5l-8.879-.965v-3.331h26.9v3.331l-8.966.965c-.174,8.413-.174,16.915-.174,25.417v6.4c0,7.274,0,15.6.174,24.016h21.936l3.134-13.937Z" fill="#fff"/>
    <path id="Path_1250" data-name="Path 1250" d="M1305.3,12985.356c-.174,8.325-.174,16.915-.174,25.5v4.733c0,8.414,0,16.916.174,25.33l8.879,1.051v3.331h-26.812v-3.331l8.879-.964c.175-8.414.175-16.828.175-25.417v-4.733c0-8.589,0-17.091-.175-25.5l-8.879-.965v-3.331h26.812v3.331Z" fill="#fff"/>
    <path id="Path_1251" data-name="Path 1251" d="M1342.294,12985.268c-.174,8.326-.174,16.74-.174,25.418h15.06l1.218-9.466h4v23.313h-4l-1.218-9.991h-15.06c0,9.378,0,17.968.174,26.382l9.053,1.051v3.331h-26.986v-3.331l8.879-.964c.175-8.414.175-16.828.175-25.417v-4.733c0-8.589,0-17.091-.175-25.5l-8.879-.965v-3.331h47.356l.522,16.916h-4.7l-2.524-12.709Z" fill="#fff"/>
    <path id="Path_1252" data-name="Path 1252" d="M1429.951,13028.215l-.522,17.091h-49.1v-3.331l8.879-.964c.175-8.414.175-16.828.175-25.417v-4.733c0-8.589,0-17.091-.175-25.5l-8.879-.965v-3.331H1427.6l.522,16.916h-4.7l-2.525-12.709h-22.632c-.174,8.326-.174,16.74-.174,25.418h14.363l1.393-9.466h3.917v22.612h-3.917l-1.306-9.29h-14.45c0,9.466,0,18.055.174,26.557h24.461l2.524-12.884Z" fill="#fff"/>
  </g>
</svg>
