<svg xmlns="http://www.w3.org/2000/svg" width="510.159" height="66.389" viewBox="0 0 510.159 66.389">
  <g id="mob_title_en_3" transform="translate(-968.705 -3978.634)">
    <g id="Group_82" data-name="Group 82">
      <path id="Path_436" data-name="Path 436" d="M1016.133,4025.782l-.69,17.855H968.705v-3.294l8.779-.953c.172-8.408.172-16.814.172-24.874v-4.941c0-8.493,0-16.987-.172-25.221l-8.779-.953v-3.294h26.6v3.294l-8.867.953c-.172,8.321-.172,16.728-.172,25.134v6.327c0,7.194,0,15.428.172,23.748h21.691l3.1-13.781Z" fill="#fff"/>
      <path id="Path_437" data-name="Path 437" d="M1088.779,4011.829c0,20.887-13.858,33.194-28.663,33.194-14.891,0-28.835-11.614-28.835-33.194,0-20.8,14.03-33.2,28.835-33.2C1074.749,3978.634,1088.779,3990.421,1088.779,4011.829Zm-28.663,29.121c13.083,0,18.851-14.128,18.851-29.121,0-14.908-5.768-29.035-18.851-29.035-13.169,0-19.108,14.127-19.108,29.035C1041.008,4026.822,1046.947,4040.95,1060.116,4040.95Z" fill="#fff"/>
      <path id="Path_438" data-name="Path 438" d="M1157.9,4026.476l-.173,13.954a38.421,38.421,0,0,1-18.85,4.593c-19.023,0-32.019-13.434-32.019-33.194,0-19.414,13.6-33.2,32.019-33.2a35.076,35.076,0,0,1,17.989,4.681l.173,13.953h-5.165l-2.324-12.134a21.032,21.032,0,0,0-9.64-2.34c-13,0-23.326,10.141-23.326,29.035,0,18.981,9.468,29.034,22.981,29.034a24.773,24.773,0,0,0,10.845-2.34l2.324-12.047Z" fill="#fff"/>
      <path id="Path_439" data-name="Path 439" d="M1231.487,4040.343v3.294h-25.649v-3.294l9.3-1.127-5.508-16.64h-21.863l-5.423,16.554,9.21,1.213v3.294h-21v-3.294l7.66-1.213,20.056-59.456h5.509l20.313,59.8Zm-23.067-21.494-9.813-29.468-9.64,29.468Z" fill="#fff"/>
      <path id="Path_440" data-name="Path 440" d="M1267.726,3984.268c-.173,8.32-.173,16.814-.173,25.307v4.68c0,8.321,0,16.727.173,25.048l9.726,1.04v3.294h-28.405v-3.294l9.726-1.04c.172-8.234.172-16.554.172-25.048v-4.68c0-8.493,0-16.987-.172-25.307h-14.8l-2.582,12.74h-4.735l.776-16.9h51.73l.6,16.9H1285.2l-2.669-12.74Z" fill="#fff"/>
      <path id="Path_441" data-name="Path 441" d="M1321.607,3984.354c-.172,8.234-.172,16.728-.172,25.221v4.68c0,8.321,0,16.727.172,25.048l8.78,1.04v3.294h-26.511v-3.294l8.779-.953c.173-8.321.173-16.641.173-25.135v-4.68c0-8.493,0-16.9-.173-25.221l-8.779-.953v-3.294h26.511v3.294Z" fill="#fff"/>
      <path id="Path_442" data-name="Path 442" d="M1402.518,4011.829c0,20.887-13.859,33.194-28.664,33.194-14.891,0-28.834-11.614-28.834-33.194,0-20.8,14.029-33.2,28.834-33.2C1388.486,3978.634,1402.518,3990.421,1402.518,4011.829Zm-28.664,29.121c13.084,0,18.851-14.128,18.851-29.121,0-14.908-5.767-29.035-18.851-29.035-13.169,0-19.108,14.127-19.108,29.035C1354.746,4026.822,1360.685,4040.95,1373.854,4040.95Z" fill="#fff"/>
      <path id="Path_443" data-name="Path 443" d="M1478.864,3983.4l-7.919,1.126-.086,59.716H1467.5l-38.475-53.215.172,48.015,10.071,1.3v3.294h-22.293v-3.294l7.919-1.127.171-53.735-.946-1.213-6.715-.867v-3.294h14.547l34.862,48.536-.173-44.029-10.072-1.213v-3.294h22.294Z" fill="#fff"/>
    </g>
  </g>
</svg>
