<svg xmlns="http://www.w3.org/2000/svg" width="516.534" height="161.303" viewBox="0 0 516.534 161.303">
  <g id="mob_title_10" transform="translate(-930.277 -11939.13)">
    <path id="Path_1161" data-name="Path 1161" d="M995.788,11946.208a4.454,4.454,0,0,1-2.706,1.388v47.745c0,5.344-1.111,8.259-9.369,9.092-.139-2.43-.485-4.372-1.318-5.413-.9-1.18-2.221-2.013-5.135-2.5v-1.04s5.76.415,6.939.415,1.457-.486,1.457-1.388v-21.375a3.5,3.5,0,0,1-.9.14H974v9.3c0,.694.207.972,1.109.972h3.54a7.559,7.559,0,0,0,1.25-.069,14.337,14.337,0,0,0,1.526-.277h.556l.277.139a2.956,2.956,0,0,1,2.151,3.053c0,2.915-2.221,3.956-8.467,3.956h-3.122c-4.719,0-5.275-1.318-5.275-5.69v-11.381H964.49l-.555-1.943h7.008v-7.5h-5.621l-.554-2.013h10.339c1.041-4.164,2.221-10.548,2.638-13.671l7.842,2.915c-.139.693-.9,1.388-2.429,1.318-1.527,2.29-4.233,6.245-6.871,9.438h2.291l2.637-3.331s2.637,2.082,4.441,3.887v-15.962H963.519v55.24c0,.9-2.638,2.707-5.9,2.707h-1.248v-14.088c-.833,2.567-3.609,3.54-5.969,1.041.139-4.095-1.249-9.16-2.567-12.7l.763-.277c4.789,2.638,7.009,5.69,7.773,8.259v-12.978c-.9,2.221-3.471,2.985-5.76.764a29.1,29.1,0,0,0-.555-4.095l-2.29.833v31.229c0,.485-2.29,2.082-5.831,2.082h-1.247v-21.583c-.209,0-.487.069-.764.069-1.944,6.523-4.789,12.353-8.675,16.17l-.972-.556a72.616,72.616,0,0,0,3.4-19.084l7.01,1.527v-7.356l-5.692,1.944a2.748,2.748,0,0,1-1.943,1.595l-2.568-8.119c1.736,0,4.511-.069,7.843-.208,3.33-6.8,7.008-15.267,9.3-21.514l8.744,3.748v-9.924l7.564,3.331h21.028l3.469-4.095Zm-45.594-3.678c-.277.833-1.249,1.457-2.706,1.457a82.708,82.708,0,0,1-8.883,9.924c6.176,4.441,1.666,10.965-3.053,7.5-.556-3.47-2.985-7.5-5.205-9.993l.694-.417a23.471,23.471,0,0,1,5.621,1.735c1.11-3.816,2.429-8.952,3.4-13.532Zm-2.22,19.223c5.065,2.429,7.564,5.413,8.4,7.911v-17.627a2.777,2.777,0,0,1-2.082.348,165.749,165.749,0,0,1-13.255,16.308c2.637-.139,5.482-.277,8.466-.485a46.731,46.731,0,0,0-2.359-6.107Zm18.389-12.907c11.659,6.385,5.83,15.336,1.666,10.964a24.436,24.436,0,0,0-2.567-10.617Zm15.129,18.876s2.29,1.942,4.164,3.678v-8.05a1.79,1.79,0,0,1-1.388.485h-6.94v7.5h1.389Z" fill="#fff"/>
    <path id="Path_1162" data-name="Path 1162" d="M1021.328,11990.969c3.4-.763,7.01-1.526,10.549-2.359l.277.764c-5.691,3.054-13.88,7.287-25.607,12.491a3.083,3.083,0,0,1-1.8,1.8l-3.47-8.6c1.042-.14,2.36-.416,3.957-.694v-24.775l7.632.694c-.068.624-.485,1.18-1.6,1.318v21.583l2.984-.625V11963h-1.874v.972c0,.486-2.221,2.013-5.76,2.013h-1.249v-24.774l7.911,3.122h7.287l3.4-3.678,7.079,5.413a4.875,4.875,0,0,1-2.638,1.318v15.893c-.138.485-3.608,1.734-5.9,1.734h-1.18v9.3h.9l3.47-5.414s3.956,3.747,6.177,6.245c-.209.764-.9,1.11-1.874,1.11h-8.675Zm-8.952-29.979h8.883v-14.713h-8.883Zm51.076-10.41c-.485.764-1.249.972-2.845,1.11a49.892,49.892,0,0,1-9.022,13.6,54.685,54.685,0,0,0,16.864,6.107l-.139.694c-3.261,1.18-4.927,3.471-5.482,7.355-1.6-.624-3.123-1.249-4.512-1.943l4.512,3.4a4.011,4.011,0,0,1-2.568,1.25v20.194c0,.416-2.568,1.734-6.662,1.734h-1.457v-4.927h-12.284v3.331c0,.555-2.359,1.874-6.315,1.874h-1.318v-26.024a65.088,65.088,0,0,1-6.8,2.359l-.555-.9a55.777,55.777,0,0,0,19.084-14.712,47.074,47.074,0,0,1-4.58-8.466,41.955,41.955,0,0,1-10.756,8.883l-.763-.625c5.066-5.968,9.646-15.476,11.8-25.746l10.272,3.331c-.348.9-1.18,1.526-2.776,1.388-.7,1.6-1.388,3.123-2.152,4.58h7.218l4.3-4.095Zm-8.188,25.191a36.445,36.445,0,0,1-7.912-6.454,53.824,53.824,0,0,1-12.838,8.05l6.107,2.29h11.242Zm-3.123,21.443v-15.545h-12.284v15.545Zm-8.328-46.773a36.527,36.527,0,0,1-3.192,4.649,31.156,31.156,0,0,0,5.9,6.593,47.859,47.859,0,0,0,5.759-11.242Z" fill="#fff"/>
    <path id="Path_1163" data-name="Path 1163" d="M1096,11948.5s4.025,3.262,6.523,5.552c-.209.765-.9,1.041-1.874,1.041h-26.509l-.556-1.874h18.807Zm-3.123,9.091s3.887,3.192,6.246,5.413a1.661,1.661,0,0,1-1.805,1.11H1077.4l-.555-1.942h12.492Zm0,9.092s3.887,3.192,6.246,5.413a1.7,1.7,0,0,1-1.805,1.04H1077.4l-.555-1.942h12.492Zm7.842,15.614a4.3,4.3,0,0,1-2.707,1.318v16.03c0,.556-3.469,2.082-5.9,2.082h-1.249v-4.164H1084v4.511c0,.694-3.123,2.291-6.107,2.291h-1.041v-26.857l7.425,3.054h5.969l3.4-3.608Zm-23.11-35.948-.554-1.942h11.727l3.679-4.789s4.024,3.331,6.453,5.621a1.576,1.576,0,0,1-1.734,1.11Zm13.255,49.272v-13.047H1084v13.047Zm14.643-15.129c2.776,7.564,1.735,13.047-.624,15.684-1.736,1.8-5.2,1.735-6.385-.624-.9-2.151.139-4.164,2.013-5.482a12.687,12.687,0,0,0,3.955-9.577Zm-2.568-34.352-.625-2.013h26.163l3.886-3.816,6.941,5.76a4.292,4.292,0,0,1-2.707,1.249c-.416,15.406-1.319,21.3-4.3,23.734-1.942,1.526-4.372,2.29-7.773,2.29,0-2.151-.138-3.956-1.041-5-.832-1.041-2.5-1.8-4.788-2.359l.07-.9c1.874.139,5.066.277,6.315.277a2.34,2.34,0,0,0,1.874-.555c1.319-1.18,1.873-6.87,2.151-18.668h-8.813c-.417,2.707-.9,5.205-1.527,7.635,7.841,3.815,6.315,10.964.555,9.923a28.307,28.307,0,0,0-3.261-3.123c-2.915,5.69-7.7,10.2-15.824,13.6l-.554-.9a30.321,30.321,0,0,0,10.618-16.795,52.249,52.249,0,0,0-7.634-4.094l.416-.764a44.762,44.762,0,0,1,8.189.139c.278-1.8.486-3.678.694-5.621Zm26.163,49.271c1.8.833,2.22,1.6,2.22,2.984,0,2.776-2.636,4.372-10.756,4.372h-4.789c-5.55,0-6.383-1.388-6.383-6.036v-18.6l8.535.764a27.966,27.966,0,0,0-7.773-6.107l.556-.624c19.153-1.389,16.933,12.977,9.577,10.132a15.043,15.043,0,0,0-2.013-2.984c-.208.694-.833,1.18-1.943,1.388v14.158c0,.833.139,1.109,1.526,1.109h3.471c1.388,0,2.567-.069,3.122-.069a1.585,1.585,0,0,0,1.319-.694,37.081,37.081,0,0,0,2.36-6.384h.763Zm-.139-15.405c17.28,8.466,9.646,22.138,3.331,15.753.069-5.205-1.942-11.1-4.024-15.406Z" fill="#fff"/>
    <path id="Path_1164" data-name="Path 1164" d="M1162.832,11948.567s4.025,3.192,6.454,5.482c-.208.765-.9,1.041-1.874,1.041h-21.027l-.555-1.942h13.532Zm-1.942,9.091s3.747,3.054,6.037,5.205c-.139.764-.833,1.11-1.805,1.11H1148.6l-.554-2.013h9.577Zm0,9.092s3.747,2.983,6.037,5.135c-.139.694-.833,1.041-1.805,1.041H1148.6l-.554-1.873h9.577Zm1.11,9.645,6.731,5.067a3.758,3.758,0,0,1-2.36,1.249v16.517c-.069.555-3.47,2.221-5.829,2.221h-1.18v-3.608h-4.441v4.372c0,.693-2.914,2.221-5.829,2.221h-1.041v-27.551l7.147,2.983h3.54Zm-13.185-30.048-.556-2.013h8.813l3.47-4.511s3.956,3.123,6.315,5.413c-.208.764-.9,1.11-1.874,1.11Zm10.547,49.48v-14.019h-4.441v14.019Zm52.395-24.15c-.278.764-.9,1.18-2.706,1.11a57.056,57.056,0,0,1-6.87,13.394,27.317,27.317,0,0,0,3.053,6.038c.694,1.18.971,1.11,1.6-.209a84.623,84.623,0,0,0,3.331-8.05l.764.139-1.458,11.867c1.735,4.233,2.221,6.662.972,7.564-3.4,2.429-8.12-1.041-10.063-4.095a38.825,38.825,0,0,1-3.539-6.731,47.207,47.207,0,0,1-16.378,10.826l-.624-.833a47.606,47.606,0,0,0,15.128-15.337,101.052,101.052,0,0,1-3.262-21.374h-24.358l-.555-1.943h14.019a79.707,79.707,0,0,0,1.665-12.7l8.744,2.359v-3.192a1.53,1.53,0,0,1-.556.069h-22.484l-.555-1.943h7.633v-8.744l9.646.833c-.069.833-.624,1.458-2.22,1.735v6.176h1.387l2.915-4.3s2.29,1.943,4.165,3.817v-8.883l10.131,1.11c-.138.9-.763,1.734-2.5,2.013-.208,7.425-.278,14.781,0,21.651h2.013l3.816-5.2s4.372,3.539,6.94,6.037c-.208.764-.833,1.11-1.8,1.11h-10.9a108.833,108.833,0,0,0,1.11,11.381,51.889,51.889,0,0,0,2.706-8.675Zm-35.184,21.93v3.678c0,.625-2.776,2.151-5.621,2.151h-1.041v-31.159l6.94,2.915h4.649l3.192-3.4,6.524,4.927a4.362,4.362,0,0,1-2.429,1.249v20.958c-.069.625-3.192,2.22-5.482,2.22h-1.111v-3.538Zm-5.621-42.193c12.977,5.829,6.037,15.268,1.18,10.34a24.486,24.486,0,0,0-2.013-9.993Zm5.621,21.652v8.05h5.621v-8.05Zm5.621,18.528v-8.467h-5.621v8.467Zm9.369-27.551c-.139-3.262-.278-6.662-.347-10.2-.277.765-1.041,1.18-2.429,1.18a45.192,45.192,0,0,1-6.523,9.021Zm8.813-19.778c15.476,5.205,8.189,16.1,2.638,10.9-.209-3.539-1.874-7.7-3.332-10.617Z" fill="#fff"/>
    <path id="Path_1165" data-name="Path 1165" d="M1224.736,11998.672c-2.567-1.527-3.539-3.539-3.539-5.412a5.324,5.324,0,0,1,5.483-5.482,6.487,6.487,0,0,1,4.789,1.942,12.583,12.583,0,0,1,1.041,5.552c0,9.369-7.287,16.309-14.157,18.877l-.9-2.013c5.552-2.984,8.952-6.177,10.479-11.521Z" fill="#fff"/>
    <path id="Path_1166" data-name="Path 1166" d="M986.35,12036.1s5.621,4.3,9.021,7.286c-.139.764-.971,1.11-2.012,1.11H973.581a71.223,71.223,0,0,1-7.218,10.341l3.055,1.11c-.209.624-.834,1.11-2.152,1.318v41.152c-.139.485-3.747,1.873-6.8,1.873h-1.526v-37.821a97.372,97.372,0,0,1-27.968,17.558l-.416-.693c13.81-8.812,26.51-22.624,31.645-34.838H931.8l-.625-2.013h50.1Zm-16.725,22.762c30.535,4.928,27.621,23.04,18.321,19.015-3.747-6.384-12.214-13.948-18.876-18.459Z" fill="#fff"/>
    <path id="Path_1167" data-name="Path 1167" d="M1027.3,12048.315l7.217,6.245c-.555.694-1.18.972-2.707,1.18-.9,8.675-2.36,16.865-5.829,24.081,10.826,7.287,7.079,16.933.485,13.394a29.366,29.366,0,0,0-4.233-7.078c-4.3,5.76-10.478,10.617-19.708,14.087l-.555-.832a39.984,39.984,0,0,0,16.238-17.835,62.2,62.2,0,0,0-6.246-5.344c-.485,1.6-.9,3.123-1.318,4.511-1.527,1.041-4.581,1.18-7.772.208,2.151-6.246,4.927-16.794,7.148-26.51h-7.357l-.625-1.943h8.4c1.6-6.87,2.776-13.185,3.331-17.141l9.993,2.29c-.347.9-1.041,1.526-2.845,1.526-.625,3.123-1.666,7.912-2.915,13.324h5.413Zm-9.785,6.106c-1.528,6.593-3.332,13.88-5.067,19.917a53.706,53.706,0,0,1,7.7,2.359c2.36-6.731,3.4-14.3,3.956-22.276Zm49.758-8.05a4.935,4.935,0,0,1-2.846,1.457v47.19c-.139.624-3.817,2.5-6.732,2.5h-1.249v-7.911h-12.492v6.245c0,.972-2.914,2.846-6.453,2.846h-1.25v-57.6l8.051,3.47h11.45l3.817-4.3Zm-10.827,41.291v-41.152h-12.492v41.152Z" fill="#fff"/>
    <path id="Path_1168" data-name="Path 1168" d="M1131.949,12050.883s4.164,2.984,6.87,5.205c-.208.763-.9,1.11-1.942,1.11h-11.312c-.139,2.29-.278,4.788-.417,6.8a10.032,10.032,0,0,1-1.735.763l6.523,4.858a3.017,3.017,0,0,1-2.151,1.111v17.9c-.069.485-4.094,1.943-6.662,1.943h-1.388v-1.388h-21.443l6.87,4.927c-.625.694-1.943.972-3.955.416-6.038,3.054-16.309,5.344-26.024,5.83l-.279-.972c7.982-2.082,16.309-6.315,20.959-10.2H1093.5c-.556.763-3.818,2.291-6.732,2.291h-1.18v-26.858l.694.278c.417-2.36.833-5,1.18-7.7H1075.6l-.556-1.943h12.7c.486-3.608.9-7.147,1.111-9.577l7.912,3.054h21.3l2.914-3.608,6.385,4.65c.347-1.6.695-3.54.972-5.206h-43.373c.208,4.025-1.458,6.871-3.54,8.051-2.012,1.11-5.066.555-5.828-1.943-.7-2.29.832-4.095,2.914-5.066a7.975,7.975,0,0,0,4.233-6.662h1.04a15.616,15.616,0,0,1,.973,3.608h17.488v-7.355l11.033.833c-.138.972-.693,1.665-2.567,1.942v4.58h17.14l4.026-4.024,6.939,6.662c-.554.624-1.249.764-2.706.9a42.435,42.435,0,0,1-8.466,5.829l-.555-.416a4.17,4.17,0,0,1-1.319.416c0,.9-.07,2.082-.139,3.331h2.5Zm-10.132,14.157a20.608,20.608,0,0,1-4.094-.069l.138-1.249h-24.01l-.14.832c-1.665.9-3.4,1.18-6.8.625l7.149,2.775h25.052Zm-2.082,9.16v-4.3h-26.163v4.3Zm-26.163,6.454h26.163v-4.441h-26.163Zm26.163,6.523v-4.511h-26.163v4.511Zm-25.051-29.979c-.209,1.526-.417,3.122-.556,4.58h7.98c.14-1.318.347-2.915.486-4.58Zm.624-6.454c-.07,1.319-.278,2.845-.417,4.511h7.842c.139-1.6.278-3.123.347-4.511Zm22.762,11.034c.139-1.527.208-3.054.278-4.58h-8.675c-.139,1.665-.277,3.262-.485,4.58Zm-7.912-11.034c-.069,1.388-.208,2.984-.347,4.511h8.675c.07-1.6.139-3.191.208-4.511Zm.14,39.765c37.891.069,24.705,13.879,17.556,8.744-3.261-2.568-9.3-5.83-17.765-7.843Z" fill="#fff"/>
    <path id="Path_1169" data-name="Path 1169" d="M1160.959,12079.336c2.914-1.041,5.9-2.151,8.813-3.331l.278.693a212.342,212.342,0,0,1-19.293,14.921,3,3,0,0,1-1.665,2.082l-4.026-9.23c1.874-.485,4.789-1.388,8.259-2.5v-23.179h-6.731l-.556-1.943h7.287v-20.056l10.2.972c-.138.972-.625,1.666-2.567,1.943v17.141h.485l3.47-5.9a84.607,84.607,0,0,1,5.969,6.731,1.627,1.627,0,0,1-1.736,1.11h-8.188Zm47.051,9.993c2.567.9,3.4,1.873,3.4,3.331,0,3.886-3.678,5.273-19.153,5.273h-9.577c-8.466,0-11.52-1.457-11.52-8.258V12063.1l-6.8,2.5-1.318-1.665,8.119-2.984V12041.1l10.271,1.11c-.139.9-.764,1.666-2.5,1.943v13.948l6.106-2.221v-20.472l9.993,1.041c-.138.972-.624,1.665-2.5,1.943v14.781l5.691-2.082.694-.208h-.139l4.025-3.887,7.079,5.83a4.3,4.3,0,0,1-2.707,1.249c-.208,18.39-.833,23.456-3.747,25.954-1.805,1.666-4.234,2.359-7.218,2.359,0-2.359-.069-4.163-.763-5.2a4.588,4.588,0,0,0-2.915-2.082v8.813c0,.763-3.262,2.29-6.106,2.29h-1.389v-28.176l-6.106,2.221v27.343c0,2.082,1.041,2.707,4.649,2.707h9.368c3.471,0,6.316-.069,7.773-.209a3.378,3.378,0,0,0,2.568-1.041c.9-1.318,2.221-4.788,3.678-9.576h.763Zm-15.476-34v18.737c1.041.069,2.706.139,3.609.139a2.1,2.1,0,0,0,1.735-.556c1.11-1.18,1.526-6.522,1.665-20.888Z" fill="#fff"/>
    <path id="Path_1170" data-name="Path 1170" d="M1279.838,12090.786c2.221.833,2.707,1.735,2.707,3.262,0,3.262-2.915,4.788-14.574,4.788h-7.217c-6.939,0-8.467-1.388-8.467-6.73v-16.795h-5.273c-1.6,14.227-9.855,21.722-29.009,24.844l-.277-.832c14.434-5,19.431-12.283,20.332-24.012h-1.318v1.388c0,.9-3.4,2.776-6.8,2.776h-1.249v-43.1l8.606,3.47h25.19l3.887-4.3,7.911,6.107a5.171,5.171,0,0,1-2.915,1.526v33.449c-.069.556-4.024,2.221-6.8,2.221h-1.387v-3.539h-3.054v14.921c0,.971.278,1.25,2.43,1.25h6.245c2.22,0,4.233,0,5.205-.071a1.771,1.771,0,0,0,1.734-1.04c.695-1.25,1.736-4.789,3.123-9.23h.833Zm-43.1-48.994v9.022h26.441v-9.022Zm26.441,10.965h-26.441v9.3h26.441Zm-26.441,20.541h26.441v-9.3h-26.441Z" fill="#fff"/>
    <path id="Path_1171" data-name="Path 1171" d="M1306.21,12044.567s4.025,3.192,6.454,5.482c-.208.765-.9,1.041-1.874,1.041h-21.026l-.556-1.942h13.532Zm-1.942,9.091s3.747,3.054,6.037,5.205c-.139.764-.833,1.11-1.805,1.11h-16.516l-.555-2.013h9.577Zm0,9.092s3.747,2.983,6.037,5.135c-.139.694-.833,1.041-1.805,1.041h-16.516l-.555-1.873h9.577Zm1.11,9.645,6.731,5.067a3.758,3.758,0,0,1-2.359,1.249v16.517c-.07.555-3.471,2.221-5.83,2.221h-1.18v-3.608H1298.3v4.372c0,.693-2.914,2.221-5.829,2.221h-1.041v-27.551l7.147,2.983h3.54Zm-13.186-30.048-.555-2.013h8.813l3.47-4.511s3.956,3.123,6.315,5.413c-.208.764-.9,1.11-1.874,1.11Zm10.548,49.48v-14.019H1298.3v14.019Zm52.4-24.15c-.278.764-.9,1.18-2.706,1.11a57.083,57.083,0,0,1-6.87,13.394,27.321,27.321,0,0,0,3.052,6.038c.7,1.18.972,1.11,1.6-.209a84.626,84.626,0,0,0,3.331-8.05l.764.139-1.458,11.867c1.735,4.233,2.22,6.662.971,7.564-3.4,2.429-8.119-1.041-10.062-4.095a38.758,38.758,0,0,1-3.539-6.731,47.207,47.207,0,0,1-16.378,10.826l-.624-.833a47.6,47.6,0,0,0,15.128-15.337,100.989,100.989,0,0,1-3.262-21.374h-24.358l-.555-1.943h14.018a79.584,79.584,0,0,0,1.666-12.7l8.744,2.359v-3.192a1.531,1.531,0,0,1-.556.069h-22.484l-.555-1.943h7.634v-8.744l9.645.833c-.069.833-.624,1.458-2.22,1.735v6.176h1.387l2.915-4.3s2.29,1.943,4.164,3.817v-8.883l10.132,1.11c-.138.9-.763,1.734-2.5,2.013-.209,7.425-.278,14.781,0,21.651h2.012l3.817-5.2s4.372,3.539,6.94,6.037c-.208.764-.833,1.11-1.8,1.11h-10.9a108.537,108.537,0,0,0,1.11,11.381,51.888,51.888,0,0,0,2.706-8.675Zm-35.184,21.93v3.678c0,.625-2.776,2.151-5.621,2.151h-1.041v-31.159l6.94,2.915h4.649l3.192-3.4,6.524,4.927a4.363,4.363,0,0,1-2.429,1.249v20.958c-.069.625-3.192,2.22-5.482,2.22h-1.111v-3.538Zm-5.621-42.193c12.977,5.829,6.037,15.268,1.18,10.34a24.484,24.484,0,0,0-2.013-9.993Zm5.621,21.652v8.05h5.621v-8.05Zm5.621,18.528v-8.467h-5.621v8.467Zm9.368-27.551c-.138-3.262-.277-6.662-.346-10.2-.278.765-1.041,1.18-2.429,1.18a45.193,45.193,0,0,1-6.523,9.021Zm8.814-19.778c15.475,5.205,8.189,16.1,2.637,10.9-.208-3.539-1.873-7.7-3.331-10.617Z" fill="#fff"/>
    <path id="Path_1172" data-name="Path 1172" d="M1384.284,12069.966a5.726,5.726,0,1,1,5.761,5.69A5.761,5.761,0,0,1,1384.284,12069.966Z" fill="#fff"/>
    <path id="Path_1173" data-name="Path 1173" d="M1409.822,12069.966a5.726,5.726,0,1,1,5.76,5.69A5.761,5.761,0,0,1,1409.822,12069.966Z" fill="#fff"/>
    <path id="Path_1174" data-name="Path 1174" d="M1435.36,12069.966a5.726,5.726,0,1,1,5.761,5.69A5.761,5.761,0,0,1,1435.36,12069.966Z" fill="#fff"/>
  </g>
</svg>
