<svg xmlns="http://www.w3.org/2000/svg" width="577.869" height="85.356" viewBox="0 0 577.869 85.356">
  <g id="mob_subtitle" transform="translate(-932.936 -1390.948)">
    <g id="Group_248" data-name="Group 248">
      <g id="Group_247" data-name="Group 247">
        <path id="Path_1567" data-name="Path 1567" d="M1004.344,1397.986h14.117V1417.8h-4.955V1415.8h-9.162v12.386H999.39V1415.8h-8.808v2.2h-4.758v-20.015H999.39V1391.1l6.055.354c-.039.393-.314.629-1.1.747Zm-13.762,13.173h8.808v-8.533h-8.808Zm13.762,0h9.162v-8.533h-9.162Z" fill="#fff"/>
        <path id="Path_1568" data-name="Path 1568" d="M1055.539,1394.723l3.067,1.376c-.079.275-.314.432-.51.629a28.566,28.566,0,0,1-5.27,9.988,25.341,25.341,0,0,0,8.219,4.443,17.7,17.7,0,0,0-2.949,3.972l-.158-.079v13.015h-4.522v-1.337h-7.471v1.455h-4.365v-12.779l-.9.393a18.775,18.775,0,0,0-1.3-2.005v.668h-4.759v5.387l5.152-1.14.432,3.971c-5.388,1.416-11.05,2.831-14.745,3.736a.9.9,0,0,1-.63.708l-1.769-4.916,1.809-.353V1408.6l4.8.275c-.039.354-.314.551-.943.669v11.56l1.69-.353v-14.982h-5.269v-13.134h13.645v9.792a29.323,29.323,0,0,0,6.645-11.325l5.151,1.533a1.05,1.05,0,0,1-1.062.433c-.236.629-.472,1.219-.747,1.848h5.977Zm-26.306,1.966v5.033h5.23v-5.033Zm10.146,13.644v1.259a26.429,26.429,0,0,0,7.431-4.955,24.531,24.531,0,0,1-2.6-3.736,30.468,30.468,0,0,1-2.752,3.068,28.4,28.4,0,0,0-2.674-2.438v2.241h-4.169v4.561Zm15.414,3.225a28.8,28.8,0,0,1-4.955-3.657,31.32,31.32,0,0,1-4.836,3.657Zm-8.848,9.122h7.471v-5.151h-7.471Zm.629-23.4a31.442,31.442,0,0,0,2.989,4.286,24.539,24.539,0,0,0,2.791-4.679h-5.544Z" fill="#fff"/>
        <path id="Path_1569" data-name="Path 1569" d="M1099.736,1396.138v4.6h-15.454v.039h.669c-.04.393-.354.629-1.062.747v3.382h12.5v13.409c0,4.364-1.769,5.151-9.162,5.151a16.584,16.584,0,0,0-1.573-4.64c2.006.078,4.326.078,4.955.078s.866-.2.866-.668v-8.729h-7.59v18.756h-4.954v-18.756h-6.921v13.959h-4.8v-18.56h11.718v-4.168H1063.48v-4.6H1078.9v-5.19l6.134.353c-.039.394-.353.669-1.061.787v4.05Z" fill="#fff"/>
        <path id="Path_1570" data-name="Path 1570" d="M1139.8,1402.7h-2.909c-.906,5.859-2.321,10.774-4.6,14.785a19.324,19.324,0,0,0,7.865,6.645,17.912,17.912,0,0,0-3.185,4.05,22.442,22.442,0,0,1-7.628-6.566,25.627,25.627,0,0,1-9.791,6.685,22.238,22.238,0,0,0-2.36-4.051,20.6,20.6,0,0,0,9.633-6.8,44.622,44.622,0,0,1-2.988-7.9,25.42,25.42,0,0,1-1.887,2.831,22.836,22.836,0,0,0-3.461-3.264l.039-.039h-3.224v8.415c1.769-.354,3.539-.747,5.269-1.1l.433,4.483c-5.977,1.454-12.386,2.87-16.437,3.774a.919.919,0,0,1-.747.708l-1.533-5.426c.747-.118,1.533-.275,2.4-.393v-16.948l5.072.275c-.039.354-.315.59-.944.708v15.178l2.044-.393v-20.644h-7.628v-4.365h17.892v4.365h-5.82v7.117h4.4v2.517c2.438-4.011,4.129-10.145,4.994-16.24l5.662,1.14c-.117.354-.431.551-1.06.59-.316,1.848-.709,3.7-1.18,5.505H1139.8Zm-12.937,0-.157.472a45.149,45.149,0,0,0,2.87,9.476,40.332,40.332,0,0,0,2.6-9.948Z" fill="#fff"/>
        <path id="Path_1571" data-name="Path 1571" d="M1179.516,1407.188H1156.08v-3.972h-2.713v7.314l4.128-.787.079,1.023h11.954v-3.3l5.7.236c-.039.393-.314.629-1.022.747v2.32h4.8v4.325h-4.8v8.14c0,4.4-1.69,4.994-8.532,4.994a17.318,17.318,0,0,0-1.377-4.483c1.809.079,3.853.079,4.443.079.59-.039.787-.157.787-.669v-8.061h-12.662v-1.022l-3.5.9v13.252h-4.522v-12.151c-1.613.393-3.107.748-4.325,1.023a.832.832,0,0,1-.709.668l-1.533-5.269c1.77-.275,4.05-.668,6.567-1.14v-8.14h-2.321a33.556,33.556,0,0,1-1.69,5.662A21.761,21.761,0,0,0,1142,1406.4c1.1-3.067,1.729-8.375,2.084-13.251l4.679,1.1a.852.852,0,0,1-.944.472c-.118,1.3-.314,2.673-.511,4.01h1.534v-7.589l5.544.315c-.039.354-.315.59-1.022.707v6.567h4.089v4.09h7.864v-3.5h-7.038v-4.286h7.038V1391.1l5.741.314c-.039.394-.353.63-1.061.787v2.831h7.314v4.286H1170v3.5h9.516Zm-17.262,16.751a29.212,29.212,0,0,0-3.775-6.213l3.657-1.888a29.171,29.171,0,0,1,3.971,5.977Z" fill="#fff"/>
        <path id="Path_1572" data-name="Path 1572" d="M1218.954,1422.366v4.286h-30.2v1.573h-4.6v-35.744h33.739v4.168h-29.138v25.717Zm-27.8-1.966v-10.7h10.931v10.7Zm3.814-7.511v4.326h3.067v-4.326Zm15.807-14.391v9.476H1195.2V1398.5Zm-4.679,6.37V1401.6h-6.488v3.264Zm8.965,4.836v10.7h-11.207v-10.7Zm-4.089,7.511v-4.326h-3.224v4.326Z" fill="#fff"/>
        <path id="Path_1573" data-name="Path 1573" d="M1232.832,1401.879a31.051,31.051,0,0,1,7.314,3.775l-2.517,4.05a31.224,31.224,0,0,0-7.156-4.168Zm-1.061,22.846a130.666,130.666,0,0,0,6.6-12.662l3.7,2.832c-1.808,4.168-3.931,8.532-5.662,11.6a1.239,1.239,0,0,1,.315.747.957.957,0,0,1-.2.589Zm3.5-33.463a29.575,29.575,0,0,1,7.2,3.932l-2.6,3.932a28.339,28.339,0,0,0-7.038-4.325Zm13.762,15.572,2.831.983a1.709,1.709,0,0,1-.392.629c-1.141,7.432-4.051,13.566-8.573,17.184a16.157,16.157,0,0,0-2.949-3.422c2.87-2.162,5.152-6.33,6.37-10.892h-4.876v-4.364h6.8Zm8.022-2.753a44.879,44.879,0,0,0,1.809,5.348,51.006,51.006,0,0,0,4.719-6.056l4.6,3.579a1.474,1.474,0,0,1-1.22.236,61.266,61.266,0,0,1-6.252,5.977,22.163,22.163,0,0,0,7.55,8.218,18.859,18.859,0,0,0-3.382,4.05,26.356,26.356,0,0,1-7.825-10.5v8.1c0,4.4-1.691,5.151-8.73,5.151a15.627,15.627,0,0,0-1.415-4.482c1.141.039,2.36.079,3.3.079,2.163,0,2.359,0,2.359-.787v-19.15h-7.431v-4.482h11.914Zm-8.257-13.055a52.2,52.2,0,0,1,12.465,3.932l-1.927,4.444a55.469,55.469,0,0,0-12.348-4.444Z" fill="#fff"/>
        <path id="Path_1574" data-name="Path 1574" d="M1272.86,1402a28.022,28.022,0,0,1,7.354,3.775l-2.714,3.932a30.4,30.4,0,0,0-7.156-4.168Zm-1.376,22.728a127.668,127.668,0,0,0,7.077-12.662l3.58,2.95a125.421,125.421,0,0,1-6.1,11.639,1.077,1.077,0,0,1,.275.708,1.189,1.189,0,0,1-.2.629Zm3.7-33.384a28.227,28.227,0,0,1,7.195,3.893l-2.713,3.892a28.364,28.364,0,0,0-7.039-4.325Zm14.194,28.823c0,2.281.354,2.674,2.989,2.674h8.179c2.2,0,2.635-.865,2.988-4.8a12.945,12.945,0,0,0,4.168,1.69c-.59,5.545-2.045,7.354-6.763,7.354h-8.926c-5.583,0-7.156-1.455-7.156-6.921v-9.516l-2.832,1.18-1.965-4.129,4.8-2.006v-10.066l5.543.314c-.039.394-.314.59-1.022.748v7.117l3.265-1.376v-11.286l5.268.275c-.039.354-.314.59-1.022.708v8.533l4.247-1.769,1.219-.905,3.7,1.416a1.765,1.765,0,0,1-.629.55c-.039,7.118-.079,12.033-.315,13.724-.275,2.831-1.455,4.365-6.724,4.207a13.636,13.636,0,0,0-1.023-4.365c.827.04,1.927.079,2.439.079s.825-.157.983-.944c.118-.707.2-3.381.236-8.847l-4.129,1.769v13.213h-4.246v-11.4l-3.265,1.376Z" fill="#fff"/>
        <path id="Path_1575" data-name="Path 1575" d="M1324.527,1402.43h-3.775l4.286,1.494c-.118.393-.551.511-1.061.472a54.451,54.451,0,0,1-2.871,4.994l1.612.314c-.078.354-.393.629-1.062.708v17.734h-4.639V1414.9a40.233,40.233,0,0,1-3.854,3.893,30.4,30.4,0,0,0-3.46-3.264,36.2,36.2,0,0,0,10.026-13.448l.119.039v-2.556h-8.73v-4.522h8.73v-3.893l5.741.275c-.039.394-.355.63-1.062.787v2.831h8.375v-3.893l5.742.275c-.04.433-.315.63-1.023.787v2.831h8.651v4.522h-8.651v2.949H1332.9v-2.949h-8.375Zm9.044,18.914c0,1.769.276,2.005,2.005,2.005h5.191c1.652,0,1.926-.944,2.163-5.859a14.378,14.378,0,0,0,4.286,1.887c-.551,6.41-1.809,8.337-6.017,8.337h-6.213c-4.8,0-6.094-1.455-6.094-6.37v-18.325l5.741.315c-.039.354-.354.629-1.062.747v7.235a52.333,52.333,0,0,0,8.651-5.151l3.775,3.775a1.2,1.2,0,0,1-.983.2,74.29,74.29,0,0,1-11.443,5.466Z" fill="#fff"/>
        <path id="Path_1576" data-name="Path 1576" d="M1351.461,1392.638h33.856v35.587h-4.6v-1.416H1355.9v1.416h-4.443Zm4.443,29.925h24.813v-25.678H1355.9Zm20.88-9.988,3.225,2.162a1,1,0,0,1-.983.236c-.865.59-2.242,1.416-3.461,2.124a23.667,23.667,0,0,0,4.68,1.651,13.529,13.529,0,0,0-2.438,2.949,23.042,23.042,0,0,1-8.022-4.482v4.482h-4.129v-4.05a38.642,38.642,0,0,1-6.881,3.146,30.41,30.41,0,0,0-2.32-2.831,32.093,32.093,0,0,0,9.162-4.286h-5.741v-6.528h16.634v5.662Zm2.517-9.32v2.674h-22.06v-2.674h8.848v-1.494h-6.8v-2.595h6.8v-1.809l5.308.315c-.039.314-.314.55-1.022.668v.826h6.921v2.595h-6.921v1.494Zm-15.492,6.174v1.927h8.572v-1.927Zm7.2,4.247-.235.236a12.1,12.1,0,0,0,2,1.651c.866-.55,1.81-1.258,2.674-1.887Z" fill="#fff"/>
        <path id="Path_1577" data-name="Path 1577" d="M1418.66,1401.6c.2,3.735.511,7.392.9,10.617a41.2,41.2,0,0,0,2.241-7.353l4.955,1.14c-.079.314-.433.55-1.023.55a43.186,43.186,0,0,1-5.033,12.544c.708,2.91,1.494,4.758,2.319,4.758.63,0,1.023-1.966,1.141-6.095a10.883,10.883,0,0,0,3.225,2.713c-.708,6.213-1.927,7.786-4.955,7.786-2.044,0-3.618-1.887-4.8-4.915a26.875,26.875,0,0,1-5.427,4.718,19.364,19.364,0,0,0-2.988-2.949,22.215,22.215,0,0,0,7-6.684,110.981,110.981,0,0,1-1.849-16.83h-8.179v4.522h4.405l.864-.039,2.124.078v1.3c-.118,8.375-.315,11.718-1.1,12.779-.707,1.062-1.533,1.613-5.583,1.5a10.473,10.473,0,0,0-.944-3.815,17.239,17.239,0,0,0,2.2.119.992.992,0,0,0,.943-.472c.316-.512.473-2.4.551-7.629h-3.46c-.079,5.82-.944,13.645-5.308,18.442a14.375,14.375,0,0,0-3.46-2.871,16.9,16.9,0,0,0,3.774-8.1c-3.382,1.612-6.921,3.185-9.28,4.208a.9.9,0,0,1-.59.786l-2.084-5.19c1.22-.393,2.753-.9,4.4-1.495v-11.167h-3.539v-4.443h3.539v-8.573l5.27.276c-.04.353-.315.59-1.023.707v7.59h3.264v4.443H1397.9v9.595l2.989-1.1.59,2.713a43.979,43.979,0,0,0,.393-6.646v-11.8h12.347q-.119-3.126-.118-6.134l5.505.314c-.039.393-.393.59-1.1.708-.039,1.651-.039,3.382,0,5.112h4.247a25.539,25.539,0,0,0-3.421-4.286l3.264-1.888a22.41,22.41,0,0,1,3.971,4.758l-2.4,1.416h2.2v4.286Z" fill="#fff"/>
        <path id="Path_1578" data-name="Path 1578" d="M1434.073,1415.209v-9.083c-.708.865-1.416,1.691-2.163,2.438a29.376,29.376,0,0,0-2.752-3.814c3.381-3.382,6.213-9.123,7.55-13.566l5.466,1.612a1.025,1.025,0,0,1-1.023.511,58.631,58.631,0,0,1-2.673,5.938l1.139.353a1.126,1.126,0,0,1-1.022.63v14.981Zm20.723-.275h-4.208a1.409,1.409,0,0,1-.433.079v1.887h11.562v3.972h-11.562v2.555h15.69v4.051h-36.019v-4.051h15.454v-2.555h-11.325V1416.9h11.325v-2.949l4.954.315v-4.6a26.962,26.962,0,0,1-8.533,5.308,18.316,18.316,0,0,0-2.752-3.3,26.442,26.442,0,0,0,8.769-4.482h-7.825v-3.539h10.341v-1.809h-7.078v-9.516h19.072v9.516h-6.764a1.951,1.951,0,0,1-.668.2v1.613h10.852v3.539h-7.9a31.625,31.625,0,0,0,8.651,4.246,18.844,18.844,0,0,0-2.91,3.461,31.016,31.016,0,0,1-8.69-5.7Zm-7.274-19.228v2.713h10.026v-2.713Z" fill="#fff"/>
      </g>
    </g>
    <g id="Group_250" data-name="Group 250">
      <g id="Group_249" data-name="Group 249">
        <path id="Path_1579" data-name="Path 1579" d="M1174.955,1457.586h-9.279v4.562h11.088v4.128h-11.088v4.758h14.667v4.208h-33.778v-4.208h14.156v-4.758H1149.75v-4.128h10.971v-4.562h-8.965v-3.146a51.346,51.346,0,0,1-4.4,2.753,18.866,18.866,0,0,0-2.95-3.775c6.8-3.46,13.33-9.634,16.241-14.549l6.291.354a1.116,1.116,0,0,1-1.022.786,43.946,43.946,0,0,0,16.475,12.819,21.951,21.951,0,0,0-3.145,4.247c-1.416-.786-2.871-1.691-4.287-2.635Zm-1.415-4.168a48.265,48.265,0,0,1-10.381-9.83,45.638,45.638,0,0,1-9.987,9.83Z" fill="#fff"/>
        <path id="Path_1580" data-name="Path 1580" d="M1196.463,1463.052v.59c1.258.747,4.876,3.381,5.78,4.089l-2.674,3.382c-.708-.787-1.887-1.966-3.106-3.106v8.218H1191.9v-7.55a25.4,25.4,0,0,1-4.8,5.151,18.963,18.963,0,0,0-3.067-3.342,25.255,25.255,0,0,0,7.117-7.432h-6.094v-3.971h6.841v-2.871h-7.313v-3.893h3.892a19.208,19.208,0,0,0-1.336-4.522l2.555-.747h-4.325v-3.854h6.527v-4.05l5.584.275c-.04.394-.315.63-1.022.747v3.028h6.409v3.854h-3.932l3.185.826c-.117.275-.432.432-.982.471a32.2,32.2,0,0,1-1.849,3.972h4.4v3.893h-6.37a1.373,1.373,0,0,1-.865.354v2.517h6.645v3.971Zm-1.18-10.774a48.025,48.025,0,0,0,1.731-5.23h-6.1a21.139,21.139,0,0,1,1.534,5.19l-.235.079h3.184Zm26.307-.04v4.365h-3.815v19.622h-4.6V1456.6h-3.933c0,5.82-.865,14.274-6.174,19.7a10.9,10.9,0,0,0-3.341-3.225c4.6-4.8,5.033-11.443,5.033-16.751v-13.566l2.437.708a41.573,41.573,0,0,0,9.6-4.286l4.443,3.381c-.236.236-.63.236-1.1.236a61.092,61.092,0,0,1-10.893,4.09v5.347Z" fill="#fff"/>
        <path id="Path_1581" data-name="Path 1581" d="M1249.586,1469.855c0,1.258.235,1.455,1.65,1.455h3.933c1.3,0,1.534-.669,1.69-4.8a15.924,15.924,0,0,0,4.248,1.809c-.511,5.741-1.73,7.235-5.505,7.235h-5.073c-4.6,0-5.7-1.376-5.7-5.662v-7.51H1240.5a1.332,1.332,0,0,1-.943.432c-1.18,5.78-2.911,10.656-12.859,13.448a13.744,13.744,0,0,0-2.714-4.207c8.219-1.849,9.792-5.152,10.5-9.673h-9.437v-4.444h35.429v4.444h-10.892Zm-18.914-21.785v4.955h-4.8v-9.4h14.234V1439.1l6.173.314c-.039.433-.353.669-1.139.787v3.421h14.47v9.4h-5.033v-4.955Zm22.217,7.078h-20.448V1450.9h20.448Z" fill="#fff"/>
        <path id="Path_1582" data-name="Path 1582" d="M1284.974,1468.714h15.217v4.758h-35.429v-4.758h15.06v-20.722h-13.173v-4.758h31.694v4.758h-13.369Z" fill="#fff"/>
      </g>
    </g>
    <path id="Path_1583" data-name="Path 1583" d="M1476.351,1396h33.872v77H1309" fill="none" stroke="#fff" stroke-miterlimit="10" stroke-width="1.163"/>
    <path id="Path_1584" data-name="Path 1584" d="M1134,1473H933.517v-77h35.1" fill="none" stroke="#fff" stroke-miterlimit="10" stroke-width="1.163"/>
  </g>
</svg>
