<svg xmlns="http://www.w3.org/2000/svg" width="592.354" height="45.431" viewBox="0 0 592.354 45.431">
  <g id="mob_title_5" transform="translate(-921.214 -6240.679)">
    <g id="Group_105" data-name="Group 105">
      <path id="Path_700" data-name="Path 700" d="M958.127,6252.9a42.3,42.3,0,0,1-10.828,19.828,55.328,55.328,0,0,0,18.913,7.844l-.1.578a7.2,7.2,0,0,0-6.015,4.957,42.608,42.608,0,0,1-16.555-10.01c-5.583,4.379-12.8,7.748-22.042,9.866l-.289-.53c8.326-3.128,14.823-7.363,19.587-12.416-3.994-5.1-6.833-11.647-8.422-20.117h-10.3l-.385-1.3H940.85v-10.588l7.6.625c-.1.674-.48,1.155-1.78,1.348v8.615h9.866l3.416-4.573s3.8,3.08,6.017,5.1c-.145.529-.626.77-1.348.77Zm-24.881,0a34.8,34.8,0,0,0,10.347,16.892A39.345,39.345,0,0,0,951.1,6252.9Z" fill="#bf956d"/>
      <path id="Path_701" data-name="Path 701" d="M985.031,6255.887c-.193.529-.578.914-1.781.866-2.84,6.16-7.748,13.668-15.111,18.288l-.434-.433c4.957-6.064,8.182-15.256,9.434-21.8Zm10.779-13.62c-.095.722-.577,1.155-1.78,1.347v35.181c0,4.139-1.01,6.5-8.47,7.171-.193-1.974-.578-3.321-1.587-4.284-1.06-.914-2.455-1.588-5.68-2.117v-.626s7.123.385,8.518.385c.962,0,1.252-.289,1.252-1.01v-36.769Zm11.167,30.175c-.963-6.353-5.1-13.523-9.048-18.673l.529-.337C1018.286,6262.817,1013.57,6277.832,1006.977,6272.442Z" fill="#bf956d"/>
      <path id="Path_702" data-name="Path 702" d="M1068,6269.169s2.5,2.359,3.851,3.947c-.145.53-.579.77-1.252.77h-44.8l-.434-1.347h4.717l-.626-29.021,3.706,1.155c1.059-1.443,2.165-3.128,2.7-3.994l3.08,2.935v-1.2l4.379,1.781h9.529l2.068-2.118,3.514,2.744-.145-.53h3.177l2.165-2.7,4.91,4.091a2.834,2.834,0,0,1-1.83.722l-.529,25.651Zm-42.544,16.267c5.486-2.791,11.117-7.556,13.717-11.165l7.314,3.9c-.336.578-1.2.866-2.791.674-4.043,2.888-10.972,5.679-18,7.123Zm13.283-40.522a31.707,31.707,0,0,1-4.523,1.444l.144,7.315h.481l1.637-2.792s1.443,1.493,2.455,2.744v-8.615Zm-4.138,18.192h.24l1.685-2.936s1.347,1.444,2.407,2.7v-7.989a1.546,1.546,0,0,1-.674.145h-3.851Zm.192,9.433h4.14v-8.23a1.816,1.816,0,0,1-.579.1H1034.6Zm8.278-26.951v26.951h10.2V6251.17a1.351,1.351,0,0,1-1.01.337h-8.182l-.385-1.4h4.524l1.877-2.454s1.877,1.54,3.176,2.84v-4.909Zm4.139,22.619c0,.241-1.155.866-2.311.866h-.384V6254.01l2.887,1.3h1.3l1.444-1.4,2.935,2.261a2.168,2.168,0,0,1-1.252.626v10.4c0,.337-1.443,1.011-2.357,1.011h-.434v-2.165h-1.828Zm0-11.5v7.941h1.828v-7.941Zm5.679,18.914c25.7,2.647,15.833,13.956,11.02,9.24a26.993,26.993,0,0,0-11.262-8.663Zm5.774-30.128a4.672,4.672,0,0,1-1.2.53v26.518h3.85l.193-8.134h-3.031l-.434-1.3h3.465l.193-8.085h-3.033l-.433-1.348h3.513l.145-7.989h-3.176Z" fill="#bf956d"/>
      <path id="Path_703" data-name="Path 703" d="M1116.8,6252.807a3.432,3.432,0,0,1-1.974,1.058V6269.7c-.048.385-3.032,1.444-5.005,1.444h-1.01V6267.1h-10.829v16.844c0,.626-2.6,2.07-4.909,2.07h-1.107V6267.1h-10.732v2.84c0,.577-2.647,1.925-5.1,1.925h-.866v-22.908l6.4,2.5h10.3v-10.54l7.8.722c-.1.674-.481,1.2-1.781,1.4v8.422h10.4l2.7-2.984Zm-24.834,12.9v-12.85h-10.732v12.85Zm16.845,0v-12.85h-10.829v12.85Z" fill="#bf956d"/>
      <path id="Path_704" data-name="Path 704" d="M1137.306,6270.662v4.812c0,.337-1.637,1.733-4.284,1.733h-.914v-34.17l5.824,2.262h5l2.6-2.839,5.15,4.09a3.308,3.308,0,0,1-1.973,1.011v25.459c-.049.433-2.5,1.78-4.428,1.78h-.866v-4.138Zm0-23.968v10.492h6.112v-10.492Zm6.112,22.572v-10.684h-6.112v10.684Zm31.522-23.582a3.3,3.3,0,0,1-2.021.963v32.725c0,3.8-.866,6.016-7.508,6.594-.192-1.733-.529-3.032-1.4-3.851-.914-.866-2.214-1.491-5.005-1.925v-.673s6.16.337,7.363.337c.962,0,1.2-.289,1.2-1.059v-11.021h-9.625c-1.2,7.075-4.717,13.764-14.871,18.192l-.434-.434c9.1-6.978,10.492-15.689,10.492-25.7v-17.662l6.112,2.214h7.845l2.454-2.888Zm-7.363,20.694v-9.673h-9.1v3.08a60.65,60.65,0,0,1-.336,6.593Zm-9.1-20.6v9.529h9.1v-9.529Z" fill="#bf956d"/>
      <path id="Path_705" data-name="Path 705" d="M1216.522,6278.795s3.418,2.791,5.439,4.716c-.145.53-.674.77-1.348.77h-42.976l-.385-1.347h19.972v-7.123h-12.658l-.384-1.3h13.042v-6.064h-8.038a28.605,28.605,0,0,1-10.009,7.748l-.53-.433a39.67,39.67,0,0,0,8.182-14.1,12.763,12.763,0,0,1-1.348.1h-.866v-20.117l6.305,2.455h17.807l2.743-2.984,5.678,4.331a3.1,3.1,0,0,1-1.924,1.011v13.283c-.049.385-3.033,1.4-4.957,1.4h-1.06v-2.021h-18.624v.818c0,.241-.481.578-1.2.915l4.957,2.021c-.241.626-.818.914-1.877.77a34.731,34.731,0,0,1-2.214,3.417h6.978v-6.786l7.749.674c-.1.722-.434,1.2-1.733,1.4v4.717h7.219l3.031-3.946s3.369,2.695,5.294,4.572c-.143.529-.625.77-1.3.77H1203.24v6.064h6.978l2.936-4s3.321,2.695,5.245,4.572c-.144.53-.673.722-1.3.722H1203.24v7.123h10.25Zm-25.939-33.3v5.343h18.624v-5.343Zm18.624,12.224v-5.534h-18.624v5.534Z" fill="#bf956d"/>
      <path id="Path_706" data-name="Path 706" d="M1254.064,6254.924c-.242.481-.674.818-1.733.626a34.172,34.172,0,0,1-9.481,7.556c2.406,3.513-.867,6.882-3.85,4.331a19.517,19.517,0,0,0-2.695-7.267v24.207c0,.482-2.31,1.637-4.379,1.637h-1.108v-19.443a37.178,37.178,0,0,1-7.315,8.278l-.529-.53c3.658-5.438,5.872-12.85,7.075-20.117h-5.486l-.386-1.4h6.641v-11.888l7.268.722c-.145.722-.482,1.2-1.781,1.4v9.77h.289l2.646-3.706s2.936,2.55,4.669,4.331c-.144.529-.626.77-1.3.77h-6.3v4.861a13.428,13.428,0,0,1,5.678,3.08,38.312,38.312,0,0,0,5.679-10.636Zm10.635,8.182c-.24.625-.866.962-1.925.818a30.348,30.348,0,0,1-5.341,10.443,32.564,32.564,0,0,0,12.368,4.813l-.1.674a7.715,7.715,0,0,0-4.234,6.16,26.494,26.494,0,0,1-11.166-8.278c-3.754,3.417-8.855,6.305-15.882,8.326l-.385-.53a34.035,34.035,0,0,0,13.909-11.165,41.394,41.394,0,0,1-4.813-12.32l.818-.433a25.065,25.065,0,0,0,5.871,9.721,35.411,35.411,0,0,0,3.658-10.491Zm-23.726-13.957h10.443v-7.893l7.075.53c-.048.625-.385,1.059-1.54,1.251v6.112h4.187l2.935-3.9s3.225,2.695,5.2,4.523c-.145.53-.626.771-1.348.771h-26.566Zm15.834,3.128c15.5,1.877,12.753,12.465,7.315,9.77-1.444-3.273-5.006-7.075-7.749-9.433Z" fill="#bf956d"/>
      <path id="Path_707" data-name="Path 707" d="M1315.281,6245.347a3.307,3.307,0,0,1-1.973,1.011V6283.7c-.1.433-2.55,1.732-4.524,1.732h-.818v-2.6h-29.742v1.155c0,.722-2.118,2.07-4.379,2.07h-.915V6241.69l5.727,2.406h28.827l2.6-2.936Zm-7.315,36.095v-35.951h-29.742v35.951Zm-5.294-28.924s2.792,2.069,4.524,3.609c-.144.53-.626.771-1.3.771h-26.326l-.385-1.348H1290.4v-3.513h-8.663l-.384-1.3h9.047v-4.283l6.4.577c-.048.578-.385.963-1.348,1.107v2.6h3.273l2.31-2.887s2.694,2.021,4.331,3.465c-.095.481-.577.722-1.251.722h-8.663v3.513h4.765Zm.578,14.053,3.417,2.791c-.241.337-.674.481-1.637.193-.963.529-2.743,1.251-4.138,1.877a9.192,9.192,0,0,1,3.849,2.358c2.311,2.55-.529,5.871-2.983,3.032a17.471,17.471,0,0,0-6.305-5.872v7.893c0,.289-1.54,1.347-4.138,1.347h-.867v-8.229a35.866,35.866,0,0,1-10.4,5.968l-.433-.674a29.771,29.771,0,0,0,9.433-10.2h-1.685v.193c0,.384-2.069,1.347-3.946,1.347h-.626v-10.684l4.812,1.925H1298.2l2.07-2.165,4.38,3.224a2.365,2.365,0,0,1-1.4.77Zm-4.669-.866v-4.476h-11.213v4.476Zm-3.128,4.571a26.783,26.783,0,0,1,4.236.77c.626-.914,1.4-2.165,2.021-3.32a8.478,8.478,0,0,1-2.358.433h-.771v-1.107h-3.128Z" fill="#bf956d"/>
      <path id="Path_708" data-name="Path 708" d="M1370.292,6253.1c-.722,7.46-2.311,14.294-5.823,20.069a29.206,29.206,0,0,0,9.769,7.8l-.192.482a5.96,5.96,0,0,0-4.909,4.572,26.993,26.993,0,0,1-7.508-8.952,32.607,32.607,0,0,1-12.368,8.856l-.385-.482a33.975,33.975,0,0,0,10.828-12.8,61.443,61.443,0,0,1-3.225-13.909,32.81,32.81,0,0,1-4.668,6.016l-.626-.385a56.232,56.232,0,0,0,2.5-7.459,1.839,1.839,0,0,1-.771.144h-24.5l-.385-1.4h5.342v-6.738H1329.1l-.385-1.4h4.668v-6.69l6.4.578c-.048.577-.384.962-1.4,1.107v5.005h3.9v-6.69l6.5.578c-.1.577-.432,1.01-1.443,1.155v4.957h.288l2.214-3.128s2.455,2.213,3.9,3.753c-.095.53-.577.77-1.251.77h-5.149v6.738h.48l2.263-3.272s2.31,2.069,3.85,3.657a90.036,90.036,0,0,0,2.5-15.112l7.748,1.781c-.193.626-.77,1.059-1.829,1.107a80.687,80.687,0,0,1-2.454,7.893h5.727l2.983-3.9s3.37,2.7,5.342,4.524c-.144.53-.674.77-1.347.77Zm-20.405,26.133c0,3.561-.674,5.583-6.16,6.064a7.754,7.754,0,0,0-.819-3.658c-.529-.77-1.348-1.3-3.129-1.636v-.674s3.322.193,4.14.193c.674,0,.817-.241.817-.818v-4.813h-8.229v10.491c0,.385-1.588,1.541-4.187,1.541h-.914v-27.24l5.775,2.214h7.123l2.214-2.551,4.957,3.706a2.469,2.469,0,0,1-1.588.866Zm-13.38-16.94v4.331h8.229v-4.331Zm8.229,10.2v-4.524h-8.229v4.524Zm-6.352-16.844h3.9v-6.738h-3.9Zm20.935-2.551c-.626,1.444-1.252,2.792-1.973,4.091a43.254,43.254,0,0,0,4.043,11.358,55.62,55.62,0,0,0,2.791-15.449Z" fill="#bf956d"/>
      <path id="Path_709" data-name="Path 709" d="M1392.479,6262.576c-.289.482-.721.77-1.781.626a41.022,41.022,0,0,1-15.4,10.636l-.385-.529a41.241,41.241,0,0,0,10.78-14.438Zm21.9-10.058s3.657,2.791,5.871,4.716c-.144.53-.626.77-1.348.77h-43.553l-.386-1.4h8.23v-12.127l6.978.625c-.1.578-.433,1.011-1.588,1.2v10.3h6.208v-15.785l7.508.626c-.1.674-.433,1.155-1.732,1.347v5.92h5.919l3.321-4.091s3.754,2.743,6.015,4.716c-.144.53-.673.77-1.347.77h-13.908v6.5H1411.1Zm-36.239,32.822c13.523-3.513,24.544-8.759,31.571-23.726l7.122,3.658c-.385.577-.962.721-2.214.529-9.336,14.678-20.694,18.576-36.335,20.261Zm10.2-16.171s4.668.29,5.582.29c.674,0,.866-.193.866-.723V6258l7.268.578c-.1.722-.578,1.059-1.588,1.2v9.048c0,3.8-.867,5.775-7.171,6.3-.145-1.636-.337-2.839-1.06-3.609-.673-.722-1.588-1.348-3.9-1.733Z" fill="#bf956d"/>
      <path id="Path_710" data-name="Path 710" d="M1465.922,6279.517a2.226,2.226,0,0,1,1.492,2.31c0,2.117-1.925,3.272-6.882,3.272h-2.647c-3.946,0-4.524-1.155-4.524-4.62v-9.721c-2.261,6.064-6.4,11.165-14.2,15.256l-.529-.674c9.048-7.8,11.069-17.325,11.454-29.213h-4.668a4.265,4.265,0,0,1-1.252.434v8.421c-.048.337-2.695,1.2-4.331,1.2h-.914V6264.4h-1.781v15.16c0,3.609-.77,5.967-6.45,6.449a7.661,7.661,0,0,0-.769-3.658c-.529-.77-1.4-1.4-3.369-1.684V6280s3.561.289,4.38.289c.673,0,.866-.289.866-.867v-8.374a3.176,3.176,0,0,1-1.011.145,23.774,23.774,0,0,1-8.663,9.577l-.577-.385a37.767,37.767,0,0,0,4.475-12.272l5.776,1.877V6264.4h-1.877v.818c0,.433-2.214,1.54-4.235,1.54h-.722v-14.534l5.2,2.118h8.278l2.455-2.647,4.09,3.031h5.15c.144-4.331.048-8.951.048-13.908l7.7.722c-.144.77-.577,1.2-1.781,1.4-.047,4.139-.047,8.085-.192,11.79h3.128l2.695-3.368a4.85,4.85,0,0,1-1.4-.722,16.626,16.626,0,0,0-3.129-7.027l.434-.24c9.817,1.877,8.132,8.133,4.764,8.085.962.77,3.176,2.551,4.668,3.9-.144.53-.626.77-1.3.77h-9.913c-.049,1.011-.1,1.974-.193,2.984l4.717.433c-.1.578-.482,1.059-1.54,1.2v18.239c0,.626.144.867.866.867h1.4a9.025,9.025,0,0,0,1.3-.048c.385,0,.53-.145.77-.626a60.439,60.439,0,0,0,2.069-7.364h.529Zm-43.8-30.657h9.577v-7.941l7.026.578c-.095.626-.384,1.059-1.491,1.251v6.112h2.551l2.983-3.946s3.321,2.695,5.294,4.572c-.1.529-.626.77-1.347.77h-24.207Zm16.8,14.2v-7.364h-9v7.364Zm-.241,5.486c11.261,4.091,5.631,12.272,1.588,8.182a18.809,18.809,0,0,0-2.021-7.941Z" fill="#bf956d"/>
      <path id="Path_711" data-name="Path 711" d="M1484.549,6276.581c3.416-.481,7.122-1.011,10.78-1.588l.1.626c-4.765,2.117-11.839,4.956-22.33,8.614a2.147,2.147,0,0,1-1.4,1.2l-2.743-6.834c2.118-.192,5.728-.625,10.106-1.251v-8.278h-8.9l-.385-1.347h9.288v-6.834l7.076.577c-.1.626-.434,1.059-1.588,1.252v5h2.165l2.84-4s3.224,2.744,5.052,4.572c-.095.53-.625.77-1.3.77h-8.759Zm6.063-35.228s3.321,2.695,5.246,4.572c-.144.529-.626.769-1.3.769H1483.73a77.13,77.13,0,0,1-5.535,8.9c2.985-.144,6.354-.337,9.866-.53a18.753,18.753,0,0,0-3.08-4.475l.385-.337c13.476,3.513,8.952,13.668,4.188,9.818a12.379,12.379,0,0,0-.963-3.754c-3.706,1.348-8.807,2.984-15.641,5.053a1.9,1.9,0,0,1-1.444,1.059l-2.165-6.5c1.443,0,3.657-.1,6.352-.241.625-2.695,1.2-6.16,1.588-9h-7.892l-.385-1.4h18.721Zm11.743,32.629c0,.481-2.213,1.492-4.187,1.492h-.914v-30.656l6.882.673c-.145.674-.482,1.156-1.781,1.348Zm11.213-31.908c-.095.722-.577,1.2-1.732,1.4v36.143c0,3.8-.818,5.968-7.026,6.5a6.9,6.9,0,0,0-1.108-3.85c-.722-.866-1.78-1.444-4.09-1.829v-.674s4.813.289,5.823.289c.818,0,1.059-.24,1.059-.866V6241.4Z" fill="#bf956d"/>
    </g>
  </g>
</svg>
