<svg xmlns="http://www.w3.org/2000/svg" width="475.787" height="130.964" viewBox="0 0 475.787 130.964">
  <g id="mob_title_en_5" transform="translate(-981.807 -6525.087)">
    <g id="Group_103" data-name="Group 103">
      <path id="Path_687" data-name="Path 687" d="M1146.63,6526.306c11.1,0,17.013,5.3,17.013,12.76,0,5.448-3.559,10.538-12.386,12.33,10.606,1.5,15.019,6.667,15.019,13.119,0,7.168-5.765,14.337-20.642,14.337h-21.283v-2.725l7.259-.788c.143-6.953.143-13.979.143-21v-3.8c0-6.954,0-13.836-.143-20.718l-7.259-.788v-2.724Zm-7.616,3.083c-.143,6.738-.143,13.691-.143,20.645H1143c9.4,0,13.667-3.369,13.667-10.681,0-7.026-3.986-9.964-12.172-9.964Zm5.125,46.308c9.752,0,14.735-3.942,14.735-11.111,0-7.527-4.7-11.326-15.519-11.326h-4.484c0,8.172,0,15.341.143,22.437Z" fill="#fff"/>
      <path id="Path_688" data-name="Path 688" d="M1217.529,6564.873l-.426,13.979h-40.147v-2.725l7.26-.788c.142-6.882.142-13.764.142-20.789v-3.871c0-7.025,0-13.979-.142-20.861l-7.26-.788v-2.724h38.651l.428,13.835h-3.845l-2.063-10.394h-18.508c-.142,6.81-.142,13.692-.142,20.789h11.745l1.139-7.742h3.2v18.5h-3.2l-1.068-7.6h-11.816c0,7.742,0,14.767.142,21.721h20l2.064-10.538Z" fill="#fff"/>
      <path id="Path_689" data-name="Path 689" d="M1248.779,6549.174c10.393,4.158,14.237,8.53,14.237,15.914,0,9.319-7.545,14.911-18.365,14.911a29.433,29.433,0,0,1-15.162-4.158l.5-11.04h3.987l1.993,9.821a15.748,15.748,0,0,0,8.185,1.936c7.546,0,12.457-3.441,12.457-9.822,0-5.089-2.846-7.526-9.823-10.322l-2.918-1.219c-8.115-3.3-13.454-7.813-13.454-15.7,0-9.1,7.546-14.409,17.369-14.409a20.944,20.944,0,0,1,12.813,4.158l-.5,10.251h-4.058l-1.993-9.39a11.9,11.9,0,0,0-6.335-1.578c-6.265,0-10.891,3.155-10.891,9.176,0,5.018,3.2,8.028,8.826,10.251Z" fill="#fff"/>
      <path id="Path_690" data-name="Path 690" d="M1298.322,6529.747c-.142,6.882-.142,13.907-.142,20.932v3.871c0,6.882,0,13.836.142,20.718l8.044.859v2.725h-23.49v-2.725l8.043-.859c.142-6.811.142-13.693.142-20.718v-3.871c0-7.025,0-14.05-.142-20.932h-12.243l-2.135,10.538h-3.915l.641-13.979h42.78l.5,13.979h-3.773l-2.207-10.538Z" fill="#fff"/>
      <path id="Path_691" data-name="Path 691" d="M1022.38,6640.925l-.427,13.979H981.807v-2.724l7.259-.789c.143-6.882.143-13.764.143-20.788v-3.872c0-7.025,0-13.979-.143-20.86l-7.259-.789v-2.724h38.651l.428,13.835h-3.844l-2.064-10.394H996.47c-.143,6.81-.143,13.692-.143,20.789h11.745l1.14-7.742h3.2v18.495h-3.2l-1.068-7.6H996.327c0,7.742,0,14.767.143,21.721h20l2.064-10.538Z" fill="#fff"/>
      <path id="Path_692" data-name="Path 692" d="M1057.189,6602.358c15.161,0,25.34,9.391,25.34,26.309,0,16.846-11.247,26.237-26.764,26.237h-21.284v-2.724l7.26-.789c.143-6.882.143-13.907.143-21.864V6626.8c0-7.025,0-14.051-.143-20.932l-7.26-.789v-2.724Zm-1.922,49.392c12.457,0,19.147-8.531,19.147-23.083,0-15.126-6.69-23.227-18.507-23.227h-6.762c-.143,6.954-.143,14.123-.143,21.363v2.724c0,7.957,0,15.126.143,22.223Z" fill="#fff"/>
      <path id="Path_693" data-name="Path 693" d="M1144.53,6605.082l-6.975.932-.072,27.6c0,16.129-7.545,22.438-18.293,22.438-11.319,0-19.006-6.165-19.006-21.148v-8.243c0-6.954,0-13.979-.072-20.861l-6.548-.717v-2.724h21.782v2.724l-7.9.86c-.142,6.81-.142,13.692-.142,20.718v6.451c0,13.477,5.125,17.85,13.169,17.85,9.111,0,13.667-5.161,13.667-19.212l-.072-25.592-8.185-1.075v-2.724h18.649Z" fill="#fff"/>
      <path id="Path_694" data-name="Path 694" d="M1196.777,6640.71l-.141,11.542a31.779,31.779,0,0,1-15.589,3.8c-15.732,0-26.481-11.111-26.481-27.456,0-16.057,11.248-27.455,26.481-27.455a29.006,29.006,0,0,1,14.877,3.871l.141,11.541h-4.27l-1.922-10.036a17.391,17.391,0,0,0-7.973-1.936c-10.748,0-19.29,8.388-19.29,24.015,0,15.7,7.83,24.015,19.006,24.015a20.481,20.481,0,0,0,8.969-1.936l1.922-9.964Z" fill="#fff"/>
      <path id="Path_695" data-name="Path 695" d="M1256.714,6652.18v2.724H1235.5v-2.724l7.688-.932-4.556-13.764h-18.08l-4.485,13.692,7.617,1v2.724h-17.369v-2.724l6.335-1L1229.237,6602h4.556l16.8,49.463Zm-19.077-17.779-8.115-24.373-7.972,24.373Z" fill="#fff"/>
      <path id="Path_696" data-name="Path 696" d="M1285.758,6605.8c-.143,6.882-.143,13.907-.143,20.932v3.872c0,6.881,0,13.835.143,20.716l8.044.861v2.724h-23.491v-2.724l8.043-.861c.143-6.81.143-13.692.143-20.716v-3.872c0-7.025,0-14.05-.143-20.932h-12.243l-2.134,10.538h-3.916l.641-13.979h42.78l.5,13.979h-3.772L1298,6605.8Z" fill="#fff"/>
      <path id="Path_697" data-name="Path 697" d="M1329.393,6605.871c-.143,6.81-.143,13.835-.143,20.86v3.872c0,6.881,0,13.835.143,20.716l7.26.861v2.724h-21.924v-2.724l7.26-.789c.143-6.882.143-13.764.143-20.788v-3.872c0-7.025,0-13.979-.143-20.86l-7.26-.789v-2.724h21.924v2.724Z" fill="#fff"/>
      <path id="Path_698" data-name="Path 698" d="M1395.38,6628.6c0,17.276-11.46,27.456-23.7,27.456-12.316,0-23.847-9.606-23.847-27.456,0-17.2,11.6-27.455,23.847-27.455C1383.777,6601.14,1395.38,6610.889,1395.38,6628.6Zm-23.7,24.087c10.819,0,15.589-11.685,15.589-24.087,0-12.33-4.77-24.015-15.589-24.015-10.892,0-15.8,11.685-15.8,24.015C1355.874,6641,1360.785,6652.682,1371.677,6652.682Z" fill="#fff"/>
      <path id="Path_699" data-name="Path 699" d="M1457.594,6605.082l-6.549.932-.071,49.391H1448.2l-31.818-44.014.143,39.714,8.328,1.075v2.724h-18.437v-2.724l6.549-.932.142-44.445-.783-1-5.551-.717v-2.724H1418.8l28.829,40.144-.143-36.416-8.328-1v-2.724h18.437Z" fill="#fff"/>
    </g>
  </g>
</svg>
