<svg id="mob_title_en_2" xmlns="http://www.w3.org/2000/svg" width="276.974" height="130.606" viewBox="0 0 276.974 130.606">
  <g id="Group_26" data-name="Group 26">
    <path id="Path_170" data-name="Path 170" d="M1147.168,2682.839c11.1,0,17.013,5.3,17.013,12.76,0,5.448-3.559,10.538-12.386,12.33,10.606,1.506,15.02,6.667,15.02,13.119,0,7.168-5.766,14.337-20.643,14.337h-21.283v-2.724l7.259-.789c.143-6.953.143-13.978.143-21v-3.8c0-6.954,0-13.836-.143-20.717l-7.259-.789v-2.724Zm-7.616,3.083c-.143,6.738-.143,13.691-.143,20.645h4.129c9.4,0,13.667-3.369,13.667-10.681,0-7.025-3.986-9.964-12.172-9.964Zm5.125,46.308c9.752,0,14.735-3.942,14.735-11.111,0-7.527-4.7-11.326-15.518-11.326h-4.485c0,8.172,0,15.341.143,22.437Z" transform="translate(-1081.432 -2681.62)" fill="#fff"/>
    <path id="Path_171" data-name="Path 171" d="M1218.067,2721.406l-.426,13.979h-40.147v-2.724l7.26-.789c.143-6.882.143-13.764.143-20.789v-3.871c0-7.025,0-13.979-.143-20.86l-7.26-.789v-2.724h38.652l.427,13.835h-3.844l-2.064-10.394h-18.508c-.142,6.81-.142,13.692-.142,20.789h11.745l1.139-7.742h3.2v18.495h-3.2l-1.068-7.6h-11.816c0,7.742,0,14.767.142,21.721h20l2.065-10.538Z" transform="translate(-1081.432 -2681.62)" fill="#fff"/>
    <path id="Path_172" data-name="Path 172" d="M1249.317,2705.707c10.393,4.158,14.237,8.531,14.237,15.914,0,9.319-7.545,14.911-18.364,14.911a29.433,29.433,0,0,1-15.163-4.158l.5-11.039h3.987l1.993,9.82a15.741,15.741,0,0,0,8.185,1.936c7.546,0,12.457-3.441,12.457-9.821,0-5.09-2.846-7.527-9.823-10.323l-2.918-1.218c-8.115-3.3-13.454-7.813-13.454-15.7,0-9.1,7.546-14.409,17.369-14.409a20.946,20.946,0,0,1,12.813,4.158l-.5,10.251h-4.058l-1.993-9.391a11.917,11.917,0,0,0-6.335-1.577c-6.265,0-10.891,3.155-10.891,9.176,0,5.018,3.2,8.029,8.826,10.251Z" transform="translate(-1081.432 -2681.62)" fill="#fff"/>
    <path id="Path_173" data-name="Path 173" d="M1298.86,2686.28c-.142,6.882-.142,13.907-.142,20.932v3.871c0,6.882,0,13.836.142,20.717l8.044.861v2.724h-23.49v-2.724l8.043-.861c.143-6.81.143-13.692.143-20.717v-3.871c0-7.025,0-14.05-.143-20.932h-12.243l-2.135,10.538h-3.915l.641-13.979h42.78l.5,13.979h-3.773l-2.206-10.538Z" transform="translate(-1081.432 -2681.62)" fill="#fff"/>
    <path id="Path_174" data-name="Path 174" d="M1103.711,2758.891c11.1,0,17.013,5.3,17.013,12.76,0,5.449-3.559,10.538-12.386,12.33,10.606,1.506,15.019,6.667,15.019,13.119,0,7.169-5.765,14.337-20.642,14.337h-21.283v-2.724l7.259-.789c.143-6.953.143-13.978.143-21v-3.8c0-6.954,0-13.835-.143-20.717l-7.259-.788v-2.725Zm-7.616,3.083c-.143,6.738-.143,13.692-.143,20.645h4.129c9.4,0,13.667-3.369,13.667-10.681,0-7.025-3.986-9.964-12.172-9.964Zm5.125,46.309c9.752,0,14.735-3.943,14.735-11.111,0-7.528-4.7-11.327-15.519-11.327h-4.484c0,8.172,0,15.341.143,22.438Z" transform="translate(-1081.432 -2681.62)" fill="#fff"/>
    <path id="Path_175" data-name="Path 175" d="M1180.306,2808.713v2.724a19.013,19.013,0,0,1-5.909.789c-4.84,0-7.047-1.363-7.9-5.019l-3.2-12.473c-1.566-6.38-4.129-7.814-10.607-7.814h-4.128c0,7.312,0,14.194.142,20.933l7.261.86v2.724h-21.924v-2.724l7.26-.789c.143-6.882.143-13.763.143-20.789v-3.871c0-7.025,0-13.978-.143-20.86l-7.26-.788v-2.725h21.853c11.816,0,18.792,5.09,18.792,13.764,0,6.165-4.485,11.685-13.382,13.262,4.911,1.075,7.545,3.871,9.324,9.893l3.631,12.329Zm-25.412-24.8c8.328,0,12.456-4.8,12.456-11.327,0-6.738-3.7-10.609-11.887-10.609H1148.7c-.142,6.953-.142,13.835-.142,21.936Z" transform="translate(-1081.432 -2681.62)" fill="#fff"/>
    <path id="Path_176" data-name="Path 176" d="M1238.746,2808.712v2.724h-21.213v-2.724l7.688-.932-4.556-13.764h-18.08l-4.484,13.693,7.616,1v2.724h-17.368v-2.724l6.335-1,16.586-49.177h4.555l16.8,49.463Zm-19.077-17.778-8.115-24.373-7.972,24.373Z" transform="translate(-1081.432 -2681.62)" fill="#fff"/>
    <path id="Path_177" data-name="Path 177" d="M1298.755,2761.616l-6.549.931-.071,49.392h-2.777l-31.818-44.015.143,39.714,8.328,1.075v2.724h-18.437v-2.724l6.549-.932.143-44.445-.784-1-5.551-.716v-2.725h12.029l28.829,40.144-.142-36.416-8.329-1v-2.725h18.437Z" transform="translate(-1081.432 -2681.62)" fill="#fff"/>
    <path id="Path_178" data-name="Path 178" d="M1333.065,2758.891c15.162,0,25.341,9.391,25.341,26.309,0,16.846-11.247,26.237-26.764,26.237h-21.284v-2.724l7.26-.789c.143-6.882.143-13.907.143-21.864v-2.724c0-7.025,0-14.05-.143-20.932l-7.26-.788v-2.725Zm-1.921,49.392c12.457,0,19.147-8.531,19.147-23.083,0-15.126-6.69-23.226-18.507-23.226h-6.762c-.143,6.953-.143,14.122-.143,21.362v2.724c0,7.957,0,15.126.143,22.223Z" transform="translate(-1081.432 -2681.62)" fill="#fff"/>
  </g>
</svg>
