<svg xmlns="http://www.w3.org/2000/svg" width="449.947" height="67.137" viewBox="0 0 449.947 67.137">
  <g id="mob_title_en_4" transform="translate(-997.004 -5296.571)">
    <path id="Path_527" data-name="Path 527" d="M1024.251,5298.061c13.58,0,20.806,6.486,20.806,15.6,0,6.661-4.354,12.884-15.148,15.075,12.971,1.841,18.368,8.151,18.368,16.039,0,8.765-7.05,17.53-25.245,17.53H997v-3.331l8.879-.964c.174-8.5.174-17.091.174-25.68v-4.645c0-8.5,0-16.916-.174-25.33l-8.879-.964v-3.331Zm-9.315,3.769c-.174,8.238-.174,16.74-.174,25.242h5.048c11.493,0,16.715-4.12,16.715-13.059,0-8.59-4.875-12.183-14.886-12.183Zm6.268,56.619c11.926,0,18.02-4.82,18.02-13.585,0-9.2-5.745-13.848-18.978-13.848h-5.484c0,9.992,0,18.757.174,27.433Z" fill="#fff"/>
    <path id="Path_528" data-name="Path 528" d="M1105.642,5345.215l-.523,17.091h-49.1v-3.331l8.879-.964c.175-8.414.175-16.828.175-25.417v-4.734c0-8.588,0-17.09-.175-25.5l-8.879-.964v-3.331h47.269l.523,16.916h-4.7l-2.525-12.709h-22.633c-.174,8.326-.174,16.74-.174,25.418h14.364l1.392-9.466h3.918v22.612h-3.918l-1.306-9.29h-14.45c0,9.466,0,18.055.174,26.557h24.461l2.525-12.884Z" fill="#fff"/>
    <path id="Path_529" data-name="Path 529" d="M1138.543,5326.02c12.71,5.084,17.41,10.43,17.41,19.458,0,11.394-9.226,18.23-22.459,18.23a36.01,36.01,0,0,1-18.542-5.083l.609-13.5h4.875l2.438,12.008a19.266,19.266,0,0,0,10.011,2.366c9.227,0,15.234-4.207,15.234-12.008,0-6.222-3.482-9.2-12.014-12.621l-3.568-1.49c-9.924-4.031-16.453-9.553-16.453-19.194,0-11.131,9.227-17.617,21.24-17.617a25.627,25.627,0,0,1,15.67,5.083l-.609,12.534h-4.963l-2.438-11.482a14.565,14.565,0,0,0-7.747-1.928c-7.661,0-13.319,3.856-13.319,11.219,0,6.135,3.918,9.816,10.8,12.533Z" fill="#fff"/>
    <path id="Path_530" data-name="Path 530" d="M1193.818,5302.268c-.173,8.414-.173,17-.173,25.592v4.734c0,8.414,0,16.915.173,25.329l9.837,1.052v3.331h-28.727v-3.331l9.837-1.052c.175-8.326.175-16.74.175-25.329v-4.734c0-8.588,0-17.178-.175-25.592h-14.973l-2.611,12.884h-4.788l.783-17.091h52.318l.61,17.091h-4.615l-2.7-12.884Z" fill="#fff"/>
    <path id="Path_531" data-name="Path 531" d="M1295.838,5344.251l-.7,18.055h-47.269v-3.331l8.879-.964c.175-8.5.175-17,.175-25.155v-5c0-8.588,0-17.178-.175-25.5l-8.879-.964v-3.331h26.9v3.331l-8.966.964c-.174,8.414-.174,16.916-.174,25.417v6.4c0,7.275,0,15.6.174,24.016h21.936l3.134-13.936Z" fill="#fff"/>
    <path id="Path_532" data-name="Path 532" d="M1322.3,5302.356c-.174,8.326-.174,16.916-.174,25.5v4.734c0,8.414,0,16.915.174,25.329l8.879,1.052v3.331h-26.812v-3.331l8.879-.964c.175-8.414.175-16.828.175-25.417v-4.734c0-8.588,0-17.09-.175-25.5l-8.879-.964v-3.331h26.812v3.331Z" fill="#fff"/>
    <path id="Path_533" data-name="Path 533" d="M1359.294,5302.268c-.174,8.326-.174,16.74-.174,25.418h15.06l1.218-9.466h4v23.313h-4l-1.218-9.991h-15.06c0,9.378,0,17.967.174,26.381l9.053,1.052v3.331h-26.986v-3.331l8.879-.964c.175-8.414.175-16.828.175-25.417v-4.734c0-8.588,0-17.09-.175-25.5l-8.879-.964v-3.331h47.356l.522,16.916h-4.7l-2.524-12.709Z" fill="#fff"/>
    <path id="Path_534" data-name="Path 534" d="M1446.951,5345.215l-.522,17.091h-49.1v-3.331l8.879-.964c.175-8.414.175-16.828.175-25.417v-4.734c0-8.588,0-17.09-.175-25.5l-8.879-.964v-3.331H1444.6l.522,16.916h-4.7l-2.525-12.709h-22.632c-.174,8.326-.174,16.74-.174,25.418h14.363l1.393-9.466h3.917v22.612h-3.917l-1.306-9.29h-14.45c0,9.466,0,18.055.174,26.557h24.461l2.524-12.884Z" fill="#fff"/>
  </g>
</svg>
