<?xml version="1.0" encoding="utf-8"?>
<!-- Generator: Adobe Illustrator 23.1.1, SVG Export Plug-In . SVG Version: 6.00 Build 0)  -->
<svg version="1.1" id="圖層_1" xmlns="http://www.w3.org/2000/svg" xmlns:xlink="http://www.w3.org/1999/xlink" x="0px" y="0px"
	 viewBox="0 0 600 50" style="enable-background:new 0 0 600 50;" xml:space="preserve">
<style type="text/css">
	.st0{fill:#BA272D;}
</style>
<g>
	<g>
		<path class="st0" d="M94.6,18.9c-0.4,0.5-1,0.7-2.2,0.8c-1.8,9.7-6.3,19.2-15.7,25.1l-0.5-0.5c6.5-8,9.6-17,10.3-26h-8.7l-0.5-1.4
			h8.6l3.1-3.2L94.6,18.9z M124.1,17.8c-0.4,0.5-0.8,0.7-2,0.5c-2.6,1.4-6.3,3.3-9.9,4.6c3,7,7.4,12.6,12.5,15.6l-0.2,0.5
			c-2.1,0.5-3.9,2.2-4.8,5c-2.6-2.5-4.6-5.4-6.3-9c-0.2,0.5-0.7,0.7-1.4,0.7h-8.8v6c0,4-1,6.3-8.1,6.9c-0.2-1.8-0.5-3.1-1.3-3.9
			c-1-0.9-2.3-1.5-5.2-2V42c0,0,6.3,0.4,7.5,0.4c0.9,0,1.2-0.3,1.2-0.9v-5.8H88l-0.4-1.4h9.8v-6h-6L91,26.9h6.4v-5.4h-4.6L92.4,20h5
			v-8.8l4.8,0.5c2.2-1.7,4.5-3.9,6.2-5.7H84.6l-0.5-1.5H109l3.3-3.2l5.5,4.8c-0.4,0.4-1,0.6-2.1,0.6c-3.2,1.8-7.2,3.7-11.2,5.1
			l0.7,0.1c-0.2,0.7-0.6,1.2-1.8,1.3V20h0.2l2.4-3.1c0,0,1.7,1.5,3.2,2.9c-0.4-2.5-0.8-5.1-1.1-7.8l0.7-0.2c0.7,3.5,1.7,6.9,3,9.9
			c2.2-2.7,4.7-6.5,6-8.7L124.1,17.8z M103.3,26.9h0.9l2.4-3.2c0,0,2.4,2,4,3.5c-0.5-1.8-0.9-3.8-1.3-5.9c-0.2,0.1-0.4,0.1-0.7,0.1
			h-5.4V26.9z M108.5,30.6c0,0,2.9,2.3,4.8,4.1c-1-2.1-1.8-4.4-2.5-6.8c-0.2,0.3-0.6,0.5-1.2,0.5h-6.4v6h2.5L108.5,30.6z"/>
		<path class="st0" d="M143.5,7.9c0,0,2.9,2.4,4.7,4c-0.2,0.6-0.7,0.8-1.4,0.8h-18.8l-0.4-1.4h13.2L143.5,7.9z M141.4,14.5
			c0,0,2.8,2.3,4.5,3.9c-0.1,0.6-0.6,0.8-1.3,0.8h-14.3l-0.4-1.4h8.9L141.4,14.5z M138.9,24.4l2.6-3.3c0,0,2.8,2.3,4.5,3.9
			c-0.1,0.5-0.6,0.8-1.3,0.8h-14.3l-0.4-1.4H138.9z M147.1,32.5c-0.3,0.4-1,0.8-1.9,1v11.8c-0.1,0.4-2.6,1.6-4.4,1.6H140v-3.2h-4.8
			v3.3c0,0.5-2.3,1.7-4.4,1.7H130V29l5.4,2.2h4.1l2.5-2.6L147.1,32.5z M130.5,6.4l-0.4-1.4h8.5l2.6-3.5c0,0,2.9,2.4,4.7,4.1
			c-0.2,0.6-0.6,0.8-1.3,0.8H130.5z M140,42.2v-9.5h-4.8v9.5H140z M163.2,15V9.4h-5.8v4c0,0.2-0.2,0.4-0.6,0.6l6.6,1.6
			c-0.2,0.7-0.8,1.1-2,1.1c-0.5,1.6-1,3.1-1.5,4.6h7.2l3-4.1c0,0,3.3,2.8,5.3,4.7c-0.1,0.6-0.6,0.8-1.4,0.8h-14.8
			c-1,2.5-2.2,4.8-3.4,6.9l2,0.8h8.3l2.7-2.9l5.6,4.3c-0.4,0.4-1.1,0.9-2.1,1.1v13.8c-0.1,0.4-2.8,1.6-4.7,1.6h-1v-4h-9.4v2.9
			c0,0.4-1.7,1.6-4.4,1.6h-1V34.8c-1.7,1.8-3.6,3.4-5.7,4.8l-0.6-0.5c3.4-4.1,6.3-9.9,8.2-16.4h-8l-0.4-1.4h8.8
			c0.6-2.2,1.1-4.4,1.4-6.8c-0.8,0.3-1.8,0.5-2.7,0.5H152V9.4h-5.5L146.1,8h6V1.6l6.9,0.6c-0.1,0.6-0.5,1.1-1.6,1.2V8h5.8V1.6
			l6.9,0.6c-0.1,0.6-0.5,1.1-1.7,1.2V8h0.6l2.4-3.7c0,0,2.8,2.6,4.3,4.3c-0.1,0.6-0.6,0.8-1.3,0.8h-6v4c0,0.5-2.4,1.6-4.4,1.6H163.2
			z M157.2,31.8v10.8h9.4V31.8H157.2z"/>
		<path class="st0" d="M198.2,22.9c-0.4,0.5-0.8,0.7-1.9,0.8c-2.3,8.4-7.4,16.1-17.3,20.6l-0.4-0.6c6.7-5,10.3-12.8,11.9-20.7h-10.2
			l-0.5-1.5h10.4l2.9-3L198.2,22.9z M224.2,17.4c-0.3,0.5-0.8,0.8-2,0.5c-3.1,2.4-7.7,5.4-12.4,7.7c4.3,6.8,10.6,10.3,16.7,12.5
			l-0.2,0.6c-2.4,0.6-4.2,2.7-4.9,5.5c-7.9-5.2-13.1-12-15.7-26.1v23.4c0,4-1,6.4-8.1,7c-0.2-1.9-0.5-3.3-1.4-4.2
			c-0.9-0.9-2.2-1.6-5-2v-0.7c0,0,6.1,0.4,7.3,0.4c0.9,0,1.2-0.4,1.2-1.1V14.4h-12.1l-0.5-1.4h12l2.7-3l5.8,4.3
			c-0.4,0.4-1,0.8-1.9,1v0.2c0.8,3.5,2,6.5,3.4,9.1c3.1-3.6,6.6-8.5,8.2-11.6L224.2,17.4z M193.7,1.3c20.2-0.8,17.1,11.3,11.3,9
			c-1.7-2.2-6-5.9-11.5-8.4L193.7,1.3z"/>
		<path class="st0" d="M243.8,3.5c-0.3,0.6-0.9,1-2,1c-1.9,2.6-4.1,5.2-6.2,7.2c4.1,3.2,0.7,7.7-2.5,5.1c-0.2-2.5-1.8-5.2-3.2-7
			l0.5-0.3c1.6,0.4,2.9,0.8,3.9,1.3c0.8-2.7,1.6-6.4,2.2-9.7L243.8,3.5z M276,23.8c0,0.3-1.9,1-3.4,1.2l2.9,2.2
			c-0.3,0.3-0.9,0.7-1.7,0.9v12.3c-0.1,0.4-2.8,1.5-4.7,1.5h-0.5c14.7,1.8,6.3,9.3,2.3,5.6c-1.3-1.8-3.8-3.9-7.8-5.3l0.3-0.6
			c1.8,0.1,3.4,0.2,4.7,0.3v-1.7h-12V41c0,0.5-2.5,1.8-4.8,1.8h-0.8V25.1c-0.4,0.1-0.7,0.2-1,0.2c0.1,2.6-2.4,4.1-4.6,2.1
			c0-1.1-0.2-2.2-0.5-3.3l-2.1,0.7v22.3c0,0.4-1.7,1.5-4.3,1.5h-1V32.8c-0.2,0-0.4,0.1-0.6,0.1c-1.3,4.7-3.3,8.9-6,11.8l-0.8-0.4
			c1.2-3.7,2-8.9,2.2-13.8l5,1v-4.9l-3.9,1.3c-0.3,0.7-0.8,1-1.4,1.1l-2-5.5c1.2,0,2.8-0.1,4.9-0.2c2.5-4.9,5.2-11.3,6.9-15.8l7,2.5
			c-0.3,0.6-0.9,1-2,0.9c-2.4,3.5-6.4,8.4-10.2,12.4c2.3-0.1,4.8-0.2,7.5-0.4c-0.5-1.5-1.1-2.8-1.7-3.9l0.6-0.3
			c2.6,1.1,4.3,2.4,5.3,3.6V11.9l5.3,2.1h16.8l2.3-2.4l4.9,3.5c-0.3,0.3-0.8,0.7-1.6,0.8V23.8z M243.4,29.9
			c10.1,5.4,5.1,13.2,1.4,9.3c0.1-3-1-6.6-2-9.1L243.4,29.9z M245.7,47.9c4.3-1.8,9.2-5,11.6-7.5l5.5,3.9c-0.4,0.5-0.8,0.7-1.9,0.4
			c-3.5,1.9-9.4,3.4-14.8,3.9L245.7,47.9z M247.6,5.5h11.7V1.4l7.3,0.6c0,0.7-0.4,1.1-1.6,1.3v2.2h4.4l2.9-3.5c0,0,3.2,2.4,5.2,4.1
			c-0.2,0.6-0.7,0.8-1.4,0.8h-4.8c0.8,0.6,3.1,2.4,4.7,3.8c-0.1,0.6-0.7,0.8-1.4,0.8h-24.1l-0.4-1.4h9V6.9H248L247.6,5.5z
			 M270.8,23.7V23h-17.5v0.8c0,0.2-0.3,0.4-0.7,0.6l3.9,1.5h11.2l2.6-2.7L270.8,23.7z M261.1,15.4c-0.5,2.6-2.1,4.4-7.7,5.6
			l-0.1-0.1v0.7h17.5v-1.7c-0.7,0.2-1.7,0.2-3,0.2h-1.8c-2.6,0-2.9-0.8-2.9-2.9v-1.8H261.1z M253.2,15.4v4.7
			c2.9-1.3,3.6-2.8,3.8-4.7H253.2z M268.1,30.1v-2.8h-12v2.8H268.1z M256.2,34.3h12v-2.8h-12V34.3z M268.1,38.7v-2.9h-12v2.9H268.1z
			 M265,6.9v3.2h3.4l2.6-3.2H265z M266.8,15.4v0.2v1c0,0.5,0.1,0.6,0.6,0.6h1h0.9c0.2,0,0.5,0,0.7,0c0.2,0,0.6-0.1,0.9-0.2h0.2v-1.6
			H266.8z"/>
		<path class="st0" d="M303.7,12.3c-0.4,0.4-1.1,0.8-2.1,1.1v28.9c-0.1,0.4-2.7,1.6-4.6,1.6h-0.9v-4H290v3.6c0,0.7-2.2,2-4.5,2h-0.9
			V8.6l5.5,2.4h0c0.4-2.5,0.9-6.8,1.1-9.6l8.2,1.9c-0.2,0.9-0.9,1.2-2.1,1.2c-1.5,1.9-3.7,4.6-5.4,6.5h3.5l2.7-3L303.7,12.3z
			 M290,12.4v12h6.2v-12H290z M296.1,38.5V25.7H290v12.8H296.1z M330,12.3c-0.4,0.4-1.1,0.8-2.3,0.9c-0.7,19.7-2.1,29.2-5.2,32.3
			c-2,1.9-4.3,2.6-7.7,2.6c0-1.8-0.3-3-1.1-3.8c-1-1-2.9-1.7-5.3-2.2v-0.7c2.5,0.2,6.1,0.5,7.4,0.5c1,0,1.5-0.2,2.1-0.8
			c2.2-1.9,3.5-12.2,4.1-28.8h-11.4c-2.4,3.7-5.1,6.8-8.3,9.1l-0.6-0.4c2.9-4.9,5.6-12.4,6.9-19.8l7.9,2.4c-0.3,0.6-0.9,1.1-2,1
			c-0.9,2.2-1.9,4.3-2.9,6.2h10l3.2-3.3L330,12.3z M307.3,19.2c14.5,4.7,8.7,15.4,3.6,10.7c-0.2-3.6-2.1-7.6-4-10.4L307.3,19.2z"/>
		<path class="st0" d="M372,39.7c0,0,4.1,3.2,6.6,5.3c-0.2,0.6-0.7,0.8-1.5,0.8h-45.5l-0.4-1.4H350V1.9l8.4,0.8
			c-0.2,0.7-0.5,1.2-1.9,1.4V21h8.3l3.6-4.6c0,0,4,3.1,6.5,5.2c-0.2,0.6-0.7,0.8-1.4,0.8h-17v22h11.9L372,39.7z"/>
		<path class="st0" d="M421.2,4.7c0,0,3.9,3,6.4,5.1c-0.2,0.6-0.7,0.8-1.5,0.8h-18.6l1.1,0.1c-0.1,0.7-0.4,1.1-1.6,1.3v5.7h8.3
			l2.7-3.1l5.9,4.4c-0.4,0.4-1.1,0.9-2,1.1v15.4c0,3.8-0.9,6.1-7.6,6.7c-0.2-1.9-0.4-3.2-1.1-4.1c-0.7-0.8-1.7-1.5-4-1.9v-0.7
			c0,0,4.3,0.3,5.5,0.3c0.9,0,1.1-0.3,1.1-1V19.1H407v26.8c0,0.6-2.8,2-5,2h-1.2V19.1H392v21.1c0,0.6-2.6,2-5.1,2H386V15.1l6.4,2.6
			h8.4v-7.1h-20l-0.4-1.5h20.4v-8l8.1,0.6c-0.1,0.7-0.5,1.2-1.8,1.5v5.9h10.7L421.2,4.7z"/>
		<path class="st0" d="M445.1,23.9l5.6,4.2c-0.3,0.4-1,0.8-2,1v16.3c0,0.4-2.8,1.7-4.7,1.7h-1V43h-7.4v3.2c0,0.6-2.4,1.9-4.7,1.9
			H430V24.5l5.8,2.3h6.6L445.1,23.9z M442.9,41.5V28.2h-7.4v13.3H442.9z M443.7,21.8c0,0.6-2.6,1.9-5,1.9h-0.9V2.3l6.3,2.5h13.7
			l2.8-3l5.7,4.4c-0.3,0.4-1,0.9-2.1,1.1v14.4c0,0.4-2.9,1.6-4.9,1.6h-1v-4.1h-14.5V21.8z M443.7,6.3v11.5h14.5V6.3H443.7z
			 M474.4,28.1c-0.4,0.4-1.1,0.8-2.1,1.1v16.7c0,0.4-2.9,1.5-4.8,1.5h-1V43h-7.8v3.3c0,0.6-2.4,1.9-4.7,1.9h-0.9V24.5l5.8,2.3h7
			l2.7-2.9L474.4,28.1z M466.5,41.5V28.2h-7.8v13.3H466.5z"/>
		<path class="st0" d="M519.3,30.7c0,0,3.5,3,5.4,5c-0.2,0.6-0.6,0.8-1.4,0.8h-9.2v10.7c0,0.5-2.4,1.4-4.5,1.4h-1V36.6h-13.3
			l-0.4-1.5h13.7v-6.6c-2.2,2.4-5.5,4.5-10.9,6.2l-0.4-0.6c4.8-2.7,7.3-5.7,8.6-9h-2.8v1.4c0,0.6-2.4,1.8-4.6,1.8h-0.8v-10
			c-0.2,0.1-0.4,0.1-0.6,0.1h-12.4v7.3h3.5l2.5-2.8l5.2,4.1c-0.3,0.4-1.1,0.8-2.1,1v18c-0.1,0.5-2.4,1.8-4.3,1.8h-0.9V27h-4
			c-0.2,8.7-1.7,15.9-7.2,21.4l-0.7-0.4c2.3-6.1,2.7-12.9,2.7-21.3v-24l6.9,0.7c-0.1,0.7-0.5,1.3-1.8,1.5v12h3.4V1.8l6.8,0.6
			c-0.1,0.7-0.5,1.2-1.7,1.3v12.9l1.8-3.1c0,0,1.6,1.8,2.8,3.3V5.4l5.7,2.2h2.2c0.3-1.8,0.7-4.5,0.9-6.4l8.6,1.6
			c-0.2,0.9-0.9,1.3-2.1,1.3c-1.2,1-3.1,2.4-4.6,3.5h7.7l2.6-2.7l5.3,3.9c-0.3,0.4-1,0.8-1.9,1v15.6c-0.1,0.4-2.7,1.5-4.5,1.5h-0.9
			v-1.8H511c-0.3,0.6-0.6,1.2-1,1.7l6.1,0.6c-0.1,0.7-0.5,1.1-1.8,1.3v6.4h2L519.3,30.7z M503.2,9.1v6.5h4.1V9.1H503.2z M506.5,23.7
			c0.6-2.2,0.8-4.4,0.8-6.7h-4.1v6.7H506.5z M516.7,23.7V17h-4.2c0,2.2-0.2,4.4-1,6.7H516.7z M512.5,9.1v6.5h4.2V9.1H512.5z"/>
	</g>
</g>
</svg>
