<svg xmlns="http://www.w3.org/2000/svg" xmlns:xlink="http://www.w3.org/1999/xlink" width="462.148" height="191.769" viewBox="0 0 462.148 191.769">
  <defs>
    <filter id="Path_939" x="0" y="58.874" width="76.538" height="75.046" filterUnits="userSpaceOnUse">
      <feOffset input="SourceAlpha"/>
      <feGaussianBlur stdDeviation="5" result="blur"/>
      <feFlood flood-opacity="0.702"/>
      <feComposite operator="in" in2="blur"/>
      <feComposite in="SourceGraphic"/>
    </filter>
    <filter id="Path_940" x="47.405" y="59.21" width="75.143" height="74.709" filterUnits="userSpaceOnUse">
      <feOffset input="SourceAlpha"/>
      <feGaussianBlur stdDeviation="5" result="blur-2"/>
      <feFlood flood-opacity="0.702"/>
      <feComposite operator="in" in2="blur-2"/>
      <feComposite in="SourceGraphic"/>
    </filter>
    <filter id="Path_941" x="93.898" y="58.729" width="75.864" height="75.19" filterUnits="userSpaceOnUse">
      <feOffset input="SourceAlpha"/>
      <feGaussianBlur stdDeviation="5" result="blur-3"/>
      <feFlood flood-opacity="0.702"/>
      <feComposite operator="in" in2="blur-3"/>
      <feComposite in="SourceGraphic"/>
    </filter>
    <filter id="Path_942" x="140.533" y="59.113" width="75.72" height="74.758" filterUnits="userSpaceOnUse">
      <feOffset input="SourceAlpha"/>
      <feGaussianBlur stdDeviation="5" result="blur-4"/>
      <feFlood flood-opacity="0.702"/>
      <feComposite operator="in" in2="blur-4"/>
      <feComposite in="SourceGraphic"/>
    </filter>
    <filter id="Path_943" x="187.395" y="60.546" width="56.561" height="70.09" filterUnits="userSpaceOnUse">
      <feOffset input="SourceAlpha"/>
      <feGaussianBlur stdDeviation="5" result="blur-5"/>
      <feFlood flood-opacity="0.702"/>
      <feComposite operator="in" in2="blur-5"/>
      <feComposite in="SourceGraphic"/>
    </filter>
    <filter id="Path_944" x="216.38" y="61.426" width="57.442" height="70.09" filterUnits="userSpaceOnUse">
      <feOffset input="SourceAlpha"/>
      <feGaussianBlur stdDeviation="5" result="blur-6"/>
      <feFlood flood-opacity="0.702"/>
      <feComposite operator="in" in2="blur-6"/>
      <feComposite in="SourceGraphic"/>
    </filter>
    <filter id="Path_945" x="245.701" y="58.777" width="76.154" height="75.142" filterUnits="userSpaceOnUse">
      <feOffset input="SourceAlpha"/>
      <feGaussianBlur stdDeviation="5" result="blur-7"/>
      <feFlood flood-opacity="0.702"/>
      <feComposite operator="in" in2="blur-7"/>
      <feComposite in="SourceGraphic"/>
    </filter>
    <filter id="Path_946" x="292.866" y="58.921" width="75.577" height="75.046" filterUnits="userSpaceOnUse">
      <feOffset input="SourceAlpha"/>
      <feGaussianBlur stdDeviation="5" result="blur-8"/>
      <feFlood flood-opacity="0.702"/>
      <feComposite operator="in" in2="blur-8"/>
      <feComposite in="SourceGraphic"/>
    </filter>
    <filter id="Path_947" x="339.503" y="58.879" width="76.394" height="75.088" filterUnits="userSpaceOnUse">
      <feOffset input="SourceAlpha"/>
      <feGaussianBlur stdDeviation="5" result="blur-9"/>
      <feFlood flood-opacity="0.702"/>
      <feComposite operator="in" in2="blur-9"/>
      <feComposite in="SourceGraphic"/>
    </filter>
    <filter id="Path_948" x="386.236" y="59.258" width="75.912" height="74.709" filterUnits="userSpaceOnUse">
      <feOffset input="SourceAlpha"/>
      <feGaussianBlur stdDeviation="5" result="blur-10"/>
      <feFlood flood-opacity="0.702"/>
      <feComposite operator="in" in2="blur-10"/>
      <feComposite in="SourceGraphic"/>
    </filter>
    <filter id="Path_949" x="0.433" y="117.108" width="74.95" height="74.516" filterUnits="userSpaceOnUse">
      <feOffset input="SourceAlpha"/>
      <feGaussianBlur stdDeviation="5" result="blur-11"/>
      <feFlood flood-opacity="0.702"/>
      <feComposite operator="in" in2="blur-11"/>
      <feComposite in="SourceGraphic"/>
    </filter>
    <filter id="Path_950" x="48.272" y="117.108" width="72.881" height="74.179" filterUnits="userSpaceOnUse">
      <feOffset input="SourceAlpha"/>
      <feGaussianBlur stdDeviation="5" result="blur-12"/>
      <feFlood flood-opacity="0.702"/>
      <feComposite operator="in" in2="blur-12"/>
      <feComposite in="SourceGraphic"/>
    </filter>
    <filter id="Path_951" x="99.576" y="116.819" width="69.752" height="74.805" filterUnits="userSpaceOnUse">
      <feOffset input="SourceAlpha"/>
      <feGaussianBlur stdDeviation="5" result="blur-13"/>
      <feFlood flood-opacity="0.702"/>
      <feComposite operator="in" in2="blur-13"/>
      <feComposite in="SourceGraphic"/>
    </filter>
    <filter id="Path_952" x="146.212" y="116.915" width="72.544" height="74.758" filterUnits="userSpaceOnUse">
      <feOffset input="SourceAlpha"/>
      <feGaussianBlur stdDeviation="5" result="blur-14"/>
      <feFlood flood-opacity="0.702"/>
      <feComposite operator="in" in2="blur-14"/>
      <feComposite in="SourceGraphic"/>
    </filter>
    <filter id="Path_953" x="194.051" y="116.529" width="73.314" height="74.758" filterUnits="userSpaceOnUse">
      <feOffset input="SourceAlpha"/>
      <feGaussianBlur stdDeviation="5" result="blur-15"/>
      <feFlood flood-opacity="0.702"/>
      <feComposite operator="in" in2="blur-15"/>
      <feComposite in="SourceGraphic"/>
    </filter>
    <filter id="Path_954" x="239.196" y="116.674" width="76.056" height="74.95" filterUnits="userSpaceOnUse">
      <feOffset input="SourceAlpha"/>
      <feGaussianBlur stdDeviation="5" result="blur-16"/>
      <feFlood flood-opacity="0.702"/>
      <feComposite operator="in" in2="blur-16"/>
      <feComposite in="SourceGraphic"/>
    </filter>
    <filter id="Path_955" x="286.842" y="116.482" width="76.298" height="75.19" filterUnits="userSpaceOnUse">
      <feOffset input="SourceAlpha"/>
      <feGaussianBlur stdDeviation="5" result="blur-17"/>
      <feFlood flood-opacity="0.702"/>
      <feComposite operator="in" in2="blur-17"/>
      <feComposite in="SourceGraphic"/>
    </filter>
    <filter id="Path_956" x="334.633" y="116.722" width="75.624" height="72.544" filterUnits="userSpaceOnUse">
      <feOffset input="SourceAlpha"/>
      <feGaussianBlur stdDeviation="5" result="blur-18"/>
      <feFlood flood-opacity="0.702"/>
      <feComposite operator="in" in2="blur-18"/>
      <feComposite in="SourceGraphic"/>
    </filter>
    <filter id="Path_957" x="382.616" y="116.915" width="75.817" height="74.854" filterUnits="userSpaceOnUse">
      <feOffset input="SourceAlpha"/>
      <feGaussianBlur stdDeviation="5" result="blur-19"/>
      <feFlood flood-opacity="0.702"/>
      <feComposite operator="in" in2="blur-19"/>
      <feComposite in="SourceGraphic"/>
    </filter>
  </defs>
  <g id="mob_title_7" transform="translate(-147.014 -85)">
    <g id="Group_140" data-name="Group 140" transform="translate(-844.853 -7963.12)">
      <g id="Group_139" data-name="Group 139">
        <g id="Group_138" data-name="Group 138">
          <g transform="matrix(1, 0, 0, 1, 991.87, 8048.12)" filter="url(#Path_939)">
            <path id="Path_939-2" data-name="Path 939" d="M1050.132,8129.067a43.152,43.152,0,0,1,3.273,3.225c-.1.481-.53.722-1.2.722h-3.8v5.149c0,.241-.769.674-1.684,1.011L1051,8142.4a2.47,2.47,0,0,1-1.637.819v4.908c0,.434-2.358,1.444-3.994,1.444h-.818v-1.924h-14.631v1.2c0,.432-2.165,1.443-4.091,1.443h-.674v-11.069l1.011.385v-6.593h-2.214c.434.481.915.963,1.252,1.4-.1.53-.626.771-1.2.771h-5.391v3.994c10.251,4.235,5.679,11.7,2.022,8.229a18.289,18.289,0,0,0-2.022-6.929V8165.5c0,.482-2.213,1.54-4.283,1.54h-1.058v-18.577a34,34,0,0,1-5.824,7.123l-.577-.577c3.128-5.439,4.861-12.61,5.679-19.828h-4.524l-.385-1.4h5.631v-11.791l7.123.674c-.145.722-.482,1.2-1.782,1.4v9.721h.049l2.358-3.658s1.3,1.2,2.6,2.551l-.289-1.011h2.839v-6.977l4.861,1.972h3.7v-4.572l6.4.626c-.048.626-.434,1.058-1.588,1.2v2.743h3.754l2.261-2.454,4.765,3.609a3.247,3.247,0,0,1-1.926.962v2.84Zm-2.117,20.213s3.08,2.359,5.005,4.091c-.145.529-.674.771-1.348.771h-4.813a18.322,18.322,0,0,1-3.464,5.534c13.234,3.08,6.449,9.674,1.973,6.5a35.572,35.572,0,0,0-5.679-3.609c-3.995,2.358-9.673,3.706-18,4.427l-.193-.721c6.257-1.348,10.877-3.033,14.15-5.439-1.3-.529-2.7-.963-4.188-1.444-.48.674-.866,1.252-1.251,1.732a7.212,7.212,0,0,1-5.054-.914c1.156-1.492,2.7-3.8,4.14-6.063H1022.7l-.385-1.4h7.8a48.237,48.237,0,0,0,2.744-5.054l6.593,1.348c-.192.674-.769,1.107-2.117,1.107-.386.673-.915,1.588-1.54,2.6h9.528Zm-17.23-10.683c0,.384-1.78,1.3-3.609,1.443l3.032,1.2h4.523v-3.272h-3.946Zm-.866,7.7h4.812v-3.706h-4.812Zm.866-14.631h3.946v-3.609h-3.946Zm0,1.348v3.561h3.946v-3.561Zm4.14,21.128c-.866,1.347-1.829,2.791-2.7,4.138,2.07.1,3.995.241,5.679.433a14.109,14.109,0,0,0,2.743-4.571Zm4.62-26.085v3.609h4.234v-3.609Zm4.234,4.957h-4.234v3.561h4.234Zm2.022,6.449a5.465,5.465,0,0,1-1.2.144h-.819v-1.636h-4.234v3.272h4.523Zm-1.251,6.834v-3.706h-5.005v3.706Z" transform="translate(-991.87 -8048.12)" fill="#fff"/>
          </g>
          <g transform="matrix(1, 0, 0, 1, 991.87, 8048.12)" filter="url(#Path_940)">
            <path id="Path_940-2" data-name="Path 940" d="M1093.063,8122.33s3.946,3.08,6.352,5.149c-.144.53-.674.77-1.4.77h-19.155v7.7c18.432,1.974,16.17,14,9.865,11.262-2.069-3.513-6.208-7.508-9.865-10.154v28.25c0,.384-1.925,1.732-4.909,1.732h-1.106v-38.79h-18.144l-.434-1.4H1089.5Z" transform="translate(-991.87 -8048.12)" fill="#fff"/>
          </g>
          <g transform="matrix(1, 0, 0, 1, 991.87, 8048.12)" filter="url(#Path_941)">
            <path id="Path_941-2" data-name="Path 941" d="M1145.137,8160.542a2.23,2.23,0,0,1,1.492,2.311c0,2.117-1.925,3.272-6.882,3.272H1137.1c-3.947,0-4.524-1.155-4.524-4.62v-9.722c-2.261,6.064-6.4,11.165-14.2,15.256l-.529-.674c9.047-7.8,11.069-17.325,11.454-29.213h-4.668a4.224,4.224,0,0,1-1.252.434v8.422c-.048.337-2.7,1.2-4.331,1.2h-.914v-1.78h-1.782v15.159c0,3.609-.769,5.968-6.449,6.449a7.656,7.656,0,0,0-.769-3.657c-.53-.771-1.4-1.4-3.369-1.685v-.674s3.561.29,4.379.29c.674,0,.867-.29.867-.868v-8.373a3.2,3.2,0,0,1-1.011.144,23.773,23.773,0,0,1-8.663,9.577l-.577-.385a37.763,37.763,0,0,0,4.475-12.272l5.776,1.877v-5.582h-1.877v.818c0,.433-2.214,1.54-4.236,1.54h-.721v-14.534l5.2,2.117h8.278l2.454-2.647,4.091,3.032h5.15c.144-4.331.047-8.951.047-13.908l7.7.721c-.144.771-.578,1.2-1.781,1.4-.047,4.14-.047,8.086-.192,11.791h3.128l2.695-3.368a4.854,4.854,0,0,1-1.395-.723,16.64,16.64,0,0,0-3.129-7.026l.433-.241c9.818,1.877,8.133,8.133,4.765,8.085.962.771,3.176,2.551,4.668,3.9-.145.529-.626.769-1.3.769h-9.913c-.049,1.011-.1,1.974-.193,2.985l4.717.432c-.1.578-.482,1.06-1.54,1.2v18.241c0,.626.144.866.866.866h1.4a9.031,9.031,0,0,0,1.3-.048c.385,0,.529-.144.77-.626a60.622,60.622,0,0,0,2.069-7.363h.529Zm-43.795-30.656h9.577v-7.941l7.026.577c-.095.626-.385,1.059-1.491,1.251v6.113h2.551l2.983-3.946s3.321,2.695,5.294,4.572c-.1.529-.626.769-1.347.769h-24.207Zm16.8,14.2v-7.363h-9v7.363Zm-.242,5.486c11.262,4.091,5.631,12.273,1.588,8.182a18.816,18.816,0,0,0-2.02-7.941Z" transform="translate(-991.87 -8048.12)" fill="#fff"/>
          </g>
          <g transform="matrix(1, 0, 0, 1, 991.87, 8048.12)" filter="url(#Path_942)">
            <path id="Path_942-2" data-name="Path 942" d="M1173.87,8161.168c.914.048,1.877.048,2.887.048,3.658,0,12.514,0,16.363-.1v.578c-1.78.385-2.646,2.31-2.646,4.428h-13.813c-8.566,0-13.283-1.877-16.026-9.481-2.454,4.09-6.449,7.844-12.85,10.347l-.385-.481c6.834-5.054,9.241-12.61,9.867-18.818l7.843,1.493c-.192.673-.625,1.106-1.828,1.106a25.056,25.056,0,0,1-2.021,5.246,10.372,10.372,0,0,0,6.593,4.908v-14.919h-19.443l-.385-1.347h36.431l3.08-4.09s3.369,2.791,5.439,4.668c-.145.529-.674.769-1.348.769H1173.87v6.642h5.823l3.224-4.331s3.706,2.935,5.872,4.957c-.144.529-.626.77-1.348.77H1173.87ZM1161.982,8141c0,.577-2.646,1.877-5.1,1.877h-.866v-20.165l6.3,2.5h16.411l2.7-2.985,5.726,4.284a3.266,3.266,0,0,1-1.924,1.058v13.139c-.048.289-3.081,1.348-5.005,1.348h-1.011v-2.455h-17.23Zm0-14.438v5.1h17.23v-5.1Zm17.23,11.647v-5.2h-17.23v5.2Z" transform="translate(-991.87 -8048.12)" fill="#fff"/>
          </g>
          <g transform="matrix(1, 0, 0, 1, 991.87, 8048.12)" filter="url(#Path_943)">
            <path id="Path_943-2" data-name="Path 943" d="M1220.823,8157.927v5.829h-26.4v-4.289c3.189-3.465,6.379-6.82,9.073-9.57,6.215-6.489,8.69-10.5,8.69-15.892,0-5.06-2.64-8.359-7.095-8.359a10.736,10.736,0,0,0-2.584.33l-1.321,5.059c-.6,3.244-2.089,4.18-3.684,4.18a3.511,3.511,0,0,1-3.244-2.09c.66-6.159,6.433-9.459,13.2-9.459,8.3,0,12.1,4.4,12.1,10.613,0,5.445-3.96,10.065-13.859,17.708-1.76,1.375-4.345,3.63-7.039,5.94Z" transform="translate(-991.87 -8048.12)" fill="#fff"/>
          </g>
          <g transform="matrix(1, 0, 0, 1, 991.87, 8048.12)" filter="url(#Path_944)">
            <path id="Path_944-2" data-name="Path 944" d="M1229.516,8140.714a23.455,23.455,0,0,1,6.929-.99c8.689,0,14.244,4.29,14.244,11.989,0,8.139-6.27,12.923-15.289,12.923-7.093,0-11.438-3.409-12.153-9.184a3.294,3.294,0,0,1,3.244-2.2c1.98,0,3.08,1.1,3.575,4.125l.935,4.729a9.8,9.8,0,0,0,3.244.5c5.445,0,8.8-3.794,8.8-10.064,0-6.489-3.244-9.788-8.523-9.788a18.027,18.027,0,0,0-6.16.935l-1.594-.826,1.319-18.312h21.282v5.829H1230.23Z" transform="translate(-991.87 -8048.12)" fill="#fff"/>
          </g>
          <g transform="matrix(1, 0, 0, 1, 991.87, 8048.12)" filter="url(#Path_945)">
            <path id="Path_945-2" data-name="Path 945" d="M1278.894,8142.062c4.332,6.978,12.416,12.416,19.828,14.823l-.145.529c-2.262.433-4.042,2.262-4.812,5.053-7.075-4.042-12.321-10.636-15.545-19.539v22.331c0,.577-2.454,1.78-4.668,1.78h-1.107v-18a49.546,49.546,0,0,1-19.491,14.39l-.386-.577a51.668,51.668,0,0,0,17.037-20.791h-15.881l-.433-1.4h19.154V8121.9l7.556.721c-.1.674-.481,1.155-1.781,1.348v16.7h10.347l3.417-4.188s3.706,2.84,6.016,4.814c-.145.529-.674.77-1.348.77Zm-21.32-16.412c15.545,4.573,10.78,16.171,5.1,11.791-.578-3.994-3.08-8.421-5.535-11.5Zm37.154,2.744a1.739,1.739,0,0,1-2.022.721,62.45,62.45,0,0,1-11.357,9.385l-.53-.433a117.419,117.419,0,0,0,6.5-13.235Z" transform="translate(-991.87 -8048.12)" fill="#fff"/>
          </g>
          <g transform="matrix(1, 0, 0, 1, 991.87, 8048.12)" filter="url(#Path_946)">
            <path id="Path_946-2" data-name="Path 946" d="M1324.567,8137.778c1.684,8.9,7.267,17.759,20.743,23.2l-.1.529c-2.936.529-4.668,2.31-5.2,5.582-11.214-6.834-14.824-18.528-16.122-28.153-1.445,11.454-6.257,21.271-23.727,28.153l-.434-.722c13.38-8.085,17.134-17.614,18.193-28.587h-17.374l-.385-1.4h17.855c.336-4.525.288-9.337.288-14.342l8.086.771c-.145.721-.578,1.2-1.733,1.4-.1,4.187-.144,8.277-.481,12.176h10.829l3.56-4.38s3.9,2.936,6.3,5.006c-.145.529-.674.769-1.4.769Z" transform="translate(-991.87 -8048.12)" fill="#fff"/>
          </g>
          <g transform="matrix(1, 0, 0, 1, 991.87, 8048.12)" filter="url(#Path_947)">
            <path id="Path_947-2" data-name="Path 947" d="M1346.756,8133.11c12.705.819,8.614,10.347,3.705,7.075a14.3,14.3,0,0,0-4.091-6.787Zm14.967-3.706c-2.07,6.208-5.631,17.711-6.305,20.454a21.981,21.981,0,0,0-.818,4.764c.1,2.5,2.07,4.188,1.925,8.374a3.854,3.854,0,0,1-4.043,4c-1.155,0-2.213-.674-2.6-2.455.866-4.957.626-9.336-.53-10.106a4.412,4.412,0,0,0-2.5-.77v-.914h2.213c.722,0,.914,0,1.493-1.011,1.01-1.925,1.01-1.925,10.346-22.571Zm-11.165-6.737c13.186.385,9.721,10.251,4.475,7.411a18.169,18.169,0,0,0-4.812-7.074Zm21.319,19.828c-.337.529-.722.674-1.78.77-1.588,7.46-5.246,15.111-13.042,19.972l-.482-.529c4.861-5.149,7.219-12.9,8.085-20.069h-5.823l-.433-1.347h5.919l2.7-2.792Zm20.357-4.043c-.24.482-.721.722-1.828.529a63.942,63.942,0,0,1-9.337,6.5,26.692,26.692,0,0,0,11.7,12.369l-.241.481c-2.309.529-4.043,2.648-4.86,5.391-5.294-5.68-8.229-12.177-9.674-24.69v21.658c0,3.753-.914,5.823-7.46,6.4-.143-1.685-.432-2.984-1.3-3.754-.818-.817-1.924-1.443-4.524-1.877v-.625s5.487.337,6.594.337c.866,0,1.058-.337,1.058-1.011v-26.422h-9l-.385-1.3h8.9l2.551-2.985,5.535,4.188a3.606,3.606,0,0,1-1.974,1.058v.674a38.485,38.485,0,0,0,2.551,9,64.5,64.5,0,0,0,5.39-9.866Zm-24.591-16.266c15.3-1.733,14.677,9.143,8.758,7.7a30.5,30.5,0,0,0-9.095-7.219Z" transform="translate(-991.87 -8048.12)" fill="#fff"/>
          </g>
          <g transform="matrix(1, 0, 0, 1, 991.87, 8048.12)" filter="url(#Path_948)">
            <path id="Path_948-2" data-name="Path 948" d="M1393.487,8133.447c12.7.819,8.615,10.347,3.706,7.075a13.914,13.914,0,0,0-4.09-6.738Zm14.823-3.272c-1.829,5.967-5.053,17.133-5.679,19.827a19.468,19.468,0,0,0-.674,4.62c.049,2.551,2.07,4.235,1.877,8.471a3.907,3.907,0,0,1-4.042,3.994c-1.107,0-2.214-.722-2.6-2.5.867-4.957.722-9.337-.433-10.107a5.294,5.294,0,0,0-2.454-.77v-.914h2.165c.674,0,.915,0,1.4-1.011.962-1.829.962-1.829,9.673-21.8Zm-11.069-7.412c13.139.385,9.722,10.251,4.428,7.412a17.821,17.821,0,0,0-4.813-7.075Zm39.415,36.624c1.782.626,2.359,1.3,2.359,2.358,0,2.648-2.551,3.8-13.524,3.8h-6.978c-5.919,0-8.037-.962-8.037-5.727v-17.9l-4.042,1.492-.915-1.2,4.957-1.829V8127l6.93.722c-.049.626-.529,1.155-1.684,1.347v9.337l4.572-1.684v-14.342l6.978.674c-.144.674-.53,1.155-1.781,1.347v10.4l4.38-1.637.433-.144,2.743-2.6,4.861,3.994a3.111,3.111,0,0,1-1.877.819c-.144,11.743-.529,15.255-2.5,16.988a7.826,7.826,0,0,1-5.053,1.589c0-1.637-.048-2.936-.53-3.61a4.185,4.185,0,0,0-2.454-1.54v6.738c0,.529-2.262,1.588-4.235,1.588h-.962V8138.26l-4.572,1.684v18.24c0,1.444.674,1.877,3.272,1.877h6.882c2.647,0,4.765,0,5.823-.1a2.372,2.372,0,0,0,1.781-.771,37.683,37.683,0,0,0,2.5-6.641h.53Zm-11.165-23.052v11.646c.819.1,2.262.144,2.984.144.673,0,.963-.1,1.2-.385.77-.769,1.011-4.331,1.107-13.379Z" transform="translate(-991.87 -8048.12)" fill="#fff"/>
          </g>
          <g transform="matrix(1, 0, 0, 1, 991.87, 8048.12)" filter="url(#Path_949)">
            <path id="Path_949-2" data-name="Path 949" d="M1045.993,8180.228s3.9,2.983,6.257,5.052c-.1.53-.674.771-1.4.771h-13.715a49.512,49.512,0,0,1-5.006,7.171l2.118.77c-.145.434-.578.771-1.492.914v28.539c-.1.337-2.6,1.3-4.717,1.3h-1.059v-26.229a67.526,67.526,0,0,1-19.394,12.177l-.289-.481c9.577-6.112,18.385-15.688,21.945-24.159h-21.079l-.433-1.4h34.747Zm-11.6,15.785c21.175,3.417,19.154,15.978,12.706,13.187-2.6-4.427-8.471-9.674-13.091-12.8Z" transform="translate(-991.87 -8048.12)" fill="#fff"/>
          </g>
          <g transform="matrix(1, 0, 0, 1, 991.87, 8048.12)" filter="url(#Path_950)">
            <path id="Path_950-2" data-name="Path 950" d="M1098.02,8184.7a3.753,3.753,0,0,1-2.166,1.154v31.861c0,3.85-.818,5.968-7.219,6.545a7.26,7.26,0,0,0-1.059-3.9c-.722-.818-1.78-1.443-4.091-1.877v-.673s4.717.336,5.679.336c.818,0,1.059-.336,1.059-1.011v-9.528h-9.673v15.015c0,.337-1.685,1.54-4.572,1.54h-1.011v-16.555h-9.192c-.915,6.161-3.465,12.271-10.106,16.8l-.53-.385c5.15-7.315,5.631-16.6,5.631-25.7v-17.228l6.449,2.309h22.474l2.7-3.175Zm-23.053,21.561v-10.251h-8.614v2.262a64.731,64.731,0,0,1-.385,7.989Zm-8.614-21.513v9.866h8.614v-9.866Zm14.2,0v9.866h9.673v-9.866Zm9.673,21.513v-10.251h-9.673v10.251Z" transform="translate(-991.87 -8048.12)" fill="#fff"/>
          </g>
          <g transform="matrix(1, 0, 0, 1, 991.87, 8048.12)" filter="url(#Path_951)">
            <path id="Path_951-2" data-name="Path 951" d="M1146.195,8204.772c-.048.576-.432,1.01-1.588,1.2v16.988c0,.386-2.406,1.348-4.475,1.348h-.963v-4.042h-27.384v3.129c0,.432-2.358,1.347-4.331,1.347h-1.011V8204.1l6.979.675c-.1.576-.434,1.01-1.637,1.2v12.9h10.636v-19.057h-8.277v1.636c0,.433-2.407,1.3-4.476,1.3h-.963v-18.288l7.075.626c-.1.626-.433,1.059-1.636,1.251v12.128h8.277v-18.528l7.46.721c-.1.722-.434,1.2-1.733,1.4v16.411h8.662v-14l7.028.626c-.049.626-.386,1.059-1.541,1.251v14.919c0,.386-2.406,1.252-4.524,1.252h-.963v-2.694h-8.662v19.057h11.021V8204.1Z" transform="translate(-991.87 -8048.12)" fill="#fff"/>
          </g>
          <g transform="matrix(1, 0, 0, 1, 991.87, 8048.12)" filter="url(#Path_952)">
            <path id="Path_952-2" data-name="Path 952" d="M1195.623,8184.174a3.606,3.606,0,0,1-1.974,1.058v37.54c-.1.433-2.5,1.731-4.523,1.731h-.818v-3.465h-30.031v1.78c0,.674-2.118,1.974-4.332,1.974h-.866v-44.227l5.631,2.357h29.116l2.6-2.888Zm-7.315,35.469v-35.325h-30.031v35.325Zm-14.919-11.453c-2.166,1.395-5.535,3.417-10.251,5.919a1.9,1.9,0,0,1-1.2,1.154l-2.744-5.535c2.551-.239,8.327-1.105,14.1-2.116Zm14.245-11.118c-.24.577-.866.914-1.973.771a37.11,37.11,0,0,1-5.2,9.817,14.948,14.948,0,0,0,2.6,3.754c.531.626.771.577,1.156-.145a34.09,34.09,0,0,0,1.973-4.765l.53.1-.771,6.593c1.3,2.166,1.54,3.321.866,4.043-1.683,1.732-4.812.145-6.352-1.492a23.021,23.021,0,0,1-3.225-4.476,32.47,32.47,0,0,1-11.02,6.834l-.434-.577A33.8,33.8,0,0,0,1175.7,8208a44.9,44.9,0,0,1-2.5-10.588,2.339,2.339,0,0,1-1.347.626v7.122c-.048.337-1.925,1.3-3.322,1.3h-.625v-1.492h-2.935v1.155c0,.289-1.733,1.2-3.273,1.2h-.578v-12.657l4.043,1.685h2.406l1.83-1.877,3.8,2.839c-.192-1.443-.289-2.936-.385-4.427h-13.042l-.385-1.4h13.331c-.1-2.069-.145-4.234-.193-6.4l6.4,1.106c-.145.578-.577,1.108-1.685,1.2,0,1.347,0,2.744.049,4.09h3.8l1.058-1.4-.192-.1a11.451,11.451,0,0,0-2.983-4.572l.432-.337c6.4.289,6.931,3.465,5.487,4.812.818.674,1.829,1.493,2.55,2.214-.144.529-.626.771-1.3.771h-8.759a49.248,49.248,0,0,0,1.3,9.914,39.948,39.948,0,0,0,2.887-8.277Zm-19.732,6.545V8197.7h-2.935v5.919Z" transform="translate(-991.87 -8048.12)" fill="#fff"/>
          </g>
          <g transform="matrix(1, 0, 0, 1, 991.87, 8048.12)" filter="url(#Path_953)">
            <path id="Path_953-2" data-name="Path 953" d="M1219.158,8190.19a3.945,3.945,0,0,1-1.973,1.01v27.624c-.048.385-2.6,1.54-4.427,1.54h-.866v-3.8h-5.872v3.415c0,.628-2.07,1.878-4.284,1.878h-.818v-35.181l5.294,2.31h.049c.337-2.406.817-6.449,1.058-9.192l7.845,1.829c-.192.818-.866,1.154-1.974,1.154-1.395,1.782-3.561,4.428-5.149,6.209h3.369l2.6-2.839Zm-13.138.144v11.405h5.872v-11.405Zm5.872,24.881v-12.176h-5.872v12.176Zm32.34-24.978a3.684,3.684,0,0,1-2.213.866c-.674,18.77-2.022,27.914-4.958,30.849-1.876,1.829-4.09,2.455-7.363,2.455,0-1.685-.241-2.888-1.059-3.658a10.6,10.6,0,0,0-5.053-2.117v-.626c2.358.193,5.775.435,7.074.435a2.45,2.45,0,0,0,1.974-.723c2.117-1.781,3.32-11.6,3.946-27.528H1225.7a31.606,31.606,0,0,1-7.94,8.71l-.578-.386a59.367,59.367,0,0,0,6.545-18.866l7.556,2.262a1.769,1.769,0,0,1-1.925.963,48.046,48.046,0,0,1-2.792,5.92h9.53l3.032-3.177Zm-21.705,6.594c13.861,4.522,8.326,14.727,3.417,10.251-.144-3.466-1.973-7.267-3.85-9.914Z" transform="translate(-991.87 -8048.12)" fill="#fff"/>
          </g>
          <g transform="matrix(1, 0, 0, 1, 991.87, 8048.12)" filter="url(#Path_954)">
            <path id="Path_954-2" data-name="Path 954" d="M1246.447,8190.671c12.176,1.828,7.653,10.78,3.129,7.363a14.5,14.5,0,0,0-3.513-7.075Zm13.091-2.5c-1.589,5.775-4.475,16.459-5.054,18.962a24.116,24.116,0,0,0-.625,4.523c.1,2.6,1.973,4.428,1.829,8.711-.1,2.454-1.588,4-3.8,4-1.059,0-2.166-.723-2.454-2.5.866-5.054.673-9.625-.434-10.348a4.815,4.815,0,0,0-2.5-.77v-.963h2.165c.626,0,.866,0,1.348-1.011.963-1.732.963-1.732,8.759-20.79Zm-9.722-8.229c12.706,2.021,8.278,11.164,3.465,7.748a19.129,19.129,0,0,0-3.849-7.412Zm39.752,28.394c-.337.482-.818.626-1.972.674a26.862,26.862,0,0,1-6.642,7.748,52.029,52.029,0,0,0,11.165,2.454l-.1.578c-2.166.577-3.609,2.359-4.235,4.957a31.234,31.234,0,0,1-11.021-5.2,46.829,46.829,0,0,1-15.786,5.149l-.288-.625a40.907,40.907,0,0,0,13.475-6.881,23.222,23.222,0,0,1-5.1-9.049h-4.089c-.819,5.871-3.033,11.887-8.76,16.362l-.529-.337c4.332-7.411,4.62-16.651,4.62-25.266v-15.929l6.015,2.646h6.931v-5.823l7.219.577c-.1.674-.482,1.155-1.781,1.348v3.9h4.909l2.887-3.9s3.225,2.647,5.15,4.475c-.144.531-.674.771-1.347.771h-24.785v6.93h4.091v-6.063l6.3.577c-.047.53-.336.915-1.251,1.06v4.427h4.813v-6.063l6.449.577c-.1.53-.433.915-1.347,1.06v4.427h.481l2.454-3.369s2.743,2.31,4.38,4c-.1.48-.578.721-1.252.721h-6.063v7.893c0,.387-2.31,1.3-4.139,1.3h-.963v-2.551h-4.813v1.829c0,.337-2.309,1.251-4.09,1.251h-.962v-9.722h-4.091v3.658a74.086,74.086,0,0,1-.337,7.845h16.314l3.177-2.888Zm-19.539-.192a18,18,0,0,0,6.786,6.642,24.409,24.409,0,0,0,4.668-6.642Zm4.62-12.9v5.246h4.813v-5.246Z" transform="translate(-991.87 -8048.12)" fill="#fff"/>
          </g>
          <g transform="matrix(1, 0, 0, 1, 991.87, 8048.12)" filter="url(#Path_955)">
            <path id="Path_955-2" data-name="Path 955" d="M1312.526,8213.867v8.566c0,.722-1.877,2.069-4.283,2.069h-.914v-42.014a2.507,2.507,0,0,1-1.348.337,69,69,0,0,1-3.946,10.347l2.695.963c-.193.433-.626.77-1.54.914v28.3c-.048.337-2.213,1.443-4.187,1.443h-.914v-24.93a31.739,31.739,0,0,1-3.754,4.524l-.626-.385c2.888-6.112,5.535-15.545,6.786-24.4l6.834,2.069v-1.251l5.439,2.406h4.475l2.454-2.647,5.054,3.9a3.031,3.031,0,0,1-1.781.866v11.744c-.048.337-2.6,1.3-4.331,1.3h-.914v-2.454h-5.2v7.7h3.322l2.406-3.32s2.743,2.31,4.331,3.946c-.145.529-.577.77-1.251.77h-8.808v7.845h3.465l2.6-3.706s2.983,2.551,4.668,4.332c-.145.529-.577.77-1.251.77Zm0-29.79v10.059h5.2v-10.059Zm26.807,18.48c-.337.481-.818.626-1.877.771a31.785,31.785,0,0,1-5.294,11.405,28.947,28.947,0,0,0,7.845,5.1l-.1.481c-2.165.385-3.85,1.973-4.764,4.476a25.85,25.85,0,0,1-6.064-6.689,31.142,31.142,0,0,1-11.743,6.593l-.337-.625a27.131,27.131,0,0,0,10.4-9.24,42.877,42.877,0,0,1-3.176-12.272h-1.828l-.434-1.348h9.866l2.791-2.743Zm-14.294-18.384-.433-1.348h6.69l2.5-2.743,5.2,3.994a3.025,3.025,0,0,1-1.732.866v11.744c-.049.288-2.792,1.3-4.573,1.3h-.962v-2.357h-6.882l-.433-1.4h7.315v-10.058Zm.049,18.384a25.264,25.264,0,0,0,4.186,8.951,36.755,36.755,0,0,0,2.888-8.951Z" transform="translate(-991.87 -8048.12)" fill="#fff"/>
          </g>
          <g transform="matrix(1, 0, 0, 1, 991.87, 8048.12)" filter="url(#Path_956)">
            <path id="Path_956-2" data-name="Path 956" d="M1380.819,8216.61s3.9,2.984,6.305,5c-.145.531-.674.771-1.4.771h-43.411l-.384-1.4h19.3v-14.438H1348l-.385-1.4h13.62v-12.32h-8.518a37.974,37.974,0,0,1-10.685,11.791l-.529-.433c3.706-5.486,7.268-14.2,8.951-22.908l8.086,2.406c-.144.578-.77,1.011-1.877,1.011a49.181,49.181,0,0,1-3.177,6.785h7.749v-11.646l7.989.77c-.145.722-.482,1.2-1.781,1.4v9.48h7.6l3.321-4.09s3.7,2.695,6.064,4.668c-.145.529-.674.77-1.444.77H1367.44v12.32h6.016l3.369-4.187s3.85,2.839,6.16,4.813c-.144.529-.626.77-1.3.77H1367.44v14.438h9.914Z" transform="translate(-991.87 -8048.12)" fill="#fff"/>
          </g>
          <g transform="matrix(1, 0, 0, 1, 991.87, 8048.12)" filter="url(#Path_957)">
            <path id="Path_957-2" data-name="Path 957" d="M1389.869,8191.008c12.994.577,9.288,10.395,4.235,7.314a15.217,15.217,0,0,0-4.621-6.929Zm15.111-1.155c-1.973,5.486-5.534,15.785-6.208,18.191a19.221,19.221,0,0,0-.818,4.524c.1,2.5,2.069,4.139,1.925,8.325a3.9,3.9,0,0,1-4.139,4c-1.155,0-2.214-.723-2.647-2.455.915-5.053.722-9.336-.433-10.106a5.021,5.021,0,0,0-2.551-.818v-.866h2.262c.722,0,.963-.048,1.54-1.011,1.108-1.78,1.108-1.78,10.348-20.021Zm-11.5-9.385c13.426.577,10.009,10.588,4.668,7.7a19.581,19.581,0,0,0-5.054-7.315Zm36.382,10.877s3.417,2.838,5.439,4.763c-.145.53-.674.771-1.348.771H1421.44v9.24h4.042l2.647-2.888,5.438,4.187a3.581,3.581,0,0,1-1.973,1.011v14.39c-.048.386-2.743,1.589-4.668,1.589h-.963v-3.946h-14.582v2.454c0,.529-2.406,1.732-4.765,1.732h-.721v-20.839l5.775,2.311h4.043v-9.24h-12.177l-.385-1.4h12.562V8187.3c-3.9.385-7.989.674-11.743.769l-.1-.721c8.134-1.636,18.481-4.861,23.774-7.316l5.583,5.391c-.577.432-1.684.481-3.176-.1-2.407.482-5.39.963-8.614,1.348v8.808h5.341Zm-18.48,16.169v11.551h14.582v-11.551Z" transform="translate(-991.87 -8048.12)" fill="#fff"/>
          </g>
        </g>
      </g>
    </g>
    <g id="Group_252" data-name="Group 252" transform="translate(-4.126 -0.28)">
      <path id="Path_1595" data-name="Path 1595" d="M214.78,86.027c6.806,0,10.427,3.251,10.427,7.82,0,3.339-2.182,6.458-7.591,7.555,6.5.923,9.2,4.086,9.2,8.039,0,4.394-3.533,8.788-12.65,8.788H201.126v-1.67l4.45-.483c.087-4.262.087-8.566.087-12.872v-2.329c0-4.261,0-8.479-.087-12.695l-4.45-.483v-1.67Zm-4.667,1.889c-.088,4.13-.088,8.391-.088,12.652h2.531c5.758,0,8.376-2.064,8.376-6.546,0-4.305-2.444-6.106-7.46-6.106Zm3.141,28.379c5.976,0,9.03-2.416,9.03-6.809,0-4.613-2.88-6.941-9.511-6.941h-2.748c0,5.008,0,9.4.088,13.75Z" fill="#fff"/>
      <path id="Path_1596" data-name="Path 1596" d="M255.572,109.662l-.261,8.567H230.706v-1.67l4.449-.483c.088-4.218.088-8.435.088-12.74v-2.373c0-4.305,0-8.567-.088-12.783l-4.449-.483v-1.67H254.4l.261,8.479H252.3l-1.266-6.37H239.692c-.087,4.173-.087,8.39-.087,12.739h7.2l.7-4.744h1.963v11.334H247.5l-.654-4.656H239.6c0,4.744,0,9.049.087,13.31h12.259l1.266-6.457Z" fill="#fff"/>
      <path id="Path_1597" data-name="Path 1597" d="M272.063,100.041c6.37,2.548,8.725,5.228,8.725,9.752,0,5.711-4.624,9.138-11.255,9.138a18.035,18.035,0,0,1-9.292-2.548l.3-6.766h2.443l1.222,6.02a9.656,9.656,0,0,0,5.017,1.185c4.624,0,7.634-2.108,7.634-6.018,0-3.119-1.745-4.613-6.02-6.325l-1.789-.749c-4.973-2.019-8.245-4.787-8.245-9.62,0-5.579,4.625-8.83,10.644-8.83a12.841,12.841,0,0,1,7.853,2.548L279,94.11h-2.486l-1.222-5.755a7.294,7.294,0,0,0-3.882-.966c-3.84,0-6.675,1.933-6.675,5.623,0,3.076,1.963,4.92,5.41,6.282Z" fill="#fff"/>
      <path id="Path_1598" data-name="Path 1598" d="M299.765,88.136c-.087,4.218-.087,8.522-.087,12.827v2.373c0,4.217,0,8.478.087,12.695l4.929.528v1.67H290.3v-1.67l4.929-.528c.087-4.173.087-8.39.087-12.695v-2.373c0-4.305,0-8.609-.087-12.827h-7.5l-1.309,6.458h-2.4l.392-8.567h26.219l.305,8.567h-2.312l-1.352-6.458Z" fill="#fff"/>
      <path id="Path_1599" data-name="Path 1599" d="M356.3,87.652l-4.144.572-10.034,30.311h-2.007L328.951,88.092l-3.621-.4v-1.67h12.957v1.846l-4.668.395,8.376,24.205,7.766-24.161-4.407-.439V86.027H356.3Z" fill="#fff"/>
      <path id="Path_1600" data-name="Path 1600" d="M383.266,116.559v1.67h-13v-1.67l4.711-.571-2.792-8.435H361.1l-2.749,8.39,4.668.616v1.67H352.379v-1.67l3.883-.616,10.165-30.135h2.792l10.3,30.311Zm-11.692-10.895L366.6,90.729l-4.886,14.935Z" fill="#fff"/>
      <path id="Path_1601" data-name="Path 1601" d="M411.014,109.529l-.087,7.074a19.47,19.47,0,0,1-9.554,2.328c-9.642,0-16.228-6.81-16.228-16.826,0-9.839,6.892-16.825,16.228-16.825a17.787,17.787,0,0,1,9.117,2.372l.087,7.074H407.96l-1.178-6.151a10.656,10.656,0,0,0-4.886-1.186c-6.587,0-11.822,5.14-11.822,14.716,0,9.622,4.8,14.717,11.648,14.717a12.566,12.566,0,0,0,5.5-1.185l1.177-6.108Z" fill="#fff"/>
      <path id="Path_1602" data-name="Path 1602" d="M445.085,116.559v1.67h-13v-1.67l4.711-.571L434,107.553h-11.08l-2.749,8.39,4.668.616v1.67H414.2v-1.67l3.883-.616,10.165-30.135h2.792l10.3,30.311Zm-11.691-10.895L428.42,90.729l-4.886,14.935Z" fill="#fff"/>
      <path id="Path_1603" data-name="Path 1603" d="M460.225,88.136c-.087,4.218-.087,8.522-.087,12.827v2.373c0,4.217,0,8.478.087,12.695l4.929.528v1.67H450.759v-1.67l4.929-.528c.087-4.173.087-8.39.087-12.695v-2.373c0-4.305,0-8.609-.087-12.827h-7.5l-1.309,6.458h-2.4l.392-8.567h26.219l.3,8.567h-2.312l-1.352-6.458Z" fill="#fff"/>
      <path id="Path_1604" data-name="Path 1604" d="M484.307,88.18c-.087,4.174-.087,8.478-.087,12.783v2.373c0,4.217,0,8.478.087,12.695l4.45.528v1.67H475.32v-1.67l4.45-.483c.087-4.218.087-8.435.087-12.74v-2.373c0-4.305,0-8.567-.087-12.783l-4.45-.483v-1.67h13.437V87.7Z" fill="#fff"/>
      <path id="Path_1605" data-name="Path 1605" d="M522.086,102.105c0,10.588-7.023,16.826-14.526,16.826-7.548,0-14.615-5.886-14.615-16.826,0-10.542,7.111-16.825,14.615-16.825C514.976,85.28,522.086,91.255,522.086,102.105ZM507.56,116.866c6.63,0,9.553-7.161,9.553-14.761,0-7.555-2.923-14.716-9.553-14.716-6.675,0-9.685,7.161-9.685,14.716C497.875,109.705,500.885,116.866,507.56,116.866Z" fill="#fff"/>
      <path id="Path_1606" data-name="Path 1606" d="M557.555,87.7l-4.014.571-.043,30.267h-1.7L532.3,91.563l.088,24.337,5.1.659v1.67h-11.3v-1.67l4.014-.571.087-27.237-.479-.615-3.4-.439v-1.67h7.372l17.668,24.6-.087-22.316-5.1-.615v-1.67h11.3Z" fill="#fff"/>
    </g>
  </g>
</svg>
