<?xml version="1.0" encoding="utf-8"?>
<!-- Generator: Adobe Illustrator 23.1.1, SVG Export Plug-In . SVG Version: 6.00 Build 0)  -->
<svg version="1.1" id="圖層_1" xmlns="http://www.w3.org/2000/svg" xmlns:xlink="http://www.w3.org/1999/xlink" x="0px" y="0px"
	 viewBox="0 0 320 100" style="enable-background:new 0 0 320 100;" xml:space="preserve">
<style type="text/css">
	.st0{fill:#C29B61;}
</style>
<g>
	<g>
		<g>
			<path class="st0" d="M39.4,14.9c-0.3,0.4-0.9,0.8-1.9,1v15c0,0.4-2.9,1.4-4.7,1.4h-1v-3.8H21.5v16c0,0.6-2.5,2-4.7,2h-1v-18H5.7
				v2.7c0,0.5-2.5,1.8-4.8,1.8H0V11.3l6.1,2.4h9.8v-10l7.4,0.7c-0.1,0.6-0.5,1.1-1.7,1.3v8h9.9l2.6-2.8L39.4,14.9z M15.8,27.2V15
				H5.7v12.2H15.8z M31.8,27.2V15H21.5v12.2H31.8z"/>
			<path class="st0" d="M54.2,37.6c2.2-0.5,4.6-1,6.9-1.6l0.2,0.5c-3.7,2-9.1,4.8-16.8,8.2c-0.2,0.5-0.7,1-1.2,1.2L41,40.2
				c0.7-0.1,1.6-0.3,2.6-0.5V23.6l5,0.5c0,0.4-0.3,0.8-1,0.9v14.2l2-0.4V19.2h-1.2v0.6c0,0.3-1.5,1.3-3.8,1.3h-0.8V4.9L49,7h4.8
				L56,4.6l4.7,3.6c-0.3,0.3-0.9,0.7-1.7,0.9v10.4c-0.1,0.3-2.4,1.1-3.9,1.1h-0.8v6.1h0.6l2.3-3.6c0,0,2.6,2.5,4.1,4.1
				c-0.1,0.5-0.6,0.7-1.2,0.7h-5.7v9.7C54.4,37.6,54.2,37.6,54.2,37.6z M48.3,17.9h5.8V8.2h-5.8V17.9z M81.9,11.1
				c-0.3,0.5-0.8,0.6-1.9,0.7c-1.4,3.2-3.4,6.2-5.9,8.9c3.1,1.8,6.8,3.1,11.1,4l-0.1,0.5C83,26,81.9,27.5,81.5,30
				c-1-0.4-2.1-0.8-3-1.3l3,2.2c-0.3,0.4-0.7,0.6-1.7,0.8V45c0,0.3-1.7,1.1-4.4,1.1h-1V43h-8.1v2.2c0,0.4-1.6,1.2-4.2,1.2h-0.9V29.3
				c-1.4,0.6-2.9,1.1-4.5,1.6l-0.4-0.6c5.1-2.4,9.3-5.7,12.5-9.7c-1.2-1.7-2.1-3.6-3-5.6c-2.1,2.4-4.5,4.3-7.1,5.8l-0.5-0.4
				c3.3-3.9,6.3-10.2,7.8-16.9l6.8,2.2c-0.2,0.6-0.8,1-1.8,0.9c-0.5,1-0.9,2.1-1.4,3h4.7l2.8-2.7L81.9,11.1z M76.5,27.6
				c-2-1.2-3.7-2.6-5.2-4.2c-2.4,2.1-5.2,3.8-8.4,5.3l4,1.5h7.4L76.5,27.6z M74.5,41.7V31.5h-8.1v10.2H74.5z M69,11
				c-0.6,1.1-1.3,2.1-2.1,3.1c1,1.6,2.4,3.1,3.9,4.3c1.6-2.4,2.8-4.8,3.8-7.4C74.6,11,69,11,69,11z"/>
			<path class="st0" d="M123.2,6.8c0,0,3.6,2.7,5.7,4.6c-0.1,0.5-0.6,0.7-1.3,0.7h-16.8l1,0.1c-0.1,0.6-0.4,1-1.5,1.2v5.2h7.5
				l2.4-2.8l5.3,4c-0.3,0.4-1,0.8-1.8,1v14c0,3.5-0.8,5.5-6.8,6c-0.1-1.7-0.3-2.9-1-3.7c-0.6-0.7-1.5-1.4-3.6-1.7v-0.6
				c0,0,3.9,0.2,5,0.2c0.8,0,1-0.3,1-0.9V19.8h-8v24.3c0,0.5-2.5,1.8-4.6,1.8h-1.1V19.8h-7.9v19.1c0,0.5-2.3,1.8-4.6,1.8h-0.8V16.2
				l5.7,2.3h7.6v-6.4h-18l-0.4-1.3h18.4V3.6l7.3,0.5c-0.1,0.6-0.4,1.1-1.6,1.3v5.3h9.7L123.2,6.8z"/>
			<path class="st0" d="M169.7,15.5c-0.9,7.1-2.7,13.3-6.3,18.5c2.8,3.1,6.3,5.7,10.6,7.6l-0.1,0.5c-2.6,0.5-4.1,2-4.7,4.4
				c-3.7-2.4-6.4-5.5-8.5-9.1c-3.8,3.9-9,7-16.2,9.1l-0.3-0.5c6.8-3.4,11.5-7.6,14.5-12.6c-1.6-3.9-2.8-8.3-3.6-13.1
				c-1.5,2.1-3.1,3.9-5,5.5l-0.5-0.4c0.5-0.9,0.9-1.8,1.3-2.8h-5.4v12.6c2.7-0.6,5.6-1.3,8.4-2l0.1,0.5c-4.2,2.3-10.6,5.5-19.9,9.4
				c-0.2,0.6-0.6,1-1.2,1.2l-2.8-5.9c0.7-0.1,1.7-0.3,2.8-0.5V16l5.7,0.5c-0.1,0.5-0.4,0.9-1.3,1v19.4l3.1-0.7V9.7h-9L131,8.3h15
				l2.8-3.6c0,0,3.1,2.5,5.1,4.2c-0.1,0.5-0.6,0.7-1.2,0.7h-7.2v11.5h0.7l2.5-3.7c0,0,1.6,1.5,3.1,2.9c1.8-4.9,3.2-10.8,3.9-16.7
				l7.6,1.7c-0.2,0.6-0.7,1-1.8,1c-0.8,2.8-1.7,5.3-2.8,7.7h7.5l2.8-3.7c0,0,3.1,2.6,5.1,4.3c-0.1,0.5-0.6,0.7-1.3,0.7h-3.1
				L169.7,15.5L169.7,15.5z M157.8,15.5c-0.6,1.2-1.3,2.4-2,3.5c1,4.1,2.5,7.7,4.5,10.9c2-4.4,3-9.2,3.4-14.4H157.8z"/>
			<path class="st0" d="M194.2,23.1c-1.8,1.1-4.1,2.5-6.9,4.1v17.4c0,0.5-2.1,1.8-4,1.8h-1V29.9c-1.3,0.7-2.6,1.4-4.1,2.1
				c-0.2,0.6-0.7,1-1.2,1.2l-2.5-6.2c1.6-0.3,4.4-0.9,7.8-1.6v-9.2h-2.7c-1,2.8-2.3,5.2-3.9,7.2l-0.7-0.3c1.3-4.4,2.1-10.6,2.1-16.2
				l5.2,1.1V3.4l6.6,0.7c-0.1,0.6-0.4,1.1-1.6,1.3v9.4h0.2l2.6-3.9c0,0,2.9,2.7,4.5,4.5c-0.1,0.5-0.6,0.7-1.2,0.7h-6v8
				c2.2-0.5,4.5-1.1,6.8-1.7L194.2,23.1z M182.4,14.9V9.2c-0.2,0.1-0.5,0.1-0.8,0.1c-0.4,1.9-0.9,3.8-1.5,5.6H182.4z M192.4,10.5
				h8.1V3.6l6.9,0.6c-0.1,0.6-0.5,1.1-1.7,1.3v5h3.2l2.6-3.8c0,0,3,2.6,4.7,4.4c-0.1,0.5-0.6,0.7-1.3,0.7h-9.3v7.1h4.7l2.8-4
				c0,0,3.1,2.7,4.9,4.6c-0.1,0.5-0.6,0.7-1.3,0.7h-26.6l-0.4-1.3h10.6v-7.1h-7.7L192.4,10.5z M214,22.8c0,0,2.7,2.5,4.2,4.2
				c-0.1,0.5-0.6,0.7-1.2,0.7h-5.9v12.5c0,3.6-0.9,5.7-7.3,6.2c-0.2-1.6-0.5-2.8-1.4-3.6s-2.1-1.4-4.8-1.8v-0.6c0,0,6.1,0.4,7.2,0.4
				c0.8,0,1-0.3,1-0.9V27.7h-15.2l-0.4-1.3h15.7v-5.8l6.8,0.6c-0.1,0.7-0.5,1-1.6,1.2v4h0.5L214,22.8z M192.9,28.7
				c12.8,2.4,8.3,11.6,3.6,8.1c-0.5-2.7-2.3-5.8-3.9-7.8L192.9,28.7z"/>
			<path class="st0" d="M257,38.1c0,0,3.3,2.6,5.3,4.3c-0.1,0.5-0.6,0.7-1.3,0.7h-33.7V45c0,0.4-1.6,1.7-4.3,1.7h-1V4.8l5.8,2.5H252
				l2.9-3.6c0,0,3.2,2.5,5.2,4.2c-0.1,0.5-0.6,0.7-1.3,0.7h-31.7v33.3h26.7L257,38.1z M237.7,38.8v-2.5h-3.4v2.1
				c0,0.4-1.9,1.3-3.8,1.3h-0.6V24.2l4.5,1.8h2.9l2.1-2.1l4.3,3.1c-0.2,0.3-0.8,0.6-1.5,0.8v9.8c0,0.3-2.2,1.2-3.7,1.2H237.7z
				 M237.7,35.1v-7.8h-3.4v7.8H237.7z M247,21.1h-7.2v1.4c0,0.5-2.3,1.6-4.3,1.6h-0.7V10l5.2,2.1h6.6l2.3-2.5l4.9,3.7
				c-0.3,0.3-0.8,0.6-1.6,0.8v8.1c0,0.3-2.6,1.2-4.2,1.2h-0.9L247,21.1L247,21.1z M247,19.8v-6.4h-7.2v6.4H247z M252.6,38.6v-2.3
				h-3.8v1.4c0,0.5-1.9,1.4-3.7,1.4h-0.6v-15l4.6,1.8h3.2l2.1-2.2l4.3,3.3c-0.2,0.3-0.8,0.6-1.5,0.7v9.5c0,0.4-2.3,1.2-3.7,1.2h-0.9
				L252.6,38.6L252.6,38.6z M252.6,35.1v-7.8h-3.8v7.8H252.6z"/>
		</g>
		<g>
			<path class="st0" d="M35.3,55.7c0,0,3.6,2.6,5.7,4.5c-0.1,0.5-0.6,0.7-1.3,0.7H23.2c-1.7,2.9-3.7,6-5.7,8.1h11.7l2.6-2.9l5.2,4.1
				c-0.3,0.4-0.9,0.8-1.9,1V96c0,0.4-2.7,1.6-4.6,1.6h-0.9v-3.9H11.5v2.1c0,0.6-2.2,1.9-4.6,1.9H6v-31l5.8,2.4h3.8
				c0.3-2.2,0.6-5.5,0.8-8.1h-16L0,59.7h31.9L35.3,55.7z M11.7,70.4v9.9h18.1v-9.9H11.7z M29.7,92.5V81.6H11.6v10.9H29.7z"/>
			<path class="st0" d="M68.2,74.4C72.3,81,80,86.2,87,88.5L86.9,89c-2.1,0.4-3.8,2.1-4.6,4.8C75.6,90,70.6,83.7,67.6,75.3v21.2
				c0,0.5-2.3,1.7-4.4,1.7h-1V81.1c-4.5,5.7-10.8,10.3-18.5,13.6l-0.4-0.5c7.1-4.9,13-12.6,16.2-19.7H44.4L44,73.2h18.2V55.3
				l7.2,0.7c-0.1,0.6-0.5,1.1-1.7,1.3v15.8h9.8l3.2-4c0,0,3.5,2.7,5.7,4.6c-0.1,0.5-0.6,0.7-1.3,0.7H68.2z M48,58.9
				c14.7,4.3,10.2,15.3,4.8,11.2c-0.5-3.8-2.9-8-5.2-10.9L48,58.9z M83.2,61.5c-0.3,0.5-1,0.9-1.9,0.7c-3.3,3.5-7.3,6.7-10.8,8.9
				L70,70.7c1.8-3,4.3-8,6.2-12.5L83.2,61.5z"/>
			<path class="st0" d="M88.3,72.7c11.8,0.6,8.2,9.3,3.6,6.4c-0.6-2.2-2.5-4.6-4-6.1L88.3,72.7z M127.2,70.5c-0.4,0.5-0.8,0.6-2,0.6
				c-1.8,2.5-4,4.8-6.7,6.9c3.9,1.8,8.4,3,12.9,3.7v0.5c-2,0.5-3.4,2.1-3.9,4.5c-0.6-0.2-1.2-0.4-1.9-0.6c-0.2,0.3-0.7,0.6-1.4,0.7
				v9.7c0,0.3-2.7,1.2-4.3,1.2H119v-2.5h-8.8v1.4c0,0.4-1.6,1.6-4.2,1.6h-0.9v-13c-2.1,0.7-4.3,1.3-6.6,1.8l-0.3-0.6
				c5.4-2.1,10.5-5.1,14.6-8.6c-1.3-1.6-2.5-3.3-3.4-5.4c-2.4,2.7-5.3,5.1-8.5,6.7l-0.4-0.4c3.4-3.2,6.6-9,7.9-13.9l4.8,1.1V62H105
				v3.3c0,0.4-2,1.1-4.3,1.1h-0.8V62H88.4l-0.3-1.3h11.8v-5.5l6.8,0.6c-0.1,0.6-0.4,1-1.6,1.2v3.7h8.2v-5.4l6.9,0.6
				c0,0.6-0.4,1-1.6,1.2v3.6h4.6l2.7-3.6c0,0,3.1,2.5,4.8,4.2c-0.1,0.5-0.6,0.7-1.2,0.7h-10.9v3.1c0,0.4-1.9,1-4.2,1.1l0.8,0.2
				c-0.1,0.5-0.5,0.7-1.7,0.6c-0.4,0.7-0.9,1.4-1.3,2.1h7.3l3.1-2.8L127.2,70.5z M103.2,69.9c-1.8,4.3-5.5,12.6-6.1,14.4
				c-0.5,1.3-0.9,2.8-0.8,3.8c0,2,1.9,3.2,1.7,6.6c-0.1,2-1.6,3.3-4,3.3c-1,0-2-0.6-2.4-2.1c0.7-4.1,0.5-7.3-0.5-7.9
				c-0.6-0.4-1.3-0.5-2.3-0.6v-0.9H91c0.8,0,1,0,1.5-0.8c1.1-1.6,1.1-1.6,9.9-15.9L103.2,69.9z M91.7,65.5c11.8,0.3,8.8,8.9,4.1,6.5
				c-1-2.1-3-4.7-4.5-6.2L91.7,65.5z M120,83.5c-1.6-1-3.2-2-4.6-3.2c-2.2,1.4-4.6,2.6-7.1,3.6l2.6,1h7.8L120,83.5z M111.2,70.3
				c-0.3,0.4-0.6,0.9-1,1.3c1.2,1.7,2.8,3.1,4.6,4.4c1.8-1.8,3.4-3.7,4.6-5.7C119.4,70.3,111.2,70.3,111.2,70.3z M119,93.9v-7.7
				h-8.8v7.7H119z"/>
			<path class="st0" d="M146.5,77.5c-2,2.5-5.1,6.3-9.6,10.9c0,0.6-0.3,1.2-0.8,1.5l-4-5.6c2.4-1,8.3-4.1,14.1-7.3L146.5,77.5z
				 M153.7,60.2c-0.3,0.3-0.8,0.7-1.6,0.8v30.6c0,3.6-0.8,5.8-7.1,6.3c-0.2-1.6-0.5-2.9-1.2-3.7c-0.8-0.8-2-1.4-4.5-1.8v-0.6
				c0,0,5.5,0.3,6.6,0.3c0.9,0,1.1-0.3,1.1-1V60.4h-13.4l-0.4-1.3h13.3l2.3-2.7L153.7,60.2z M135.3,64.7c13.7,3.1,7.8,13.7,3.7,9.3
				c-0.4-2.6-1.5-6.5-4-8.9L135.3,64.7z M167.1,76.6c-2,2.5-5,6.4-9.4,11.1c0,0.6-0.3,1.2-0.8,1.5l-4.1-5.4
				c2.4-1.1,8.3-4.3,14.1-7.6L167.1,76.6z M174.3,60.2c-0.3,0.4-0.8,0.7-1.6,0.8v30.7c0,3.7-0.9,5.8-7.3,6.4
				c-0.2-1.7-0.5-3.1-1.3-3.8c-0.8-0.8-2-1.5-4.6-1.9v-0.6c0,0,5.5,0.3,6.7,0.3c0.9,0,1.1-0.3,1.1-1V60.4h-13l-0.4-1.3h13l2.4-2.8
				L174.3,60.2z M155.2,64.7c14.2,1.9,8.9,13.2,4.3,9c-0.5-2.6-1.8-6.3-4.6-8.6L155.2,64.7z"/>
			<path class="st0" d="M188.7,73.5c10.8,3.3,6.5,10.9,2.7,7.6c-0.2-2.2-1.5-4.8-2.7-6.7v22.1c0,0.5-2.2,1.6-4.2,1.6h-1V79.4
				c-1.8,2.9-4,5.6-6.6,7.9l-0.5-0.5c3.3-5.2,5.4-12.2,6.6-19h-5.8l-0.4-1.3h6.7V55.4l6.9,0.7c-0.1,0.7-0.4,1.1-1.7,1.3v9.2h0.9
				l2.3-3.5c0,0,2.6,2.5,4,4.1c-0.1,0.5-0.5,0.7-1.2,0.7h-6L188.7,73.5L188.7,73.5z M208.6,81.9c15.5,7.5,10.9,19.4,5.3,14.7
				c-0.3-1.8-0.9-3.8-1.6-5.7c-3.8,1.4-9,3.1-16.3,5.3c-0.3,0.5-0.7,1-1.3,1l-3.1-6.1c1.6-0.1,3.9-0.2,6.8-0.5
				c1.5-6.1,2.8-13.8,3.5-19.5l7.6,1.5c-0.1,0.6-0.6,1.1-1.7,1.1c-1.6,4.7-4.6,11.3-7.8,16.8c3.5-0.3,7.7-0.6,12-1
				c-1.1-2.6-2.5-5.2-3.7-7.5L208.6,81.9z M193.4,75.1c2.6-4.8,4.7-12,5.6-19.1l7.2,2c-0.2,0.6-0.7,1-1.8,1
				c-2.2,7.2-5.7,12.8-10.4,16.5L193.4,75.1z M209.2,55.4c1.8,6.8,6.3,11.7,11,14.6l-0.1,0.7c-2.4,1.3-3.9,3.2-4.3,5.4
				c-4-4.8-6.3-12.5-7.4-20.3L209.2,55.4z"/>
			<path class="st0" d="M237.7,75.9c-0.3,0.5-0.7,0.7-1.7,0.6c-3.2,3.7-8.5,7.8-14.6,10.1l-0.4-0.5c4.5-3.7,8.4-9.4,10.2-13.7
				L237.7,75.9z M258.5,66.4c0,0,3.5,2.6,5.6,4.5c-0.1,0.5-0.6,0.7-1.3,0.7h-41.3l-0.4-1.3h7.8V58.7l6.6,0.6c-0.1,0.5-0.4,1-1.5,1.1
				v9.8h5.9v-15l7.1,0.6c-0.1,0.6-0.4,1.1-1.6,1.3v5.6h5.6l3.1-3.9c0,0,3.6,2.6,5.7,4.5c-0.1,0.5-0.6,0.7-1.3,0.7h-13.2v6.2h10
				L258.5,66.4z M224.1,97.5c12.8-3.3,23.3-8.3,29.9-22.5l6.8,3.5c-0.4,0.5-0.9,0.7-2.1,0.5c-8.9,13.9-19.6,17.6-34.4,19.2
				L224.1,97.5z M233.8,82.1c0,0,4.4,0.3,5.3,0.3c0.6,0,0.8-0.2,0.8-0.7V71.6l6.9,0.5c-0.1,0.7-0.5,1-1.5,1.1v8.6
				c0,3.6-0.8,5.5-6.8,6c-0.1-1.6-0.3-2.7-1-3.4c-0.6-0.7-1.5-1.3-3.7-1.6V82.1z"/>
			<path class="st0" d="M276.5,88.5c3.1,3.2,6.2,3.6,14.5,3.6c5,0,12,0,17.5-0.2v0.5c-2.1,0.5-3.2,2.1-3.5,4.5h-14
				c-8.6,0-12-1.3-15.1-7.8c-2,2.6-5,5.9-6.8,7.7c0,0.6-0.3,0.9-0.7,1.1l-2.9-6c1.6-0.5,3.8-1.3,6-2.2V76.5h-5.7l-0.3-1.3h5.2
				l2.6-3.4l5.5,4.4c-0.4,0.4-1,0.7-2.3,0.9V88.5z M267.5,56.7c13.6,2.4,9.1,12.5,4.1,8.8c-0.5-3-2.5-6.3-4.4-8.5L267.5,56.7z
				 M278.2,64.4l-0.4-1.3h16.4c0.6-2.4,1.2-5.7,1.5-8l7.5,1.6c-0.1,0.5-0.7,1-1.7,1c-1.5,1.6-3.8,3.7-6,5.4h5.1l2.8-3.7
				c0,0,3.1,2.6,5,4.3c-0.1,0.5-0.6,0.7-1.2,0.7h-12.4c-1,1.4-2.1,3-3.2,4.2h6.1l2.5-2.7l4.9,3.8c-0.2,0.4-0.8,0.7-1.6,0.9v18.2
				c0,0.4-2.6,1.4-4.4,1.4h-0.9v-3h-11.3v1.6c0,0.5-2.2,1.7-4.4,1.7h-0.8V66.4l5.5,2.2h1.9c0.1-1.3,0.2-2.9,0.2-4.2H278.2z
				 M283.3,55.3c11.3,2,6.3,10.3,2,6.8c-0.1-2.3-1.2-4.8-2.4-6.5L283.3,55.3z M286.9,69.9v4.4h11.3v-4.4H286.9z M286.9,80h11.3v-4.4
				h-11.3V80z M298.2,86v-4.7h-11.3V86H298.2z"/>
		</g>
	</g>
</g>
</svg>
