<?xml version="1.0" encoding="utf-8"?>
<!-- Generator: Adobe Illustrator 23.1.1, SVG Export Plug-In . SVG Version: 6.00 Build 0)  -->
<svg version="1.1" id="圖層_1" xmlns="http://www.w3.org/2000/svg" xmlns:xlink="http://www.w3.org/1999/xlink" x="0px" y="0px"
	 viewBox="0 0 350 90" style="enable-background:new 0 0 350 90;" xml:space="preserve">
<style type="text/css">
	.st0{fill:#C29B61;}
</style>
<g>
	<path class="st0" d="M25.9,27.9c0,3.5-1.6,6.1-4.8,7.8c-1.6,0.8-3.8,1.4-6.7,1.6c-0.8,0-3.2,0.1-7.1,0.1H1c-0.6,0-0.9-0.1-0.9-0.4
		s0.5-0.4,1.6-0.4c1.2,0,2-0.1,2.2-0.4s0.3-1,0.3-2.4V5.6c0-1.5-0.1-2.4-0.2-2.7C3.8,2.5,2.9,2.3,1.4,2.2C0.5,2.2,0,2.1,0,1.7
		c0-0.3,0.4-0.5,1.3-0.5c0,0,0.2,0,0.6,0c0.4,0.1,0.7,0.2,1,0.2h10.1c3.7,0,6.5,0.7,8.4,1.9c2.1,1.4,3.2,3.5,3.2,6.2
		c0,2.4-0.9,4.3-2.7,5.8c-1.8,1.5-4.2,2.5-7.4,2.8v0.3c3.2,0.2,5.6,0.9,7.4,2C24.6,22,25.9,24.5,25.9,27.9z M19,9.9
		c0-3.3-0.8-5.5-2.3-6.7c-0.8-0.6-2.3-0.9-4.5-0.9c-0.6,0-1.5,0.1-2.8,0.2v15.1h0.5l2.9-0.1c2-0.1,3.5-0.8,4.6-2.1
		C18.4,14.1,19,12.3,19,9.9z M20.5,27.3c0-4.4-1.8-7.1-5.3-8.1c-1-0.3-3-0.5-5.8-0.5v15.5c0,1,0.1,1.6,0.3,1.7
		c0.3,0.2,1.3,0.4,2.9,0.4c2.4,0,4.3-0.8,5.7-2.3C19.8,32.5,20.5,30.2,20.5,27.3z"/>
	<path class="st0" d="M63.2,29c0,0.1,0,1-0.1,2.5c-0.1,1.6-0.1,3-0.1,4.5v1.7c-3.4-0.2-10.1-0.3-20.2-0.3c-1.2,0-2.4,0-3.6,0
		s-2,0-2.4,0h-0.5c-0.7,0-1-0.1-1-0.4c0-0.2,0.1-0.3,0.3-0.3c0.1,0,0.8,0,2-0.1c0.9-0.1,1.4-0.3,1.6-0.6c0.2-0.3,0.3-1.1,0.3-2.4
		V4.2c0-1-0.1-1.6-0.4-1.8c-0.3-0.2-1.2-0.3-2.8-0.3c-0.6,0-0.8-0.1-0.8-0.4s0.4-0.4,1.1-0.4h8.9c0.3,0,2.3,0,5.9,0c3.6,0,6,0,7.3,0
		c1,0,2-0.1,2.9-0.2c0.1,1.5,0.2,3.6,0.5,6.2l0.2,2.2c0,0.2,0.1,0.4,0.1,0.7c0,0.3-0.2,0.5-0.5,0.5c-0.4,0-0.7-0.4-0.8-1.3
		c-0.7-3.1-1.7-5.1-3.2-6c-1.1-0.6-4-0.9-8.7-0.9h-4.3v15.3H46c3.9,0,6.2-0.3,7.1-0.9c0.8-0.6,1.4-2.3,1.7-5.1
		c0.1-0.7,0.3-1.1,0.6-1.1c0.4,0,0.6,0.3,0.6,0.9c0,0.6,0,1.5-0.1,2.8c-0.1,1.2-0.1,2.1-0.1,2.8c0,3.7,0.1,6.3,0.2,7.6
		c0,0.3,0,0.6,0,0.9c0,0.5-0.2,0.7-0.6,0.7c-0.2,0-0.4-0.1-0.5-0.4c-0.1-0.3-0.2-1.3-0.4-2.9c-0.3-2-1.1-3.3-2.5-3.8
		c-0.6-0.2-2.2-0.3-4.9-0.3h-2.3v17.4c7.6,0,12.1-0.2,13.4-0.5c2.3-0.5,3.6-2.7,3.9-6.6c0.1-0.9,0.3-1.3,0.7-1.3
		C63.1,27.9,63.2,28.2,63.2,29z"/>
	<path class="st0" d="M94.4,27.2c0,3-1.1,5.5-3.4,7.6c-2.3,2.1-5,3.1-8.2,3.1c-1.9,0-4.1-0.6-6.7-1.7c-0.7-0.3-1.2-0.5-1.6-0.5
		c-0.4,0-0.7,0.5-0.8,1.4c0,0.5-0.3,0.7-0.7,0.7c-0.3,0-0.5-0.2-0.5-0.6c0-0.3,0-0.5,0.1-0.6c0.3-2.1,0.4-4.1,0.4-5.9
		c0-0.3,0-1.3-0.1-2.9c0-0.2-0.1-0.5-0.1-0.8c0-0.5,0.2-0.8,0.6-0.8c0.3,0,0.6,0.4,0.7,1.3c0.9,6.2,3.8,9.3,8.8,9.3
		c2.1,0,3.7-0.6,4.9-1.8c1.2-1.2,1.7-2.9,1.7-5.1c0-1.9-0.6-3.6-1.7-5s-3.1-2.7-5.8-4.1c-3.3-1.6-5.6-3.2-6.9-4.7
		c-1.3-1.5-1.9-3.4-1.9-5.7c0-2.9,0.9-5.2,2.8-7.1c1.9-1.9,4.2-2.8,7-2.8c1.2,0,2.8,0.4,4.9,1.2c0.7,0.3,1.3,0.4,1.6,0.4
		c0.4,0,0.6-0.1,0.8-0.2C90.6,2,90.7,1.6,90.8,1c0.1-0.3,0.3-0.5,0.6-0.5c0.3,0,0.5,0.2,0.5,0.6c0,0.3,0,0.5-0.1,0.6
		c-0.1,0.8-0.2,1.8-0.2,3c0,1.7,0.1,3,0.3,3.9L92,9.5c0,0.4-0.1,0.6-0.5,0.6c-0.4,0-0.6-0.4-0.8-1.2c-0.4-2-1.3-3.7-2.7-5.1
		c-1.4-1.4-3-2.1-4.8-2.1c-1.7,0-3.1,0.6-4.1,1.7S77.6,6,77.6,7.9c0,2.2,0.7,4,2.2,5.4c0.8,0.8,2.6,1.8,5.4,3.2c3.3,1.6,5.6,3.3,7,5
		C93.6,23.1,94.4,25,94.4,27.2z"/>
	<path class="st0" d="M131.2,10.5c0,0.5-0.2,0.7-0.6,0.7s-0.7-0.5-0.9-1.4c-0.1-0.6-0.1-1.2-0.2-1.9c-0.2-1.2-0.6-2.3-1.2-3.2
		c-0.7-1.1-1.9-1.9-3.6-2.2c-1.1-0.2-1.9-0.3-2.6-0.3c-1.6,0-2.6,0.1-3,0.1v31.4c0,1.2,0.3,2,1,2.3c0.3,0.2,1.3,0.3,2.9,0.3
		c0.4,0,0.6,0.2,0.6,0.4c0,0.3-0.3,0.4-0.8,0.4c-0.3,0-0.5,0-0.7-0.1c-2.1-0.1-3.6-0.1-4.4-0.1c-1.1,0-2.2,0-3.2,0.1
		c-1,0.1-2.3,0.1-3.8,0.1c-0.8,0-1.2-0.1-1.2-0.4c0-0.3,0.7-0.5,2.2-0.5c1.1,0,1.8-0.2,2.1-0.7c0.2-0.3,0.3-1,0.3-2.1V2.5
		c-3.4,0-5.6,0.2-6.4,0.5c-2.2,0.8-3.5,2.9-3.8,6.4c-0.1,1-0.3,1.6-0.7,1.6c-0.4,0-0.6-0.4-0.6-1.1c0-0.4,0-0.8,0.1-1.1l0.1-1.2
		c0.1-1.6,0.3-3.7,0.5-6.3h2.3L116,1.4c1.2,0,3.2,0,5.8,0l8.6-0.2c0.1,1.9,0.3,4.8,0.7,8.6c0,0.1,0,0.2,0.1,0.4
		C131.2,10.4,131.2,10.5,131.2,10.5z"/>
	<path class="st0" d="M27.4,84.8c0,0.9-0.1,2.4-0.2,4.5h-0.6c-0.2,0-0.7,0-1.5-0.1s-1.7-0.1-2.7-0.1L0.9,88.9
		c-0.6,0-0.9-0.2-0.9-0.5c0-0.2,0.5-0.4,1.4-0.5c1.3-0.1,2.1-0.2,2.4-0.4c0.3-0.2,0.4-0.9,0.4-1.9V56.4c0-1.3-0.1-2-0.4-2.2
		S2.6,53.8,1,53.8c-0.7,0-1-0.2-1-0.6c0-0.3,0.2-0.5,0.6-0.5h0.5c1.1,0.1,3.4,0.2,6.8,0.2c0.3,0,0.9,0,1.8-0.1
		c0.9-0.1,1.6-0.1,2.2-0.1h0.6c0.6,0,0.9,0.2,0.9,0.5c0,0.2-0.1,0.3-0.3,0.4c-0.2,0.1-0.8,0.1-1.8,0.1S9.8,54,9.6,54.3
		c-0.2,0.3-0.3,1.2-0.3,2.7v30.7c0.9,0,2.2,0.1,3.9,0.1c4.1,0,6.9-0.2,8.6-0.6c1.7-0.4,2.8-1.2,3.4-2.3c0.6-1.1,0.9-2.7,1-4.6
		c0-0.5,0.2-0.7,0.6-0.7c0.4,0,0.6,0.3,0.6,0.8v1.3c0,0.1,0,0.2,0,0.5c0,0.2,0,0.5,0,0.7V84.8z"/>
	<path class="st0" d="M68.9,71.1c0,5.2-1.6,9.5-4.7,13.1s-6.9,5.4-11.4,5.4c-4.8,0-8.8-1.8-12.1-5.4c-3.3-3.6-4.9-8.1-4.9-13.4
		c0-5.4,1.6-9.8,4.7-13.3c3.1-3.4,7.1-5.2,12-5.2c4.6,0,8.5,1.8,11.6,5.4S68.9,65.7,68.9,71.1z M63.1,71.3c0-6.4-1.3-11.3-3.9-14.9
		c-1.6-2.2-3.9-3.3-6.8-3.3c-2.8,0-4.9,0.9-6.4,2.6c-2.8,3.1-4.2,8.2-4.2,15.3c0,5.6,1,9.9,2.9,13c2,3.1,4.7,4.6,8.2,4.6
		c3.3,0,5.8-1.5,7.4-4.4C62.2,81,63.1,76.7,63.1,71.3z"/>
	<path class="st0" d="M108.4,77.3c0-0.1,0,0.4-0.1,1.4c-0.1,2-0.2,3.9-0.2,5.8c0,0.2,0,0.6,0.1,1.3c0.1,0.6,0.1,1.4,0.1,2.3v0.5
		c0,0.4-0.1,0.7-0.4,0.7s-0.5-0.3-0.7-0.8c-0.5-1.1-1-1.9-1.5-2.2c-2.5,2.2-5.5,3.3-9,3.3c-5.1,0-9.3-1.8-12.7-5.3
		c-3.3-3.5-5-8-5-13.4c0-5.4,1.5-9.9,4.6-13.3c3.1-3.4,7-5.2,11.9-5.2c1.8,0,3.2,0.1,4.2,0.4c1.1,0.3,2.4,0.9,3.9,1.8
		c0.8,0.5,1.3,0.7,1.7,0.7c0.3,0,0.6-0.3,0.9-0.8c0.4-1,0.8-1.5,1.1-1.5s0.4,0.1,0.4,0.4c0,0.1,0,0.4-0.1,0.7
		c-0.4,1.7-0.6,4.8-0.6,9.4c0,0.7-0.1,1-0.2,1.1c-0.1,0.1-0.2,0.2-0.4,0.2c-0.3,0-0.6-0.3-0.7-1c-0.5-2.8-1.1-4.8-1.9-6.2
		c-1.7-2.8-4.4-4.2-8-4.2c-2.8,0-5,0.9-6.7,2.8c-2.9,3.4-4.4,8.3-4.4,14.8c0,5.8,1.2,10.3,3.6,13.5c2.1,2.8,4.9,4.2,8.4,4.2
		c1.8,0,3.4-0.4,4.9-1.3c1.5-0.9,2.6-2.1,3.4-3.6c0.9-1.8,1.5-3.7,1.9-5.8c0.1-0.8,0.4-1.2,0.7-1.2
		C108.3,76.5,108.4,76.8,108.4,77.3z"/>
	<path class="st0" d="M150.1,88.6c0,0.3-0.3,0.4-0.8,0.4c-0.3,0-0.7,0-0.9-0.1l-6.6-0.2l-6.6,0.2c-0.2,0-0.5,0.1-0.8,0.1
		c-0.7,0-1-0.2-1-0.5c0-0.4,0.5-0.6,1.4-0.6c3,0,4.6-0.3,4.6-0.9c0,0,0-0.2-0.1-0.4l-0.4-1.4l-0.3-0.7c-0.3-1.1-1.1-3.4-2.3-7.1
		h-11.1c-2.1,5.5-3.1,8.7-3.1,9.6c0,0.5,0.2,0.8,0.6,0.9c0.1,0,1,0.1,2.6,0.2c1,0,1.5,0.2,1.5,0.5c0,0.3-0.4,0.5-1.3,0.5
		c-1.6,0-3.4-0.1-5.6-0.2c-0.5,0-1.1-0.1-1.6-0.1c-0.6,0-1.1,0.1-1.6,0.2c-0.3,0.1-0.5,0.1-0.7,0.1c-0.5,0-0.7-0.2-0.7-0.5
		c0-0.3,0.5-0.5,1.6-0.5c1.1,0,1.9-0.2,2.4-0.5c0.5-0.3,0.9-0.9,1.1-1.7c4.5-12.8,8.1-23.1,10.9-30.8c0.1-0.4,0.2-0.9,0.5-1.4
		l0.2-0.9c0.1-0.4,0.2-0.6,0.4-0.6c0.1,0,0.2,0.1,0.3,0.3c0.5,1.4,1.5,4.2,3.1,8.5c1.2,3.4,4.3,11.8,9.3,25.3
		c0.3,0.8,0.6,1.3,1.1,1.5c0.4,0.2,1.3,0.3,2.7,0.4C149.6,88.1,150.1,88.3,150.1,88.6z M136,76.1c-0.6-1.6-1.5-4.1-2.8-7.7l-2.5-7.2
		c-1.5,3.8-3.2,8.8-5.3,14.9H136z"/>
	<path class="st0" d="M183.1,62.1c0,0.5-0.2,0.7-0.6,0.7c-0.4,0-0.7-0.5-0.9-1.4c-0.1-0.6-0.1-1.2-0.2-1.9c-0.2-1.2-0.6-2.3-1.2-3.2
		c-0.7-1.1-1.9-1.9-3.6-2.2c-1.1-0.2-1.9-0.3-2.6-0.3c-1.6,0-2.6,0.1-3,0.1v31.4c0,1.2,0.3,2,1,2.3c0.3,0.2,1.3,0.3,2.9,0.3
		c0.4,0,0.6,0.2,0.6,0.4c0,0.3-0.3,0.4-0.8,0.4c-0.3,0-0.5,0-0.7-0.1c-2.1-0.1-3.6-0.1-4.4-0.1c-1.1,0-2.2,0-3.2,0.1
		s-2.3,0.1-3.8,0.1c-0.8,0-1.2-0.1-1.2-0.4c0-0.3,0.7-0.5,2.2-0.5c1.1,0,1.8-0.2,2.1-0.7c0.2-0.3,0.3-1,0.3-2.1V54
		c-3.4,0-5.6,0.2-6.4,0.5c-2.2,0.8-3.5,2.9-3.8,6.4c-0.1,1-0.3,1.6-0.7,1.6c-0.4,0-0.6-0.4-0.6-1.1c0-0.4,0-0.8,0.1-1.1l0.1-1.2
		c0.1-1.6,0.3-3.7,0.5-6.3h2.3l10.6,0.2c1.2,0,3.2,0,5.8,0l8.6-0.2c0.1,1.9,0.3,4.8,0.7,8.6c0,0.1,0,0.2,0.1,0.4
		C183.1,62,183.1,62.1,183.1,62.1z"/>
	<path class="st0" d="M204.6,88.5c0,0.3-0.2,0.4-0.6,0.4h-0.5c-0.2-0.1-2.6-0.2-7.1-0.2c-0.9,0-1.7,0-2.6,0.1
		c-0.4,0-1.1,0.1-2.1,0.1c-0.4,0-0.7-0.2-0.7-0.5c0-0.3,0.5-0.4,1.4-0.5c1.4,0,2.2-0.2,2.4-0.5c0.2-0.3,0.4-1.3,0.4-3V57.1
		c0-1.7-0.1-2.7-0.3-2.9c-0.2-0.3-1.2-0.6-2.9-0.6c-0.7,0-1-0.2-1-0.4c0-0.3,0.2-0.4,0.6-0.4h7.1c0.5,0,1.5,0,3,0.1l2-0.1
		c0.6,0,0.8,0.1,0.8,0.4c0,0.3-0.8,0.4-2.3,0.5c-0.9,0-1.4,0.2-1.6,0.5c-0.2,0.3-0.3,1-0.3,2.2v27.7c0,2,0.1,3,0.3,3.2
		c0.4,0.4,1.5,0.6,3.4,0.7C204.4,88,204.6,88.2,204.6,88.5z"/>
	<path class="st0" d="M246.8,71.1c0,5.2-1.6,9.5-4.7,13.1s-6.9,5.4-11.4,5.4c-4.8,0-8.8-1.8-12.1-5.4c-3.3-3.6-4.9-8.1-4.9-13.4
		c0-5.4,1.6-9.8,4.7-13.3c3.1-3.4,7.1-5.2,12-5.2c4.6,0,8.5,1.8,11.6,5.4S246.8,65.7,246.8,71.1z M241,71.3c0-6.4-1.3-11.3-3.9-14.9
		c-1.6-2.2-3.9-3.3-6.8-3.3c-2.8,0-4.9,0.9-6.4,2.6c-2.8,3.1-4.2,8.2-4.2,15.3c0,5.6,1,9.9,2.9,13c2,3.1,4.7,4.6,8.2,4.6
		c3.3,0,5.8-1.5,7.4-4.4C240.1,81,241,76.7,241,71.3z"/>
	<path class="st0" d="M288.1,53.3c0,0.3-0.4,0.5-1.3,0.5h-1.1h-0.9c-0.6,0-0.9,0.1-1,0.3c-0.1,0.2-0.2,0.8-0.2,1.7v29.9
		c0,1.8,0,2.9-0.1,3.2s-0.1,0.5-0.3,0.5c-0.2,0-0.4-0.2-0.7-0.6l-6.6-9.7c-3.8-5.7-8.5-12.8-14-21.2v29.1c0,0.5,0.3,0.7,0.8,0.9
		c0.5,0.1,1.7,0.2,3.5,0.2c0.5,0,0.7,0.1,0.7,0.4c0,0.3-0.4,0.5-1.3,0.5c-0.3,0-1.3-0.1-3-0.2c-0.6,0-1.1-0.1-1.6-0.1
		c0,0-0.3,0-0.9,0.1c-0.6,0.1-1.6,0.1-2.9,0.1h-0.5c-0.8,0-1.2-0.2-1.2-0.5c0-0.3,0.3-0.5,1-0.5c2,0,3.2-0.2,3.6-0.4
		c0.3-0.2,0.5-1,0.5-2.2V59.8c0-2.9-0.6-4.7-1.8-5.4c-0.6-0.3-1.5-0.5-3-0.5c-0.9,0-1.4-0.2-1.4-0.5c0-0.3,0.3-0.5,0.8-0.5
		c0.7,0,1.6,0,2.7,0.1c1.1,0.1,1.6,0.1,1.7,0.1c0.1,0,0.6,0,1.5-0.1c1.1,0,2.3-0.1,3.3-0.2l17.9,26.8V56.4c0-1.1,0-1.7-0.1-1.9
		c0-0.2-0.2-0.4-0.4-0.5s-1.1-0.2-2.5-0.2c-1.2,0-1.9-0.2-1.9-0.5c0-0.3,0.4-0.5,1.2-0.5h1.8c0.4,0,0.9,0,1.5,0c0.6,0,0.9,0,1,0
		c0,0,0.3,0,0.9,0c0.6,0,1.1,0,1.6,0h1.6C287.8,52.8,288.1,53,288.1,53.3z"/>
</g>
</svg>
