<?xml version="1.0" encoding="utf-8"?>
<!-- Generator: Adobe Illustrator 23.1.1, SVG Export Plug-In . SVG Version: 6.00 Build 0)  -->
<svg version="1.1" id="圖層_1" xmlns="http://www.w3.org/2000/svg" xmlns:xlink="http://www.w3.org/1999/xlink" x="0px" y="0px"
	 viewBox="0 0 600 135" style="enable-background:new 0 0 600 135;" xml:space="preserve">
<style type="text/css">
	.st0{opacity:0.5;}
	.st1{fill:#FFFFFF;}
</style>
<g class="st0">
	<path class="st1" d="M104.8,36.4c13.6,0,20.8,6.5,20.8,15.6c0,6.7-4.4,12.9-15.1,15.1c13,1.8,18.4,8.2,18.4,16
		c0,8.8-7.1,17.5-25.2,17.5h-26v-3.3l8.9-1c0.2-8.5,0.2-17.1,0.2-25.7V66c0-8.5,0-16.9-0.2-25.3l-8.9-1v-3.3H104.8z M95.5,40.2
		c-0.2,8.2-0.2,16.7-0.2,25.2h5c11.5,0,16.7-4.1,16.7-13.1c0-8.6-4.9-12.2-14.9-12.2L95.5,40.2L95.5,40.2z M101.7,96.8
		c11.9,0,18-4.8,18-13.6c0-9.2-5.7-13.8-19-13.8h-5.5c0,10,0,18.8,0.2,27.4H101.7z"/>
	<path class="st1" d="M186.2,83.6l-0.5,17.1h-49.1v-3.3l8.9-1c0.2-8.4,0.2-16.8,0.2-25.4v-4.7c0-8.6,0-17.1-0.2-25.5l-8.9-1v-3.3
		h47.3l0.5,16.9h-4.7l-2.5-12.7h-22.6c-0.2,8.3-0.2,16.7-0.2,25.4h14.4l1.4-9.5h3.9v22.6h-3.9l-1.3-9.3h-14.5c0,9.5,0,18.1,0.2,26.6
		h24.5l2.5-12.9L186.2,83.6L186.2,83.6z"/>
	<path class="st1" d="M219.1,64.4c12.7,5.1,17.4,10.4,17.4,19.5c0,11.4-9.2,18.2-22.5,18.2c-7.2,0-14.2-2.3-18.5-5.1l0.6-13.5h4.9
		l2.4,12c3,1.7,5.9,2.4,10,2.4c9.2,0,15.2-4.2,15.2-12c0-6.2-3.5-9.2-12-12.6l-3.6-1.5c-9.9-4-16.5-9.6-16.5-19.2
		c0-11.1,9.2-17.6,21.2-17.6c6.4,0,11.5,2,15.7,5.1l-0.6,12.5h-5l-2.4-11.5c-2.4-1.4-4.8-1.9-7.7-1.9c-7.7,0-13.3,3.9-13.3,11.2
		c0,6.1,3.9,9.8,10.8,12.5L219.1,64.4z"/>
	<path class="st1" d="M274.3,40.6c-0.2,8.4-0.2,17-0.2,25.6V71c0,8.4,0,16.9,0.2,25.3l9.8,1.1v3.3h-28.7v-3.3l9.8-1.1
		c0.2-8.3,0.2-16.7,0.2-25.3v-4.7c0-8.6,0-17.2-0.2-25.6h-15l-2.6,12.9h-4.8l0.8-17.1H296l0.6,17.1H292l-2.7-12.9h-15V40.6z"/>
	<path class="st1" d="M376.4,82.6l-0.7,18.1h-47.3v-3.3l8.9-1c0.2-8.5,0.2-17,0.2-25.2v-5c0-8.6,0-17.2-0.2-25.5l-8.9-1v-3.3h26.9
		v3.3l-9,1c-0.2,8.4-0.2,16.9-0.2,25.4v6.4c0,7.3,0,15.6,0.2,24h21.9l3.1-13.9H376.4z"/>
	<path class="st1" d="M402.8,40.7c-0.2,8.3-0.2,16.9-0.2,25.5V71c0,8.4,0,16.9,0.2,25.3l8.9,1.1v3.3h-26.8v-3.3l8.9-1
		C394,88,394,79.6,394,71v-4.7c0-8.6,0-17.1-0.2-25.5l-8.9-1v-3.3h26.8v3.3L402.8,40.7z"/>
	<path class="st1" d="M439.8,40.6c-0.2,8.3-0.2,16.7-0.2,25.4h15.1l1.2-9.5h4v23.3h-4l-1.2-10h-15.1c0,9.4,0,18,0.2,26.4l9.1,1.1
		v3.3h-27v-3.3l8.9-1c0.2-8.4,0.2-16.8,0.2-25.4v-4.7c0-8.6,0-17.1-0.2-25.5l-8.9-1v-3.3h47.4l0.5,16.9h-4.7l-2.5-12.7
		C462.6,40.6,439.8,40.6,439.8,40.6z"/>
	<path class="st1" d="M527.5,83.6l-0.5,17.1h-49.1v-3.3l8.9-1C487,88,487,79.6,487,71v-4.7c0-8.6,0-17.1-0.2-25.5l-8.9-1v-3.3h47.3
		l0.5,16.9H521l-2.5-12.7h-22.6c-0.2,8.3-0.2,16.7-0.2,25.4H510l1.4-9.5h3.9v22.6h-3.9l-1.3-9.3h-14.5c0,9.5,0,18.1,0.2,26.6h24.5
		l2.5-12.9L527.5,83.6L527.5,83.6z"/>
</g>
</svg>
