<?xml version="1.0" encoding="utf-8"?>
<!-- Generator: Adobe Illustrator 23.1.1, SVG Export Plug-In . SVG Version: 6.00 Build 0)  -->
<svg version="1.1" id="圖層_1" xmlns="http://www.w3.org/2000/svg" xmlns:xlink="http://www.w3.org/1999/xlink" x="0px" y="0px"
	 viewBox="0 0 330 100" style="enable-background:new 0 0 330 100;" xml:space="preserve">
<style type="text/css">
	.st0{fill:#C29B61;}
</style>
<g>
	<g>
		<g>
			<path class="st0" d="M40.6,4.9c0,0,3.9,3,6.4,5.1c-0.2,0.6-0.7,0.8-1.5,0.8H26.9l1.1,0.1c-0.1,0.7-0.4,1.1-1.6,1.3v5.7h8.3
				l2.7-3.1l5.9,4.4c-0.4,0.4-1.1,0.9-2,1.1v15.4c0,3.8-0.9,6.1-7.6,6.7c-0.2-1.9-0.4-3.2-1.1-4.1c-0.7-0.8-1.7-1.5-4-1.9v-0.7
				c0,0,4.3,0.3,5.5,0.3c0.9,0,1.1-0.3,1.1-1V19.4h-8.8v26.8c0,0.6-2.8,2-5,2h-1.2V19.4h-8.8v21.1c0,0.6-2.6,2-5.1,2H5.4V15.4
				l6.4,2.6h8.4v-7.1h-20l-0.4-1.5h20.4v-8l8,0.6c-0.1,0.7-0.5,1.2-1.8,1.5v5.9h10.7L40.6,4.9z"/>
			<path class="st0" d="M95.1,14.6c-1,7.8-3,14.7-7,20.4c3.1,3.5,7,6.3,11.7,8.4l-0.2,0.5c-2.8,0.6-4.5,2.2-5.2,4.8
				c-4-2.7-7.1-6.1-9.4-10c-4.2,4.3-10,7.7-17.9,10.1l-0.4-0.6c7.5-3.7,12.7-8.4,16-14c-1.8-4.3-3.1-9.2-3.9-14.5
				c-1.6,2.3-3.5,4.3-5.5,6.1l-0.6-0.4c0.5-1,1-2,1.5-3.1h-6v13.9c3-0.7,6.2-1.5,9.3-2.2l0.2,0.6C73,37.2,66,40.7,55.7,45
				c-0.3,0.7-0.7,1.2-1.3,1.4l-3.1-6.6c0.8-0.2,1.9-0.4,3.1-0.6V15.1l6.4,0.6c-0.1,0.6-0.5,1-1.5,1.2v21.4l3.4-0.8V8.2H52.6
				l-0.4-1.5h16.5l3.1-4c0,0,3.5,2.8,5.6,4.7C77.2,8,76.7,8.2,76,8.2h-7.9v12.7h0.8l2.8-4.1c0,0,1.8,1.6,3.4,3.2
				c2-5.4,3.6-12,4.3-18.5l8.4,1.9c-0.2,0.7-0.8,1.1-2,1.2c-0.9,3.1-1.9,5.9-3.1,8.5H91L94.1,9c0,0,3.5,2.8,5.6,4.7
				c-0.2,0.6-0.7,0.8-1.5,0.8h-3.1V14.6z M81.9,14.6c-0.7,1.4-1.4,2.7-2.2,3.9c1.2,4.5,2.8,8.5,5,12.1c2.2-4.8,3.3-10.2,3.8-15.9
				h-6.6V14.6z"/>
			<path class="st0" d="M151.7,9.4c0,0.4-2.1,1.1-4.7,1.1h-1V7.6h-8.7v2c0,0.4-1.3,0.8-3,1c-0.2,0.5-0.6,0.8-1.4,1V13h2l2.2-2.5
				c0,0,2.5,1.8,4,3.2c-0.1,0.6-0.6,0.8-1.3,0.8h-1.1c0.6,0.4,2.7,2,4.1,3.2c-0.2,0.6-0.6,0.8-1.3,0.8h-1l0.2,1.4
				c1,0.4,1.3,0.8,1.3,1.4c0,1.3-1.1,1.9-4.8,1.9c0.4,0.3,2.6,1.9,4.1,3.1c-0.2,0.6-0.6,0.8-1.3,0.8h-7.1v2c2.5-0.2,5.2-0.5,7.9-0.7
				l0.1,0.8c-4.1,1.2-9.8,2.7-17.8,4.7c-0.3,0.6-0.8,1-1.3,1.1l-2-5c1.8-0.1,4.6-0.3,8.1-0.5V27h-6.2l-0.4-1.5h6.6v-3.4l4.6,0.4
				c-0.6-0.5-0.8-1.3-0.8-2.5v-1.6h-2.3c-1.7,3.9-5.7,6-10.4,7l-0.3-0.7c3.2-1.5,4.9-3.6,5.7-6.3h-5.1l-0.4-1.4h9v-2.6h-6.7
				l-0.4-1.5h7.1V9.8l3.9,0.4V7.6h-13l-0.4-1.5h13.4V1.3l7.4,0.7c-0.1,0.7-0.5,1.2-1.8,1.3v2.8h8.7V1.3l7.5,0.6
				c-0.1,0.7-0.5,1.2-1.8,1.4v2.8h5.7l2.9-3.6c0,0,3.1,2.4,5,4.2c-0.1,0.6-0.7,0.8-1.4,0.8h-12.3L151.7,9.4L151.7,9.4z M159.5,34
				c0,0,3.3,2.4,5.4,4.1c-0.2,0.6-0.7,0.8-1.4,0.8h-23.1c-2,1.4-4.3,2.9-6.5,4.1c4.7-0.1,10.3-0.2,16.1-0.3
				c-1.1-0.8-2.2-1.6-3.4-2.4l0.3-0.6c18.5,0.5,14.6,11.3,9.2,8.8c-0.8-1.1-2.4-2.8-4.4-4.5c-6.1,1.1-14.2,2.3-25.4,3.8
				c-0.3,0.6-0.9,0.9-1.4,1l-2.6-5.8c2,0,4.8,0,8.2,0c0.8-1.3,1.5-2.8,2.1-4.1h-13l-0.4-1.4h37.2L159.5,34z M152.5,29.4
				c0,0,3.3,2.4,5.3,4.1c-0.1,0.6-0.7,0.8-1.4,0.8h-27.5l-0.4-1.5h21L152.5,29.4z M132.9,14.4V17h3.4l2.1-2.6H132.9z M137.1,23.1
				h-0.3h-1.9c-0.3,0-0.6,0-0.9,0c-0.2,0.3-0.5,0.6-1.2,0.7v1.9h2.1L137.1,23.1z M138.3,20.1c0.3,0,0.5,0,0.7-0.2
				c0.3-0.3,0.6-0.8,1-1.5h-4.4v1c0,0.5,0.1,0.6,0.6,0.6h1.1h1L138.3,20.1L138.3,20.1z M164.1,28c1.1,1.3,1.4,2.3,1,3.4
				c-1,2-3.6,1.7-5.3,0.6c-4.3-2.6-5.1-8.5-5.3-15.7h-2.7c-0.2,1.8-0.4,3.5-1,5.1c6.4,3.5,3.2,8.7-0.3,6.6c-0.4-0.7-1-1.6-1.8-2.5
				c-1.8,2.5-4.8,4.7-9.7,6.5l-0.5-0.7c4.2-2.6,6.3-5.5,7.3-8.9c-1.1-1-2.3-1.9-3.6-2.8l0.4-0.6c1.4,0.2,2.7,0.5,3.8,0.8
				c0.2-1.1,0.3-2.2,0.4-3.4h-4.4l-0.5-1.4h4.9c0.1-1.4,0.1-2.9,0.1-4.5l6.8,0.6c-0.1,0.7-0.6,1.2-1.6,1.3c-0.1,0.9-0.1,1.7-0.2,2.6
				h2.1l2.6-2.6l4.9,3.7c-0.3,0.4-1,0.7-1.8,0.8c-0.2,4.2,0.4,9,2.1,10.2c0.4,0.2,0.6,0.1,0.8-0.4c0.5-1,0.9-2.3,1.4-3.7h0.6
				L164.1,28z"/>
			<path class="st0" d="M206,14.1c-2,8-5.6,15-11.3,20.8c5.7,3.9,12.5,6.5,19.8,8.2l-0.1,0.6c-3,0.4-5.2,2.2-6.3,5.2
				c-6.9-2.4-12.7-5.8-17.3-10.5c-5.8,4.6-13.4,8.1-23.1,10.3l-0.3-0.6c8.7-3.3,15.5-7.7,20.5-13c-4.2-5.3-7.2-12.2-8.8-21.1h-10.8
				l-0.4-1.4H188v-11l8,0.7c-0.1,0.7-0.5,1.2-1.9,1.4v9h10.3l3.6-4.8c0,0,4,3.2,6.3,5.3c-0.2,0.6-0.7,0.8-1.4,0.8L206,14.1L206,14.1
				L206,14.1z M179.9,14.1c2.1,7.5,5.9,13.3,10.8,17.7c4.1-5.3,6.7-11.3,7.9-17.7H179.9z"/>
			<path class="st0" d="M272.3,33.8c-0.4,0.5-0.9,0.7-2.2,0.7c-1.9,2.4-4.2,4.4-6.9,6.2c5.3,1.4,11.5,1.9,17.8,2v0.7
				c-2.3,0.8-3.7,2.7-4.2,5.5c-7.2-1-13.3-2.6-18.1-5.5c-6.6,3.1-14.8,4.9-24,5.5l-0.3-0.8c8-1.5,15.2-3.8,20.9-7.3
				c-1.8-1.6-3.3-3.4-4.5-5.6c-4.3,3.2-9.8,6.1-15.3,7.6l-0.4-0.7c6.1-3.3,12.2-9.1,15.4-14.1c-1.4-0.6-1.7-1.6-1.7-3.6v-7l6.3,0.6
				c0,0.6-0.6,1.1-1.5,1.2v4.3c0,0.5,0.1,0.7,1.5,0.7h3.9h3.4c0.5-0.1,0.9-0.1,1.1-0.4c0.4-0.5,1-1.8,1.6-3.4h0.6l0.2,3.4
				c1.4,0.5,1.7,1.1,1.7,1.9c0,2-1.9,2.8-9.1,2.8h-3.9l3.1,1.5c-0.2,0.5-0.8,0.7-1.7,0.5c-0.5,0.6-1,1.1-1.5,1.7h9.4l3.5-3
				L272.3,33.8z M242.1,15.4c0,3.1-1.4,5.2-3.1,6.2c-1.6,0.9-3.8,0.5-4.3-1.3c-0.5-1.7,0.6-2.9,2.1-3.6c1.8-0.8,3.8-3.1,3.7-5.6h0.8
				c0.4,1.1,0.6,2.1,0.8,3h5.2c-0.5-0.1-1-0.4-1.5-0.8c0-2-1-4.3-2.1-5.6l0.3-0.2c-1.9,0-3.9,0-5.7,0l-0.1-0.9
				c11.3-0.9,25.7-3.2,33.3-5.2l4.8,5c-0.6,0.4-1.7,0.4-3.1-0.3c-1.8,0.2-3.8,0.4-5.9,0.6l6.8,2.6c-0.3,0.6-0.9,0.9-2,0.8
				c-1.6,1.3-3.9,2.9-6.3,4.2h7.4l2.9-2.9l5,4.8c-0.4,0.4-0.9,0.5-2,0.6c-1.6,1.2-4.2,2.5-6.5,3.4c6.2,3.5,2.8,9.6-1.4,6.9
				c-0.8-3-3.3-6.4-5.6-8.5l0.4-0.4c2.3,0.3,4.1,0.8,5.5,1.4c0.6-1.2,1.2-2.7,1.6-3.9h-31L242.1,15.4L242.1,15.4z M246,17.9
				c1.6,5.1-0.4,8.5-2.8,9.6c-1.7,0.8-3.8,0.3-4.3-1.5c-0.4-1.6,0.6-2.8,2.1-3.5c1.9-0.6,4.1-2.5,4.3-4.7L246,17.9z M257.1,14
				c-0.7-0.1-1.3-0.4-2-1c0.1-2-0.8-4.3-1.7-5.8c-2.9,0.1-5.8,0.2-8.7,0.2c7.5,1.5,6.5,6,3.8,6.7L257.1,14L257.1,14z M252.9,33.4
				c-0.4,0.4-0.9,0.8-1.3,1.1c1.7,1.8,3.9,3.3,6.5,4.4c2.2-1.7,4.1-3.5,5.5-5.5H252.9z M254,16.2c11.8-0.7,8.7,8.3,3.9,5.8
				c-0.6-2-2.6-4.2-4.3-5.4L254,16.2z M263.6,14c1.3-2.2,2.5-5.2,3.2-7.5c-3.6,0.3-7.5,0.5-11.5,0.7c6.9,2,5.3,6.5,2.6,6.9h5.7
				L263.6,14L263.6,14z"/>
			<path class="st0" d="M284.9,48c6.4-2.1,13.5-6.1,16.9-9.2l6.5,4.5c-0.5,0.6-1.5,0.8-3,0.4c-4.7,2.3-12.8,4.3-20.2,4.9L284.9,48z
				 M292.4,16c-0.9,0.3-2,0.6-3,0.6h-0.8V2l6.2,2.4h25.7l2.6-2.8l5.4,4c-0.3,0.4-0.9,0.8-1.8,1v8.1c0,0.4-2.9,1.3-4.7,1.3h-1v-1.9
				h-26.7v0.7c0,0.2-0.5,0.6-1.1,0.9l5.4,2.2h17.8l2.7-2.9l5.5,4.2c-0.3,0.4-0.9,0.8-1.8,1v18.1c0,0.4-3,1.5-4.9,1.5h-1v-1.7h-18.7
				v1c0,0.6-2.5,1.9-4.9,1.9h-0.9L292.4,16L292.4,16z M294.3,5.8v7h5.1v-7H294.3z M298.3,19.4v4.7H317v-4.7
				C317,19.4,298.3,19.4,298.3,19.4z M316.9,30.3v-4.8h-18.7v4.8H316.9z M316.9,36.7v-4.9h-18.7v4.9H316.9z M304.9,5.8v7h5.2v-7
				H304.9z M309.7,40.4c28.2,0.5,17.5,11.6,12.2,7.3c-2.3-2.1-6.3-4.9-12.3-6.7L309.7,40.4z M315.7,5.8v7h5.3v-7H315.7z"/>
		</g>
		<g>
			<path class="st0" d="M37.1,93.4l3.7-4.7c0,0,4.1,3.2,6.7,5.3c-0.2,0.6-0.7,0.8-1.5,0.8H0.2l-0.4-1.4
				C-0.2,93.4,37.1,93.4,37.1,93.4z M34.7,58.6l3.6-4.6c0,0,4.1,3.1,6.6,5.2c-0.2,0.6-0.8,0.8-1.5,0.8H3.1l-0.4-1.5L34.7,58.6
				L34.7,58.6z M30.8,75.1l3.5-4.4c0,0,4,3,6.4,5c-0.2,0.6-0.7,0.8-1.5,0.8H6.3L5.9,75L30.8,75.1L30.8,75.1z"/>
			<path class="st0" d="M76.9,69.1c1.8,9.3,7.6,18.6,21.7,24.3L98.5,94c-3.1,0.6-4.9,2.4-5.4,5.8c-11.8-7.2-15.5-19.4-16.9-29.5
				c-1.5,12-6.6,22.3-24.9,29.5L50.8,99c14-8.5,18-18.5,19.1-30H51.7l-0.4-1.5H70c0.4-4.7,0.3-9.8,0.3-15l8.5,0.8
				c-0.2,0.8-0.6,1.3-1.8,1.5c-0.1,4.4-0.2,8.7-0.5,12.8h11.3l3.7-4.6c0,0,4.1,3.1,6.6,5.2c-0.2,0.6-0.7,0.8-1.5,0.8L76.9,69.1
				L76.9,69.1z"/>
			<path class="st0" d="M144,54.7c0,0,3.9,2.9,6.3,4.9c-0.1,0.6-0.7,0.8-1.4,0.8h-15.8l6.7,1.5c-0.2,0.6-0.8,1.1-1.9,1.1
				c-1.5,1.4-3.4,3.3-5.3,4.8h8.3l2.7-3l5.6,4.4c-0.3,0.4-1,0.9-2.1,1.1v22.9c0,3.8-0.9,6.1-7.4,6.7c-0.2-1.8-0.4-3.1-1.1-3.9
				c-0.8-0.9-1.8-1.6-4.1-1.9v-0.6c-0.9,0.4-2.2,0.7-3.1,0.7h-0.9v-2.8h-8.1v2c0,0.5-2.3,1.6-4.4,1.6h-0.8V78.7l5.4,2.2h7.5l2.4-2.5
				l4.9,3.7c-0.3,0.3-0.8,0.7-1.6,0.9v9.8c0,0.1-0.4,0.3-1,0.5c1,0.1,4.4,0.4,5.4,0.4c0.8,0,1-0.4,1-1V69.2h-8.3V73
				c0,1,0.1,1.1,0.7,1.1h3.3c0.4,0,0.6,0,0.9-0.4c0.3-0.4,0.6-1.4,1.1-2.9h0.6l0.1,2.7c1.4,0.7,1.5,0.9,1.5,1.6c0,1.8-1.2,3-4.3,3
				h-3.9c-4.1,0-4.8-1-4.8-5.3v-3.7h-3.4c-1.4,5.8-5.4,9.3-12.2,11.2l-0.2-0.7c4.5-2.6,6.3-6.1,6.9-10.5H112v28.5c0,0.7-2.4,2-4.8,2
				h-1V65.2l6.2,2.6h6.2c-0.3-0.2-0.5-0.3-0.8-0.5c-0.2-2.4-1.4-4.9-2.5-6.6l0.3-0.2h-12.3l-0.4-1.4h20.3v-6.6l7.9,0.6
				c-0.1,0.7-0.5,1.2-1.8,1.4V59h11L144,54.7z M130.2,67.8c0.6-2.2,1.3-5.1,1.6-7.3h-15.4c7.8,1.5,7.7,5.9,5.4,7.3H130.2z
				 M130.6,89.7v-7.4h-8.1v7.4H130.6z"/>
			<path class="st0" d="M202,57.2c-0.4,0.4-1.1,0.8-2.1,1.1v39.3c-0.1,0.5-2.6,1.8-4.7,1.8h-0.9v-3.2h-31.2v1.5
				c0,0.8-2.2,2.1-4.6,2.1h-1V53.4l6,2.5h30.2l2.8-3.1L202,57.2z M194.3,94.8V57.3h-31.2v37.5H194.3z M186.1,73.5
				c2.3,1.9,5,3.4,7.8,4.3l-0.1,0.5c-1.8,0.4-2.9,1.8-3.5,3.9c-1.5-1-2.8-2.1-4-3.4c-0.3,0.1-0.6,0.2-1,0.3c0,3.5-0.4,5.1-1.8,6
				c-1,0.6-2.2,0.8-3.9,0.9c0-1-0.1-1.9-0.6-2.4s-1.3-0.8-2.3-1v-0.8c1,0.1,2.5,0.1,3.2,0.1c0.6,0,0.9-0.1,1-0.2
				c0.3-0.3,0.4-1.2,0.5-3h-6.2V87c0,0.7,0.2,0.9,1.7,0.9h4.3c1.7,0,3.1-0.1,3.7-0.1c0.5-0.1,0.8-0.1,1.1-0.5c0.5-0.6,1.1-2.1,1.7-4
				h0.6l0.2,4.1c1.4,0.5,1.7,1.1,1.7,1.9c0,2-1.9,2.9-9.3,2.9H176c-4.3,0-5.1-0.9-5.1-4v-9.4c-1.9,1.7-4.1,3.2-6.7,4.5l-0.5-0.6
				c3.3-2.6,5.8-5.7,7.7-9.1h-6.8l-0.4-1.5h7.9c0.6-1.2,1.1-2.5,1.6-3.7h-3.9l-0.4-1.5h4.7c0.9-2.7,1.4-5.5,1.7-8.1l6.9,1.4
				c-0.2,0.7-0.8,1.1-2,1.2c-0.4,1.9-1,3.7-1.7,5.5h3l2.3-2.6c0,0,2.2,1.6,3.8,3c-0.5-2.4-2.3-5.3-3.9-7.1l0.5-0.3
				c10.8,2.2,7.6,9.9,3.7,7.6l0.1,0.1c-0.1,0.6-0.6,0.8-1.3,0.8h-5c0.7,1.4,1.7,2.6,2.7,3.7h2.1l2.4-2.8c0,0,2.7,2,4.4,3.5
				c-0.2,0.6-0.7,0.8-1.4,0.8L186.1,73.5L186.1,73.5z M174.7,61.7c-0.3,0.6-0.9,1-1.9,0.9c-2,2.9-4.6,5.2-7.2,6.7l-0.7-0.6
				c1.7-2.2,3.4-5.5,4.4-9.2L174.7,61.7z M184,76c-0.5-0.8-1-1.7-1.4-2.5h-7.4c-0.6,0.9-1.3,1.8-2,2.6l2.7,1.1h4.9l2.1-2L184,76z
				 M178.1,68.3c-0.6,1.3-1.2,2.5-1.9,3.7h5.7c-0.5-1.2-0.9-2.4-1.3-3.7H178.1z"/>
		</g>
	</g>
</g>
</svg>
