<?xml version="1.0" encoding="utf-8"?>
<!-- Generator: Adobe Illustrator 23.1.1, SVG Export Plug-In . SVG Version: 6.00 Build 0)  -->
<svg version="1.1" id="圖層_1" xmlns="http://www.w3.org/2000/svg" xmlns:xlink="http://www.w3.org/1999/xlink" x="0px" y="0px"
	 viewBox="0 0 320 100" style="enable-background:new 0 0 320 100;" xml:space="preserve">
<style type="text/css">
	.st0{fill:#C29B61;}
</style>
<g>
	<g>
		<g>
			<path class="st0" d="M43.3,14c-0.4,0.4-1,0.9-2.1,1.1v16.6c-0.1,0.4-3.2,1.5-5.2,1.5h-1.1V29H23.6v17.7c0,0.7-2.7,2.2-5.1,2.2
				h-1.2V29H6v3c0,0.6-2.8,2-5.3,2h-0.9V10l6.7,2.6h10.8v-11l8.2,0.8C25.4,3,25,3.6,23.6,3.8v8.8h10.9l2.8-3.1L43.3,14z M17.3,27.6
				V14.1H6v13.5H17.3z M34.9,27.6V14.1H23.6v13.5H34.9z"/>
			<path class="st0" d="M62.7,39.1c2.5-0.6,5.1-1.1,7.7-1.7l0.2,0.6c-4.1,2.2-10.1,5.3-18.6,9.1c-0.3,0.6-0.8,1.2-1.3,1.3l-2.5-6.3
				c0.8-0.1,1.7-0.3,2.9-0.5v-18l5.5,0.5c-0.1,0.5-0.4,0.9-1.2,1v15.7l2.2-0.5V18.8h-1.4v0.7c0,0.4-1.6,1.5-4.2,1.5h-0.9V3l5.7,2.3
				h5.3l2.5-2.7l5.1,3.9c-0.3,0.4-1,0.8-1.9,1V19c-0.1,0.4-2.6,1.3-4.3,1.3h-0.9V27h0.7l2.5-3.9c0,0,2.9,2.7,4.5,4.5
				c-0.2,0.6-0.7,0.8-1.4,0.8h-6.3v10.7H62.7z M56.2,17.3h6.5V6.6h-6.5V17.3z M93.3,9.7c-0.4,0.6-0.9,0.7-2.1,0.8
				c-1.6,3.6-3.8,6.9-6.6,9.9c3.4,2,7.5,3.5,12.3,4.4l-0.1,0.5c-2.4,0.9-3.6,2.5-4,5.3c-1.2-0.5-2.3-0.9-3.3-1.4l3.3,2.5
				c-0.4,0.4-0.8,0.7-1.9,0.9v14.7c0,0.3-1.9,1.3-4.8,1.3H85V45h-8.9v2.4c0,0.4-1.7,1.4-4.6,1.4h-1V29.9c-1.6,0.7-3.2,1.2-4.9,1.7
				l-0.4-0.7c5.6-2.7,10.3-6.4,13.9-10.7c-1.3-1.9-2.4-3.9-3.3-6.2c-2.3,2.7-4.9,4.8-7.8,6.5L67.4,20c3.7-4.3,7-11.2,8.6-18.7
				l7.5,2.4c-0.3,0.7-0.9,1.1-2,1C81,5.9,80.5,7,79.9,8h5.2l3.1-3L93.3,9.7z M87.4,28.1c-2.2-1.4-4.1-2.9-5.7-4.7
				c-2.7,2.3-5.7,4.2-9.3,5.8l4.4,1.7H85L87.4,28.1z M85.1,43.6V32.3h-8.9v11.3H85.1z M79.1,9.6c-0.7,1.2-1.5,2.3-2.3,3.4
				c1.2,1.8,2.6,3.4,4.3,4.8c1.8-2.6,3.2-5.3,4.2-8.2C85.3,9.6,79.1,9.6,79.1,9.6z"/>
			<path class="st0" d="M142,5c0,0,3.9,3,6.4,5.1c-0.2,0.6-0.7,0.8-1.5,0.8h-18.6l1.1,0.1c-0.1,0.7-0.4,1.1-1.6,1.3V18h8.3l2.7-3.1
				l5.9,4.4c-0.4,0.4-1.1,0.9-2,1.1v15.4c0,3.8-0.9,6.1-7.6,6.7c-0.2-1.9-0.4-3.2-1.1-4.1c-0.7-0.8-1.7-1.5-4-1.9v-0.7
				c0,0,4.3,0.3,5.5,0.3c0.9,0,1.1-0.3,1.1-1V19.4h-8.8v26.8c0,0.6-2.8,2-5,2h-1.2V19.4h-8.8v21.1c0,0.6-2.6,2-5.1,2h-0.9V15.4
				l6.4,2.6h8.4v-7.1h-20l-0.4-1.5h20.4v-8l8.1,0.6c-0.1,0.7-0.5,1.2-1.8,1.5v5.9h10.7L142,5z"/>
			<path class="st0" d="M196.4,14.6c-1,7.8-3,14.7-7,20.4c3.1,3.5,7,6.3,11.7,8.4L201,44c-2.8,0.6-4.5,2.2-5.2,4.8
				c-4-2.7-7.1-6.1-9.4-10c-4.2,4.3-10,7.7-17.9,10.1l-0.4-0.6c7.5-3.7,12.7-8.4,16-14c-1.8-4.3-3.1-9.2-3.9-14.5
				c-1.6,2.3-3.5,4.3-5.5,6.1l-0.6-0.4c0.5-1,1-2,1.5-3.1h-6v13.9c3-0.7,6.2-1.5,9.3-2.2l0.2,0.6c-4.7,2.6-11.7,6.1-22,10.4
				c-0.3,0.7-0.7,1.2-1.3,1.4l-3.1-6.6c0.8-0.2,1.9-0.4,3.1-0.6V15.2l6.4,0.6c-0.1,0.6-0.5,1-1.5,1.2v21.4l3.4-0.8V8.2h-10l-0.4-1.5
				h16.5l3.1-4c0,0,3.5,2.8,5.6,4.7c-0.2,0.6-0.7,0.8-1.4,0.8h-7.9v12.7h0.8l2.8-4.1c0,0,1.8,1.6,3.4,3.2c2-5.4,3.6-12,4.3-18.5
				l8.4,1.9c-0.2,0.7-0.8,1.1-2,1.2c-0.9,3.1-1.9,5.9-3.1,8.5h8.3l3.1-4.1c0,0,3.5,2.8,5.6,4.7c-0.2,0.6-0.7,0.8-1.5,0.8h-3.3
				L196.4,14.6L196.4,14.6z M183.3,14.6c-0.7,1.4-1.4,2.7-2.2,3.9c1.2,4.5,2.8,8.5,5,12.1c2.2-4.8,3.3-10.2,3.8-15.9h-6.6V14.6z"/>
			<path class="st0" d="M226.6,23.1c-2,1.2-4.5,2.8-7.7,4.5v19.3c0,0.6-2.3,2-4.4,2h-1.1V30.6c-1.4,0.8-2.9,1.5-4.5,2.3
				c-0.3,0.7-0.8,1.2-1.3,1.4l-2.8-6.8c1.8-0.3,4.8-1,8.6-1.8V15.5h-3.1c-1.1,3.1-2.6,5.8-4.3,8l-0.8-0.4c1.4-4.9,2.3-11.7,2.4-17.9
				l5.8,1.3v-5l7.3,0.8c-0.1,0.7-0.5,1.2-1.8,1.4V14h0.2l2.8-4.3c0,0,3.2,3,4.9,5c-0.2,0.6-0.7,0.8-1.4,0.8h-6.6v8.9
				c2.4-0.6,5-1.2,7.5-1.9L226.6,23.1z M213.5,14V7.7c-0.3,0.1-0.6,0.2-0.9,0.2c-0.5,2.1-1,4.2-1.7,6.2L213.5,14L213.5,14z
				 M224.6,9.1h8.9V1.5l7.6,0.7c-0.1,0.7-0.5,1.2-1.9,1.4v5.5h3.6l2.9-4.2c0,0,3.3,2.9,5.2,4.8c-0.2,0.6-0.7,0.8-1.4,0.8h-10.3v7.8
				h5.2l3.1-4.4c0,0,3.5,3,5.4,5.1c-0.2,0.6-0.7,0.8-1.4,0.8h-29.4l-0.4-1.5h11.7v-7.8H225L224.6,9.1z M248.5,22.7
				c0,0,3,2.8,4.7,4.6c-0.2,0.6-0.7,0.8-1.4,0.8h-6.5V42c0,4-1,6.3-8,6.9c-0.3-1.8-0.6-3.1-1.5-4c-1-0.9-2.3-1.5-5.3-2v-0.7
				c0,0,6.8,0.5,8,0.5c0.9,0,1.2-0.3,1.2-1V28.2h-17l-0.4-1.5h17.4v-6.4l7.6,0.7c-0.2,0.8-0.6,1.2-1.8,1.3v4.4h0.6L248.5,22.7z
				 M225.2,29.2c14.1,2.7,9.2,12.9,3.9,9c-0.6-3-2.6-6.4-4.3-8.7L225.2,29.2z"/>
			<path class="st0" d="M299.1,39.6c0,0,3.6,2.8,5.9,4.7c-0.2,0.6-0.7,0.8-1.4,0.8h-37.3v2.1c0,0.5-1.8,1.9-4.7,1.9h-1.1V2.8
				l6.5,2.7h26.7l3.2-4c0,0,3.6,2.7,5.8,4.6C302.6,6.7,302,7,301.3,7h-35v36.8h29.5L299.1,39.6z M277.7,40.4v-2.7h-3.8v2.4
				c0,0.5-2.1,1.5-4.2,1.5H269V24.3l5,2h3.2l2.3-2.3l4.7,3.5c-0.3,0.3-0.9,0.7-1.7,0.9v10.8c0,0.4-2.5,1.3-4.1,1.3L277.7,40.4
				L277.7,40.4z M277.7,36.3v-8.6h-3.8v8.6H277.7z M287.9,20.8h-8v1.6c0,0.5-2.5,1.7-4.8,1.7h-0.8V8.6l5.7,2.3h7.3l2.6-2.8l5.4,4.1
				c-0.3,0.4-0.9,0.7-1.8,0.9V22c-0.1,0.4-2.9,1.4-4.7,1.4h-1L287.9,20.8L287.9,20.8z M287.9,19.4v-7.1h-8v7.1H287.9z M294.1,40.2
				v-2.5h-4.2v1.6c0,0.5-2.1,1.6-4.1,1.6h-0.7V24.3l5,2h3.5l2.3-2.4l4.8,3.6c-0.3,0.3-0.9,0.7-1.7,0.8v10.5
				c-0.1,0.4-2.6,1.4-4.1,1.4H294.1z M294.1,36.3v-8.6h-4.2v8.6H294.1z"/>
		</g>
		<g>
			<path class="st0" d="M17.4,73.4c0,2.6-1,4.4-2.4,5.3c-1.3,0.8-3.5,0.5-4.1-1.2c-0.5-1.5,0.5-2.8,1.9-3.4c1.4-0.8,3.2-2.7,3.2-4.6
				h0.8c0.3,0.9,0.5,1.7,0.6,2.4h1V57.8l6.2,2.3h2c0.1-1,0.2-2.2,0.2-3.2H16L15.7,56c-0.3,0.1-0.6,0.1-0.9,0.1
				c-1.4,3.8-3,7.4-4.8,10.7l2.5,0.9c-0.2,0.5-0.7,0.8-1.6,1v29.7c-0.1,0.4-2.4,1.5-4.4,1.5h-1V73.6c-1.6,2.1-3.3,3.9-5.1,5.5
				l-0.6-0.4c3.6-6.4,7.3-16.6,9.1-26.2l8,2.6c-0.1,0.2-0.1,0.3-0.2,0.4h21.7l3.1-3.6c0,0,3.5,2.4,5.7,4.2c-0.3,0.6-0.8,0.9-1.6,0.9
				H32.4c-1.1,1.1-2.4,2.3-3.6,3.2h5.9l2.7-2.8l5.2,4c-0.3,0.4-0.9,0.8-1.8,0.9v9.3l2.5-2.5l4.8,4.7c-0.4,0.4-0.9,0.5-1.9,0.6
				c-1.2,0.7-3,1.8-4.5,2.6c5.5,2.8,2.8,8.1-0.7,6c-0.7-2.5-3.1-5.4-5.1-7l0.4-0.4c1.5,0.2,2.7,0.4,3.7,0.8c0.3-0.9,0.6-1.9,0.8-2.9
				L17.4,73.4L17.4,73.4z M41.9,88.1c-0.4,0.5-0.9,0.7-2.1,0.7c-1.3,1.8-2.9,3.2-4.7,4.5c3.6,0.5,8,0.7,13,0.6v0.6
				c-2,0.9-3,2.6-3.2,5.3c-6.7-0.6-11.2-1.7-14.7-3.7c-4.9,2.1-11,3.3-18.2,3.9l-0.2-0.8c5.9-1.1,11.1-2.9,15.3-5.4
				c-1.3-1.2-2.3-2.4-3.4-3.9c-3,2.5-6.8,4.7-11.1,6.1l-0.5-0.6C17,92.2,21,87.1,22.7,83l0.7,0.2c-0.9-0.6-1.1-1.5-1.1-3.1v-5.3
				l5.7,0.6c-0.5-0.5-0.9-0.9-1.4-1.2l0.5-0.4c9.5,0.1,7.1,7.1,3.3,5.1c-0.4-1.1-1.3-2.4-2.2-3.4c-0.1,0.6-0.6,0.9-1.4,1v2.9
				c0,0.5,0.1,0.7,1.2,0.7h2.9h2.6c0.4,0,0.7-0.1,1-0.4c0.4-0.5,0.9-1.5,1.5-2.9h0.6l0.2,2.9c1.2,0.5,1.5,0.9,1.5,1.7
				c0,1.8-1.7,2.4-7.7,2.4H27h-0.6l4.1,0.8c-0.2,0.7-0.8,1-2.3,1c-0.3,0.3-0.6,0.7-0.8,1h6.5l3.2-2.9L41.9,88.1z M20.5,75.2
				c1.1,4.1-0.2,7-1.8,8.2c-1.1,0.8-3.1,0.7-3.7-0.7c-0.5-1.3,0.3-2.4,1.5-3c1.4-0.8,3.1-2.7,3.2-4.5H20.5z M23.8,61.6V64h11.4v-2.4
				H23.8z M35.3,65.5H23.9V68h11.4V65.5z M23.8,71.9h11.4v-2.5H23.8V71.9z M25.9,87.9c-0.4,0.4-0.8,0.8-1.3,1.2c1.4,1.2,3,2.1,5,2.8
				c1.5-1.2,2.8-2.5,3.9-4H25.9z"/>
			<path class="st0" d="M94.3,57.6c0,0,3,2.3,4.9,4c-0.1,0.6-0.7,0.8-1.4,0.8h-6.2v6.3c-0.1,0.2-1.1,0.8-3,1.1l4.4,3.3
				c-0.3,0.4-0.9,0.8-1.8,1v16.3c-0.1,0.4-3,1.5-4.9,1.5h-1v-2.1H67.1V91c0,0.6-2.5,1.9-4.9,1.9h-0.9V69.3l6.2,2.5h17.2l1.8-1.9H86
				v-7.4h-3.7c-0.5,3-2.5,6.5-9.4,8.5l-0.4-0.7c3.6-2.6,4.5-5.7,4.7-8.5c-0.2,0.5-0.7,0.7-1.3,0.7h-5.1v6.4
				c-0.1,0.3-1.6,1.2-4.3,1.2h-1v-7.6h-3.8c-0.4,3.3-2,7.6-8.9,10l-0.4-0.7c3.9-3.3,4.2-7.6,4.2-11v-6.1l5.7,1.7
				c3.2-1.3,6.7-2.8,8.6-3.9l4.6,4.7c-0.6,0.5-1.6,0.4-2.9-0.2c-2.7,0.4-7,0.9-10.9,1v2.8V61h8.1l2.6-3.2c0,0,2.9,2.2,4.7,3.8
				c0.1-0.5,0.1-0.9,0.1-1.3v-5.7l5.3,1.5c3.4-1.2,7-2.7,9.1-3.7l4.6,4.7c-0.6,0.5-1.7,0.5-2.9-0.2c-2.8,0.4-7,0.8-10.9,1v2.3v0.7
				h8.8L94.3,57.6z M53.7,99.1c6.4-1.9,13.4-5.6,16.7-8.6l6.2,4.5c-0.5,0.5-1.5,0.7-3,0.3c-4.7,2.2-12.6,3.9-19.8,4.5L53.7,99.1z
				 M67.3,73.2v4h18.1v-4H67.3z M67.3,78.6v4.1h18.1v-4.1H67.3z M85.4,88.3v-4.2H67.2v4.2H85.4z M78.2,92
				c28.2,0.3,17.7,10.8,12.4,6.8c-2.3-1.9-6.5-4.4-12.5-6.2L78.2,92z"/>
			<path class="st0" d="M145.2,58c0,0,3.9,2.9,6.4,5c-0.2,0.6-0.8,0.8-1.5,0.8h-18.7c-1.9,2.1-4.1,4.4-6.1,6h11.6l2.9-3.2l5.9,4.6
				c-0.4,0.4-1.1,0.9-2.1,1.1v25.5c-0.1,0.4-3,1.7-5.1,1.7h-1V96h-18.9v1.7c0,0.7-2.5,2.1-5.2,2.1h-1V67.2l6.6,2.6h4.5
				c0.1-1.7,0.2-4,0.3-6h-18.9l-0.4-1.4h26.7c1.3-2.9,2.6-7,3.2-9.9l8.2,2c-0.2,0.6-0.8,1.1-1.9,1c-2,2.1-5,4.8-7.9,6.9h8.9
				L145.2,58z M115.2,52.7c14.1,2.3,8.9,12.6,3.6,8.7c-0.5-3-2.3-6.3-4-8.5L115.2,52.7z M118.6,71.2v6.6h18.9v-6.6H118.6z M118.6,86
				h18.9v-6.8h-18.9V86z M137.5,94.4v-7h-18.9v7H137.5z"/>
			<path class="st0" d="M185.4,87.3c-0.5,0.6-1.3,0.8-2.9,0.5c-2.7,1.7-7,3.2-11.4,4.1c2.9,1.4,6.7,1.6,13.2,1.6
				c5.9,0,13.9,0,20.3-0.3v0.7c-2.3,0.5-3.6,2.2-3.9,4.8h-16.3c-9.9,0-13.9-1.4-17.4-8.6c-2,2.8-4.9,6.4-6.8,8.5
				c0,0.7-0.3,1-0.8,1.2l-3.1-6.3c1.5-0.6,3.7-1.5,5.9-2.5V76h-5.4l-0.3-1.4h4.9l2.8-3.7l5.9,4.8c-0.4,0.5-1.1,0.8-2.6,1v12.6
				c0.8,0.8,1.6,1.4,2.4,2c3.5-2.1,7.1-5.6,8.7-8.2L185.4,87.3z M157.9,54c14.6,3.1,9.4,14,4,9.8c-0.4-3.3-2.4-7.1-4.5-9.5L157.9,54
				z M198.1,77.9c0,0,3.4,2.5,5.4,4.3c-0.2,0.6-0.7,0.8-1.4,0.8h-32.9l-0.4-1.5h8.2V76h-5.9l-0.4-1.5h6.3v-4.8l6.8,0.6
				c-0.1,0.6-0.4,1-1.4,1.2v3.1h5.6v-4.8l6.9,0.6c-0.1,0.6-0.4,1-1.4,1.2v3.1h0.8l2.7-3.3c0,0,3,2.3,4.9,3.9
				c-0.2,0.6-0.7,0.8-1.4,0.8h-7v5.5h1.5L198.1,77.9z M170.9,56.8l-0.5-1.4h8l2.2-2.4l4.8,3.5c-0.3,0.4-0.9,0.7-1.7,0.9v4
				c0,0.5-2.5,1.4-4.1,1.4h-0.9v-1.2h-3.3v3c0,0.5,0.1,0.7,1.1,0.7h2.6h2.3c0.4,0,0.7-0.1,1-0.4c0.4-0.4,0.9-1.4,1.5-2.8h0.6
				l0.2,2.8c1.3,0.6,1.6,1,1.6,1.8c0,1.9-1.8,2.5-7.6,2.5h-3.5c-3.9,0-4.4-0.9-4.4-3.8v-7.3l5.4,2.2h2.8v-3.5H170.9z M182.5,81.6
				h5.6v-5.5h-5.6V81.6z M186.8,56.8l-0.4-1.4h8.4l2.3-2.4l4.8,3.6c-0.3,0.3-0.9,0.7-1.7,0.8v4c0,0.4-2.5,1.4-4.1,1.4h-0.9v-1.2
				h-3.3v3c0,0.5,0.1,0.7,1.1,0.7h2.7h2.4c0.4,0,0.7-0.1,0.9-0.4c0.4-0.4,1-1.4,1.5-2.9h0.6l0.2,2.9c1.2,0.6,1.5,1.1,1.5,1.9
				c0,1.9-1.8,2.5-7.7,2.5h-3.5c-4,0-4.5-0.9-4.5-3.9V58l5.5,2.2h2.7v-3.4H186.8z M187.8,84.3c22,1.7,11.8,11.5,7.5,7.1
				c-1.3-2-3.8-4.5-7.8-6.5L187.8,84.3z"/>
		</g>
	</g>
</g>
</svg>
