<?xml version="1.0" encoding="utf-8"?>
<!-- Generator: Adobe Illustrator 23.1.1, SVG Export Plug-In . SVG Version: 6.00 Build 0)  -->
<svg version="1.1" id="圖層_1" xmlns="http://www.w3.org/2000/svg" xmlns:xlink="http://www.w3.org/1999/xlink" x="0px" y="0px"
	 viewBox="0 0 330 100" style="enable-background:new 0 0 330 100;" xml:space="preserve">
<style type="text/css">
	.st0{fill:#C29B61;}
</style>
<g>
	<g>
		<g>
			<path class="st0" d="M35.3,16.7c0,0,3.6,3,5.8,4.9c-0.1,0.5-0.6,0.7-1.3,0.7H23.3v21c0,0.6-2.4,2-4.6,2h-1v-23h-17l-0.3-1.2h17.4
				V4.8l7.5,0.7c-0.1,0.7-0.5,1.3-1.9,1.5v14.1h8.8L35.3,16.7z"/>
			<path class="st0" d="M85.2,11.7c-0.3,0.3-0.9,0.7-1.8,0.9V42c0,0.4-2.4,1.6-4.2,1.6h-0.8v-3.9H52.7v2.4c0,0.6-2,1.8-4.1,1.8h-0.8
				V8.4l5.4,2.2H78l2.4-2.7L85.2,11.7z M78.3,38.4V11.8h-7.1V12v13.2c0,0.6,0.1,0.7,0.7,0.7h1c0.5,0,0.9,0,1.1,0
				c0.3,0,0.6-0.1,0.7-0.4c0.3-0.4,0.9-2.4,1.4-4.1h0.5l0.2,4.3c1,0.5,1.3,1.1,1.3,2c0,1.7-1.4,2.7-5.6,2.7h-2c-3.2,0-3.6-1-3.6-3.8
				V11.8h-3.7c-0.2,9.3-1,16.5-10.2,21.3l-0.2-0.3v5.7L78.3,38.4L78.3,38.4z M52.7,11.8v20.3c5.5-5.4,5.6-12.1,5.6-20.3
				C58.3,11.8,52.7,11.8,52.7,11.8z"/>
			<path class="st0" d="M106.9,29c-2.7,2.1-6.8,5.2-12.7,9.1c-0.1,0.6-0.5,1-1,1.3l-3.3-5.5c1.3-0.3,3.4-1,5.9-1.7V12.7h-5.2
				l-0.3-1.2h9.8l2.7-3.6c0,0,3,2.4,4.8,4.1c-0.1,0.5-0.6,0.7-1.3,0.7h-5.1v17.7c1.8-0.6,3.7-1.2,5.6-1.9L106.9,29z M100.4,44.9
				c4.7-2,10-5.9,12.5-9l5.2,3.4c-0.2,0.3-0.7,0.4-1.4,0.2c-3.4,2.6-10.2,5.1-16,6L100.4,44.9z M126.4,4.7c0,0,3.1,2.4,5.1,4.1
				c-0.1,0.5-0.6,0.7-1.2,0.7h-9.7c-1.3,1.7-2.8,3.4-4.1,4.7h6l2.4-2.5l4.7,3.6c-0.2,0.3-0.8,0.7-1.5,0.8v19.2
				c0,0.3-2.5,1.3-4.2,1.3H123v-1.7h-9.9v0.7c0,0.5-2.1,1.7-4.3,1.7h-0.7V12.1l5.3,2.1h1.7c0.1-1.3,0.2-3.1,0.3-4.7h-10l-0.3-1.3
				h18.6L126.4,4.7z M112.9,15.4v5.2h9.9v-5.2C122.8,15.4,112.9,15.4,112.9,15.4z M112.9,27.2h9.9v-5.3h-9.9
				C112.9,21.9,112.9,27.2,112.9,27.2z M122.8,33.7v-5.3h-9.9v5.3H122.8z M118.6,36.5c15,0.4,12.9,10.8,7.4,8.5
				c-1.5-2.9-5-6.2-7.7-8.2L118.6,36.5z"/>
			<path class="st0" d="M171.2,37.3c0,0,3.2,2.9,5.1,4.8c-0.1,0.5-0.6,0.7-1.3,0.7h-39.6l-0.3-1.2h9.3c1.2-4.5,2.6-10.8,3.9-17h-8.1
				l-0.4-1.2h8.8c0.9-4.3,1.7-8.4,2.3-11.8h-12.8l-0.3-1.3h27.6l3-4c0,0,3.4,2.7,5.4,4.6c-0.1,0.5-0.6,0.7-1.3,0.7h-16.2
				c-0.7,3.4-1.5,7.6-2.4,11.8h7.3l2.5-2.7l4.9,3.8c-0.3,0.3-0.8,0.7-1.7,0.8v16.3h1.4L171.2,37.3z M153.6,24.5
				c-1.4,6.2-2.8,12.5-3.9,17h11.9v-17H153.6z"/>
			<path class="st0" d="M216,38.9c0,0,3.1,2.5,4.9,4.3c-0.1,0.5-0.6,0.7-1.2,0.7h-38.9l-0.3-1.2h18.1v-6.4h-11.5l-0.3-1.2h11.8v-5.5
				h-7.3c-2.7,3.2-5.8,5.5-9.1,7l-0.5-0.4c2.8-3,5.7-7.6,7.4-12.8c-0.4,0-0.8,0.1-1.2,0.1h-0.8V5.3l5.7,2.2h16.1l2.5-2.7l5.1,3.9
				c-0.3,0.3-0.8,0.7-1.7,0.9v12c0,0.3-2.7,1.3-4.5,1.3h-1v-1.8h-16.9v0.7c0,0.2-0.4,0.5-1.1,0.8l4.5,1.8c-0.2,0.6-0.7,0.8-1.7,0.7
				c-0.6,1.1-1.3,2.1-2,3.1h6.3v-6.1l7,0.6c-0.1,0.7-0.4,1.1-1.6,1.3v4.3h6.5l2.7-3.6c0,0,3,2.4,4.8,4.1c-0.1,0.5-0.6,0.7-1.2,0.7
				h-12.9V35h6.3l2.7-3.6c0,0,3,2.4,4.7,4.1c-0.1,0.5-0.6,0.7-1.2,0.7h-12.5v6.4h9.3L216,38.9z M192.5,8.8v4.8h16.9V8.8H192.5z
				 M209.4,19.8v-5h-16.9v5H209.4z"/>
			<path class="st0" d="M243.6,8.2c-0.2,0.6-0.8,0.9-1.8,0.8c-4,8.5-9.5,14-16.2,17.6l-0.4-0.4c4.5-4.6,9.1-12.3,11.5-20.6
				L243.6,8.2z M249.3,28.6c18.3,7.2,14,20.4,7.9,15.7c-0.4-2.1-1.3-4.4-2.4-6.6c-5.3,1.7-12.6,3.7-23,6.1c-0.3,0.6-0.8,0.9-1.4,1
				l-2.6-6.7c1.9,0,4.7-0.2,8.1-0.3c2.2-5.9,4.3-13.5,5.3-19l7.2,1.8c-0.1,0.6-0.6,1-1.7,1c-1.9,4.6-5.3,10.9-9,16.1
				c4.7-0.3,10.5-0.7,16.4-1.1c-1.5-2.8-3.5-5.5-5.4-7.7L249.3,28.6z M249.7,4.7c3.2,7.6,10.2,13.3,16.9,15.9l-0.1,0.5
				c-2,0.4-3.7,2.1-4.5,4.6c-6.4-4.2-10.5-11.2-12.9-20.8L249.7,4.7z"/>
			<path class="st0" d="M285.2,10.3c0,0,2.6,2,4.2,3.5c-0.1,0.5-0.6,0.7-1.2,0.7h-17.9l-0.3-1.2h12.9L285.2,10.3z M280.7,18.8
				l2.2-2.8c0,0,2.5,2,4,3.4c-0.1,0.5-0.6,0.7-1.2,0.7h-13.2l-0.3-1.3C272.2,18.8,280.7,18.8,280.7,18.8z M272.5,25.7l-0.3-1.2h8.4
				l2.2-2.8c0,0,2.5,2,4,3.4c-0.1,0.4-0.5,0.7-1.1,0.7h-13.2V25.7z M286.2,42.4c0,0.3-2.3,1.3-3.9,1.3h-0.8v-2.6h-4.8v2.8
				c0,0.4-2,1.4-3.9,1.4h-0.7V28.4l4.7,1.9h4.2l2.2-2.4l4.5,3.4c-0.3,0.3-0.8,0.7-1.6,0.9L286.2,42.4L286.2,42.4z M272.7,8.9
				l-0.3-1.2h8.1l2.3-3c0,0,2.5,2,4.1,3.5c-0.1,0.5-0.6,0.7-1.1,0.7H272.7z M281.6,39.8v-8.2h-4.8v8.2H281.6z M308.9,25.8
				c-0.3,0.4-0.7,0.6-1.8,0.7c-1.4,3.7-3.4,7.1-6.1,9.9c3.1,1.8,6.8,3.1,10.6,4v0.5c-2.2,0.4-3.7,2-4.5,4.5
				c-3.7-1.6-6.8-3.5-9.3-6.1c-3.4,2.7-7.8,4.7-13.2,6.1l-0.3-0.6c4.6-2,8.4-4.9,11.2-8.2c-2-2.9-3.5-6.5-4.6-11h-3l-0.4-1.2h13.6
				l2.9-2.8L308.9,25.8z M287,23c3.3-3.7,3.6-8.4,3.6-12.1V5.6l5.4,2h3.3l2.3-2.5l4.2,3.4c-0.3,0.3-0.7,0.5-1.4,0.7v6.7
				c0,0.5,0.1,0.6,0.6,0.6h1h1c0.3,0,0.4,0,0.7-0.4c0.3-0.6,0.9-2.5,1.6-4.8h0.5l0.1,5c1,0.5,1.2,1,1.2,1.9c0,1.7-1.7,2.7-5.6,2.7
				h-2.1c-3.3,0-3.7-0.9-3.7-3.8V8.8h-4.5v2.1c0,3.5-0.8,9.2-7.9,12.5L287,23z M291.9,25.6c1.3,3.5,3.3,6.2,5.8,8.4
				c1.7-2.6,3-5.4,3.9-8.4H291.9z"/>
		</g>
		<g>
			<path class="st0" d="M37.3,71.8c-0.3,0.3-0.9,0.7-1.8,0.9V93c0,3.2-0.7,5-6,5.5c-0.1-1.5-0.3-2.5-0.8-3.2s-1.3-1.3-3.1-1.5v-0.3
				c-0.5,0.1-1,0.2-1.6,0.2h-0.8v-2.2h-10v2.3c0,0.3-1.9,1.1-3.4,1.1H9V82l5.3,0.5c0,0.5-0.3,0.8-1.1,0.9v6.8h2.6V79.8H7.2l-0.3-1.3
				h6.3c-0.3-0.1-0.7-0.3-1.1-0.7c0.1-1.9-0.7-4.1-1.7-5.4l0.4-0.3c6.9,1.5,6.2,5.6,4,6.4h4.9c0.7-1.9,1.4-4.6,1.8-6.5l6.1,1.8
				c-0.2,0.5-0.7,0.8-1.7,0.8c-1.2,1.2-3,2.7-4.7,3.9h3.1l2.1-2.5c0,0,2.4,1.8,3.8,3.1c-0.1,0.5-0.5,0.7-1.1,0.7h-8.4v10.4h2.7V82
				l5.4,0.5c-0.1,0.5-0.3,0.8-1.2,0.9v9.2c0,0.1-0.3,0.4-0.9,0.6c1.1,0.1,2.7,0.2,3.3,0.2c0.7,0,0.9-0.3,0.9-0.8V71.8H6v25
				c0,0.6-1.9,1.7-3.9,1.7H1.4v-30l0.5,0.2v-9.3L8.4,60c-0.1,0.6-0.4,1-1.6,1.2v4.5h8.8v-8.1l6.6,0.6c-0.1,0.6-0.4,1-1.6,1.2v6.3
				h9.1v-6.3l6.7,0.6c-0.1,0.6-0.4,1-1.6,1.2v6.1c0,0.2-1,0.5-2.3,0.7L37.3,71.8z M30.2,70.6l2.2-2.6c-0.6,0.1-1.3,0.2-1.9,0.2h-0.9
				V67H6.7v1c0,0.3-2.2,1-4.1,1H2.2l4.2,1.7L30.2,70.6L30.2,70.6z"/>
			<path class="st0" d="M77.9,58.4c0,0,3.5,2.7,5.7,4.5c-0.1,0.5-0.6,0.7-1.3,0.7H62.7c-1.5,4.3-3.8,8.7-6.8,12.6l2,0.8h15.8
				l2.5-2.8l5.2,4.1c-0.3,0.3-1,0.8-2,1v17.6c-0.1,0.3-2.7,1.4-4.4,1.4h-0.8v-4H57.4v2.8c0,0.3-1.6,1.5-4.2,1.5h-1v-18
				c-2.8,2.9-6,5.4-9.6,7.5l-0.4-0.4c6.9-6.4,12.2-15.8,14-24H43.5l-0.3-1.3h31.5L77.9,58.4z M57.5,78.3V93h16.8V78.3H57.5z"/>
			<path class="st0" d="M87.9,67.8c11.5,0.7,7.8,9.4,3.4,6.4c-0.4-2.2-2.1-4.7-3.7-6.1L87.9,67.8z M101.4,64.5
				c-1.9,5.6-5.1,16-5.7,18.5c-0.4,1.6-0.7,3.1-0.7,4.3c0.1,2.3,1.9,3.8,1.7,7.6c-0.1,2.2-1.5,3.6-3.7,3.6c-1,0-2-0.6-2.4-2.2
				c0.8-4.5,0.6-8.5-0.5-9.1c-0.6-0.4-1.4-0.7-2.3-0.7v-0.8h2c0.7,0,0.8,0,1.4-0.9c0.9-1.7,0.9-1.7,9.4-20.4L101.4,64.5z M91.3,58.4
				c11.9,0.3,8.8,9.3,4.1,6.7c-0.7-2.3-2.7-4.9-4.4-6.4L91.3,58.4z M110.6,76.3c-0.3,0.5-0.7,0.6-1.6,0.7
				c-1.4,6.8-4.7,13.7-11.8,18.1l-0.4-0.5c4.4-4.7,6.5-11.7,7.3-18.2h-5.3l-0.4-1.2h5.4l2.4-2.5L110.6,76.3z M129.1,72.7
				c-0.2,0.4-0.7,0.7-1.7,0.5c-2.1,1.8-5.3,4.1-8.5,5.9c2.7,5.7,6.6,9,10.6,11.2l-0.2,0.4c-2.1,0.5-3.7,2.4-4.4,4.9
				c-4.8-5.1-7.5-11-8.8-22.3v19.6c0,3.4-0.8,5.3-6.8,5.8c-0.1-1.5-0.4-2.7-1.2-3.4c-0.7-0.7-1.7-1.3-4.1-1.7V93c0,0,5,0.3,6,0.3
				c0.8,0,1-0.3,1-0.9v-24h-8.1l-0.3-1.2h8.1l2.3-2.7l5,3.8c-0.3,0.4-0.9,0.7-1.8,1v0.6c0.5,3.1,1.3,5.8,2.3,8.1
				c1.9-2.8,3.9-6.6,4.9-8.9L129.1,72.7z M106.8,58c13.9-1.6,13.3,8.3,7.9,7c-1.8-2.4-5.5-5.1-8.2-6.5L106.8,58z"/>
			<path class="st0" d="M132.8,68.1c11.5,0.7,7.8,9.4,3.4,6.4c-0.4-2.2-2.1-4.7-3.7-6.1L132.8,68.1z M146.2,65.2
				c-1.7,5.4-4.6,15.5-5.1,17.9c-0.3,1.5-0.7,3-0.6,4.2c0,2.3,1.9,3.8,1.7,7.7c-0.1,2.1-1.5,3.6-3.7,3.6c-1,0-2-0.7-2.4-2.3
				c0.8-4.5,0.7-8.5-0.4-9.1c-0.6-0.4-1.3-0.6-2.2-0.7v-0.8h2c0.6,0,0.8,0,1.3-0.9c0.9-1.7,0.9-1.7,8.8-19.7L146.2,65.2z
				 M136.2,58.5c11.9,0.3,8.8,9.3,4,6.7c-0.7-2.3-2.7-4.9-4.4-6.4L136.2,58.5z M171.9,91.6c1.6,0.6,2.1,1.2,2.1,2.1
				c0,2.4-2.3,3.4-12.2,3.4h-6.3c-5.4,0-7.3-0.9-7.3-5.2V75.8l-3.7,1.4l-0.8-1.1l4.5-1.7V62.3l6.3,0.7c0,0.6-0.5,1-1.5,1.2v8.5
				l4.1-1.5V58.1l6.3,0.6c-0.1,0.6-0.5,1-1.6,1.2v9.4l4-1.5l0.4-0.1l2.5-2.4l4.4,3.6c-0.3,0.3-0.8,0.6-1.7,0.7
				c-0.1,10.6-0.5,13.8-2.3,15.4c-1.1,0.9-2.7,1.4-4.6,1.4c0-1.5,0-2.7-0.5-3.3c-0.5-0.7-1.1-1.1-2.2-1.4v6.1c0,0.5-2,1.4-3.8,1.4
				h-0.9V72.5L153,74v16.5c0,1.3,0.6,1.7,3,1.7h6.2c2.4,0,4.3,0,5.3-0.1c0.7,0,1.2-0.3,1.6-0.7c0.5-0.8,1.3-3,2.3-6h0.5L171.9,91.6z
				 M161.8,70.8v10.5c0.7,0.1,2,0.1,2.7,0.1c0.6,0,0.9-0.1,1.1-0.3c0.7-0.7,0.9-3.9,1-12.1L161.8,70.8z"/>
			<path class="st0" d="M217.9,93c1.2,2.7,1.4,4.3,0.6,4.9c-2.2,1.5-5.4-0.8-6.7-2.8c-1.1-1.7-2-3.4-2.8-5.3
				c-3.1,3.5-7,6.2-11.8,8.3l-0.4-0.7c4.6-3,8.1-6.6,10.9-11.3c-1.7-5.4-2.4-11.5-2.7-18.1h-8.8v6.7h3l2.3-2.2l4.1,3.4
				c-0.3,0.3-0.8,0.7-1.7,0.8c-0.2,8.5-0.4,12.3-2.1,13.7c-1,0.8-2.4,1.1-3.9,1.1c0-0.9-0.1-1.9-0.6-2.4c-0.5-0.6-1.5-1.2-2.7-1.5
				v-0.4c-1.4,4.2-4.2,8.2-9.5,11.2l-0.4-0.4c4.3-4.5,5.9-9.8,6.4-15.2c-2.3,1.9-5.7,4.4-10.2,7.5c-0.2,0.6-0.6,1.1-1.1,1.3
				l-2.7-5.8c1-0.2,2.7-0.7,4.8-1.3V71.3H178l-0.3-1.2h4.2V58.5l6.4,0.6c-0.1,0.6-0.4,1-1.6,1.2V70l2-3.4c0,0,1.4,1.4,2.6,2.8v-4.5
				l5.4,2h8c-0.1-2.8-0.1-5.7-0.1-8.6l6.3,0.7c0,0.3-0.1,0.5-0.3,0.7c7.1,0.1,7,4.2,4.9,5.2c1,0.7,2.2,1.8,3.1,2.6
				c-0.1,0.4-0.6,0.7-1.2,0.7h-8.1c0.1,4.1,0.4,8,1.1,11.6c0.9-2.4,1.7-5,2.3-7.9l5.8,2c-0.2,0.6-0.7,0.8-1.8,0.8
				c-1.3,4.2-2.9,7.8-4.7,10.8c0.7,2,1.7,3.7,2.8,5.3c0.5,0.7,0.7,0.7,1.1-0.1c0.6-1.1,1.5-3.2,2.2-5l0.5,0.1L217.9,93z M186.9,83.1
				c1.4-0.4,2.9-0.9,4.4-1.4c0.1-1.8,0.2-3.6,0.2-5.4v-5.1h-0.1h-4.5V83.1L186.9,83.1z M196.2,76v0.3c0,3.3-0.2,7-1.4,10.7
				c1.1,0.1,2.7,0.2,3.2,0.2c0.3,0,0.5-0.1,0.7-0.3c0.6-0.8,0.8-4,1-10.8h-3.5V76z M213.4,64.8c-0.2,0-0.3-0.1-0.5-0.3
				c-0.4-1.7-1.7-3.5-2.7-4.6c-0.2,0-0.4,0.1-0.7,0.1c0,2.2-0.1,4.5,0,6.8h2.4L213.4,64.8z"/>
			<path class="st0" d="M228,70.4c-1.6,1.4-3.3,2.5-5.1,3.5l-0.5-0.4c3.3-3.6,6.7-9.5,8.7-15.8l6.2,2.6c-0.2,0.5-0.8,0.9-1.7,0.8
				c-1,1.8-2.2,3.5-3.4,5l2,0.7c-0.2,0.4-0.6,0.7-1.4,0.8v16c0,0.3-2,1.3-3.8,1.3h-1V70.4z M258.6,92.4c0,0,3.1,2.4,5,4.1
				c-0.1,0.5-0.6,0.7-1.2,0.7h-39.3l-0.4-1.3h17.7v-6.1H228l-0.3-1.2h12.9v-5l6.8,0.6c-0.1,0.6-0.4,1-1.6,1.2v3.2h6.2l2.7-3.5
				c0,0,3.1,2.4,4.9,4c-0.1,0.5-0.6,0.7-1.2,0.7h-12.6v6.1h10.1L258.6,92.4z M242.9,69.8c0,0.3-1.5,1.4-4,1.4h-0.8V58.5l5.4,2.1h9.8
				l2.2-2.5l4.8,3.6c-0.3,0.3-0.8,0.7-1.7,0.9v6.6c0,0.3-2.5,1.1-4.1,1.1h-0.8v-1.2h-3.1v3.6h6l2.4-3c0,0,2.7,2,4.4,3.5
				c-0.1,0.5-0.6,0.7-1.2,0.7h-10.5c2.8,2.4,7.5,4.1,11.7,4.7v0.5c-1.7,0.5-3,2-3.4,4.4c-4.2-1.9-7.3-4.9-9.4-9.1v8.3
				c0,0.3-1.5,1.4-3.9,1.4h-0.8v-7.2c-3,2.9-7.1,5.1-11.8,6.8l-0.4-0.6c3.8-2.3,7-5.6,9-9.1h-8l-0.3-1.2H246v-3.7h-3L242.9,69.8
				L242.9,69.8z M242.9,61.8v6.1h10.8v-6.1H242.9z"/>
		</g>
	</g>
</g>
</svg>
