<?xml version="1.0" encoding="utf-8"?>
<!-- Generator: Adobe Illustrator 23.1.1, SVG Export Plug-In . SVG Version: 6.00 Build 0)  -->
<svg version="1.1" id="圖層_1" xmlns="http://www.w3.org/2000/svg" xmlns:xlink="http://www.w3.org/1999/xlink" x="0px" y="0px"
	 viewBox="0 0 600 120" style="enable-background:new 0 0 600 120;" xml:space="preserve">
<style type="text/css">
	.st0{fill:#C29B61;}
	.st1{fill:none;stroke:#C29B61;stroke-miterlimit:10;}
</style>
<g>
	<g>
		<path class="st0" d="M5.6,46.3h28.7v8.4H0v-6.2C3.9,44.2,7.7,40,11.2,36c4.1-4.6,6.9-8.3,8.5-11.1c1.6-2.7,2.3-5.8,2.3-9.3
			c0-3.4-0.8-6.1-2.3-8.1s-3.6-3-6.2-3c-0.8,0-1.6,0.1-2.6,0.3l-1.5,6.8c-0.6,3.8-2.3,5.7-5.2,5.7c-2.1,0-3.6-0.9-4.5-2.8
			c0.3-3.8,2.1-6.8,5.4-9s7.3-3.2,12.1-3.2c5.2,0,9.2,1.3,11.9,3.8c2.7,2.5,4,6,4,10.2c0,1.5-0.3,2.9-0.9,4.3
			c-0.6,1.4-1.3,2.7-2.1,3.9c-0.8,1.2-2.2,2.6-4,4.4c-1.9,1.7-3.6,3.3-5.1,4.6c-1.6,1.3-3.9,3.1-7,5.6C10.3,42.3,7.5,44.7,5.6,46.3z
			"/>
		<path class="st0" d="M79.6,31l3.6-4.6c2.7,2.1,4.8,3.8,6.5,5.3c-0.1,0.6-0.7,0.9-1.5,0.9H68.6c-0.3,2.2-0.7,4-1.2,5.5h7.7l4-3.7
			l6.8,5.6c-0.4,0.5-1.2,0.8-2.2,1c-0.3,4-0.8,7.1-1.5,9.1s-1.7,3.5-3.1,4.4c-1.6,1-4.2,1.5-7.8,1.5c0.1-2.2-0.3-3.8-1-4.7
			c-1-1.1-2.7-2-5.1-2.4l0.1-0.6c2.8,0.2,5,0.3,6.6,0.3c0.8,0,1.4-0.1,1.7-0.3c0.9-0.7,1.6-3.6,2-8.7H67c-1.4,3.5-3.8,6.6-7.2,9.3
			c-3.5,2.7-8.6,5.1-15.3,7L44,55.2c2.2-1.2,4.2-2.4,5.9-3.7s3.1-2.6,4.2-3.9c1.1-1.3,2-2.5,2.6-3.7c0.7-1.2,1.2-2.5,1.5-3.9
			s0.6-2.7,0.7-3.7s0.2-2.3,0.3-3.8H51c-1.4,10.1-6.1,17.6-14.1,22.4l-0.4-0.4c2-2.9,3.5-6.4,4.6-10.3c1.1-4,1.8-7.4,2-10.5
			s0.4-6.5,0.4-10.6V9.9l9.2,3.1H76l3.6-4l7.4,5.6c-0.5,0.6-1.2,1-2.2,1.2v9.5c0,0.1-0.4,0.3-1.2,0.6c-0.7,0.3-1.7,0.5-2.8,0.7
			S78.8,27,78,27h-1.4v-3.1H51.5c0,2.4-0.1,4.8-0.4,7.1h11v-6.5l9.5,0.7C71.5,26,71,26.4,70,26.5V31H79.6z M87.7,7.8H39.2l-0.4-1.6
			h40l3.7-4.7c2.8,2.1,5.1,3.9,6.8,5.4C89.1,7.4,88.6,7.8,87.7,7.8z M76.6,14.5H51.5v7.7h25.1V14.5z"/>
		<path class="st0" d="M103.6,6.1l-1.2,6.5c-0.5,3.1-2,4.6-4.5,4.6c-1.5,0-2.6-0.7-3.4-2.2c0.1-3.8,1.4-6.6,4-8.5s5.8-2.8,9.8-2.8
			c4.6,0,8.1,1.1,10.5,3.2c2.4,2.2,3.6,5,3.6,8.6c0,6.9-3.8,11.2-11.5,13c4.6,0.8,7.9,2.3,9.9,4.6s3,5.3,3,9c0,4.1-1.5,7.5-4.5,10
			s-7,3.8-12.1,3.8c-4.5,0-8-1-10.5-3.1c-2.5-2-3.8-5-4.1-8.8c0.5-2,1.8-3,3.8-3c1.3,0,2.3,0.4,3,1.3c0.7,0.8,1.2,2.3,1.4,4.5l1,6.5
			c0.8,0.2,1.5,0.3,2.2,0.3c3.1,0,5.5-1,7.2-2.9s2.5-4.8,2.5-8.5c0-3.9-0.8-6.9-2.4-9s-4-3.1-7-3.1H102v-2.6h2.1c2.8,0,5-1,6.5-2.9
			c1.6-1.9,2.3-4.8,2.3-8.7c0-3.3-0.6-5.8-1.9-7.5s-3.1-2.6-5.4-2.6C105.2,5.8,104.6,5.9,103.6,6.1z"/>
		<path class="st0" d="M130.7,56.1l-0.3-1.8c5.1-2,9.1-4.7,12-8.1c2.8-3.5,4.7-8,5.5-13.5c-2.2,1.8-4.9,2.7-8.2,2.7
			c-4,0-7.3-1.3-9.8-3.9s-3.7-6.3-3.7-10.9c0-5.4,1.6-9.5,4.6-12.5c3-2.9,6.7-4.4,11.2-4.4c5.2,0,9.3,1.9,12.2,5.6
			c2.9,3.8,4.3,9,4.3,15.6c0,8-2.5,14.8-7.5,20.3C145.8,50.8,139.1,54.4,130.7,56.1z M143.6,32.2c1.6,0,3.2-0.6,4.7-1.7
			c0.2-2.2,0.4-4.6,0.4-7.1c0-11.8-2.2-17.7-6.5-17.7c-1.8,0-3.3,1.1-4.5,3.3s-1.8,5.5-1.8,9.9c0,4.1,0.7,7.3,2.1,9.7
			C139.2,31.1,141.1,32.2,143.6,32.2z"/>
	</g>
	<g>
		<path class="st0" d="M433.7,7.1l3.5-3.8l7.1,5.4c-0.6,0.6-1.3,1-2.3,1.2v20.8c-0.1,0.3-0.9,0.6-2.4,1.1s-2.9,0.7-4,0.7h-1.3V29
			h-7.8v12.1c2.4-0.3,5.2-0.7,8.4-1.1c-0.9-2.5-2.1-4.7-3.5-6.6l0.6-0.3c5.7,1.9,9.3,4.7,10.9,8.3c1,2.4,0.9,4.4-0.2,6.1
			c-1,1.5-2.3,2.1-4,1.6c-0.8-0.2-1.5-0.7-2.3-1.3c0-1.7-0.3-3.5-0.8-5.4c-4.3,2.7-9.4,5.5-15.2,8.3c-0.4,0.8-0.9,1.3-1.7,1.5
			l-4-9.6c1.6-0.2,3.1-0.3,4.4-0.5V3.5l8.3,3.6H433.7z M434.3,8.7h-7.8v8.4h7.8V8.7z M426.5,27.5h7.8v-8.7h-7.8V27.5z M461.2,4
			l7.3,5.6c-0.5,0.6-1.3,1-2.3,1.2v27.9c0,1.5-0.1,2.7-0.3,3.7c-0.2,0.9-0.6,1.8-1.2,2.6s-1.6,1.5-2.8,1.9c-1.2,0.5-2.8,0.8-4.8,1
			c-0.1-3-0.4-5-1-6c-0.6-1.3-1.8-2.2-3.5-2.6v14.1c0,0.2-0.2,0.5-0.7,0.9s-1.2,0.7-2.3,1c-1,0.3-2.2,0.5-3.4,0.5h-1.5V4.1l8.6,3.9
			h4.3L461.2,4z M452.7,9.6v28.9c2.4,0.1,3.9,0.2,4.6,0.2s1-0.3,1-1V9.6H452.7z"/>
		<path class="st0" d="M500.9,24.9l9.9,4.2c-0.3,0.7-1,1-2.3,0.9c-2,4-4.4,7.6-7.3,10.8c5.8,3.3,13.4,5.7,22.9,7.1l-0.1,0.7
			c-3.5,0.8-5.8,3.2-6.8,7.3c-8.4-2.7-15-6.5-19.8-11.5c-7,5.9-16,9.7-27,11.4l-0.3-0.6c9.9-3.5,17.6-8.7,23.2-15.8
			c-1.8-2.7-3.3-6-4.6-9.8c-0.4,0.9-1.5,3.1-3.1,6.4c0.3,0.5,0.3,1-0.2,1.5l-3.6-4.1c2.4-1.7,4.5-3.3,6.2-5l0.4-2.7l2.4,0.8
			l-1.6,2.3c1.5,3.1,3.5,5.7,6.1,8.1C497.7,32.9,499.6,29,500.9,24.9z M470.7,13.3l-0.4-1.5h22.2V2.2L503,3c-0.1,0.9-0.8,1.4-2,1.7
			v7.1h10l4.5-5.7c3.4,2.5,6.1,4.7,8.1,6.3c-0.1,0.6-0.7,0.9-1.7,0.9C521.9,13.3,470.7,13.3,470.7,13.3z M472.6,31.6l-0.4-0.6
			c2.8-2.1,5.4-4.8,7.7-8c2.3-3.2,4-6.3,5.2-9.4l9.2,4.9c-0.3,0.7-1,0.9-2.2,0.8c-2.3,2.6-5.1,5.1-8.5,7.3
			C480.3,28.8,476.6,30.5,472.6,31.6z M500.9,15.5l0.4-0.4c7.9,0.5,13.3,2.6,16.2,6.2c1.7,2.1,2.2,4.1,1.5,6.1
			c-0.6,1.6-1.7,2.5-3.3,2.6c-1,0.1-2-0.1-3.1-0.7c-1.1-2.5-2.7-5-4.9-7.5C505.6,19.3,503.3,17.2,500.9,15.5z"/>
		<path class="st0" d="M545.2,38.3l-3.5-7c-1.2,10.9-5.9,19-14.2,24.3l-0.4-0.3c2.8-4.4,4.6-9.3,5.5-14.7c0.8-5.4,1.3-11.7,1.3-19V3
			l9.5,3.1h24.2l3.5-3.9l7.5,5.6c-0.4,0.6-1.2,1-2.2,1.2v8.2c-0.1,0.2-0.9,0.5-2.5,0.9c1.8,1.3,3.7,2.8,5.7,4.4
			c-0.2,0.6-0.7,0.9-1.6,0.9h-17.6c-2.5,2.4-5,4.7-7.5,6.7c7-0.1,11.9-0.1,14.8-0.2c-1.7-1.8-3.2-3.3-4.6-4.2l0.4-0.4
			c6.5-0.2,10.9,1.1,13.3,3.9c1.4,1.7,1.7,3.3,0.9,5.1c-0.7,1.5-1.8,2.3-3.5,2.3c-0.7,0-1.5-0.2-2.3-0.5c-0.6-1.3-1.6-2.9-3-4.7
			c-4.6,1.4-12,3.3-22,5.7C546.5,37.8,545.9,38.2,545.2,38.3z M569.9,52l3.8-5.2c2.8,2.4,5.1,4.3,6.7,5.9c-0.1,0.6-0.7,0.9-1.5,0.9
			h-41.1l-0.4-1.5h17.4V44h-13l-0.4-1.5h13.4v-6.8l9.8,0.8c-0.1,0.8-0.7,1.3-1.8,1.5v4.6h4.7l3.6-4.6c2.8,2,5,3.8,6.7,5.2
			c-0.1,0.6-0.7,0.9-1.6,0.9h-13.5V52H569.9z M550.4,23.5h-8.3c-0.1,2.9-0.2,5.1-0.3,6.7c1.2,0,3.6,0.1,7.1,0.1
			C549.4,28.4,549.9,26.1,550.4,23.5z M568.1,7.8h-25.9v7.8h25.9V7.8z M568.8,21.9l2.6-3.3c-0.8,0.1-1.4,0.2-1.8,0.2h-1.5v-1.7
			h-25.9v4.7h26.6V21.9z"/>
	</g>
	<g>
		<path class="st0" d="M183.9,6l1.7-2.2c1.2,1,2.2,1.8,2.9,2.5c-0.1,0.3-0.3,0.4-0.7,0.4h-6.2V8c0,0.1-0.1,0.2-0.4,0.3
			c-0.3,0.1-0.6,0.2-1.1,0.3s-1,0.1-1.5,0.1H178v-2h-3.8v1.4c0,0.1-0.1,0.2-0.4,0.3c-0.3,0.1-0.6,0.2-1.1,0.3s-1,0.1-1.5,0.1h-0.6
			v-2h-6.5L163.9,6h6.7V3.2l4.4,0.4c0,0.4-0.3,0.6-0.9,0.7V6h3.8V3.2l4.5,0.4c0,0.4-0.3,0.6-0.9,0.7V6H183.9z M182.7,18.6l1.5-1.8
			l3.4,2.5c-0.2,0.3-0.6,0.5-1,0.6v4.4c0,1.1-0.3,2-0.9,2.5c-0.6,0.5-1.8,0.9-3.6,1c-0.1-1.1-0.3-1.8-0.6-2.2
			c-0.5-0.5-1.2-0.9-2.3-1v-0.3c1.7,0.1,2.7,0.2,3.2,0.2c0.3,0,0.5-0.2,0.5-0.5v-1c-0.2,0.5-0.5,0.9-1,1s-1.1,0-1.7-0.4
			c0-0.3-0.1-0.7-0.2-1.2c-1.7,0.6-4.3,1.3-7.8,2.3c-0.2,0.3-0.5,0.5-0.8,0.6l-1.3-3.8c0.6,0,2.1,0,4.3,0v-2.2h-4.7v7.4
			c0,0.2-0.3,0.4-1,0.7c-0.7,0.3-1.4,0.4-2,0.4h-0.5V17.1l3.8,1.5h4.4v-2.5h-2.8v0.4c0,0.2-0.3,0.4-1,0.7c-0.7,0.3-1.4,0.4-2,0.4
			h-0.5V8.1l3.8,1.4h8.7l1.6-1.7l3.2,2.4c-0.2,0.2-0.5,0.4-0.9,0.5v5.4c0,0.2-0.4,0.4-1.1,0.6c-0.7,0.3-1.3,0.4-1.9,0.4h-0.7V16H178
			v2.5h4.7V18.6z M174.4,10.2h-2.8v2.2h2.8V10.2z M171.6,15.4h2.8v-2.2h-2.8V15.4z M180.8,10.2H178v2.2h2.8V10.2z M177.9,15.4h2.8
			v-2.2h-2.8V15.4z M178.6,19.9l0.2-0.2c2.4,0.3,3.7,1,4.1,2.2v-2.6h-5v2.2h1.7C179.4,20.8,179,20.3,178.6,19.9z"/>
		<path class="st0" d="M172.9,44.9V50c1.1,0.2,2.3,0.2,3.8,0.2c6.2,0,10.3,0,12.2-0.1v0.3c-0.6,0.2-1.1,0.5-1.4,1s-0.5,1.2-0.5,1.9
			h-10.3c-2.6,0-4.5-0.4-5.9-1.2s-2.4-2.3-3.1-4.4c-0.8,2.8-2,4.9-3.9,6.3l-0.3-0.3c0.8-1.7,1.4-3.7,1.6-6.1s0.3-4.7,0.1-7l4.3,0.8
			v-2.3l4.3,0.4c-0.1,0.4-0.4,0.7-1,0.7V44l1.5-2.3c1.2,1.1,2.2,2,2.8,2.7c-0.1,0.3-0.3,0.4-0.7,0.4L172.9,44.9L172.9,44.9z
			 M164,38.4h4.8v-4h-3.7l-0.2-0.7h3.9v-4.3l4.3,0.4c0,0.3-0.3,0.5-0.8,0.6v3.3h0.2l1.6-2.2c1.2,1,2.2,1.8,2.9,2.5
			c-0.1,0.3-0.3,0.4-0.7,0.4h-4v4h0.5l1.6-2.3c1.2,0.9,2.1,1.8,2.8,2.4v-2.2l3.8,1.4h1.9v-5.6H177l-0.3-0.7h6.1l1.6-1.7l3.3,2.5
			c-0.3,0.3-0.6,0.5-1.1,0.6v6.3c0,0.1-0.2,0.2-0.5,0.3s-0.7,0.2-1.2,0.3s-0.9,0.2-1.2,0.2H183v-1.3h-2.3v6.3c0,0.2,0.1,0.3,0.2,0.4
			c0.1,0.1,0.3,0.1,0.6,0.1h1.9c0.8,0,1.3,0,1.5,0c0.3,0,0.5-0.1,0.7-0.4c0.2-0.3,0.6-1.4,1.3-3.3h0.3l0.1,3.5
			c0.4,0.2,0.7,0.4,0.8,0.6c0.1,0.2,0.2,0.5,0.2,0.8c0,0.7-0.4,1.2-1.2,1.6s-2.2,0.5-4.1,0.5h-2.4c-1.4,0-2.2-0.2-2.7-0.6
			c-0.4-0.4-0.6-1.1-0.6-2.3V39c-0.1,0.1-0.3,0.2-0.6,0.2h-12.6L164,38.4z M169.6,48.6v-7c-0.1,0.4-0.5,0.6-1,0.6
			c-0.1,1.6-0.3,3-0.6,4.3C168.5,47.5,169,48.1,169.6,48.6z"/>
	</g>
	<g>
		<path class="st0" d="M221.7,4.9l-1.3,6.6c-0.5,3.1-2.3,4.7-5.2,4.7c-1.7,0-3-0.7-3.8-2.2c0.1-3.9,1.6-6.8,4.6-8.7
			c2.9-1.9,6.7-2.9,11.1-2.9c5.3,0,9.3,1.1,12,3.3s4.1,5.1,4.1,8.8c0,7.1-4.4,11.5-13.1,13.3c5.2,0.8,9,2.4,11.3,4.8
			s3.4,5.4,3.4,9.2c0,4.2-1.7,7.7-5.1,10.2c-3.4,2.6-8,3.9-13.8,3.9c-5.1,0-9.1-1-11.9-3.1c-2.8-2.1-4.3-5.1-4.7-9
			c0.6-2.1,2.1-3.1,4.3-3.1c1.5,0,2.6,0.4,3.4,1.3c0.8,0.9,1.3,2.4,1.6,4.6l1.1,6.7c0.9,0.2,1.7,0.3,2.5,0.3c3.6,0,6.3-1,8.2-3
			s2.8-4.9,2.8-8.7c0-4-0.9-7.1-2.8-9.2c-1.9-2.1-4.5-3.2-8-3.2h-2.7v-2.7h2.3c3.2,0,5.6-1,7.4-2.9c1.8-2,2.6-4.9,2.6-8.9
			c0-3.3-0.7-5.9-2.1-7.6c-1.4-1.7-3.5-2.6-6.2-2.6C223.5,4.7,222.8,4.7,221.7,4.9z"/>
		<path class="st0" d="M289.5,31l3.6-4.6c2.7,2.1,4.8,3.8,6.5,5.3c-0.1,0.6-0.7,0.9-1.5,0.9h-19.5c-0.3,2.2-0.7,4-1.2,5.5h7.7l4-3.7
			l6.8,5.6c-0.4,0.5-1.2,0.8-2.2,1c-0.3,4-0.8,7.1-1.5,9.1s-1.7,3.5-3.1,4.4c-1.6,1-4.2,1.5-7.8,1.5c0.1-2.2-0.3-3.8-1-4.7
			c-1-1.1-2.7-2-5.1-2.4l0.1-0.6c2.8,0.2,5,0.3,6.6,0.3c0.8,0,1.4-0.1,1.7-0.3c0.9-0.7,1.6-3.6,2-8.7H277c-1.4,3.5-3.8,6.6-7.2,9.3
			c-3.5,2.7-8.6,5.1-15.3,7l-0.4-0.7c2.2-1.2,4.2-2.4,5.9-3.7c1.7-1.3,3.1-2.6,4.2-3.9c1.1-1.3,2-2.5,2.6-3.7
			c0.7-1.2,1.2-2.5,1.5-3.9s0.6-2.7,0.7-3.7s0.2-2.3,0.3-3.8H261c-1.4,10.1-6.1,17.6-14.1,22.4l-0.4-0.4c2-2.9,3.5-6.4,4.6-10.3
			c1.1-4,1.8-7.4,2-10.5c0.2-3,0.4-6.5,0.4-10.6V9.9l9.2,3.1H286l3.5-3.9l7.4,5.6c-0.5,0.6-1.2,1-2.2,1.2v9.5c0,0.1-0.4,0.3-1.2,0.6
			c-0.7,0.3-1.7,0.5-2.8,0.7s-2.1,0.3-2.9,0.3h-1.4v-3.1h-25.1c0,2.4-0.1,4.8-0.4,7.1h11v-6.5l9.5,0.7c-0.1,0.8-0.6,1.2-1.6,1.3V31
			H289.5z M297.6,7.8h-48.4l-0.4-1.6h40l3.7-4.7c2.8,2.1,5.1,3.9,6.8,5.4C299,7.4,298.5,7.8,297.6,7.8z M286.5,14.5h-25.1v7.7h25.1
			V14.5z"/>
		<path class="st0" d="M310.4,13l-0.8,12.8c2.5-0.8,5.2-1.2,8.1-1.2c5.1,0,9.2,1.3,12.1,4s4.4,6.5,4.4,11.4c0,5-1.6,8.9-4.9,11.7
			s-7.5,4.2-12.8,4.2c-4.2,0-7.5-1.1-10-3.2c-2.5-2.1-3.8-5-4.1-8.7c0.7-2,2-3,3.9-3c1.3,0,2.2,0.4,2.9,1.3c0.7,0.8,1.1,2.2,1.3,4.2
			l0.9,6.6c0.9,0.4,2,0.6,3.3,0.6c2.7,0,5-1.1,6.6-3.4c1.7-2.3,2.5-5.5,2.5-9.7c0-3.8-0.8-6.8-2.5-9c-1.6-2.1-3.9-3.2-6.7-3.2
			c-2.3,0-4.5,0.4-6.5,1.1l-1.7-1.4l1.4-23.3h24.6V13H310.4z"/>
		<path class="st0" d="M340.6,56.1l-0.3-1.8c5.1-2,9.1-4.7,12-8.1c2.8-3.5,4.7-8,5.5-13.5c-2.2,1.8-4.9,2.7-8.2,2.7
			c-4,0-7.3-1.3-9.8-3.9s-3.7-6.3-3.7-10.9c0-5.4,1.6-9.5,4.6-12.5c3-2.9,6.7-4.4,11.2-4.4c5.2,0,9.3,1.9,12.2,5.6
			c2.9,3.8,4.3,9,4.3,15.6c0,8-2.5,14.8-7.5,20.3C355.7,50.8,349,54.4,340.6,56.1z M353.5,32.2c1.6,0,3.2-0.6,4.7-1.7
			c0.2-2.2,0.4-4.6,0.4-7.1c0-11.8-2.2-17.7-6.5-17.7c-1.8,0-3.3,1.1-4.5,3.3s-1.8,5.5-1.8,9.9c0,4.1,0.7,7.3,2.1,9.7
			C349.1,31.1,351,32.2,353.5,32.2z"/>
	</g>
	<g>
		<path class="st0" d="M396,6l1.7-2.2c1.2,1,2.2,1.8,2.9,2.5c-0.1,0.3-0.3,0.4-0.7,0.4h-6.2V8c0,0.1-0.1,0.2-0.4,0.3
			s-0.6,0.2-1.1,0.3s-1,0.1-1.5,0.1H390v-2h-3.8v1.4c0,0.1-0.1,0.2-0.4,0.3s-0.6,0.2-1.1,0.3s-1,0.1-1.5,0.1h-0.6v-2h-6.5L376,6h6.7
			V3.2l4.4,0.4c0,0.4-0.3,0.6-0.9,0.7V6h3.8V3.2l4.5,0.4c0,0.4-0.3,0.6-0.9,0.7V6H396z M394.7,18.6l1.5-1.8l3.4,2.5
			c-0.2,0.3-0.6,0.5-1,0.6v4.4c0,1.1-0.3,2-0.9,2.5s-1.8,0.9-3.6,1c-0.1-1.1-0.3-1.8-0.6-2.2c-0.5-0.5-1.2-0.9-2.3-1v-0.3
			c1.7,0.1,2.7,0.2,3.2,0.2c0.3,0,0.5-0.2,0.5-0.5v-1c-0.2,0.5-0.5,0.9-1,1s-1.1,0-1.7-0.4c0-0.3-0.1-0.7-0.2-1.2
			c-1.7,0.6-4.3,1.3-7.8,2.3c-0.2,0.3-0.5,0.5-0.8,0.6l-1.3-3.8c0.6,0,2.1,0,4.3,0v-2.2h-4.7v7.4c0,0.2-0.3,0.4-1,0.7
			s-1.4,0.4-2,0.4h-0.5V17.1l3.8,1.5h4.4v-2.5h-2.8v0.4c0,0.2-0.3,0.4-1,0.7c-0.7,0.3-1.4,0.4-2,0.4h-0.5V8.1l3.8,1.4h8.7l1.6-1.7
			l3.2,2.4c-0.2,0.2-0.5,0.4-0.9,0.5v5.4c0,0.2-0.4,0.4-1.1,0.6s-1.3,0.4-1.9,0.4h-0.7V16H390v2.5h4.7V18.6z M386.5,10.2h-2.8v2.2
			h2.8V10.2z M383.7,15.4h2.8v-2.2h-2.8V15.4z M392.8,10.2H390v2.2h2.8V10.2z M390,15.4h2.8v-2.2H390V15.4z M390.7,19.9l0.2-0.2
			c2.4,0.3,3.7,1,4.1,2.2v-2.6h-5v2.2h1.7C391.4,20.8,391.1,20.3,390.7,19.9z"/>
		<path class="st0" d="M385,44.9V50c1.1,0.2,2.3,0.2,3.8,0.2c6.2,0,10.3,0,12.2-0.1v0.3c-0.6,0.2-1.1,0.5-1.4,1s-0.5,1.2-0.5,1.9
			h-10.3c-2.6,0-4.5-0.4-5.9-1.2s-2.4-2.3-3.1-4.4c-0.8,2.8-2,4.9-3.9,6.3l-0.3-0.3c0.8-1.7,1.4-3.7,1.6-6.1s0.3-4.7,0.1-7l4.3,0.8
			v-2.3l4.3,0.4c-0.1,0.4-0.4,0.7-1,0.7V44l1.5-2.3c1.2,1.1,2.2,2,2.8,2.7c-0.1,0.3-0.3,0.4-0.7,0.4L385,44.9L385,44.9z M376,38.4
			h4.8v-4h-3.7l-0.2-0.7h3.9v-4.3l4.3,0.4c0,0.3-0.3,0.5-0.8,0.6v3.3h0.2l1.6-2.2c1.2,1,2.2,1.8,2.9,2.5c-0.1,0.3-0.3,0.4-0.7,0.4
			h-4v4h0.5l1.6-2.3c1.2,0.9,2.1,1.8,2.8,2.4v-2.2l3.8,1.4h1.9v-5.6H389l-0.3-0.7h6.1l1.6-1.7l3.3,2.5c-0.3,0.3-0.6,0.5-1.1,0.6v6.3
			c0,0.1-0.2,0.2-0.5,0.3s-0.7,0.2-1.2,0.3s-0.9,0.2-1.2,0.2h-0.6v-1.3h-2.3v6.3c0,0.2,0.1,0.3,0.2,0.4c0.1,0.1,0.3,0.1,0.6,0.1h1.9
			c0.8,0,1.3,0,1.5,0c0.3,0,0.5-0.1,0.7-0.4c0.2-0.3,0.6-1.4,1.3-3.3h0.3l0.1,3.5c0.4,0.2,0.7,0.4,0.8,0.6c0.1,0.2,0.2,0.5,0.2,0.8
			c0,0.7-0.4,1.2-1.2,1.6c-0.8,0.3-2.2,0.5-4.1,0.5h-2.4c-1.4,0-2.2-0.2-2.7-0.6s-0.6-1.1-0.6-2.3V39c-0.1,0.1-0.3,0.2-0.6,0.2
			h-12.6L376,38.4z M381.6,48.6v-7c-0.1,0.4-0.5,0.6-1,0.6c-0.1,1.6-0.3,3-0.6,4.3C380.5,47.5,381,48.1,381.6,48.6z"/>
	</g>
</g>
<g>
	<path class="st0" d="M112.2,76.4l4.3-5.4c3.2,2.4,5.8,4.4,7.7,6c-0.1,0.6-0.6,0.8-1.5,0.8H97.3c-1.5,2.6-3.1,4.9-4.8,7l1.4,0.6
		h14.2l3.5-4l7.2,5.6c-0.5,0.7-1.3,1.1-2.3,1.3v20.8c0,2.8-0.6,4.8-1.9,6.1c-1.2,1.3-3.8,2.1-7.8,2.5c-0.2-2.8-0.7-4.6-1.4-5.5
		c-0.9-1.3-2.6-2.1-4.9-2.6V109c3.8,0.2,6.2,0.3,7,0.3c0.7,0,1-0.3,1-1v-4.7H92.9v12c0,0.2-0.2,0.4-0.7,0.8c-0.5,0.3-1.2,0.7-2.2,1
		s-2.1,0.5-3.4,0.5h-1.4V92.2c-3.3,2.8-7.1,5.1-11.3,6.9l-0.5-0.5c6.2-4.9,11.3-11.8,15.2-20.8H75.1l-0.4-1.5h14.8
		c1.3-3.1,2.2-6.2,3-9.4l10.2,3.1c-0.2,0.7-0.9,1.1-2,1.1c-0.4,1-1.2,2.7-2.5,5.2h14V76.4z M108.7,87H93.1v6.8h15.6V87z M93.1,102.1
		h15.6v-6.8H93.1V102.1z"/>
	<path class="st0" d="M168.8,94.5l3.4-4.4c2.5,1.9,4.6,3.6,6.1,5c-0.1,0.6-0.6,0.8-1.5,0.8h-18.5c-0.3,2.1-0.7,3.8-1.1,5.2h7.2
		l3.8-3.5l6.5,5.3c-0.4,0.5-1.1,0.8-2.1,0.9c-0.3,3.8-0.8,6.7-1.4,8.6c-0.6,1.9-1.6,3.3-2.9,4.1c-1.5,1-3.9,1.5-7.4,1.5
		c0.1-2.1-0.3-3.6-1-4.4c-1-1.1-2.6-1.8-4.8-2.3l0.1-0.6c2.6,0.2,4.7,0.3,6.3,0.3c0.8,0,1.3-0.1,1.6-0.3c0.9-0.7,1.5-3.4,1.9-8.2
		h-8.1c-1.3,3.3-3.6,6.2-6.8,8.8c-3.3,2.6-8.1,4.8-14.4,6.6l-0.4-0.6c2.1-1.1,4-2.3,5.6-3.5s2.9-2.4,3.9-3.6s1.9-2.4,2.5-3.5
		s1.1-2.3,1.5-3.7c0.3-1.4,0.6-2.5,0.7-3.5c0.1-1,0.2-2.2,0.3-3.6h-7.9c-1.3,9.6-5.8,16.6-13.3,21.2l-0.4-0.4c1.9-2.8,3.3-6,4.4-9.8
		c1-3.7,1.7-7,1.9-9.9c0.2-2.8,0.3-6.2,0.3-10V74.5l8.7,2.9h22l3.3-3.7l7,5.3c-0.5,0.6-1.1,1-2.1,1.1v9c0,0.1-0.4,0.3-1.1,0.6
		c-0.7,0.2-1.6,0.5-2.6,0.7s-1.9,0.3-2.7,0.3H166v-3h-23.7c0,2.3-0.1,4.5-0.4,6.7h10.4v-6.2l9,0.7c-0.1,0.7-0.6,1.1-1.5,1.3v4.2
		L168.8,94.5L168.8,94.5z M176.4,72.5h-45.8l-0.4-1.5H168l3.5-4.5c2.7,2,4.8,3.7,6.4,5.1C177.7,72.2,177.2,72.5,176.4,72.5z M166,79
		h-23.7v7.3H166V79z"/>
	<path class="st0" d="M195.1,115.2c-1.5,1.5-3.3,2.2-5.4,2.2c-2.1,0-3.9-0.7-5.4-2.2s-2.2-3.3-2.2-5.4s0.7-3.9,2.2-5.4
		s3.3-2.2,5.4-2.2c2.1,0,3.9,0.7,5.4,2.2s2.2,3.3,2.2,5.4C197.3,111.9,196.6,113.7,195.1,115.2z M189.7,104.2
		c-1.5,0-2.8,0.5-3.9,1.6c-1.1,1.1-1.6,2.4-1.6,3.9s0.5,2.8,1.6,3.9s2.4,1.6,3.9,1.6s2.8-0.5,3.9-1.6c1.1-1.1,1.7-2.4,1.7-3.9
		s-0.6-2.8-1.7-3.9S191.2,104.2,189.7,104.2z"/>
	<path class="st0" d="M247.3,76.4l4.3-5.4c3.2,2.4,5.8,4.4,7.7,6c-0.1,0.6-0.6,0.8-1.5,0.8h-25.4c-1.5,2.6-3.1,4.9-4.8,7l1.4,0.6
		h14.2l3.5-4l7.2,5.6c-0.5,0.7-1.3,1.1-2.3,1.3v20.8c0,2.8-0.6,4.8-1.9,6.1c-1.2,1.3-3.8,2.1-7.8,2.5c-0.2-2.8-0.7-4.6-1.4-5.5
		c-0.9-1.3-2.6-2.1-4.9-2.6V109c3.8,0.2,6.2,0.3,7,0.3c0.7,0,1-0.3,1-1v-4.7H228v12c0,0.2-0.2,0.4-0.7,0.8c-0.5,0.3-1.2,0.7-2.2,1
		s-2.1,0.5-3.4,0.5h-1.4V92.2c-3.3,2.8-7.1,5.1-11.3,6.9l-0.5-0.5c6.2-4.9,11.3-11.8,15.2-20.8H210l-0.4-1.5h14.8
		c1.3-3.1,2.2-6.2,3-9.4l10.2,3.1c-0.2,0.7-0.9,1.1-2,1.1c-0.4,1-1.2,2.7-2.5,5.2h14.2V76.4z M243.8,87h-15.6v6.8h15.6V87z
		 M228.2,102.1h15.6v-6.8h-15.6V102.1z"/>
	<path class="st0" d="M301.7,106.3l4.2-5.2c3.2,2.3,5.7,4.2,7.7,5.8c-0.2,0.6-0.7,0.9-1.6,0.9h-19.9v7.9c0,0.2-0.3,0.5-0.9,0.8
		s-1.5,0.7-2.5,0.9s-2,0.4-3,0.4H284v-10.1h-20.5l-0.4-1.5H284v-6.5h-7.1v1.4c0,0.4-0.7,0.9-2.2,1.5s-2.9,0.9-4.4,0.9h-1.1V78.2
		l8.2,3.2h6.7v-5.5h-18.7l-0.5-1.5H284v-7.1l10,0.9c-0.1,0.9-0.8,1.4-2,1.6v4.6h8.1l4.2-5.2c3.2,2.3,5.8,4.2,7.7,5.8
		c-0.1,0.6-0.7,0.8-1.6,0.8H292v5.5h6.9l3.4-3.8l7.1,5.4c-0.5,0.6-1.2,0.9-2.1,1.1v15.6c0,0.2-0.4,0.4-1.1,0.8s-1.5,0.6-2.6,0.9
		s-2,0.4-2.8,0.4h-1.4v-2H292v6.5L301.7,106.3L301.7,106.3z M284,82.9h-7.1v6.8h7.1V82.9z M276.9,98.3h7.1v-7.1h-7.1V98.3z
		 M299.5,82.9h-7.4v6.8h7.4V82.9z M292.1,98.3h7.4v-7.1h-7.4V98.3z"/>
	<path class="st0" d="M330.2,115.2c-1.5,1.5-3.3,2.2-5.4,2.2s-3.9-0.7-5.4-2.2s-2.2-3.3-2.2-5.4s0.7-3.9,2.2-5.4s3.3-2.2,5.4-2.2
		s3.9,0.7,5.4,2.2s2.2,3.3,2.2,5.4C332.4,111.9,331.7,113.7,330.2,115.2z M324.8,104.2c-1.5,0-2.8,0.5-3.9,1.6s-1.6,2.4-1.6,3.9
		s0.5,2.8,1.6,3.9s2.4,1.6,3.9,1.6s2.8-0.5,3.9-1.6s1.7-2.4,1.7-3.9s-0.6-2.8-1.7-3.9C327.6,104.7,326.3,104.2,324.8,104.2z"/>
	<path class="st0" d="M382.4,76.4l4.3-5.4c3.2,2.4,5.8,4.4,7.7,6c-0.1,0.6-0.6,0.8-1.5,0.8h-25.4c-1.5,2.6-3.1,4.9-4.8,7l1.4,0.6
		h14.2l3.5-4L389,87c-0.5,0.7-1.3,1.1-2.3,1.3v20.8c0,2.8-0.6,4.8-1.9,6.1c-1.2,1.3-3.8,2.1-7.8,2.5c-0.2-2.8-0.7-4.6-1.4-5.5
		c-0.9-1.3-2.6-2.1-4.9-2.6V109c3.8,0.2,6.2,0.3,7,0.3c0.7,0,1-0.3,1-1v-4.7h-15.6v12c0,0.2-0.2,0.4-0.7,0.8c-0.5,0.3-1.2,0.7-2.2,1
		s-2.1,0.5-3.4,0.5h-1.4V92.2c-3.3,2.8-7.1,5.1-11.3,6.9l-0.5-0.5c6.2-4.9,11.3-11.8,15.2-20.8h-13.7l-0.4-1.5h14.8
		c1.3-3.1,2.2-6.2,3-9.4l10.2,3.1c-0.2,0.7-0.9,1.1-2,1.1c-0.4,1-1.2,2.7-2.5,5.2h14.2V76.4z M378.9,87h-15.6v6.8h15.6V87z
		 M363.3,102.1h15.6v-6.8h-15.6V102.1z"/>
	<path class="st0" d="M439.3,98.8l6.2,4.5c-0.3,0.5-1,0.7-2,0.4c-3,0.9-6.5,1.6-10.4,1.9c3.8,2.1,8.9,3.6,15.5,4.5l-0.1,0.6
		c-3,0.8-4.9,3.1-5.7,6.9c-4.7-1.8-8.4-4-11.3-6.8s-4.9-6.6-6.3-11.4c-1.8,1.3-4,2.4-6.7,3.5v6.7c0.6,0,2.3-0.1,4.9-0.3
		c2.6-0.2,4.7-0.3,6.2-0.4l0.1,0.7c-4.6,2-11.6,4.4-21.1,7.2c-0.4,0.7-0.9,1.1-1.6,1.2l-3.8-7.9c1.6,0,4.2-0.1,7.8-0.3v-4.6
		c-4.6,1.1-8.9,1.9-13,2.3l-0.3-0.6c6.6-1.9,12.3-4.6,16.9-8.2h-15.8l-0.4-1.5h21v-5.3l9.4,0.7c0,0.4-0.2,0.7-0.4,0.9
		c-0.2,0.2-0.7,0.4-1.3,0.5v3.2h11.1l3.5-4.8c2.7,2.2,4.9,4,6.5,5.5c-0.2,0.6-0.7,0.9-1.6,0.9L439.3,98.8L439.3,98.8z M398.9,95.5
		l-0.6-0.7c1.4-1.5,2.4-3.1,2.8-4.8c0.5-1.7,0.7-3.7,0.8-6.1h-2.8l-0.5-1.5H411v-4.6h-3.5v1.7c0,0.1-0.3,0.3-0.8,0.5
		s-1.2,0.4-2.1,0.6s-1.6,0.3-2.4,0.3H401V68.4l7.9,0.7c-0.1,0.6-0.6,1-1.5,1.2v6h3.5v-9l9.3,0.8c-0.1,0.8-0.8,1.3-2,1.5v22.8
		c0,0.2-0.3,0.4-0.9,0.7s-1.4,0.5-2.3,0.8c-1,0.2-1.9,0.3-2.8,0.3H411V83.9h-2.4c-0.3,2.6-1.2,4.8-2.7,6.8S402.2,94.2,398.9,95.5z
		 M419.2,76.9h9v-9.7l9.5,0.8c-0.1,0.7-0.6,1.1-1.7,1.3v7.6h2.1l3.6-4.8c2.7,2.2,4.9,4,6.5,5.5c-0.1,0.6-0.6,0.8-1.5,0.8H436v10.4
		h1.9l3.6-5c2.8,2.2,5,4.1,6.6,5.6c-0.2,0.6-0.7,0.9-1.5,0.9H420l-0.4-1.5h8.7V78.4h-8.6L419.2,76.9z M426.2,98.8l-0.2,0.1
		c1.2,2.2,3,4.1,5.4,5.8c2.3-1.7,4.4-3.7,6.2-5.9H426.2z"/>
	<path class="st0" d="M451.7,80.2l0.4-0.3c5,0.2,8.1,1.5,9.4,3.8c0.8,1.4,0.7,2.8-0.3,4.1c-1,1.3-2.3,1.7-4,1.3
		c-0.6-0.1-1.2-0.4-1.8-0.8c-0.2-1.4-0.6-2.8-1.3-4.3C453.4,82.5,452.6,81.3,451.7,80.2z M468.7,76.6l0.7,0.2
		c-3.2,10.1-5.1,17.1-5.9,21c-0.6,2.3-0.9,4-0.9,5.3c0,0.8,0.5,2.1,1.4,4s1.3,3.7,1.2,5.4c-0.1,1.4-0.6,2.6-1.6,3.5
		s-2.2,1.3-3.7,1.3c-1.9,0-3.1-0.9-3.5-2.8c0.6-2.8,0.8-5.3,0.7-7.6c-0.1-2.3-0.5-3.7-1.1-4.1c-0.8-0.6-1.7-0.9-2.8-0.9V101h2.5
		c0.5,0,0.8-0.1,1-0.2s0.4-0.4,0.8-0.9c0.7-1,1.4-2.4,2.3-4.2C460.4,93.9,463.5,87.5,468.7,76.6z M455.6,68.7l0.4-0.3
		c5.3-0.1,8.7,1.1,10.3,3.5c0.9,1.4,1,2.8,0.1,4.1c-0.9,1.3-2.2,1.9-3.9,1.6c-0.6-0.1-1.2-0.3-1.8-0.7
		C459.8,74.1,458.1,71.3,455.6,68.7z M494.6,84.1l3-4.1c2.3,1.8,4,3.4,5.4,4.7c-0.1,0.6-0.6,0.9-1.5,0.9h-14.3v4.5h4.1l3.2-3.6
		l5.9,4.5c-0.4,0.6-1,0.9-2,1.1v14.1c0,0.1-0.2,0.3-0.7,0.5c-0.4,0.2-1.1,0.4-2.1,0.7c-0.9,0.2-1.9,0.3-3,0.3h-1.3v-2.1h-14.8v1.3
		l8.4,4.4c-0.5,0.8-1.6,1-3.3,0.8c-1.9,1.4-4.5,2.6-7.7,3.7s-6.5,1.9-9.9,2.4l-0.2-0.5c2.2-1.1,4.3-2.6,6.4-4.4s3.8-3.6,5.2-5.3
		c-1.1,0.5-2.6,0.7-4.3,0.7H470V87.4l7.1,2.7h3.4v-4.5H468l-0.4-1.5H494.6z M469.4,75.1l-0.4-1.5h5.4v-6.2l8.6,0.7
		c-0.1,0.8-0.8,1.3-2,1.5v3.9h6v-6.2l8.6,0.7c-0.1,0.8-0.8,1.3-2,1.5v3.9h0.1l3-4.2c2.2,1.9,3.9,3.6,5.2,4.9
		c-0.1,0.6-0.6,0.8-1.5,0.8h-6.8v6.8c0,0.1-0.3,0.3-0.8,0.5s-1.2,0.4-2.1,0.6s-1.7,0.3-2.5,0.3H487v-2.9h-6v1.6
		c0,0.1-0.3,0.3-0.8,0.5s-1.3,0.4-2.1,0.6c-0.9,0.2-1.7,0.3-2.5,0.3h-1.1v-8.1L469.4,75.1L469.4,75.1z M480.7,91.6h-3.9v5.2h3.9
		V91.6z M476.8,98.2v5.7h3.9v-5.7H476.8z M487,75.1h-6v3.8h6V75.1z M485.4,108.3l0.4-0.4c6.7-0.7,11.5,0.3,14.3,2.9
		c1.6,1.5,2.2,3.1,1.7,4.7c-0.4,1.4-1.4,2.2-2.9,2.4c-0.6,0.1-1.2,0.1-1.9-0.1c-1.3-1.6-3-3.3-5.2-5.1
		C489.4,110.9,487.3,109.5,485.4,108.3z M491.6,91.6h-4.3v5.2h4.3V91.6z M487.2,104h4.3v-5.7h-4.3V104z"/>
</g>
<polyline class="st1" points="61,116.9 0,116.9 0,73.9 60.6,73.9 "/>
<polyline class="st1" points="518.6,73.9 580.4,73.9 580.4,116.9 518.5,116.9 "/>
</svg>
