<?xml version="1.0" encoding="utf-8"?>
<!-- Generator: Adobe Illustrator 23.1.1, SVG Export Plug-In . SVG Version: 6.00 Build 0)  -->
<svg version="1.1" id="圖層_1" xmlns="http://www.w3.org/2000/svg" xmlns:xlink="http://www.w3.org/1999/xlink" x="0px" y="0px"
	 viewBox="0 0 350 90" style="enable-background:new 0 0 350 90;" xml:space="preserve">
<style type="text/css">
	.st0{fill:#C29B61;}
</style>
<g>
	<path class="st0" d="M25.9,27.9c0,3.5-1.6,6.1-4.8,7.8c-1.6,0.8-3.8,1.4-6.7,1.6c-0.8,0-3.2,0.1-7.1,0.1H1c-0.6,0-0.9-0.1-0.9-0.4
		c0-0.3,0.5-0.4,1.6-0.4c1.2,0,2-0.1,2.2-0.4c0.2-0.3,0.3-1,0.3-2.4V5.6C4.2,4.1,4.1,3.2,4,3C3.8,2.5,2.9,2.3,1.4,2.2
		C0.5,2.2,0,2.1,0,1.7c0-0.3,0.4-0.5,1.3-0.5c0,0,0.2,0,0.6,0c0.4,0.1,0.7,0.2,1,0.2H13c3.7,0,6.5,0.7,8.4,1.9
		c2.1,1.4,3.2,3.5,3.2,6.2c0,2.4-0.9,4.3-2.6,5.8c-1.8,1.5-4.2,2.5-7.4,2.8v0.3c3.2,0.2,5.6,0.9,7.4,2C24.6,22,25.9,24.5,25.9,27.9z
		 M19,9.9c0-3.3-0.8-5.5-2.3-6.7c-0.8-0.6-2.3-0.9-4.5-0.9c-0.6,0-1.5,0.1-2.8,0.2v15.1h0.5l2.9-0.1c2-0.1,3.5-0.8,4.6-2.1
		C18.4,14.1,19,12.3,19,9.9z M20.5,27.3c0-4.4-1.8-7.1-5.3-8.1c-1-0.3-3-0.5-5.8-0.5v15.5c0,1,0.1,1.6,0.3,1.7
		c0.3,0.2,1.3,0.4,2.9,0.4c2.4,0,4.3-0.8,5.7-2.3C19.8,32.5,20.5,30.2,20.5,27.3z"/>
	<path class="st0" d="M63.2,29c0,0.1,0,1-0.1,2.5C63,33.1,63,34.5,63,36v1.7c-3.4-0.2-10.1-0.3-20.2-0.3c-1.2,0-2.4,0-3.6,0
		c-1.2,0-2,0-2.4,0h-0.5c-0.7,0-1-0.1-1-0.4c0-0.2,0.1-0.3,0.3-0.3c0.1,0,0.8,0,2-0.1c0.9-0.1,1.4-0.3,1.6-0.6
		c0.2-0.3,0.3-1.1,0.3-2.4V4.2c0-1-0.1-1.6-0.4-1.8c-0.3-0.2-1.2-0.3-2.8-0.3c-0.6,0-0.8-0.1-0.8-0.4s0.4-0.4,1.1-0.4h8.9
		c0.3,0,2.3,0,5.9,0s6,0,7.3,0c1,0,2-0.1,2.9-0.2c0.1,1.5,0.2,3.6,0.5,6.2l0.2,2.2c0,0.2,0.1,0.4,0.1,0.7s-0.2,0.5-0.5,0.5
		c-0.4,0-0.7-0.4-0.8-1.3c-0.7-3.1-1.7-5.1-3.2-6c-1.1-0.6-4-0.9-8.7-0.9h-4.3v15.3H46c3.9,0,6.2-0.3,7.1-0.9
		c0.8-0.6,1.4-2.3,1.7-5.1c0.1-0.7,0.3-1.1,0.6-1.1c0.4,0,0.6,0.3,0.6,0.9c0,0.6,0,1.5-0.1,2.8c-0.1,1.2-0.1,2.1-0.1,2.8
		c0,3.7,0.1,6.3,0.2,7.6c0,0.3,0,0.6,0,0.9c0,0.5-0.2,0.7-0.6,0.7c-0.2,0-0.4-0.1-0.5-0.4s-0.2-1.3-0.4-2.9c-0.3-2-1.1-3.3-2.5-3.8
		c-0.6-0.2-2.2-0.3-4.9-0.3h-2.3v17.4c7.6,0,12.1-0.2,13.4-0.5c2.3-0.5,3.6-2.7,3.9-6.6c0.1-0.9,0.3-1.3,0.7-1.3
		C63.1,27.9,63.2,28.2,63.2,29z"/>
	<path class="st0" d="M94.4,27.2c0,3-1.1,5.5-3.4,7.6s-5,3.1-8.2,3.1c-1.9,0-4.1-0.6-6.7-1.7c-0.7-0.3-1.2-0.5-1.6-0.5
		s-0.7,0.5-0.8,1.4c0,0.5-0.3,0.7-0.7,0.7c-0.3,0-0.5-0.2-0.5-0.6c0-0.3,0-0.5,0.1-0.6c0.3-2.1,0.4-4.1,0.4-5.9c0-0.3,0-1.3-0.1-2.9
		c0-0.2-0.1-0.5-0.1-0.8c0-0.5,0.2-0.8,0.6-0.8c0.3,0,0.6,0.4,0.7,1.3c0.9,6.2,3.8,9.3,8.8,9.3c2.1,0,3.7-0.6,4.9-1.8
		c1.2-1.2,1.7-2.9,1.7-5.1c0-1.9-0.6-3.6-1.7-5s-3.1-2.7-5.8-4.1c-3.3-1.6-5.6-3.2-6.9-4.7s-1.9-3.4-1.9-5.7c0-2.9,0.9-5.2,2.8-7.1
		s4.2-2.8,7-2.8c1.2,0,2.8,0.4,4.9,1.2c0.7,0.3,1.3,0.4,1.6,0.4c0.4,0,0.6-0.1,0.8-0.2C90.6,2,90.7,1.6,90.8,1
		c0.1-0.3,0.3-0.5,0.6-0.5c0.3,0,0.5,0.2,0.5,0.6c0,0.3,0,0.5-0.1,0.6c-0.1,0.8-0.2,1.8-0.2,3c0,1.7,0.1,3,0.3,3.9L92,9.5
		c0,0.4-0.1,0.6-0.5,0.6s-0.6-0.4-0.8-1.2c-0.4-2-1.3-3.7-2.7-5.1c-1.4-1.4-3-2.1-4.8-2.1c-1.7,0-3.1,0.6-4.1,1.7S77.6,6,77.6,7.9
		c0,2.2,0.7,4,2.2,5.4c0.8,0.8,2.6,1.8,5.4,3.2c3.3,1.6,5.6,3.3,7,5C93.6,23.1,94.4,25,94.4,27.2z"/>
	<path class="st0" d="M131.2,10.5c0,0.5-0.2,0.7-0.6,0.7c-0.4,0-0.7-0.4-0.9-1.4c-0.1-0.6-0.1-1.2-0.2-1.9c-0.2-1.2-0.6-2.3-1.2-3.2
		c-0.7-1.1-1.9-1.9-3.6-2.2c-1.1-0.2-1.9-0.3-2.6-0.3c-1.6,0-2.6,0.1-3,0.1v31.4c0,1.2,0.3,2,1,2.3c0.3,0.2,1.3,0.3,2.9,0.3
		c0.4,0,0.6,0.2,0.6,0.4c0,0.3-0.3,0.4-0.8,0.4c-0.3,0-0.5,0-0.7-0.1c-2.1-0.1-3.6-0.1-4.4-0.1c-1.1,0-2.2,0-3.2,0.1
		s-2.3,0.1-3.8,0.1c-0.8,0-1.2-0.1-1.2-0.4c0-0.3,0.7-0.5,2.2-0.5c1.1,0,1.8-0.2,2.1-0.7c0.2-0.3,0.3-1,0.3-2.1V2.5
		c-3.4,0-5.6,0.2-6.4,0.5c-2.2,0.8-3.5,2.9-3.8,6.4c-0.1,1-0.3,1.6-0.7,1.6c-0.4,0-0.6-0.4-0.6-1.1c0-0.4,0-0.8,0.1-1.1l0.1-1.2
		c0.1-1.6,0.3-3.7,0.5-6.3h2.3L116,1.4c1.2,0,3.2,0,5.8,0l8.6-0.2c0.1,1.9,0.3,4.8,0.7,8.6c0,0.1,0,0.2,0.1,0.4
		C131.2,10.4,131.2,10.5,131.2,10.5z"/>
	<path class="st0" d="M25.9,79.4c0,3.5-1.6,6.1-4.8,7.8c-1.6,0.8-3.8,1.4-6.7,1.6c-0.8,0-3.2,0.1-7.1,0.1H1c-0.6,0-0.9-0.1-0.9-0.4
		s0.5-0.4,1.6-0.4c1.2,0,2-0.1,2.2-0.4c0.2-0.3,0.3-1,0.3-2.4V57.2c0-1.5-0.1-2.4-0.2-2.6c-0.2-0.4-1.1-0.6-2.6-0.7
		c-0.9,0-1.4-0.2-1.4-0.5s0.4-0.5,1.3-0.5c0,0,0.2,0,0.6,0c0.4,0.1,0.7,0.2,1,0.2H13c3.7,0,6.5,0.7,8.4,1.9c2.1,1.4,3.2,3.5,3.2,6.2
		c0,2.4-0.9,4.3-2.6,5.8c-1.8,1.5-4.2,2.5-7.4,2.8v0.3c3.2,0.2,5.6,0.9,7.4,2C24.6,73.6,25.9,76.1,25.9,79.4z M19,61.5
		c0-3.3-0.8-5.5-2.3-6.7c-0.8-0.6-2.3-0.9-4.5-0.9c-0.6,0-1.5,0.1-2.8,0.2v15.1h0.5l2.9-0.1c2-0.1,3.5-0.8,4.6-2.1
		C18.4,65.7,19,63.8,19,61.5z M20.5,78.9c0-4.4-1.8-7.1-5.3-8.1c-1-0.3-3-0.5-5.8-0.5v15.5c0,1,0.1,1.6,0.3,1.7
		c0.3,0.2,1.3,0.4,2.9,0.4c2.4,0,4.3-0.8,5.7-2.3C19.8,84,20.5,81.8,20.5,78.9z"/>
	<path class="st0" d="M64.9,87.3c0,1.5-1.2,2.2-3.6,2.2c-2.7,0-4.8-1.1-6.3-3.4c-0.7-1-1.1-1.9-1.3-2.8s-0.5-3.2-0.9-6.9
		c-0.2-2.2-0.9-3.8-2.1-4.7c-1.2-0.9-3.2-1.4-5.9-1.5v16.4c0,0.7,0.6,1.1,1.7,1.3c0.3,0,1.1,0.1,2.4,0.1c0.4,0,0.7,0.1,0.7,0.4
		s-0.3,0.5-0.9,0.5H48c-0.3,0-1.8,0-4.5,0c-0.5,0-1.4,0-2.7,0c-1.2,0-2,0-2.4,0h-2c-0.8,0-1.1-0.2-1.1-0.5c0-0.2,0.5-0.4,1.5-0.4
		c1.6,0,2.5-0.2,2.6-0.6c0.1-0.2,0.2-0.8,0.2-2V56.7c0-1.4-0.1-2.2-0.4-2.5c-0.3-0.3-1.2-0.4-2.7-0.5c-0.9,0-1.3-0.2-1.3-0.5
		s0.3-0.5,0.8-0.5c0.1,0,0.3,0,0.5,0.1l6.9,0.2c0.7,0,1.7,0,2.9-0.1c1.4-0.1,2.4-0.1,2.9-0.1c3.2,0,5.8,0.7,7.7,2.2
		c1.9,1.4,2.8,3.4,2.8,5.8c0,2.4-1,4.4-2.9,6s-4.6,2.5-7.9,2.8c-0.3,0-0.5,0.1-0.5,0.2s0.2,0.2,0.5,0.2c3.6,0.6,6.1,1.9,7.5,3.8
		s2.3,5.4,2.7,10.4c0.3,2.8,1.2,4.3,2.9,4.3c0.5,0,0.8-0.1,0.8-0.3c0,0,0-0.1-0.1-0.1c-0.2-0.4-0.3-0.7-0.3-0.9
		c0-0.7,0.4-1.1,1.1-1.1C64.5,86,64.9,86.5,64.9,87.3z M54.1,61.3c0-5-2.1-7.4-6.4-7.4c-1.1,0-1.9,0.2-2.3,0.5
		c-0.4,0.3-0.6,0.9-0.6,1.7v13.2c3.3,0,5.7-0.6,7.2-1.8C53.4,66.1,54.1,64.1,54.1,61.3z"/>
	<path class="st0" d="M103.9,88.6c0,0.3-0.3,0.4-0.8,0.4c-0.3,0-0.7,0-0.9-0.1l-6.6-0.2L89,88.9c-0.2,0-0.5,0.1-0.8,0.1
		c-0.7,0-1-0.2-1-0.5c0-0.4,0.5-0.6,1.4-0.6c3,0,4.6-0.3,4.6-0.9c0,0,0-0.2-0.1-0.4l-0.4-1.4l-0.3-0.7c-0.3-1.1-1.1-3.4-2.3-7.1H79
		c-2.1,5.5-3.1,8.7-3.1,9.6c0,0.5,0.2,0.8,0.6,0.9c0.1,0,1,0.1,2.6,0.2c1,0,1.5,0.2,1.5,0.5s-0.5,0.5-1.4,0.5
		c-1.6,0-3.4-0.1-5.6-0.2c-0.5,0-1.1-0.1-1.6-0.1c-0.6,0-1.1,0.1-1.6,0.2c-0.2,0-0.4,0-0.6,0c-0.5,0-0.7-0.2-0.7-0.5
		s0.5-0.5,1.6-0.5s1.9-0.2,2.4-0.5s0.9-0.9,1.1-1.7c4.4-12.8,8.1-23,10.9-30.8c0.1-0.4,0.2-0.9,0.5-1.4l0.2-0.9
		c0.1-0.4,0.2-0.6,0.4-0.6c0.1,0,0.2,0.1,0.3,0.3c0.5,1.4,1.5,4.2,3.1,8.5c1.2,3.4,4.3,11.8,9.3,25.3c0.3,0.8,0.6,1.3,1.1,1.5
		c0.4,0.2,1.3,0.3,2.7,0.4C103.5,88.1,103.9,88.3,103.9,88.6z M89.8,76.1c-0.6-1.6-1.5-4.1-2.8-7.7l-2.5-7.2
		C83,65,81.3,70,79.2,76.1H89.8z"/>
	<path class="st0" d="M140.7,53.3c0,0.3-0.4,0.5-1.3,0.5h-1.1h-0.9c-0.6,0-0.9,0.1-1,0.3s-0.2,0.8-0.2,1.7v29.9c0,1.8,0,2.9-0.1,3.2
		c0,0.3-0.1,0.5-0.3,0.5s-0.4-0.2-0.7-0.6l-6.6-9.7c-3.8-5.7-8.5-12.8-14-21.2V87c0,0.5,0.3,0.7,0.8,0.9s1.7,0.2,3.5,0.2
		c0.5,0,0.7,0.1,0.7,0.4S119,89,118.1,89c-0.3,0-1.3-0.1-3-0.2c-0.6,0-1.1-0.1-1.6-0.1c0,0-0.3,0-0.9,0.1s-1.6,0.1-2.9,0.1h-0.5
		c-0.8,0-1.2-0.2-1.2-0.5s0.3-0.5,1-0.5c2,0,3.2-0.2,3.6-0.4c0.3-0.2,0.5-1,0.5-2.2V59.8c0-2.9-0.6-4.7-1.8-5.4
		c-0.6-0.3-1.5-0.5-3-0.5c-0.9,0-1.4-0.2-1.4-0.5s0.3-0.5,0.8-0.5c0.7,0,1.6,0,2.6,0.1c1.1,0.1,1.6,0.1,1.7,0.1s0.6,0,1.5-0.1
		c1.1,0,2.3-0.1,3.3-0.2l17.9,26.8V56.4c0-1.1,0-1.7-0.1-1.9c0-0.2-0.2-0.4-0.4-0.5s-1.1-0.2-2.5-0.2c-1.2,0-1.9-0.2-1.9-0.5
		s0.4-0.5,1.2-0.5h1.8c0.4,0,0.9,0,1.5,0s0.9,0,1,0c0,0,0.3,0,0.9,0c0.6,0,1.1,0,1.6,0h1.6C140.3,52.8,140.7,53,140.7,53.3z"/>
	<path class="st0" d="M182.2,70.9c0,6.1-2.1,10.9-6.4,14.3c-3.1,2.5-7.3,3.8-12.5,3.8c-0.1,0-0.8,0-1.8,0c-1.1,0-2.7,0-4.8,0h-2.6
		H150c-0.2,0-0.5,0-0.8,0c-0.7,0-1-0.2-1-0.5s0.6-0.5,1.7-0.5c1.4,0,2.3-0.3,2.6-0.8c0.1-0.2,0.2-0.9,0.2-2v-28c0-1.7-0.1-2.7-0.4-3
		s-1.2-0.4-2.7-0.4c-0.8,0-1.2-0.2-1.2-0.6c0-0.3,0.3-0.4,0.9-0.4c0,0,0.3,0,1.1,0s1.6,0,2.3,0h5.6c6.2,0,10.7,0.4,13.2,1.3
		c3.2,1,5.7,3.1,7.6,6.2C181.2,63.3,182.2,66.9,182.2,70.9z M176.3,70.7c0-5.8-1.1-10-3.4-12.7c-2.3-2.7-5.8-4-10.5-4
		c-2.3,0-3.7,0.2-4.2,0.7c-0.2,0.2-0.3,1.1-0.3,2.5v27.7c0,1,0,1.6,0.1,1.8c0.1,0.2,0.2,0.4,0.4,0.5c0.8,0.4,2.6,0.6,5.2,0.6
		c3.7,0,6.8-1.3,9-4C175.1,81.1,176.3,76.7,176.3,70.7z"/>
</g>
</svg>
