<?xml version="1.0" encoding="utf-8"?>
<!-- Generator: Adobe Illustrator 23.1.1, SVG Export Plug-In . SVG Version: 6.00 Build 0)  -->
<svg version="1.1" id="圖層_1" xmlns="http://www.w3.org/2000/svg" xmlns:xlink="http://www.w3.org/1999/xlink" x="0px" y="0px"
	 viewBox="0 0 600 162" style="enable-background:new 0 0 600 162;" xml:space="preserve">
<style type="text/css">
	.st0{fill:#C29B61;}
</style>
<g>
	<path class="st0" d="M67,7c-0.4,0.6-1.3,1.1-2.7,1.4v47.7c0,5.3-1.1,8.3-9.4,9.1c-0.1-2.4-0.5-4.4-1.3-5.4c-0.9-1.2-2.2-2-5.1-2.5
		v-1c0,0,5.8,0.4,6.9,0.4s1.5-0.5,1.5-1.4V33.9C56.6,34,56.3,34,56,34H45.2v0.3v9c0,0.7,0.2,1,1.1,1H48h1.8c0.3,0,1,0,1.2-0.1
		c0.4-0.1,1-0.1,1.5-0.3h0.6l0.3,0.1c1.7,0.7,2.2,1.7,2.2,3.1c0,2.9-2.2,4-8.5,4H44c-4.7,0-5.3-1.3-5.3-5.7V34.1h-3.1L35,32.2h7
		v-7.5h-5.6l-0.6-2h10.3c1-4.2,2.2-10.5,2.6-13.7l7.8,2.9c-0.1,0.7-0.9,1.4-2.4,1.3c-1.5,2.3-4.2,6.2-6.9,9.4h2.3l2.6-3.3
		c0,0,2.6,2.1,4.4,3.9v-16H34.7v55.2c0,0.9-2.6,2.7-5.9,2.7h-1.2v-14c-0.8,2.6-3.6,3.5-6,1C21.8,48,20.4,43,19,39.4l0.8-0.3
		c4.8,2.6,7,5.7,7.8,8.3v-13c-0.9,2.2-3.5,3-5.8,0.8c-0.1-1.3-0.3-2.7-0.6-4.1L19,31.9v31.2c0,0.5-2.3,2.1-5.8,2.1H12V43.7
		c-0.2,0-0.5,0.1-0.8,0.1C9.3,50.3,6.4,56.2,2.5,60l-1-0.6c1.8-5.1,3.1-12.3,3.4-19.1l7,1.5v-7.4l-5.7,1.9c-0.4,1-1.2,1.5-1.9,1.7
		l-2.6-8.1c1.7,0,4.5-0.1,7.8-0.2c3.3-6.8,7-15.3,9.3-21.5l8.7,3.7V2l7.6,3.3h21l3.5-4.1L67,7z M21.4,3.3c-0.3,0.8-1.2,1.5-2.7,1.5
		c-2.7,3.5-5.9,7.1-8.9,9.9c6.2,4.4,1.7,11-3.1,7.5c-0.6-3.5-3-7.5-5.2-10l0.7-0.4c2.3,0.4,4.1,1,5.6,1.7C9,9.7,10.3,4.6,11.3,0
		L21.4,3.3z M19.2,22.6c5.1,2.4,7.6,5.4,8.4,7.9V12.9c-0.5,0.3-1.2,0.5-2.1,0.3c-3.2,4.5-8.2,10.9-13.3,16.3
		c2.6-0.1,5.5-0.3,8.5-0.5c-0.7-2.2-1.5-4.4-2.4-6.1L19.2,22.6z M37.6,9.7c11.7,6.4,5.8,15.3,1.7,11c0.1-3.5-1.2-7.8-2.6-10.6
		L37.6,9.7z M52.7,28.5c0,0,2.3,1.9,4.2,3.7v-8c-0.3,0.3-0.8,0.5-1.4,0.5h-6.9v7.5H50L52.7,28.5z"/>
	<path class="st0" d="M92.5,51.8c3.4-0.8,7-1.5,10.5-2.4l0.3,0.8c-5.7,3.1-13.9,7.3-25.6,12.5c-0.3,0.8-1,1.6-1.8,1.8l-3.5-8.6
		c1-0.1,2.4-0.4,4-0.7V30.4l7.6,0.7c-0.1,0.6-0.5,1.2-1.6,1.3V54l3-0.6V23.8h-1.9v1c0,0.5-2.2,2-5.8,2h-1.2V2l7.9,3.1h7.3l3.4-3.7
		l7.1,5.4c-0.4,0.5-1.3,1-2.6,1.3V24c-0.1,0.5-3.6,1.7-5.9,1.7h-1.2V35h0.9l3.5-5.4c0,0,4,3.7,6.2,6.2c-0.2,0.8-0.9,1.1-1.9,1.1
		h-8.7C92.5,36.9,92.5,51.8,92.5,51.8z M83.6,21.8h8.9V7.1h-8.9V21.8z M134.7,11.4c-0.5,0.8-1.2,1-2.8,1.1c-2.2,4.9-5.2,9.5-9,13.6
		c4.6,2.7,10.3,4.8,16.9,6.1l-0.1,0.7c-3.3,1.2-4.9,3.5-5.5,7.4c-1.6-0.6-3.1-1.2-4.5-1.9l4.5,3.4c-0.5,0.6-1.1,1-2.6,1.2v20.2
		c0,0.4-2.6,1.7-6.7,1.7h-1.5V60h-12.3v3.3c0,0.6-2.4,1.9-6.3,1.9h-1.3v-26c-2.2,0.9-4.4,1.7-6.8,2.4l-0.6-0.9
		c7.7-3.7,14.2-8.7,19.1-14.7c-1.8-2.6-3.3-5.4-4.6-8.5c-3.2,3.7-6.8,6.6-10.8,8.9L99,25.8c5.1-6,9.6-15.5,11.8-25.7l10.3,3.3
		c-0.3,0.9-1.2,1.5-2.8,1.4c-0.7,1.6-1.4,3.1-2.2,4.6h7.2l4.3-4.1L134.7,11.4z M126.5,36.6c-3.1-1.9-5.7-4-7.9-6.5
		c-3.7,3.1-7.9,5.8-12.8,8l6.1,2.3h11.2L126.5,36.6z M123.4,58V42.5h-12.3V58H123.4z M115,11.3c-1,1.7-2,3.2-3.2,4.6
		c1.6,2.4,3.6,4.6,5.9,6.6c2.4-3.5,4.4-7.3,5.8-11.2H115z"/>
	<path class="st0" d="M167.2,9.3c0,0,4,3.3,6.5,5.6c-0.2,0.8-0.9,1-1.9,1h-26.5l-0.6-1.9h18.8L167.2,9.3z M164.1,18.4
		c0,0,3.9,3.2,6.2,5.4c-0.2,0.8-0.9,1.1-1.8,1.1h-19.9L148,23h12.5L164.1,18.4z M164.1,27.5c0,0,3.9,3.2,6.2,5.4
		c-0.2,0.7-0.9,1-1.8,1h-19.9L148,32h12.5L164.1,27.5z M171.9,43.1c-0.5,0.6-1.3,1.1-2.7,1.3v16c0,0.6-3.5,2.1-5.9,2.1h-1.2v-4.2
		h-6.9v4.5c0,0.7-3.1,2.3-6.1,2.3h-1V38.3l7.4,3.1h6l3.4-3.6L171.9,43.1z M148.8,7.2l-0.6-1.9H160l3.7-4.8c0,0,4,3.3,6.5,5.6
		c-0.2,0.8-0.8,1.1-1.7,1.1C168.5,7.2,148.8,7.2,148.8,7.2z M162.1,56.4v-13h-6.9v13H162.1z M176.7,41.3c2.8,7.6,1.7,13-0.6,15.7
		c-1.7,1.8-5.2,1.7-6.4-0.6c-0.9-2.2,0.1-4.2,2-5.5c1.9-1.5,4.2-5.8,4-9.6C175.7,41.3,176.7,41.3,176.7,41.3z M174.2,7l-0.6-2h26.2
		l3.9-3.8l6.9,5.8c-0.5,0.6-1.3,1-2.7,1.2c-0.4,15.4-1.3,21.3-4.3,23.7c-1.9,1.5-4.4,2.3-7.8,2.3c0-2.2-0.1-4-1-5
		c-0.8-1-2.5-1.8-4.8-2.4l0.1-0.9c1.9,0.1,5.1,0.3,6.3,0.3c1,0,1.5-0.1,1.9-0.6c1.3-1.2,1.9-6.9,2.2-18.7h-8.8
		c-0.4,2.7-0.9,5.2-1.5,7.6c7.8,3.8,6.3,11,0.6,9.9c-0.9-1-2-2.1-3.3-3.1c-2.9,5.7-7.7,10.2-15.8,13.6l-0.6-0.9
		c5.8-4.7,8.9-10.2,10.6-16.8c-2.6-1.7-5.3-3.1-7.6-4.1l0.4-0.8c3.1-0.2,5.8-0.1,8.2,0.1c0.3-1.8,0.5-3.7,0.7-5.6h-9.2L174.2,7
		L174.2,7z M200.3,56.2c1.8,0.8,2.2,1.6,2.2,3c0,2.8-2.6,4.4-10.8,4.4H187c-5.6,0-6.4-1.4-6.4-6V38.9l8.5,0.8
		c-2.2-2.4-5.1-4.8-7.8-6.1l0.6-0.6c19.2-1.4,16.9,13,9.6,10.1c-0.5-1-1.2-2-2-3c-0.2,0.7-0.8,1.2-1.9,1.4v14.2
		c0,0.8,0.1,1.1,1.5,1.1h3.5c1.4,0,2.6-0.1,3.1-0.1c0.6-0.1,0.9-0.1,1.3-0.7c0.6-0.8,1.5-3.5,2.4-6.4h0.8L200.3,56.2z M200.2,40.8
		c17.3,8.5,9.6,22.1,3.3,15.8c0.1-5.2-1.9-11.1-4-15.4L200.2,40.8z"/>
	<path class="st0" d="M234,9.4c0,0,4,3.2,6.5,5.5c-0.2,0.8-0.9,1-1.9,1h-21L217,14h13.5L234,9.4z M232.1,18.5c0,0,3.7,3.1,6,5.2
		c-0.1,0.8-0.8,1.1-1.8,1.1h-16.5l-0.6-2h9.6L232.1,18.5z M232.1,27.6c0,0,3.7,3,6,5.1c-0.1,0.7-0.8,1-1.8,1h-16.5l-0.6-1.9h9.6
		L232.1,27.6z M233.2,37.2l6.7,5.1c-0.3,0.5-1.2,1-2.4,1.2V60c-0.1,0.6-3.5,2.2-5.8,2.2h-1.2v-3.6h-4.4V63c0,0.7-2.9,2.2-5.8,2.2h-1
		V37.7l7.1,3h3.5L233.2,37.2z M220,7.2l-0.6-2h8.8l3.5-4.5c0,0,4,3.1,6.3,5.4c-0.2,0.8-0.9,1.1-1.9,1.1H220z M230.6,56.6v-14h-4.4
		v14H230.6z M283,32.5c-0.3,0.8-0.9,1.2-2.7,1.1c-1.6,4.5-3.9,9.1-6.9,13.4c0.8,2.3,1.9,4.3,3.1,6c0.7,1.2,1,1.1,1.6-0.2
		c0.9-1.8,2.3-5.1,3.3-8l0.8,0.1l-1.5,11.9c1.7,4.2,2.2,6.7,1,7.6c-3.4,2.4-8.1-1-10.1-4.1c-1.4-2.1-2.6-4.4-3.5-6.7
		c-4.3,4.4-9.7,8.2-16.4,10.8l-0.6-0.8c6.4-4,11.4-9.4,15.1-15.3c-1.8-6.3-2.8-13.5-3.3-21.4h-24.4l-0.6-1.9h14
		c0.9-3.7,1.5-9,1.7-12.7l8.7,2.4v-3.2c-0.2,0.1-0.3,0.1-0.6,0.1h-22.5l-0.6-1.9h7.6v-9l9.6,0.8c-0.1,0.8-0.6,1.5-2.2,1.7v6.2h1.4
		l2.9-4.3c0,0,2.3,1.9,4.2,3.8c0-2.9,0-5.8,0-8.9l10.1,1.1c-0.1,0.9-0.8,1.7-2.5,2c-0.2,7.4-0.3,14.8,0,21.7h2l3.8-5.2
		c0,0,4.4,3.5,6.9,6c-0.2,0.8-0.8,1.1-1.8,1.1h-10.9c0.2,4,0.6,7.9,1.1,11.4c1.2-2.8,2.1-5.8,2.7-8.7L283,32.5z M247.8,54.4v3.7
		c0,0.6-2.8,2.2-5.6,2.2h-1V29.1l6.9,2.9h4.6l3.2-3.4l6.5,4.9c-0.3,0.5-1.2,1-2.4,1.2v21c-0.1,0.6-3.2,2.2-5.5,2.2h-1.1v-3.5H247.8z
		 M242.2,12.2c13,5.8,6,15.3,1.2,10.3c0.2-3.4-0.9-7.3-2-10L242.2,12.2z M247.8,33.9V42h5.6v-8.1H247.8z M253.4,52.4v-8.5h-5.6v8.5
		H253.4z M262.8,24.9c-0.1-3.3-0.3-6.7-0.3-10.2c-0.3,0.8-1,1.2-2.4,1.2c-1.5,2.8-3.8,6.2-6.5,9H262.8z M271.6,5.1
		c15.5,5.2,8.2,16.1,2.6,10.9c-0.2-3.5-1.9-7.7-3.3-10.6L271.6,5.1z"/>
	<path class="st0" d="M295.9,59.5c-2.6-1.5-3.5-3.5-3.5-5.4c0-3.1,2.2-5.5,5.5-5.5c1.7,0,3.3,0.5,4.8,1.9c0.8,1.9,1,3.4,1,5.6
		c0,9.4-7.3,16.3-14.2,18.9l-0.9-2c5.6-3,9-6.2,10.5-11.5L295.9,59.5z"/>
	<path class="st0" d="M57.6,96.9c0,0,5.6,4.3,9,7.3c-0.1,0.8-1,1.1-2,1.1H44.8c-2,3.5-4.4,7-7.2,10.3l3.1,1.1
		c-0.2,0.6-0.8,1.1-2.2,1.3v41.2c-0.1,0.5-3.7,1.9-6.8,1.9h-1.5v-37.8c-7.9,7.1-17.6,13.3-28,17.6l-0.4-0.7
		c13.8-8.8,26.5-22.6,31.6-34.8H3l-0.6-2h50.1L57.6,96.9z M40.8,119.7c30.5,4.9,27.6,23,18.3,19c-3.7-6.4-12.2-13.9-18.9-18.5
		L40.8,119.7z"/>
	<path class="st0" d="M98.5,109.1l7.2,6.2c-0.6,0.7-1.2,1-2.7,1.2c-0.9,8.7-2.4,16.9-5.8,24.1c10.8,7.3,7.1,16.9,0.5,13.4
		c-0.9-2.4-2.4-4.7-4.2-7.1c-4.3,5.8-10.5,10.6-19.7,14.1l-0.6-0.8c7.8-4.6,12.8-10.7,16.2-17.8c-2-1.9-4.2-3.8-6.2-5.3
		c-0.5,1.6-0.9,3.1-1.3,4.5c-1.5,1-4.6,1.2-7.8,0.2c2.2-6.2,4.9-16.8,7.1-26.5h-7.4l-0.6-1.9h8.4c1.6-6.9,2.8-13.2,3.3-17.1l10,2.3
		c-0.3,0.9-1,1.5-2.8,1.5c-0.6,3.1-1.7,7.9-2.9,13.3h5.4L98.5,109.1z M88.7,115.2c-1.5,6.6-3.3,13.9-5.1,19.9
		c2.9,0.7,5.5,1.5,7.7,2.4c2.4-6.7,3.4-14.3,4-22.3L88.7,115.2L88.7,115.2z M138.5,107.2c-0.4,0.6-1.5,1.2-2.8,1.5v47.2
		c-0.1,0.6-3.8,2.5-6.7,2.5h-1.2v-7.9h-12.5v6.2c0,1-2.9,2.8-6.5,2.8h-1.2v-57.6l8,3.5H127l3.8-4.3L138.5,107.2z M127.7,148.5v-41.2
		h-12.5v41.2H127.7z"/>
	<path class="st0" d="M203.2,111.7c0,0,4.2,3,6.9,5.2c-0.2,0.8-0.9,1.1-1.9,1.1h-11.3c-0.1,2.3-0.3,4.8-0.4,6.8
		c-0.5,0.3-1.1,0.6-1.7,0.8l6.5,4.9c-0.3,0.5-1,1-2.2,1.1v17.9c-0.1,0.5-4.1,1.9-6.7,1.9H191V150h-21.4l6.9,4.9
		c-0.6,0.7-1.9,1-4,0.4c-6,3.1-16.3,5.3-26,5.8l-0.3-1c8-2.1,16.3-6.3,21-10.2h-2.4c-0.6,0.8-3.8,2.3-6.7,2.3h-1.2v-26.9l0.7,0.3
		c0.4-2.4,0.8-5,1.2-7.7h-11.9l-0.6-1.9H159c0.5-3.6,0.9-7.1,1.1-9.6l7.9,3.1h21.3l2.9-3.6l6.4,4.6c0.3-1.6,0.7-3.5,1-5.2h-43.4
		c0.2,4-1.5,6.9-3.5,8.1c-2,1.1-5.1,0.6-5.8-1.9c-0.7-2.3,0.8-4.1,2.9-5.1c2.1-1,4.3-3.8,4.2-6.7h1c0.5,1.2,0.8,2.5,1,3.6h17.5V96
		l11,0.8c-0.1,1-0.7,1.7-2.6,1.9v4.6H199l4-4l6.9,6.7c-0.6,0.6-1.2,0.8-2.7,0.9c-2.1,1.9-5.6,4.4-8.5,5.8l-0.6-0.4
		c-0.4,0.2-0.8,0.3-1.3,0.4c0,0.9-0.1,2.1-0.1,3.3h2.5L203.2,111.7z M193,125.9c-1.2,0.1-2.5,0.1-4.1-0.1l0.1-1.2h-24l-0.1,0.8
		c-1.7,0.9-3.4,1.2-6.8,0.6l7.1,2.8h25.1L193,125.9z M190.9,135v-4.3h-26.2v4.3H190.9z M164.8,141.5H191V137h-26.2V141.5z
		 M190.9,148v-4.5h-26.2v4.5H190.9z M165.9,118c-0.2,1.5-0.4,3.1-0.6,4.6h8c0.1-1.3,0.3-2.9,0.5-4.6H165.9z M166.5,111.6
		c-0.1,1.3-0.3,2.8-0.4,4.5h7.8c0.1-1.6,0.3-3.1,0.3-4.5H166.5z M189.3,122.6c0.1-1.5,0.2-3.1,0.3-4.6h-8.7
		c-0.1,1.7-0.3,3.3-0.5,4.6H189.3z M181.4,111.6c-0.1,1.4-0.2,3-0.3,4.5h8.7c0.1-1.6,0.1-3.2,0.2-4.5H181.4z M181.5,151.3
		c37.9,0.1,24.7,13.9,17.6,8.7c-3.3-2.6-9.3-5.8-17.8-7.8L181.5,151.3z"/>
	<path class="st0" d="M232.2,140.1c2.9-1,5.9-2.2,8.8-3.3l0.3,0.7c-4.2,3.6-10.4,8.8-19.3,14.9c-0.2,0.9-0.8,1.7-1.7,2.1l-4-9.2
		c1.9-0.5,4.8-1.4,8.3-2.5v-23.2h-6.7l-0.6-1.9h7.3V97.6l10.2,1c-0.1,1-0.6,1.7-2.6,1.9v17.1h0.5l3.5-5.9c0,0,4,4.1,6,6.7
		c-0.2,0.8-0.9,1.1-1.7,1.1h-8.2v20.6L232.2,140.1L232.2,140.1z M279.2,150.1c2.6,0.9,3.4,1.9,3.4,3.3c0,3.9-3.7,5.3-19.2,5.3h-9.6
		c-8.5,0-11.5-1.5-11.5-8.3v-26.6l-6.8,2.5l-1.3-1.7l8.1-3v-19.8l10.3,1.1c-0.1,0.9-0.8,1.7-2.5,1.9v13.9l6.1-2.2V96.2l10,1
		c-0.1,1-0.6,1.7-2.5,1.9V114l5.7-2.1l0.7-0.2H270l4-3.9l7.1,5.8c-0.5,0.6-1.3,1-2.7,1.2c-0.2,18.4-0.8,23.5-3.7,26
		c-1.8,1.7-4.2,2.4-7.2,2.4c0-2.4-0.1-4.2-0.8-5.2c-0.6-1-1.4-1.6-2.9-2.1v8.8c0,0.8-3.3,2.3-6.1,2.3h-1.4v-28.2l-6.1,2.2v27.3
		c0,2.1,1,2.7,4.6,2.7h9.4c3.5,0,6.3-0.1,7.8-0.2c1.2-0.1,1.9-0.3,2.6-1c0.9-1.3,2.2-4.8,3.7-9.6h0.8L279.2,150.1z M263.7,116.1
		v18.7c1,0.1,2.7,0.1,3.6,0.1s1.3-0.1,1.7-0.6c1.1-1.2,1.5-6.5,1.7-20.9L263.7,116.1z"/>
	<path class="st0" d="M351,151.6c2.2,0.8,2.7,1.7,2.7,3.3c0,3.3-2.9,4.8-14.6,4.8H332c-6.9,0-8.5-1.4-8.5-6.7v-16.8h-5.3
		c-1.6,14.2-9.9,21.7-29,24.8l-0.3-0.8c14.4-5,19.4-12.3,20.3-24H308v1.4c0,0.9-3.4,2.8-6.8,2.8H300V97.2l8.6,3.5h25.2l3.9-4.3
		l7.9,6.1c-0.5,0.6-1.5,1.2-2.9,1.5v33.4c-0.1,0.6-4,2.2-6.8,2.2h-1.4v-3.5h-3.1v0.3V151c0,1,0.3,1.2,2.4,1.2h6.2
		c2.2,0,4.2,0,5.2-0.1s1.2-0.3,1.7-1c0.7-1.2,1.7-4.8,3.1-9.2h0.8L351,151.6z M308,102.6v9h26.4v-9H308z M334.4,113.6H308v9.3h26.4
		V113.6z M308,134.1h26.4v-9.3H308V134.1z"/>
	<path class="st0" d="M377.4,105.4c0,0,4,3.2,6.5,5.5c-0.2,0.8-0.9,1-1.9,1h-21l-0.6-1.9H374L377.4,105.4z M375.5,114.5
		c0,0,3.7,3.1,6,5.2c-0.1,0.8-0.8,1.1-1.8,1.1h-16.5l-0.6-2h9.6L375.5,114.5z M375.5,123.6c0,0,3.7,3,6,5.1c-0.1,0.7-0.8,1-1.8,1
		h-16.5l-0.6-1.9h9.6L375.5,123.6z M376.6,133.2l6.7,5.1c-0.3,0.5-1.2,1-2.4,1.2V156c-0.1,0.6-3.5,2.2-5.8,2.2H374v-3.6h-4.4v4.4
		c0,0.7-2.9,2.2-5.8,2.2h-1v-27.6l7.1,3h3.5L376.6,133.2z M363.4,103.2l-0.6-2h8.8l3.5-4.5c0,0,4,3.1,6.3,5.4
		c-0.2,0.8-0.9,1.1-1.9,1.1H363.4z M374,152.6v-14h-4.4v14H374z M426.3,128.5c-0.3,0.8-0.9,1.2-2.7,1.1c-1.6,4.5-3.9,9.1-6.9,13.4
		c0.8,2.3,1.9,4.3,3.1,6c0.7,1.2,1,1.1,1.6-0.2c0.9-1.8,2.3-5.1,3.3-8l0.8,0.1l-1.5,11.9c1.7,4.2,2.2,6.7,1,7.6
		c-3.4,2.4-8.1-1-10.1-4.1c-1.4-2.1-2.6-4.4-3.5-6.7c-4.3,4.4-9.7,8.2-16.4,10.8l-0.6-0.8c6.4-4,11.4-9.4,15.1-15.3
		c-1.8-6.3-2.8-13.5-3.3-21.4h-24.4l-0.6-1.9h14c0.9-3.7,1.5-9,1.7-12.7l8.7,2.4v-3.2c-0.2,0.1-0.3,0.1-0.6,0.1h-22.5l-0.6-1.9h7.6
		V97l9.6,0.8c-0.1,0.8-0.6,1.5-2.2,1.7v6.2h1.4l2.9-4.3c0,0,2.3,1.9,4.2,3.8c0-2.9,0-5.8,0-8.9l10.1,1.1c-0.1,0.9-0.8,1.7-2.5,2
		c-0.2,7.4-0.3,14.8,0,21.7h2l3.8-5.2c0,0,4.4,3.5,6.9,6c-0.2,0.8-0.8,1.1-1.8,1.1H413c0.2,4,0.6,7.9,1.1,11.4
		c1.2-2.8,2.1-5.8,2.7-8.7L426.3,128.5z M391.2,150.4v3.7c0,0.6-2.8,2.2-5.6,2.2h-1v-31.2l6.9,2.9h4.6l3.2-3.4l6.5,4.9
		c-0.3,0.5-1.2,1-2.4,1.2v21c-0.1,0.6-3.2,2.2-5.5,2.2h-1.1v-3.5L391.2,150.4L391.2,150.4z M385.5,108.2c13,5.8,6,15.3,1.2,10.3
		c0.2-3.4-0.9-7.3-2-10L385.5,108.2z M391.2,129.9v8.1h5.6v-8.1H391.2z M396.8,148.4v-8.5h-5.6v8.5H396.8z M406.2,120.9
		c-0.1-3.3-0.3-6.7-0.3-10.2c-0.3,0.8-1,1.2-2.4,1.2c-1.5,2.8-3.8,6.2-6.5,9H406.2z M415,101.1c15.5,5.2,8.2,16.1,2.6,10.9
		c-0.2-3.5-1.9-7.7-3.3-10.6L415,101.1z"/>
	<path class="st0" d="M455.5,130.8c0-3.2,2.5-5.8,5.8-5.8c3.2,0,5.7,2.6,5.7,5.8c0,3.1-2.5,5.7-5.7,5.7
		C458,136.5,455.5,133.8,455.5,130.8z"/>
	<path class="st0" d="M481,130.8c0-3.2,2.5-5.8,5.8-5.8c3.2,0,5.7,2.6,5.7,5.8c0,3.1-2.5,5.7-5.7,5.7
		C483.5,136.5,481,133.8,481,130.8z"/>
	<path class="st0" d="M506.6,130.8c0-3.2,2.5-5.8,5.8-5.8c3.2,0,5.7,2.6,5.7,5.8c0,3.1-2.5,5.7-5.7,5.7
		C509.1,136.5,506.6,133.8,506.6,130.8z"/>
</g>
</svg>
