<?xml version="1.0" encoding="utf-8"?>
<!-- Generator: Adobe Illustrator 23.1.1, SVG Export Plug-In . SVG Version: 6.00 Build 0)  -->
<svg version="1.1" id="圖層_1" xmlns="http://www.w3.org/2000/svg" xmlns:xlink="http://www.w3.org/1999/xlink" x="0px" y="0px"
	 viewBox="0 0 320 100" style="enable-background:new 0 0 320 100;" xml:space="preserve">
<style type="text/css">
	.st0{fill:#FFFFFF;}
</style>
<g>
	<g>
		<g>
			<path class="st0" d="M37.3,11.2c-0.3,0.3-0.8,0.8-1.7,0.9v14c0,0.3-2.7,1.3-4.4,1.3h-0.9v-3.6h-9.5v14.8c0,0.6-2.3,1.8-4.3,1.8
				h-1V23.8H6v2.5C6,26.8,3.7,28,1.5,28H0.7V7.8L6.3,10h9.1V0.7l6.9,0.6c-0.1,0.6-0.4,1.1-1.6,1.2V10h9.2l2.4-2.6L37.3,11.2z
				 M15.4,22.5V11.2H5.9v11.3H15.4z M30.2,22.5V11.2h-9.5v11.3H30.2z"/>
			<path class="st0" d="M65.6,32.2c2.1-0.5,4.3-0.9,6.4-1.4l0.2,0.5c-3.5,1.9-8.5,4.5-15.6,7.6c-0.2,0.5-0.6,1-1.1,1.1l-2.1-5.3
				c0.6-0.1,1.4-0.3,2.4-0.4V19.2l4.7,0.4c0,0.4-0.3,0.7-1,0.8v13.2l1.8-0.4v-18h-1.1v0.6c0,0.3-1.4,1.2-3.5,1.2h-0.8V1.8l4.8,1.9
				h4.5l2.1-2.2l4.3,3.3c-0.3,0.3-0.8,0.6-1.6,0.8v9.7c-0.1,0.3-2.2,1.1-3.6,1.1h-0.7v5.7h0.6l2.1-3.3c0,0,2.4,2.3,3.8,3.8
				c-0.1,0.5-0.6,0.7-1.1,0.7h-5.3v8.9C65.8,32.2,65.6,32.2,65.6,32.2z M60.2,13.9h5.4v-9h-5.4C60.2,4.9,60.2,13.9,60.2,13.9z
				 M91.4,7.6c-0.3,0.5-0.8,0.6-1.7,0.7c-1.4,3-3.2,5.8-5.5,8.3c2.8,1.7,6.3,2.9,10.3,3.7l-0.1,0.4c-2,0.7-3,2.1-3.3,4.5
				c-1-0.4-1.9-0.8-2.8-1.2l2.8,2.1c-0.3,0.3-0.7,0.6-1.6,0.8v12.3c0,0.3-1.6,1.1-4.1,1.1h-0.9v-3H77v2c0,0.3-1.4,1.1-3.9,1.1h-0.8
				V24.5c-1.3,0.6-2.7,1-4.2,1.4l-0.3-0.6c4.7-2.2,8.7-5.3,11.7-9c-1.1-1.6-2-3.3-2.8-5.2c-2,2.2-4.2,4-6.6,5.4l-0.5-0.4
				c3.1-3.6,5.9-9.5,7.2-15.7l6.3,2c-0.2,0.6-0.7,0.9-1.7,0.8c-0.4,1-0.8,1.9-1.3,2.8h4.4l2.6-2.5L91.4,7.6z M86.4,23
				c-1.9-1.1-3.5-2.5-4.8-3.9c-2.2,1.9-4.8,3.6-7.8,4.9l3.7,1.4h6.9L86.4,23z M84.5,36.1v-9.5H77v9.5H84.5z M79.4,7.5
				c-0.6,1-1.2,2-2,2.8c1,1.5,2.2,2.8,3.6,4c1.5-2.2,2.7-4.5,3.5-6.9L79.4,7.5L79.4,7.5z"/>
			<path class="st0" d="M144.3,3.6c0,0,3.3,2.5,5.3,4.3c-0.1,0.5-0.6,0.7-1.2,0.7h-15.6l0.9,0.1c-0.1,0.6-0.3,0.9-1.4,1.1v4.8h7
				l2.2-2.6l5,3.7c-0.3,0.3-0.9,0.7-1.7,0.9v13c0,3.2-0.8,5.1-6.4,5.6c-0.1-1.6-0.3-2.7-0.9-3.4c-0.6-0.6-1.4-1.3-3.3-1.6v-0.6
				c0,0,3.6,0.2,4.6,0.2c0.7,0,0.9-0.3,0.9-0.8V15.7h-7.4v22.6c0,0.5-2.3,1.7-4.2,1.7h-1V15.7h-7.4v17.8c0,0.5-2.2,1.7-4.3,1.7h-0.7
				V12.4l5.3,2.2h7v-6h-16.8L110,7.3h17.1V0.6l6.8,0.5c-0.1,0.6-0.4,1-1.5,1.2v5h9L144.3,3.6z"/>
			<path class="st0" d="M202.1,11.7c-0.8,6.6-2.5,12.4-5.9,17.2c2.6,2.9,5.9,5.3,9.8,7.1l-0.1,0.4c-2.4,0.5-3.8,1.8-4.4,4.1
				c-3.4-2.2-5.9-5.1-7.9-8.4c-3.6,3.6-8.4,6.5-15.1,8.5l-0.3-0.5c6.3-3.1,10.6-7.1,13.5-11.7c-1.5-3.6-2.6-7.7-3.3-12.2
				c-1.4,2-2.9,3.6-4.7,5.1l-0.5-0.3c0.4-0.8,0.8-1.7,1.2-2.6h-5v11.7c2.5-0.6,5.2-1.2,7.8-1.9l0.1,0.5c-3.9,2.2-9.8,5.1-18.5,8.8
				c-0.2,0.6-0.6,1-1.1,1.1l-2.6-5.5c0.7-0.1,1.6-0.3,2.6-0.5V12.1l5.3,0.5c-0.1,0.5-0.4,0.8-1.2,1v18l2.9-0.6V6.3h-8.4L166,5.1h14
				l2.6-3.4c0,0,2.9,2.3,4.7,3.9c-0.1,0.5-0.6,0.7-1.1,0.7h-6.7V17h0.6l2.3-3.5c0,0,1.5,1.4,2.9,2.7c1.7-4.5,3-10,3.6-15.5l7,1.6
				c-0.2,0.6-0.7,0.9-1.7,1c-0.7,2.6-1.6,5-2.6,7.2h7l2.6-3.4c0,0,2.9,2.4,4.7,4c-0.1,0.5-0.6,0.7-1.2,0.7h-2.6V11.7z M191.1,11.7
				c-0.6,1.1-1.2,2.2-1.9,3.3c1,3.8,2.3,7.2,4.2,10.1c1.8-4.1,2.8-8.6,3.2-13.4C196.6,11.7,191.1,11.7,191.1,11.7z"/>
		</g>
		<g>
			<path class="st0" d="M37.2,53.9c-1,3.1-2.6,5.8-4.9,8c2.2,1.3,5,2.2,8.5,2.8l-0.1,0.5c-1.7,0.6-2.5,2-2.8,4
				c-3.6-1.1-6.2-2.9-8.1-5.2c-2.5,1.7-5.6,3.1-9.2,4.1l-0.3-0.6c3.3-1.6,5.9-3.5,7.9-5.8c-1.1-2-2-4.2-2.6-6.7
				c-0.9,0.8-1.9,1.5-2.9,2.1c0.6,0.5,1.4,1.2,2,1.8c-0.1,0.5-0.5,0.7-1,0.7h-4.2c-0.1,1.2-0.3,2.3-0.4,3.2l0,0l1.7-2.3
				c0,0,2,1.6,3.2,2.8c-0.1,0.5-0.5,0.7-1.1,0.7h-4.1c-0.3,1.4-0.8,2.3-1.3,2.9l4,2.3c-0.2,0.3-0.6,0.4-1.3,0.2
				c-1.1,0.6-2.8,1.3-4.5,1.9c1.5,1.9,0.3,4.2-2.2,3.7c-1.5-1.8-4.7-4.1-7-5.2l0.3-0.4c3.4-0.5,5.8-0.1,7.3,0.6
				c0.4-0.6,0.8-1.3,1.2-1.9c-0.7,0.2-1.6,0.2-2.5,0.2c0-0.9-0.1-1.4-0.6-1.8c-0.5-0.5-1.3-0.8-2.4-1v-0.6c1,0.1,2.6,0.2,3.3,0.2
				c0.6,0,0.9-0.1,1.2-0.3c0.2-0.1,0.3-0.4,0.5-0.8H6.5c-0.1,0.7-0.3,1.4-0.4,2c-1,0.5-2,0.6-3.9,0.1c0.5-1.9,0.9-4.2,1.4-6.4H1
				l-0.3-1.2H4c0.3-1.5,0.6-2.9,0.8-4.1c-1.1,0.7-2.1,1.3-3.2,1.8l-0.5-0.5c1.7-2,3.5-5.3,4.6-8.7l5.6,1.8c-0.2,0.5-0.7,0.9-1.7,0.8
				c-0.3,0.4-0.7,0.8-1,1.3h8.2l2.2-2.8c0,0,2.5,2,4,3.4c-0.1,0.5-0.5,0.7-1.1,0.7H7.5c-0.3,0.3-0.7,0.6-1,0.9l2.8,1.1h6.6l2-2
				l3.7,3c-0.3,0.3-0.8,0.6-1.7,0.7c0,0.9-0.1,1.8-0.2,2.6h0.1l1.8-2.2l0.6,0.5c1.5-2.3,2.8-5.9,3.5-9.6l5.6,1.8
				c-0.2,0.5-0.7,0.8-1.7,0.8c-0.6,1.1-1.2,2.1-1.9,3h6.2l2.3-3c0,0,2.6,2.1,4.2,3.6c-0.1,0.5-0.6,0.7-1.1,0.7h-2.1L37.2,53.9
				L37.2,53.9z M1.2,85.7C5.1,84,9.7,81,12,78.7l4.5,3.4c-0.3,0.4-0.7,0.6-1.5,0.3c-3.2,1.7-8.6,3.3-13.4,3.9L1.2,85.7z M28,72.4
				c12.8-0.2,11.6,8.6,7,6.9c-0.6-0.9-1.4-1.9-2.4-2.8c-2.8,0.3-6.1,0.7-10,1.1v8.3c0,0.2-1.5,0.9-4,0.9h-0.9V78
				c-3.8,0.3-8.1,0.8-12.8,1.2C4.6,79.7,4.2,80,3.7,80l-2.3-4.6c3.1,0.1,8.3,0,14.6,0c3.4-2.5,7-5.6,9-7.8l4.8,2.8
				c-0.3,0.4-0.6,0.6-1.6,0.4c-2.1,1.4-5.5,3.1-8.9,4.6c3.7,0,7.7-0.1,11.9-0.1c-1.2-1-2.5-1.9-3.6-2.5L28,72.4z M7.5,59.6
				c-0.2,1.1-0.4,2.2-0.6,3.2h2.4c0.2-0.9,0.4-2,0.6-3.2H7.5z M8.3,55.3c-0.1,0.9-0.3,2-0.6,3.1H10c0.2-1.1,0.3-2.2,0.5-3.1H8.3z
				 M15.3,62.8c0.2-0.8,0.4-1.9,0.5-3.2h-2.6c-0.2,1.1-0.4,2.2-0.6,3.2H15.3z M13.9,55.3c-0.1,0.9-0.3,2-0.5,3.1h2.5
				c0.1-0.9,0.2-2,0.2-3.1H13.9z M24.7,79.7c15.4-1,13.7,8,9.4,6.6c-1.4-1.7-5-4.3-9.5-6.1L24.7,79.7z M26.7,53.9
				c-0.2,0.2-0.3,0.4-0.5,0.6c0.8,2.1,1.9,3.9,3.4,5.3c1.2-1.8,2-3.8,2.5-5.9C32.1,53.9,26.7,53.9,26.7,53.9z"/>
			<path class="st0" d="M88,66.2v6h1l2.3-2.9c0,0,2.5,2,4.2,3.5c-0.1,0.5-0.6,0.7-1.1,0.7H78.8v5.1h9.5l2.6-3.2c0,0,3,2.2,4.8,3.7
				c-0.1,0.5-0.6,0.7-1.2,0.7H78.8v5.9c0,0.3-1.5,1.2-4,1.2h-0.9v-7.1H57.8l-0.3-1.2H74v-5.2H59l-0.3-1.2h6.1v-6h-7.7L56.8,65h8.1
				v-5.8h-5.3L59.3,58h28.8l2.4-2.9c0,0,2.7,2,4.3,3.4c-0.1,0.5-0.6,0.7-1.1,0.7H88V65h1.5l2.5-3.1c0,0,2.8,2.1,4.5,3.6
				c-0.1,0.5-0.6,0.7-1.1,0.7H88z M56.9,53.2L56.6,52h11v-5l6.3,0.6c-0.1,0.6-0.4,1-1.5,1.1V52H80v-5l6.4,0.5c0,0.6-0.4,1-1.5,1.1
				v3.3h4.2l2.5-3.3c0,0,2.8,2.3,4.5,3.9C96,53,95.5,53.2,95,53.2H85V56c0,0.4-1.9,1-4.1,1h-0.8v-3.8h-7.6v3c0,0.4-1.9,1.1-4,1.1
				h-0.8v-4.1H56.9z M69.4,65h4.4v-5.8h-4.4V65z M73.8,72.2v-6h-4.4v6H73.8z M78.7,59.2V65h4.5v-5.8H78.7z M83.2,66.2h-4.5v6h4.5
				V66.2z"/>
			<path class="st0" d="M123.3,63.7c9.8,3.1,5.7,9.9,2.2,6.9c-0.2-2-1.3-4.2-2.2-5.9v20.7c0,0.5-2,1.4-3.9,1.4h-1V69.5
				c-1.7,2.7-3.8,5.2-6.2,7.4l-0.6-0.5c3.1-4.8,5.1-11.4,6.2-17.6h-4.9l-0.3-1.2h5.8V47.1l6.4,0.6c-0.1,0.6-0.4,1.1-1.6,1.2v8.6h0.5
				l2.2-3.3c0,0,2.4,2.3,3.7,3.8c-0.1,0.5-0.5,0.7-1.1,0.7h-5.3L123.3,63.7L123.3,63.7z M152.4,70.3c-0.3,0.5-0.8,0.6-1.9,0.5
				c-1.8,2.6-3.7,4.7-5.7,6.7c11.2,3.1,7.6,11.7,3,8.7c-0.6-2.6-2.4-5.5-4.2-7.6c-5,4.2-10.8,6.8-17.8,8.4l-0.3-0.6
				c8.8-3.9,15.9-9.2,20.7-19.2L152.4,70.3z M127.3,77c7-4.1,12.4-9.9,16.5-18.2l5.9,3.1c-0.3,0.5-0.8,0.7-1.7,0.5
				c-5.3,7.5-12,12.2-20.3,15.2L127.3,77z M148,51c0,0,2.9,2.4,4.6,4c-0.1,0.5-0.6,0.7-1.1,0.7h-13.6l4.7,1.7
				c-0.2,0.5-0.8,0.8-1.7,0.8c-1.7,1.8-3.6,3.4-5.6,4.6c3.7,2.9,1.3,7.1-2,5.3c-1-2.6-3.5-5.7-5.7-7.5l0.3-0.3
				c2.5,0.3,4.5,0.8,5.9,1.5c0.8-1.7,1.6-4,2.2-6.1h-7.9l-0.3-1.2h9.4v-7.1l6.2,0.5c-0.1,0.6-0.4,0.9-1.4,1.1v5.5h3.4L148,51z"/>
			<path class="st0" d="M174.3,60.2c3.1,7.6,1.4,12.7-0.9,15.1c-1.5,1.7-3.9,1.7-5,0.2c-0.9-1.4-0.3-2.8,0.9-3.9
				c2.3-1.7,4.6-6.1,4.4-11.3L174.3,60.2z M185.8,57.2c-0.1,0.6-0.5,1-1.5,1.1V79c0,1,0.5,1.3,2.2,1.3h4.8c1.7,0,3.2,0,3.9-0.1
				c0.7,0,1-0.2,1.4-0.7c0.6-0.9,1.3-3.3,2.2-6.5h0.5l0.1,6.8c1.5,0.6,2,1.2,2,2.2c0,2.3-2.1,3.4-10.5,3.4h-5.2
				c-4.8,0-6.3-0.9-6.3-4.8v-24L185.8,57.2z M189.6,57.8c-1.1-2.5-4.4-6.6-9.7-9.5l0.2-0.5C199.5,49,194.9,60.9,189.6,57.8z
				 M202.5,74.2c0.1-3.9-0.9-9.9-4.8-14.1l0.3-0.3C214.6,67.1,206.7,79.9,202.5,74.2z"/>
		</g>
	</g>
</g>
</svg>
