<?xml version="1.0" encoding="utf-8"?>
<!-- Generator: Adobe Illustrator 23.1.1, SVG Export Plug-In . SVG Version: 6.00 Build 0)  -->
<svg version="1.1" id="圖層_1" xmlns="http://www.w3.org/2000/svg" xmlns:xlink="http://www.w3.org/1999/xlink" x="0px" y="0px"
	 viewBox="0 0 21 16" style="enable-background:new 0 0 21 16;" xml:space="preserve">
<style type="text/css">
	.st0{fill:#FFFFFF;}
	.st1{fill:#009EE7;}
	.st2{fill:#A7CB06;}
</style>
<g id="XMLID_1_">
	<path id="XMLID_12_" class="st0" d="M9.4,11.3c0,0,0.1,0.4,0,0.9c-0.1,0.4-1.2,1.3-1.2,1.3l-0.1,1.2l1.9,0.4l2.8-0.8l-0.6-1.6
		l-1-0.5c0,0-0.1-0.7,0.1-1.1c0.2-0.3,2.4-1.5,2.4-1.5l2.5-1.9l-0.4-1.7l-2-1.2l-1.7-1.5L9.3,2.3L6.9,3.8L4.7,7l3.8,3.9L9.4,11.3z"
		/>
	<g id="XMLID_2_">
		<path id="XMLID_4_" class="st1" d="M18.3,4.6C17,4.5,15.5,4.4,14.2,4c-2.9-0.9-3-1.4-5.4-2.6C7.7,0.8,6.8,0.1,5.5,0.1
			C3,0.1,1,2,1,4.5c0,0-0.2,6.6,8.4,6.9c0,0,0,0,0,0c-0.1-0.3-0.2-0.7-0.4-1c0,0,0.8,0.3,1.3-0.6c0,0,0.6,0.4,1.2,0.1
			c0.6-0.3,1.3-0.8,1.3-0.8s-1.2,1-1.6,2c2.2-0.3,5.8-1.1,7.9-2.9c0.5-0.4,0.9-1,0.9-1.7C20.1,5.5,19.3,4.6,18.3,4.6z M7,8.5
			C6.3,7.9,5.9,7.3,5.8,6.9c0.5,0.1,1.1,0.4,1.8,1C8.2,8.4,8.6,9,8.7,9.5C8.3,9.4,7.6,9.1,7,8.5z M8.9,8.2C8.5,8,8.2,7.5,7.8,6.8
			C7.5,6.2,7.4,5.6,7.4,5.2c0.3,0.2,0.7,0.7,1,1.3C8.8,7.1,8.9,7.8,8.9,8.2z M10.3,9.5C9.8,8.9,9.3,7.7,9,6.3
			C8.8,4.8,8.9,3.5,9.2,2.8c0.6,0.6,1.1,1.8,1.3,3.2C10.7,7.4,10.7,8.7,10.3,9.5z M11.2,5.2c0.2-0.7,0.4-1.3,0.7-1.5
			c0.1,0.4,0.1,1,0,1.7c-0.2,0.7-0.4,1.3-0.7,1.5C11,6.5,11,5.9,11.2,5.2z M12.8,7.5c-0.4,0.9-1,1.7-1.5,2c-0.1-0.6,0-1.5,0.4-2.5
			c0.4-0.9,1-1.7,1.5-2C13.3,5.6,13.2,6.5,12.8,7.5z M14.5,8.3C14,8.7,13.4,9,13,9c0.1-0.4,0.4-0.9,0.8-1.3c0.5-0.4,1-0.6,1.4-0.6
			C15.3,7.4,14.9,7.9,14.5,8.3z"/>
		<path id="XMLID_3_" class="st2" d="M11.2,12.2c0.2,1,0.9,1.4,0.9,1.4s-1.2-0.4-1.5,0.3c0,0-0.9-0.5-2.2,0.6c0,0,0.9-1,1.1-2.3
			c-3,0.1-5.4,0.9-5.4,1.8c0,1,2.9,1.9,6.4,1.9c3.6,0,6.4-0.8,6.4-1.9C17,13.1,14.4,12.3,11.2,12.2z"/>
	</g>
</g>
</svg>
